G04 #@! TF.GenerationSoftware,KiCad,Pcbnew,6.0.2-378541a8eb~116~ubuntu20.04.1*
G04 #@! TF.CreationDate,2022-04-18T14:06:08-07:00*
G04 #@! TF.ProjectId,trx_mobo_concept_2,7472785f-6d6f-4626-9f5f-636f6e636570,rev?*
G04 #@! TF.SameCoordinates,Original*
G04 #@! TF.FileFunction,Paste,Bot*
G04 #@! TF.FilePolarity,Positive*
%FSLAX46Y46*%
G04 Gerber Fmt 4.6, Leading zero omitted, Abs format (unit mm)*
G04 Created by KiCad (PCBNEW 6.0.2-378541a8eb~116~ubuntu20.04.1) date 2022-04-18 14:06:08*
%MOMM*%
%LPD*%
G01*
G04 APERTURE LIST*
G04 Aperture macros list*
%AMRoundRect*
0 Rectangle with rounded corners*
0 $1 Rounding radius*
0 $2 $3 $4 $5 $6 $7 $8 $9 X,Y pos of 4 corners*
0 Add a 4 corners polygon primitive as box body*
4,1,4,$2,$3,$4,$5,$6,$7,$8,$9,$2,$3,0*
0 Add four circle primitives for the rounded corners*
1,1,$1+$1,$2,$3*
1,1,$1+$1,$4,$5*
1,1,$1+$1,$6,$7*
1,1,$1+$1,$8,$9*
0 Add four rect primitives between the rounded corners*
20,1,$1+$1,$2,$3,$4,$5,0*
20,1,$1+$1,$4,$5,$6,$7,0*
20,1,$1+$1,$6,$7,$8,$9,0*
20,1,$1+$1,$8,$9,$2,$3,0*%
G04 Aperture macros list end*
%ADD10RoundRect,0.250000X0.337500X0.475000X-0.337500X0.475000X-0.337500X-0.475000X0.337500X-0.475000X0*%
%ADD11RoundRect,0.250000X-0.337500X-0.475000X0.337500X-0.475000X0.337500X0.475000X-0.337500X0.475000X0*%
%ADD12RoundRect,0.250000X0.350000X0.450000X-0.350000X0.450000X-0.350000X-0.450000X0.350000X-0.450000X0*%
%ADD13RoundRect,0.250000X-0.475000X0.337500X-0.475000X-0.337500X0.475000X-0.337500X0.475000X0.337500X0*%
%ADD14RoundRect,0.250000X0.475000X-0.337500X0.475000X0.337500X-0.475000X0.337500X-0.475000X-0.337500X0*%
%ADD15RoundRect,0.250000X0.325000X0.450000X-0.325000X0.450000X-0.325000X-0.450000X0.325000X-0.450000X0*%
%ADD16RoundRect,0.250000X0.350000X-0.275000X0.350000X0.275000X-0.350000X0.275000X-0.350000X-0.275000X0*%
%ADD17RoundRect,0.250000X-0.350000X0.275000X-0.350000X-0.275000X0.350000X-0.275000X0.350000X0.275000X0*%
%ADD18RoundRect,0.150000X-0.150000X0.587500X-0.150000X-0.587500X0.150000X-0.587500X0.150000X0.587500X0*%
%ADD19RoundRect,0.150000X0.587500X0.150000X-0.587500X0.150000X-0.587500X-0.150000X0.587500X-0.150000X0*%
%ADD20RoundRect,0.250000X-0.325000X-0.450000X0.325000X-0.450000X0.325000X0.450000X-0.325000X0.450000X0*%
%ADD21RoundRect,0.250000X0.450000X-0.325000X0.450000X0.325000X-0.450000X0.325000X-0.450000X-0.325000X0*%
%ADD22RoundRect,0.250000X-0.450000X0.325000X-0.450000X-0.325000X0.450000X-0.325000X0.450000X0.325000X0*%
%ADD23R,1.000000X0.700000*%
%ADD24R,1.060000X0.650000*%
%ADD25R,2.540000X1.650000*%
%ADD26RoundRect,0.150000X0.150000X-0.587500X0.150000X0.587500X-0.150000X0.587500X-0.150000X-0.587500X0*%
%ADD27RoundRect,0.250000X0.450000X-0.350000X0.450000X0.350000X-0.450000X0.350000X-0.450000X-0.350000X0*%
%ADD28RoundRect,0.250000X-0.350000X-0.450000X0.350000X-0.450000X0.350000X0.450000X-0.350000X0.450000X0*%
G04 APERTURE END LIST*
D10*
X54475000Y-61200000D03*
X52400000Y-61200000D03*
D11*
X86062500Y-74200000D03*
X88137500Y-74200000D03*
D12*
X59300000Y-66000000D03*
X57300000Y-66000000D03*
D10*
X68037500Y-116000000D03*
X65962500Y-116000000D03*
X237537500Y-126000000D03*
X235462500Y-126000000D03*
D13*
X67000000Y-57962500D03*
X67000000Y-60037500D03*
D10*
X237537500Y-129500000D03*
X235462500Y-129500000D03*
D13*
X241000000Y-134962500D03*
X241000000Y-137037500D03*
X234000000Y-134962500D03*
X234000000Y-137037500D03*
X214500000Y-119962500D03*
X214500000Y-122037500D03*
D10*
X60037500Y-115000000D03*
X57962500Y-115000000D03*
D11*
X62962500Y-126000000D03*
X65037500Y-126000000D03*
D10*
X60037500Y-119000000D03*
X57962500Y-119000000D03*
D11*
X62962500Y-123000000D03*
X65037500Y-123000000D03*
D10*
X54037500Y-103000000D03*
X51962500Y-103000000D03*
X54037500Y-112000000D03*
X51962500Y-112000000D03*
X54037500Y-108000000D03*
X51962500Y-108000000D03*
X58037500Y-136000000D03*
X55962500Y-136000000D03*
X64037500Y-141000000D03*
X61962500Y-141000000D03*
X60037500Y-123000000D03*
X57962500Y-123000000D03*
X60037500Y-126000000D03*
X57962500Y-126000000D03*
D11*
X72962500Y-145000000D03*
X75037500Y-145000000D03*
X72962500Y-141000000D03*
X75037500Y-141000000D03*
X77962500Y-145000000D03*
X80037500Y-145000000D03*
X77962500Y-141000000D03*
X80037500Y-141000000D03*
D14*
X100000000Y-73037500D03*
X100000000Y-70962500D03*
D11*
X134462500Y-136000000D03*
X136537500Y-136000000D03*
D14*
X108000000Y-136037500D03*
X108000000Y-133962500D03*
X135500000Y-127037500D03*
X135500000Y-124962500D03*
D11*
X215962500Y-96000000D03*
X218037500Y-96000000D03*
X148062500Y-113600000D03*
X150137500Y-113600000D03*
D13*
X163000000Y-122962500D03*
X163000000Y-125037500D03*
D15*
X71025000Y-66000000D03*
X68975000Y-66000000D03*
D13*
X142500000Y-105962500D03*
X142500000Y-108037500D03*
D10*
X77037500Y-57000000D03*
X74962500Y-57000000D03*
X69037500Y-79000000D03*
X66962500Y-79000000D03*
D14*
X62000000Y-80037500D03*
X62000000Y-77962500D03*
D11*
X56962500Y-83000000D03*
X59037500Y-83000000D03*
X51962500Y-83000000D03*
X54037500Y-83000000D03*
D10*
X57037500Y-80000000D03*
X54962500Y-80000000D03*
D14*
X74000000Y-75037500D03*
X74000000Y-72962500D03*
X123750000Y-70825000D03*
X123750000Y-68750000D03*
D13*
X153500000Y-56962500D03*
X153500000Y-59037500D03*
D14*
X168500000Y-77037500D03*
X168500000Y-74962500D03*
D11*
X161362500Y-80300000D03*
X163437500Y-80300000D03*
D15*
X74025000Y-79000000D03*
X71975000Y-79000000D03*
D11*
X182962500Y-81000000D03*
X185037500Y-81000000D03*
D13*
X153000000Y-77962500D03*
X153000000Y-80037500D03*
D14*
X151500000Y-72037500D03*
X151500000Y-69962500D03*
D13*
X180000000Y-83962500D03*
X180000000Y-86037500D03*
D14*
X180000000Y-78037500D03*
X180000000Y-75962500D03*
D11*
X192862500Y-54300000D03*
X194937500Y-54300000D03*
X197462500Y-70500000D03*
X199537500Y-70500000D03*
D10*
X195037500Y-64000000D03*
X192962500Y-64000000D03*
D11*
X206462500Y-79500000D03*
X208537500Y-79500000D03*
D14*
X205500000Y-73037500D03*
X205500000Y-70962500D03*
D10*
X220537500Y-67000000D03*
X218462500Y-67000000D03*
X239000000Y-68500000D03*
X236925000Y-68500000D03*
D16*
X149000000Y-80150000D03*
X149000000Y-77850000D03*
D17*
X155000000Y-69850000D03*
X155000000Y-72150000D03*
D18*
X63050000Y-65062500D03*
X64950000Y-65062500D03*
X64000000Y-66937500D03*
D19*
X75937500Y-67050000D03*
X75937500Y-68950000D03*
X74062500Y-68000000D03*
D20*
X223475000Y-114500000D03*
X225525000Y-114500000D03*
X223475000Y-111500000D03*
X225525000Y-111500000D03*
D21*
X89500000Y-107550000D03*
X89500000Y-105500000D03*
X93000000Y-112525000D03*
X93000000Y-110475000D03*
D22*
X83000000Y-112975000D03*
X83000000Y-115025000D03*
D20*
X157975000Y-140000000D03*
X160025000Y-140000000D03*
X164975000Y-140000000D03*
X167025000Y-140000000D03*
D22*
X156500000Y-141975000D03*
X156500000Y-144025000D03*
D21*
X159000000Y-124025000D03*
X159000000Y-121975000D03*
D20*
X183475000Y-137000000D03*
X185525000Y-137000000D03*
D15*
X183025000Y-141500000D03*
X180975000Y-141500000D03*
D21*
X183500000Y-126025000D03*
X183500000Y-123975000D03*
D15*
X175525000Y-134000000D03*
X173475000Y-134000000D03*
D21*
X187000000Y-126025000D03*
X187000000Y-123975000D03*
D15*
X85025000Y-56000000D03*
X82975000Y-56000000D03*
X85025000Y-59000000D03*
X82975000Y-59000000D03*
X87025000Y-63000000D03*
X84975000Y-63000000D03*
D22*
X101000000Y-59975000D03*
X101000000Y-62025000D03*
D15*
X68025000Y-72000000D03*
X65975000Y-72000000D03*
D20*
X62975000Y-62000000D03*
X65025000Y-62000000D03*
X76975000Y-75000000D03*
X79025000Y-75000000D03*
D22*
X62000000Y-82975000D03*
X62000000Y-85025000D03*
X57000000Y-86975000D03*
X57000000Y-89025000D03*
D21*
X52000000Y-80025000D03*
X52000000Y-77975000D03*
X58000000Y-72025000D03*
X58000000Y-69975000D03*
D20*
X112975000Y-80000000D03*
X115025000Y-80000000D03*
D22*
X118000000Y-79975000D03*
X118000000Y-82025000D03*
D21*
X113000000Y-78025000D03*
X113000000Y-75975000D03*
X124750000Y-60275000D03*
X124750000Y-58225000D03*
D15*
X168025000Y-93000000D03*
X165975000Y-93000000D03*
D20*
X182975000Y-84000000D03*
X185025000Y-84000000D03*
X182975000Y-78000000D03*
X185025000Y-78000000D03*
D22*
X197000000Y-89475000D03*
X197000000Y-91525000D03*
D20*
X199475000Y-91500000D03*
X201525000Y-91500000D03*
X199475000Y-89000000D03*
X201525000Y-89000000D03*
D15*
X239250000Y-64250000D03*
X237200000Y-64250000D03*
D20*
X239225000Y-71000000D03*
X241275000Y-71000000D03*
D23*
X216800000Y-122950000D03*
X216800000Y-122000000D03*
X216800000Y-121050000D03*
X219200000Y-121050000D03*
X219200000Y-122000000D03*
X219200000Y-122950000D03*
D24*
X177900000Y-81950000D03*
X177900000Y-81000000D03*
X177900000Y-80050000D03*
X180100000Y-80050000D03*
X180100000Y-81000000D03*
X180100000Y-81950000D03*
D25*
X194460000Y-82540000D03*
X194460000Y-80000000D03*
X194460000Y-77460000D03*
X199540000Y-77460000D03*
X199540000Y-80000000D03*
X199540000Y-82540000D03*
D10*
X58037500Y-133000000D03*
X55962500Y-133000000D03*
D22*
X133500000Y-141975000D03*
X133500000Y-144025000D03*
X87000000Y-127975000D03*
X87000000Y-130025000D03*
D21*
X100500000Y-144025000D03*
X100500000Y-141975000D03*
D10*
X93037500Y-137000000D03*
X90962500Y-137000000D03*
D26*
X74950000Y-113437500D03*
X73050000Y-113437500D03*
X74000000Y-111562500D03*
D11*
X106962500Y-145000000D03*
X109037500Y-145000000D03*
D13*
X136000000Y-141962500D03*
X136000000Y-144037500D03*
X161000000Y-58962500D03*
X161000000Y-61037500D03*
D11*
X142862500Y-53700000D03*
X144937500Y-53700000D03*
X165962500Y-95200000D03*
X168037500Y-95200000D03*
D10*
X68037500Y-55000000D03*
X65962500Y-55000000D03*
D12*
X245250000Y-78750000D03*
X243250000Y-78750000D03*
D11*
X241962500Y-82000000D03*
X244037500Y-82000000D03*
D27*
X57250000Y-61750000D03*
X57250000Y-59750000D03*
D28*
X242000000Y-84500000D03*
X244000000Y-84500000D03*
D10*
X244575000Y-75250000D03*
X242500000Y-75250000D03*
M02*
