%FSLAX45Y45*%
G04 Gerber Fmt 4.5, Leading zero omitted, Abs format (unit mm)*
G04 Created by KiCad (PCBNEW 6.0.2-378541a8eb~116~ubuntu20.04.1) date 2022-04-18 14:06:03*
%MOMM*%
%LPD*%
G01*
G04 APERTURE LIST*
%TA.AperFunction,Profile*%
%ADD10C,0.050000*%
%TD*%
%ADD11C,0.200000*%
G04 APERTURE END LIST*
D10*
X5000000Y-15000000D02*
X5000000Y-5000000D01*
X25000000Y-5000000D02*
X25000000Y-15000000D01*
X25000000Y-15000000D02*
X5000000Y-15000000D01*
X5000000Y-5000000D02*
X25000000Y-5000000D01*
D11*
X5255119Y-15312976D02*
X5255119Y-15112976D01*
X5302738Y-15112976D01*
X5331310Y-15122500D01*
X5350357Y-15141548D01*
X5359881Y-15160595D01*
X5369405Y-15198690D01*
X5369405Y-15227262D01*
X5359881Y-15265357D01*
X5350357Y-15284405D01*
X5331310Y-15303452D01*
X5302738Y-15312976D01*
X5255119Y-15312976D01*
X5455119Y-15312976D02*
X5455119Y-15179643D01*
X5455119Y-15217738D02*
X5464643Y-15198690D01*
X5474167Y-15189167D01*
X5493214Y-15179643D01*
X5512262Y-15179643D01*
X5578929Y-15312976D02*
X5578929Y-15179643D01*
X5578929Y-15112976D02*
X5569405Y-15122500D01*
X5578929Y-15132024D01*
X5588452Y-15122500D01*
X5578929Y-15112976D01*
X5578929Y-15132024D01*
X5702738Y-15312976D02*
X5683690Y-15303452D01*
X5674167Y-15284405D01*
X5674167Y-15112976D01*
X5807500Y-15312976D02*
X5788452Y-15303452D01*
X5778928Y-15284405D01*
X5778928Y-15112976D01*
X6036071Y-15312976D02*
X6036071Y-15112976D01*
X6102738Y-15255833D01*
X6169405Y-15112976D01*
X6169405Y-15312976D01*
X6350357Y-15312976D02*
X6350357Y-15208214D01*
X6340833Y-15189167D01*
X6321786Y-15179643D01*
X6283690Y-15179643D01*
X6264643Y-15189167D01*
X6350357Y-15303452D02*
X6331309Y-15312976D01*
X6283690Y-15312976D01*
X6264643Y-15303452D01*
X6255119Y-15284405D01*
X6255119Y-15265357D01*
X6264643Y-15246309D01*
X6283690Y-15236786D01*
X6331309Y-15236786D01*
X6350357Y-15227262D01*
X6445595Y-15179643D02*
X6445595Y-15379643D01*
X6445595Y-15189167D02*
X6464643Y-15179643D01*
X6502738Y-15179643D01*
X6521786Y-15189167D01*
X6531309Y-15198690D01*
X6540833Y-15217738D01*
X6540833Y-15274881D01*
X6531309Y-15293928D01*
X6521786Y-15303452D01*
X6502738Y-15312976D01*
X6464643Y-15312976D01*
X6445595Y-15303452D01*
X6626548Y-15293928D02*
X6636071Y-15303452D01*
X6626548Y-15312976D01*
X6617024Y-15303452D01*
X6626548Y-15293928D01*
X6626548Y-15312976D01*
X6626548Y-15189167D02*
X6636071Y-15198690D01*
X6626548Y-15208214D01*
X6617024Y-15198690D01*
X6626548Y-15189167D01*
X6626548Y-15208214D01*
M02*
