%FSLAX45Y45*%
G04 Gerber Fmt 4.5, Leading zero omitted, Abs format (unit mm)*
G04 Created by KiCad (PCBNEW 6.0.2-378541a8eb~116~ubuntu20.04.1) date 2022-04-18 14:06:03*
%MOMM*%
%LPD*%
G01*
G04 APERTURE LIST*
%TA.AperFunction,Profile*%
%ADD10C,0.050000*%
%TD*%
%ADD11C,0.200000*%
%ADD12C,0.040000*%
%ADD13C,0.050000*%
%ADD14C,0.057500*%
%ADD15C,0.080000*%
%ADD16C,0.090000*%
%ADD17C,0.100000*%
%ADD18C,0.101600*%
%ADD19C,0.139700*%
%ADD20C,0.150000*%
%ADD21C,0.350000*%
G04 APERTURE END LIST*
D10*
X5000000Y-15000000D02*
X5000000Y-5000000D01*
X25000000Y-5000000D02*
X25000000Y-15000000D01*
X25000000Y-15000000D02*
X5000000Y-15000000D01*
X5000000Y-5000000D02*
X25000000Y-5000000D01*
D11*
D12*
X5190000Y-7080000D02*
X5230000Y-7120000D01*
X5230000Y-7080000D02*
X5190000Y-7120000D01*
X5250000Y-10590000D02*
X5290000Y-10630000D01*
X5290000Y-10590000D02*
X5250000Y-10630000D01*
X5260000Y-9200000D02*
X5300000Y-9240000D01*
X5300000Y-9200000D02*
X5260000Y-9240000D01*
X5310000Y-8590000D02*
X5350000Y-8630000D01*
X5350000Y-8590000D02*
X5310000Y-8630000D01*
X5405000Y-6455000D02*
X5445000Y-6495000D01*
X5445000Y-6455000D02*
X5405000Y-6495000D01*
X5560000Y-13790000D02*
X5600000Y-13830000D01*
X5600000Y-13790000D02*
X5560000Y-13830000D01*
X5670000Y-7390000D02*
X5710000Y-7430000D01*
X5710000Y-7390000D02*
X5670000Y-7430000D01*
X5705000Y-6305000D02*
X5745000Y-6345000D01*
X5745000Y-6305000D02*
X5705000Y-6345000D01*
X6030000Y-5205000D02*
X6070000Y-5245000D01*
X6070000Y-5205000D02*
X6030000Y-5245000D01*
X6030000Y-8430000D02*
X6070000Y-8470000D01*
X6070000Y-8430000D02*
X6030000Y-8470000D01*
X6105000Y-6455000D02*
X6145000Y-6495000D01*
X6145000Y-6455000D02*
X6105000Y-6495000D01*
X6130000Y-5130000D02*
X6170000Y-5170000D01*
X6170000Y-5130000D02*
X6130000Y-5170000D01*
X6180000Y-9230000D02*
X6220000Y-9270000D01*
X6220000Y-9230000D02*
X6180000Y-9270000D01*
X6300000Y-9900000D02*
X6340000Y-9940000D01*
X6340000Y-9900000D02*
X6300000Y-9940000D01*
X6350000Y-14490000D02*
X6390000Y-14530000D01*
X6390000Y-14490000D02*
X6350000Y-14530000D01*
X6380000Y-7120000D02*
X6420000Y-7160000D01*
X6420000Y-7120000D02*
X6380000Y-7160000D01*
X6440000Y-10960000D02*
X6480000Y-11000000D01*
X6480000Y-10960000D02*
X6440000Y-11000000D01*
X6473038Y-6361962D02*
X6513038Y-6401962D01*
X6513038Y-6361962D02*
X6473038Y-6401962D01*
X6510000Y-13100000D02*
X6550000Y-13140000D01*
X6550000Y-13100000D02*
X6510000Y-13140000D01*
X6540000Y-5780000D02*
X6580000Y-5820000D01*
X6580000Y-5780000D02*
X6540000Y-5820000D01*
X6540000Y-6900000D02*
X6580000Y-6940000D01*
X6580000Y-6900000D02*
X6540000Y-6940000D01*
X6570000Y-10300000D02*
X6610000Y-10340000D01*
X6610000Y-10300000D02*
X6570000Y-10340000D01*
X6570000Y-10950000D02*
X6610000Y-10990000D01*
X6610000Y-10950000D02*
X6570000Y-10990000D01*
X6710000Y-6740000D02*
X6750000Y-6780000D01*
X6750000Y-6740000D02*
X6710000Y-6780000D01*
X6780000Y-8280000D02*
X6820000Y-8320000D01*
X6820000Y-8280000D02*
X6780000Y-8320000D01*
X6880000Y-9210000D02*
X6920000Y-9250000D01*
X6920000Y-9210000D02*
X6880000Y-9250000D01*
X6880000Y-10300000D02*
X6920000Y-10340000D01*
X6920000Y-10300000D02*
X6880000Y-10340000D01*
X6880000Y-10610000D02*
X6920000Y-10650000D01*
X6920000Y-10610000D02*
X6880000Y-10650000D01*
X6930000Y-11130000D02*
X6970000Y-11170000D01*
X6970000Y-11130000D02*
X6930000Y-11170000D01*
X6990000Y-11380000D02*
X7030000Y-11420000D01*
X7030000Y-11380000D02*
X6990000Y-11420000D01*
X7080000Y-9980000D02*
X7120000Y-10020000D01*
X7120000Y-9980000D02*
X7080000Y-10020000D01*
X7200000Y-9200000D02*
X7240000Y-9240000D01*
X7240000Y-9200000D02*
X7200000Y-9240000D01*
X7220000Y-7480000D02*
X7260000Y-7520000D01*
X7260000Y-7480000D02*
X7220000Y-7520000D01*
X7340000Y-11980000D02*
X7380000Y-12020000D01*
X7380000Y-11980000D02*
X7340000Y-12020000D01*
X7370000Y-6880000D02*
X7410000Y-6920000D01*
X7410000Y-6880000D02*
X7370000Y-6920000D01*
X7379324Y-11519324D02*
X7419324Y-11559324D01*
X7419324Y-11519324D02*
X7379324Y-11559324D01*
X7450000Y-11590000D02*
X7490000Y-11630000D01*
X7490000Y-11590000D02*
X7450000Y-11630000D01*
X7450000Y-12120000D02*
X7490000Y-12160000D01*
X7490000Y-12120000D02*
X7450000Y-12160000D01*
X7540000Y-11680000D02*
X7580000Y-11720000D01*
X7580000Y-11680000D02*
X7540000Y-11720000D01*
X7577500Y-6347500D02*
X7617500Y-6387500D01*
X7617500Y-6347500D02*
X7577500Y-6387500D01*
X7580000Y-9980000D02*
X7620000Y-10020000D01*
X7620000Y-9980000D02*
X7580000Y-10020000D01*
X7780000Y-6420000D02*
X7820000Y-6460000D01*
X7820000Y-6420000D02*
X7780000Y-6460000D01*
X7890000Y-5220000D02*
X7930000Y-5260000D01*
X7930000Y-5220000D02*
X7890000Y-5260000D01*
X7890000Y-11980000D02*
X7930000Y-12020000D01*
X7930000Y-11980000D02*
X7890000Y-12020000D01*
X7890000Y-12160001D02*
X7930000Y-12200001D01*
X7930000Y-12160001D02*
X7890000Y-12200001D01*
X7960000Y-6880000D02*
X8000000Y-6920000D01*
X8000000Y-6880000D02*
X7960000Y-6920000D01*
X8030000Y-11990000D02*
X8070000Y-12030000D01*
X8070000Y-11990000D02*
X8030000Y-12030000D01*
X8050000Y-5370000D02*
X8090000Y-5410000D01*
X8090000Y-5370000D02*
X8050000Y-5410000D01*
X8080000Y-9980000D02*
X8120000Y-10020000D01*
X8120000Y-9980000D02*
X8080000Y-10020000D01*
X8110000Y-7480000D02*
X8150000Y-7520000D01*
X8150000Y-7480000D02*
X8110000Y-7520000D01*
X8150000Y-5880000D02*
X8190000Y-5920000D01*
X8190000Y-5880000D02*
X8150000Y-5920000D01*
X8189999Y-12430001D02*
X8229999Y-12470001D01*
X8229999Y-12430001D02*
X8189999Y-12470001D01*
X8190000Y-12130000D02*
X8230000Y-12170000D01*
X8230000Y-12130000D02*
X8190000Y-12170000D01*
X8210000Y-10360002D02*
X8250000Y-10400002D01*
X8250000Y-10360002D02*
X8210000Y-10400002D01*
X8210000Y-10720000D02*
X8250000Y-10760000D01*
X8250000Y-10720000D02*
X8210000Y-10760000D01*
X8220000Y-11130000D02*
X8260000Y-11170000D01*
X8260000Y-11130000D02*
X8220000Y-11170000D01*
X8280000Y-5130000D02*
X8320000Y-5170000D01*
X8320000Y-5130000D02*
X8280000Y-5170000D01*
X8310000Y-6620000D02*
X8350000Y-6660000D01*
X8350000Y-6620000D02*
X8310000Y-6660000D01*
X8350000Y-6280000D02*
X8390000Y-6320000D01*
X8390000Y-6280000D02*
X8350000Y-6320000D01*
X8460000Y-11580000D02*
X8500000Y-11620000D01*
X8500000Y-11580000D02*
X8460000Y-11620000D01*
X8470000Y-6940000D02*
X8510000Y-6980000D01*
X8510000Y-6940000D02*
X8470000Y-6980000D01*
X8580000Y-9980000D02*
X8620000Y-10020000D01*
X8620000Y-9980000D02*
X8580000Y-10020000D01*
X8590000Y-7540000D02*
X8630000Y-7580000D01*
X8630000Y-7540000D02*
X8590000Y-7580000D01*
X8630000Y-5880000D02*
X8670000Y-5920000D01*
X8670000Y-5880000D02*
X8630000Y-5920000D01*
X8680000Y-7940000D02*
X8720000Y-7980000D01*
X8720000Y-7940000D02*
X8680000Y-7980000D01*
X8710000Y-11090000D02*
X8750000Y-11130000D01*
X8750000Y-11090000D02*
X8710000Y-11130000D01*
X8763887Y-6411792D02*
X8803887Y-6451792D01*
X8803887Y-6411792D02*
X8763887Y-6451792D01*
X8880000Y-6140000D02*
X8920000Y-6180000D01*
X8920000Y-6140000D02*
X8880000Y-6180000D01*
X8930000Y-9720000D02*
X8970000Y-9760000D01*
X8970000Y-9720000D02*
X8930000Y-9760000D01*
X8950000Y-7580000D02*
X8990000Y-7620000D01*
X8990000Y-7580000D02*
X8950000Y-7620000D01*
X9010000Y-12410000D02*
X9050000Y-12450000D01*
X9050000Y-12410000D02*
X9010000Y-12450000D01*
X9030000Y-13280000D02*
X9070000Y-13320000D01*
X9070000Y-13280000D02*
X9030000Y-13320000D01*
X9080000Y-9980000D02*
X9120000Y-10020000D01*
X9120000Y-9980000D02*
X9080000Y-10020000D01*
X9110000Y-12370000D02*
X9150000Y-12410000D01*
X9150000Y-12370000D02*
X9110000Y-12410000D01*
X9190000Y-12940000D02*
X9230000Y-12980000D01*
X9230000Y-12940000D02*
X9190000Y-12980000D01*
X9250000Y-11702500D02*
X9290000Y-11742500D01*
X9290000Y-11702500D02*
X9250000Y-11742500D01*
X9280000Y-10780000D02*
X9320000Y-10820000D01*
X9320000Y-10780000D02*
X9280000Y-10820000D01*
X9370000Y-12140000D02*
X9410000Y-12180000D01*
X9410000Y-12140000D02*
X9370000Y-12180000D01*
X9485050Y-12605000D02*
X9525050Y-12645000D01*
X9525050Y-12605000D02*
X9485050Y-12645000D01*
X9520000Y-14520000D02*
X9560000Y-14560000D01*
X9560000Y-14520000D02*
X9520000Y-14560000D01*
X9520000Y-14760000D02*
X9560000Y-14800000D01*
X9560000Y-14760000D02*
X9520000Y-14800000D01*
X9577000Y-13463000D02*
X9617000Y-13503000D01*
X9617000Y-13463000D02*
X9577000Y-13503000D01*
X9580000Y-9980000D02*
X9620000Y-10020000D01*
X9620000Y-9980000D02*
X9580000Y-10020000D01*
X9700000Y-10450002D02*
X9740000Y-10490002D01*
X9740000Y-10450002D02*
X9700000Y-10490002D01*
X9700000Y-11460000D02*
X9740000Y-11500000D01*
X9740000Y-11460000D02*
X9700000Y-11500000D01*
X9700000Y-12450000D02*
X9740000Y-12490000D01*
X9740000Y-12450000D02*
X9700000Y-12490000D01*
X9780000Y-7680000D02*
X9820000Y-7720000D01*
X9820000Y-7680000D02*
X9780000Y-7720000D01*
X9830000Y-13320000D02*
X9870000Y-13360000D01*
X9870000Y-13320000D02*
X9830000Y-13360000D01*
X9880000Y-12780000D02*
X9920000Y-12820000D01*
X9920000Y-12780000D02*
X9880000Y-12820000D01*
X9890000Y-14380000D02*
X9930000Y-14420000D01*
X9930000Y-14380000D02*
X9890000Y-14420000D01*
X9980000Y-8010000D02*
X10020000Y-8050000D01*
X10020000Y-8010000D02*
X9980000Y-8050000D01*
X9980000Y-9720000D02*
X10020000Y-9760000D01*
X10020000Y-9720000D02*
X9980000Y-9760000D01*
X10030000Y-14030000D02*
X10070000Y-14070000D01*
X10070000Y-14030000D02*
X10030000Y-14070000D01*
X10050000Y-5850000D02*
X10090000Y-5890000D01*
X10090000Y-5850000D02*
X10050000Y-5890000D01*
X10080000Y-9980000D02*
X10120000Y-10020000D01*
X10120000Y-9980000D02*
X10080000Y-10020000D01*
X10080000Y-12950000D02*
X10120000Y-12990000D01*
X10120000Y-12950000D02*
X10080000Y-12990000D01*
X10150000Y-11730000D02*
X10190000Y-11770000D01*
X10190000Y-11730000D02*
X10150000Y-11770000D01*
X10400000Y-10630000D02*
X10440000Y-10670000D01*
X10440000Y-10630000D02*
X10400000Y-10670000D01*
X10470000Y-12340000D02*
X10510000Y-12380000D01*
X10510000Y-12340000D02*
X10470000Y-12380000D01*
X10480000Y-12680000D02*
X10520000Y-12720000D01*
X10520000Y-12680000D02*
X10480000Y-12720000D01*
X10480000Y-13930000D02*
X10520000Y-13970000D01*
X10520000Y-13930000D02*
X10480000Y-13970000D01*
X10580000Y-9980000D02*
X10620000Y-10020000D01*
X10620000Y-9980000D02*
X10580000Y-10020000D01*
X10700000Y-11120000D02*
X10740000Y-11160000D01*
X10740000Y-11120000D02*
X10700000Y-11160000D01*
X10700000Y-11490000D02*
X10740000Y-11530000D01*
X10740000Y-11490000D02*
X10700000Y-11530000D01*
X10780000Y-13730000D02*
X10820000Y-13770000D01*
X10820000Y-13730000D02*
X10780000Y-13770000D01*
X10790000Y-11280000D02*
X10830000Y-11320000D01*
X10830000Y-11280000D02*
X10790000Y-11320000D01*
X10830000Y-8630000D02*
X10870000Y-8670000D01*
X10870000Y-8630000D02*
X10830000Y-8670000D01*
X10880000Y-10360002D02*
X10920000Y-10400002D01*
X10920000Y-10360002D02*
X10880000Y-10400002D01*
X10880000Y-10510000D02*
X10920000Y-10550000D01*
X10920000Y-10510000D02*
X10880000Y-10550000D01*
X10950000Y-10777000D02*
X10990000Y-10817000D01*
X10990000Y-10777000D02*
X10950000Y-10817000D01*
X10980000Y-13730000D02*
X11020000Y-13770000D01*
X11020000Y-13730000D02*
X10980000Y-13770000D01*
X11040000Y-12850000D02*
X11080000Y-12890000D01*
X11080000Y-12850000D02*
X11040000Y-12890000D01*
X11070000Y-8630000D02*
X11110000Y-8670000D01*
X11110000Y-8630000D02*
X11070000Y-8670000D01*
X11080000Y-9980000D02*
X11120000Y-10020000D01*
X11120000Y-9980000D02*
X11080000Y-10020000D01*
X11130000Y-7380000D02*
X11170000Y-7420000D01*
X11170000Y-7380000D02*
X11130000Y-7420000D01*
X11130000Y-7990000D02*
X11170000Y-8030000D01*
X11170000Y-7990000D02*
X11130000Y-8030000D01*
X11140000Y-10910000D02*
X11180000Y-10950000D01*
X11180000Y-10910000D02*
X11140000Y-10950000D01*
X11140000Y-11160000D02*
X11180000Y-11200000D01*
X11180000Y-11160000D02*
X11140000Y-11200000D01*
X11170000Y-13050000D02*
X11210000Y-13090000D01*
X11210000Y-13050000D02*
X11170000Y-13090000D01*
X11250000Y-5880000D02*
X11290000Y-5920000D01*
X11290000Y-5880000D02*
X11250000Y-5920000D01*
X11250000Y-9380000D02*
X11290000Y-9420000D01*
X11290000Y-9380000D02*
X11250000Y-9420000D01*
X11260000Y-9720000D02*
X11300000Y-9760000D01*
X11300000Y-9720000D02*
X11260000Y-9760000D01*
X11260000Y-11280000D02*
X11300000Y-11320000D01*
X11300000Y-11280000D02*
X11260000Y-11320000D01*
X11330000Y-8520000D02*
X11370000Y-8560000D01*
X11370000Y-8520000D02*
X11330000Y-8560000D01*
X11350000Y-10430002D02*
X11390000Y-10470002D01*
X11390000Y-10430002D02*
X11350000Y-10470002D01*
X11350000Y-10790000D02*
X11390000Y-10830000D01*
X11390000Y-10790000D02*
X11350000Y-10830000D01*
X11380000Y-11840000D02*
X11420000Y-11880000D01*
X11420000Y-11840000D02*
X11380000Y-11880000D01*
X11430000Y-6230000D02*
X11470000Y-6270000D01*
X11470000Y-6230000D02*
X11430000Y-6270000D01*
X11530000Y-14840000D02*
X11570000Y-14880000D01*
X11570000Y-14840000D02*
X11530000Y-14880000D01*
X11580000Y-9980000D02*
X11620000Y-10020000D01*
X11620000Y-9980000D02*
X11580000Y-10020000D01*
X11580000Y-11280000D02*
X11620000Y-11320000D01*
X11620000Y-11280000D02*
X11580000Y-11320000D01*
X11580000Y-12720000D02*
X11620000Y-12760000D01*
X11620000Y-12720000D02*
X11580000Y-12760000D01*
X11750000Y-5880000D02*
X11790000Y-5920000D01*
X11790000Y-5880000D02*
X11750000Y-5920000D01*
X11800000Y-11360000D02*
X11840000Y-11400000D01*
X11840000Y-11360000D02*
X11800000Y-11400000D01*
X11990000Y-11780000D02*
X12030000Y-11820000D01*
X12030000Y-11780000D02*
X11990000Y-11820000D01*
X12080000Y-9980000D02*
X12120000Y-10020000D01*
X12120000Y-9980000D02*
X12080000Y-10020000D01*
X12090000Y-13490000D02*
X12130000Y-13530000D01*
X12130000Y-13490000D02*
X12090000Y-13530000D01*
X12150000Y-10620000D02*
X12190000Y-10660000D01*
X12190000Y-10620000D02*
X12150000Y-10660000D01*
X12305000Y-5805000D02*
X12345000Y-5845000D01*
X12345000Y-5805000D02*
X12305000Y-5845000D01*
X12580000Y-9980000D02*
X12620000Y-10020000D01*
X12620000Y-9980000D02*
X12580000Y-10020000D01*
X12610000Y-9380000D02*
X12650000Y-9420000D01*
X12650000Y-9380000D02*
X12610000Y-9420000D01*
X12960000Y-11760000D02*
X13000000Y-11800000D01*
X13000000Y-11760000D02*
X12960000Y-11800000D01*
X12980000Y-12410000D02*
X13020000Y-12450000D01*
X13020000Y-12410000D02*
X12980000Y-12450000D01*
X13060000Y-13290000D02*
X13100000Y-13330000D01*
X13100000Y-13290000D02*
X13060000Y-13330000D01*
X13080000Y-9980000D02*
X13120000Y-10020000D01*
X13120000Y-9980000D02*
X13080000Y-10020000D01*
X13100000Y-14759999D02*
X13140000Y-14799999D01*
X13140000Y-14759999D02*
X13100000Y-14799999D01*
X13110000Y-13770000D02*
X13150000Y-13810000D01*
X13150000Y-13770000D02*
X13110000Y-13810000D01*
X13300000Y-7880000D02*
X13340000Y-7920000D01*
X13340000Y-7880000D02*
X13300000Y-7920000D01*
X13330000Y-14600000D02*
X13370000Y-14640000D01*
X13370000Y-14600000D02*
X13330000Y-14640000D01*
X13380000Y-9720000D02*
X13420000Y-9760000D01*
X13420000Y-9720000D02*
X13380000Y-9760000D01*
X13380000Y-10480000D02*
X13420000Y-10520000D01*
X13420000Y-10480000D02*
X13380000Y-10520000D01*
X13430000Y-13770000D02*
X13470000Y-13810000D01*
X13470000Y-13770000D02*
X13430000Y-13810000D01*
X13530000Y-8880000D02*
X13570000Y-8920000D01*
X13570000Y-8880000D02*
X13530000Y-8920000D01*
X13530000Y-12950000D02*
X13570000Y-12990000D01*
X13570000Y-12950000D02*
X13530000Y-12990000D01*
X13580000Y-9980000D02*
X13620000Y-10020000D01*
X13620000Y-9980000D02*
X13580000Y-10020000D01*
X13710000Y-6480000D02*
X13750000Y-6520000D01*
X13750000Y-6480000D02*
X13710000Y-6520000D01*
X13860001Y-7730000D02*
X13900001Y-7770000D01*
X13900001Y-7730000D02*
X13860001Y-7770000D01*
X13930000Y-14120000D02*
X13970000Y-14160000D01*
X13970000Y-14120000D02*
X13930000Y-14160000D01*
X13950000Y-8600000D02*
X13990000Y-8640000D01*
X13990000Y-8600000D02*
X13950000Y-8640000D01*
X13950000Y-9510000D02*
X13990000Y-9550000D01*
X13990000Y-9510000D02*
X13950000Y-9550000D01*
X14080000Y-9980000D02*
X14120000Y-10020000D01*
X14120000Y-9980000D02*
X14080000Y-10020000D01*
X14230000Y-6880000D02*
X14270000Y-6920000D01*
X14270000Y-6880000D02*
X14230000Y-6920000D01*
X14330000Y-12780000D02*
X14370000Y-12820000D01*
X14370000Y-12780000D02*
X14330000Y-12820000D01*
X14340000Y-12430000D02*
X14380000Y-12470000D01*
X14380000Y-12430000D02*
X14340000Y-12470000D01*
X14370000Y-8380000D02*
X14410000Y-8420000D01*
X14410000Y-8380000D02*
X14370000Y-8420000D01*
X14380000Y-13720000D02*
X14420000Y-13760000D01*
X14420000Y-13720000D02*
X14380000Y-13760000D01*
X14490000Y-7980000D02*
X14530000Y-8020000D01*
X14530000Y-7980000D02*
X14490000Y-8020000D01*
X14560000Y-9590000D02*
X14600000Y-9630000D01*
X14600000Y-9590000D02*
X14560000Y-9630000D01*
X14580000Y-9980000D02*
X14620000Y-10020000D01*
X14620000Y-9980000D02*
X14580000Y-10020000D01*
X14700000Y-8280000D02*
X14740000Y-8320000D01*
X14740000Y-8280000D02*
X14700000Y-8320000D01*
X14830000Y-13630000D02*
X14870000Y-13670000D01*
X14870000Y-13630000D02*
X14830000Y-13670000D01*
X14880000Y-10440000D02*
X14920000Y-10480000D01*
X14920000Y-10440000D02*
X14880000Y-10480000D01*
X15080000Y-9980000D02*
X15120000Y-10020000D01*
X15120000Y-9980000D02*
X15080000Y-10020000D01*
X15080000Y-13100000D02*
X15120000Y-13140000D01*
X15120000Y-13100000D02*
X15080000Y-13140000D01*
X15080000Y-13630000D02*
X15120000Y-13670000D01*
X15120000Y-13630000D02*
X15080000Y-13670000D01*
X15130000Y-12700000D02*
X15170000Y-12740000D01*
X15170000Y-12700000D02*
X15130000Y-12740000D01*
X15150000Y-8980000D02*
X15190000Y-9020000D01*
X15190000Y-8980000D02*
X15150000Y-9020000D01*
X15330000Y-13520000D02*
X15370000Y-13560000D01*
X15370000Y-13520000D02*
X15330000Y-13560000D01*
X15340000Y-14050000D02*
X15380000Y-14090000D01*
X15380000Y-14050000D02*
X15340000Y-14090000D01*
X15349999Y-8480000D02*
X15389999Y-8520000D01*
X15389999Y-8480000D02*
X15349999Y-8520000D01*
X15470000Y-7390000D02*
X15510000Y-7430000D01*
X15510000Y-7390000D02*
X15470000Y-7430000D01*
X15470000Y-7790000D02*
X15510000Y-7830000D01*
X15510000Y-7790000D02*
X15470000Y-7830000D01*
X15580000Y-9980000D02*
X15620000Y-10020000D01*
X15620000Y-9980000D02*
X15580000Y-10020000D01*
X15610000Y-7330000D02*
X15650000Y-7370000D01*
X15650000Y-7330000D02*
X15610000Y-7370000D01*
X15810000Y-13080000D02*
X15850000Y-13120000D01*
X15850000Y-13080000D02*
X15810000Y-13120000D01*
X15820000Y-7580000D02*
X15860000Y-7620000D01*
X15860000Y-7580000D02*
X15820000Y-7620000D01*
X15830000Y-9000000D02*
X15870000Y-9040000D01*
X15870000Y-9000000D02*
X15830000Y-9040000D01*
X15950000Y-9280000D02*
X15990000Y-9320000D01*
X15990000Y-9280000D02*
X15950000Y-9320000D01*
X16080000Y-9980000D02*
X16120000Y-10020000D01*
X16120000Y-9980000D02*
X16080000Y-10020000D01*
X16350000Y-7480000D02*
X16390000Y-7520000D01*
X16390000Y-7480000D02*
X16350000Y-7520000D01*
X16410000Y-7080000D02*
X16450000Y-7120000D01*
X16450000Y-7080000D02*
X16410000Y-7120000D01*
X16430000Y-9280000D02*
X16470000Y-9320000D01*
X16470000Y-9280000D02*
X16430000Y-9320000D01*
X16580000Y-9980000D02*
X16620000Y-10020000D01*
X16620000Y-9980000D02*
X16580000Y-10020000D01*
X16620000Y-12270000D02*
X16660000Y-12310000D01*
X16660000Y-12270000D02*
X16620000Y-12310000D01*
X16880000Y-12530000D02*
X16920000Y-12570000D01*
X16920000Y-12530000D02*
X16880000Y-12570000D01*
X16900000Y-9500000D02*
X16940000Y-9540000D01*
X16940000Y-9500000D02*
X16900000Y-9540000D01*
X16920000Y-5580000D02*
X16960000Y-5620000D01*
X16960000Y-5580000D02*
X16920000Y-5620000D01*
X16920000Y-6580000D02*
X16960000Y-6620000D01*
X16960000Y-6580000D02*
X16920000Y-6620000D01*
X16920000Y-9280000D02*
X16960000Y-9320000D01*
X16960000Y-9280000D02*
X16920000Y-9320000D01*
X16940000Y-6230000D02*
X16980000Y-6270000D01*
X16980000Y-6230000D02*
X16940000Y-6270000D01*
X16980000Y-13480000D02*
X17020000Y-13520000D01*
X17020000Y-13480000D02*
X16980000Y-13520000D01*
X17080000Y-9980000D02*
X17120000Y-10020000D01*
X17120000Y-9980000D02*
X17080000Y-10020000D01*
X17190000Y-9280000D02*
X17230000Y-9320000D01*
X17230000Y-9280000D02*
X17190000Y-9320000D01*
X17330000Y-8000000D02*
X17370000Y-8040000D01*
X17370000Y-8000000D02*
X17330000Y-8040000D01*
X17420000Y-6970000D02*
X17460000Y-7010000D01*
X17460000Y-6970000D02*
X17420000Y-7010000D01*
X17420000Y-8780000D02*
X17460000Y-8820000D01*
X17460000Y-8780000D02*
X17420000Y-8820000D01*
X17480000Y-9130000D02*
X17520000Y-9170000D01*
X17520000Y-9130000D02*
X17480000Y-9170000D01*
X17480000Y-9550146D02*
X17520000Y-9590146D01*
X17520000Y-9550146D02*
X17480000Y-9590146D01*
X17480000Y-12730000D02*
X17520000Y-12770000D01*
X17520000Y-12730000D02*
X17480000Y-12770000D01*
X17530000Y-13090000D02*
X17570000Y-13130000D01*
X17570000Y-13090000D02*
X17530000Y-13130000D01*
X17530000Y-14250000D02*
X17570000Y-14290000D01*
X17570000Y-14250000D02*
X17530000Y-14290000D01*
X17555000Y-7830000D02*
X17595000Y-7870000D01*
X17595000Y-7830000D02*
X17555000Y-7870000D01*
X17580000Y-9980000D02*
X17620000Y-10020000D01*
X17620000Y-9980000D02*
X17580000Y-10020000D01*
X17630000Y-6740000D02*
X17670000Y-6780000D01*
X17670000Y-6740000D02*
X17630000Y-6780000D01*
X17680000Y-7200000D02*
X17720000Y-7240000D01*
X17720000Y-7200000D02*
X17680000Y-7240000D01*
X17690000Y-13400000D02*
X17730000Y-13440000D01*
X17730000Y-13400000D02*
X17690000Y-13440000D01*
X17740000Y-7340000D02*
X17780000Y-7380000D01*
X17780000Y-7340000D02*
X17740000Y-7380000D01*
X17810000Y-8980000D02*
X17850000Y-9020000D01*
X17850000Y-8980000D02*
X17810000Y-9020000D01*
X17810000Y-9280000D02*
X17850000Y-9320000D01*
X17850000Y-9280000D02*
X17810000Y-9320000D01*
X17860000Y-13750000D02*
X17900000Y-13790000D01*
X17900000Y-13750000D02*
X17860000Y-13790000D01*
X17970000Y-9390000D02*
X18010000Y-9430000D01*
X18010000Y-9390000D02*
X17970000Y-9430000D01*
X18080000Y-9980000D02*
X18120000Y-10020000D01*
X18120000Y-9980000D02*
X18080000Y-10020000D01*
X18170000Y-13280000D02*
X18210000Y-13320000D01*
X18210000Y-13280000D02*
X18170000Y-13320000D01*
X18180000Y-14330000D02*
X18220000Y-14370000D01*
X18220000Y-14330000D02*
X18180000Y-14370000D01*
X18180000Y-14430000D02*
X18220000Y-14470000D01*
X18220000Y-14430000D02*
X18180000Y-14470000D01*
X18190000Y-12380000D02*
X18230000Y-12420000D01*
X18230000Y-12380000D02*
X18190000Y-12420000D01*
X18220000Y-10440000D02*
X18260000Y-10480000D01*
X18260000Y-10440000D02*
X18220000Y-10480000D01*
X18240000Y-11410000D02*
X18280000Y-11450000D01*
X18280000Y-11410000D02*
X18240000Y-11450000D01*
X18280000Y-14850001D02*
X18320000Y-14890001D01*
X18320000Y-14850001D02*
X18280000Y-14890001D01*
X18310000Y-9630050D02*
X18350000Y-9670050D01*
X18350000Y-9630050D02*
X18310000Y-9670050D01*
X18380000Y-12830000D02*
X18420000Y-12870000D01*
X18420000Y-12830000D02*
X18380000Y-12870000D01*
X18405000Y-13180000D02*
X18445000Y-13220000D01*
X18445000Y-13180000D02*
X18405000Y-13220000D01*
X18480000Y-9585050D02*
X18520000Y-9625050D01*
X18520000Y-9585050D02*
X18480000Y-9625050D01*
X18480000Y-10450000D02*
X18520000Y-10490000D01*
X18520000Y-10450000D02*
X18480000Y-10490000D01*
X18580000Y-9980000D02*
X18620000Y-10020000D01*
X18620000Y-9980000D02*
X18580000Y-10020000D01*
X18630000Y-14330000D02*
X18670000Y-14370000D01*
X18670000Y-14330000D02*
X18630000Y-14370000D01*
X18630000Y-14430000D02*
X18670000Y-14470000D01*
X18670000Y-14430000D02*
X18630000Y-14470000D01*
X18640000Y-8080000D02*
X18680000Y-8120000D01*
X18680000Y-8080000D02*
X18640000Y-8120000D01*
X18680000Y-6940000D02*
X18720000Y-6980000D01*
X18720000Y-6940000D02*
X18680000Y-6980000D01*
X18680000Y-13680000D02*
X18720000Y-13720000D01*
X18720000Y-13680000D02*
X18680000Y-13720000D01*
X18820000Y-6380000D02*
X18860000Y-6420000D01*
X18860000Y-6380000D02*
X18820000Y-6420000D01*
X18860000Y-12820000D02*
X18900000Y-12860000D01*
X18900000Y-12820000D02*
X18860000Y-12860000D01*
X19080000Y-9980000D02*
X19120000Y-10020000D01*
X19120000Y-9980000D02*
X19080000Y-10020000D01*
X19150000Y-7980000D02*
X19190000Y-8020000D01*
X19190000Y-7980000D02*
X19150000Y-8020000D01*
X19200000Y-13620000D02*
X19240000Y-13660000D01*
X19240000Y-13620000D02*
X19200000Y-13660000D01*
X19230000Y-14330000D02*
X19270000Y-14370000D01*
X19270000Y-14330000D02*
X19230000Y-14370000D01*
X19230000Y-14430000D02*
X19270000Y-14470000D01*
X19270000Y-14430000D02*
X19230000Y-14470000D01*
X19430000Y-7530000D02*
X19470000Y-7570000D01*
X19470000Y-7530000D02*
X19430000Y-7570000D01*
X19520000Y-13230000D02*
X19560000Y-13270000D01*
X19560000Y-13230000D02*
X19520000Y-13270000D01*
X19520000Y-14660000D02*
X19560000Y-14700000D01*
X19560000Y-14660000D02*
X19520000Y-14700000D01*
X19575000Y-6635000D02*
X19615000Y-6675000D01*
X19615000Y-6635000D02*
X19575000Y-6675000D01*
X19580000Y-9980000D02*
X19620000Y-10020000D01*
X19620000Y-9980000D02*
X19580000Y-10020000D01*
X19590000Y-6840000D02*
X19630000Y-6880000D01*
X19630000Y-6840000D02*
X19590000Y-6880000D01*
X19610000Y-7380000D02*
X19650000Y-7420000D01*
X19650000Y-7380000D02*
X19610000Y-7420000D01*
X19620000Y-6240000D02*
X19660000Y-6280000D01*
X19660000Y-6240000D02*
X19620000Y-6280000D01*
X19630000Y-14330000D02*
X19670000Y-14370000D01*
X19670000Y-14330000D02*
X19630000Y-14370000D01*
X19630000Y-14430000D02*
X19670000Y-14470000D01*
X19670000Y-14430000D02*
X19630000Y-14470000D01*
X19780000Y-10450000D02*
X19820000Y-10490000D01*
X19820000Y-10450000D02*
X19780000Y-10490000D01*
X19780000Y-13580000D02*
X19820000Y-13620000D01*
X19820000Y-13580000D02*
X19780000Y-13620000D01*
X19930000Y-14370000D02*
X19970000Y-14410000D01*
X19970000Y-14370000D02*
X19930000Y-14410000D01*
X20060000Y-6730000D02*
X20100000Y-6770000D01*
X20100000Y-6730000D02*
X20060000Y-6770000D01*
X20080000Y-9980000D02*
X20120000Y-10020000D01*
X20120000Y-9980000D02*
X20080000Y-10020000D01*
X20255000Y-11430000D02*
X20295000Y-11470000D01*
X20295000Y-11430000D02*
X20255000Y-11470000D01*
X20280000Y-12130000D02*
X20320000Y-12170000D01*
X20320000Y-12130000D02*
X20280000Y-12170000D01*
X20330000Y-9630050D02*
X20370000Y-9670050D01*
X20370000Y-9630050D02*
X20330000Y-9670050D01*
X20340000Y-8540000D02*
X20380000Y-8580000D01*
X20380000Y-8540000D02*
X20340000Y-8580000D01*
X20390000Y-6180000D02*
X20430000Y-6220000D01*
X20430000Y-6180000D02*
X20390000Y-6220000D01*
X20440000Y-12970000D02*
X20480000Y-13010000D01*
X20480000Y-12970000D02*
X20440000Y-13010000D01*
X20480000Y-13160000D02*
X20520000Y-13200000D01*
X20520000Y-13160000D02*
X20480000Y-13200000D01*
X20480000Y-13480000D02*
X20520000Y-13520000D01*
X20520000Y-13480000D02*
X20480000Y-13520000D01*
X20500000Y-7420000D02*
X20540000Y-7460000D01*
X20540000Y-7420000D02*
X20500000Y-7460000D01*
X20500000Y-7770000D02*
X20540000Y-7810000D01*
X20540000Y-7770000D02*
X20500000Y-7810000D01*
X20500000Y-8230000D02*
X20540000Y-8270000D01*
X20540000Y-8230000D02*
X20500000Y-8270000D01*
X20580000Y-6630000D02*
X20620000Y-6670000D01*
X20620000Y-6630000D02*
X20580000Y-6670000D01*
X20580000Y-9380000D02*
X20620000Y-9420000D01*
X20620000Y-9380000D02*
X20580000Y-9420000D01*
X20580000Y-9480000D02*
X20620000Y-9520000D01*
X20620000Y-9480000D02*
X20580000Y-9520000D01*
X20580000Y-9980000D02*
X20620000Y-10020000D01*
X20620000Y-9980000D02*
X20580000Y-10020000D01*
X20580000Y-10620000D02*
X20620000Y-10660000D01*
X20620000Y-10620000D02*
X20580000Y-10660000D01*
X20580000Y-11600000D02*
X20620000Y-11640000D01*
X20620000Y-11600000D02*
X20580000Y-11640000D01*
X20580000Y-14280000D02*
X20620000Y-14320000D01*
X20620000Y-14280000D02*
X20580000Y-14320000D01*
X20610000Y-12350000D02*
X20650000Y-12390000D01*
X20650000Y-12350000D02*
X20610000Y-12390000D01*
X20610000Y-13020000D02*
X20650000Y-13060000D01*
X20650000Y-13020000D02*
X20610000Y-13060000D01*
X20660000Y-7280000D02*
X20700000Y-7320000D01*
X20700000Y-7280000D02*
X20660000Y-7320000D01*
X20690000Y-10440000D02*
X20730000Y-10480000D01*
X20730000Y-10440000D02*
X20690000Y-10480000D01*
X20700000Y-9130000D02*
X20740000Y-9170000D01*
X20740000Y-9130000D02*
X20700000Y-9170000D01*
X20730000Y-10990000D02*
X20770000Y-11030000D01*
X20770000Y-10990000D02*
X20730000Y-11030000D01*
X20730000Y-11460000D02*
X20770000Y-11500000D01*
X20770000Y-11460000D02*
X20730000Y-11500000D01*
X20730000Y-11590000D02*
X20770000Y-11630000D01*
X20770000Y-11590000D02*
X20730000Y-11630000D01*
X20750000Y-6920000D02*
X20790000Y-6960000D01*
X20790000Y-6920000D02*
X20750000Y-6960000D01*
X20750000Y-7790000D02*
X20790000Y-7830000D01*
X20790000Y-7790000D02*
X20750000Y-7830000D01*
X20830000Y-8370000D02*
X20870000Y-8410000D01*
X20870000Y-8370000D02*
X20830000Y-8410000D01*
X20830000Y-9210000D02*
X20870000Y-9250000D01*
X20870000Y-9210000D02*
X20830000Y-9250000D01*
X20830000Y-9720000D02*
X20870000Y-9760000D01*
X20870000Y-9720000D02*
X20830000Y-9760000D01*
X20880000Y-8630000D02*
X20920000Y-8670000D01*
X20920000Y-8630000D02*
X20880000Y-8670000D01*
X20880000Y-12710000D02*
X20920000Y-12750000D01*
X20920000Y-12710000D02*
X20880000Y-12750000D01*
X20880000Y-13240000D02*
X20920000Y-13280000D01*
X20920000Y-13240000D02*
X20880000Y-13280000D01*
X20910000Y-14570000D02*
X20950000Y-14610000D01*
X20950000Y-14570000D02*
X20910000Y-14610000D01*
X20947237Y-10350004D02*
X20987237Y-10390004D01*
X20987237Y-10350004D02*
X20947237Y-10390004D01*
X20960000Y-7630000D02*
X21000000Y-7670000D01*
X21000000Y-7630000D02*
X20960000Y-7670000D01*
X20960000Y-9100000D02*
X21000000Y-9140000D01*
X21000000Y-9100000D02*
X20960000Y-9140000D01*
X20960000Y-9380000D02*
X21000000Y-9420000D01*
X21000000Y-9380000D02*
X20960000Y-9420000D01*
X20960000Y-9480000D02*
X21000000Y-9520000D01*
X21000000Y-9480000D02*
X20960000Y-9520000D01*
X20980000Y-11470000D02*
X21020000Y-11510000D01*
X21020000Y-11470000D02*
X20980000Y-11510000D01*
X20990000Y-8540000D02*
X21030000Y-8580000D01*
X21030000Y-8540000D02*
X20990000Y-8580000D01*
X20990000Y-10570006D02*
X21030000Y-10610006D01*
X21030000Y-10570006D02*
X20990000Y-10610006D01*
X21030000Y-6870000D02*
X21070000Y-6910000D01*
X21070000Y-6870000D02*
X21030000Y-6910000D01*
X21070000Y-11780000D02*
X21110000Y-11820000D01*
X21110000Y-11780000D02*
X21070000Y-11820000D01*
X21080000Y-7440000D02*
X21120000Y-7480000D01*
X21120000Y-7440000D02*
X21080000Y-7480000D01*
X21140000Y-11980000D02*
X21180000Y-12020000D01*
X21180000Y-11980000D02*
X21140000Y-12020000D01*
X21160000Y-10100000D02*
X21200000Y-10140000D01*
X21200000Y-10100000D02*
X21160000Y-10140000D01*
X21172500Y-12527500D02*
X21212500Y-12567500D01*
X21212500Y-12527500D02*
X21172500Y-12567500D01*
X21180050Y-9655000D02*
X21220050Y-9695000D01*
X21220050Y-9655000D02*
X21180050Y-9695000D01*
X21205000Y-8405000D02*
X21245000Y-8445000D01*
X21245000Y-8405000D02*
X21205000Y-8445000D01*
X21230000Y-12360000D02*
X21270000Y-12400000D01*
X21270000Y-12360000D02*
X21230000Y-12400000D01*
X21255000Y-13120000D02*
X21295000Y-13160000D01*
X21295000Y-13120000D02*
X21255000Y-13160000D01*
X21330000Y-8630000D02*
X21370000Y-8670000D01*
X21370000Y-8630000D02*
X21330000Y-8670000D01*
X21330000Y-8750000D02*
X21370000Y-8790000D01*
X21370000Y-8750000D02*
X21330000Y-8790000D01*
X21340000Y-10720000D02*
X21380000Y-10760000D01*
X21380000Y-10720000D02*
X21340000Y-10760000D01*
X21420000Y-9370000D02*
X21460000Y-9410000D01*
X21460000Y-9370000D02*
X21420000Y-9410000D01*
X21420000Y-9470000D02*
X21460000Y-9510000D01*
X21460000Y-9470000D02*
X21420000Y-9510000D01*
X21430000Y-11860001D02*
X21470000Y-11900001D01*
X21470000Y-11860001D02*
X21430000Y-11900001D01*
X21510000Y-11050000D02*
X21550000Y-11090000D01*
X21550000Y-11050000D02*
X21510000Y-11090000D01*
X21540000Y-11190000D02*
X21580000Y-11230000D01*
X21580000Y-11190000D02*
X21540000Y-11230000D01*
X21580000Y-9440000D02*
X21620000Y-9480000D01*
X21620000Y-9440000D02*
X21580000Y-9480000D01*
X21610000Y-12370000D02*
X21650000Y-12410000D01*
X21650000Y-12370000D02*
X21610000Y-12410000D01*
X21660000Y-11860001D02*
X21700000Y-11900001D01*
X21700000Y-11860001D02*
X21660000Y-11900001D01*
X21680000Y-14340000D02*
X21720000Y-14380000D01*
X21720000Y-14340000D02*
X21680000Y-14380000D01*
X21700000Y-12890000D02*
X21740000Y-12930000D01*
X21740000Y-12890000D02*
X21700000Y-12930000D01*
X21720000Y-5850000D02*
X21760000Y-5890000D01*
X21760000Y-5850000D02*
X21720000Y-5890000D01*
X21950000Y-13930000D02*
X21990000Y-13970000D01*
X21990000Y-13930000D02*
X21950000Y-13970000D01*
X22010000Y-11160000D02*
X22050000Y-11200000D01*
X22050000Y-11160000D02*
X22010000Y-11200000D01*
X22010000Y-12080000D02*
X22050000Y-12120000D01*
X22050000Y-12080000D02*
X22010000Y-12120000D01*
X22018541Y-12243711D02*
X22058541Y-12283711D01*
X22058541Y-12243711D02*
X22018541Y-12283711D01*
X22030000Y-5820000D02*
X22070000Y-5860000D01*
X22070000Y-5820000D02*
X22030000Y-5860000D01*
X22030000Y-11270000D02*
X22070000Y-11310000D01*
X22070000Y-11270000D02*
X22030000Y-11310000D01*
X22040000Y-11700000D02*
X22080000Y-11740000D01*
X22080000Y-11700000D02*
X22040000Y-11740000D01*
X22112500Y-13277500D02*
X22152500Y-13317500D01*
X22152500Y-13277500D02*
X22112500Y-13317500D01*
X22130000Y-12120000D02*
X22170000Y-12160000D01*
X22170000Y-12120000D02*
X22130000Y-12160000D01*
X22130000Y-12570000D02*
X22170000Y-12610000D01*
X22170000Y-12570000D02*
X22130000Y-12610000D01*
X22180000Y-8880000D02*
X22220000Y-8920000D01*
X22220000Y-8880000D02*
X22180000Y-8920000D01*
X22200000Y-13480000D02*
X22240000Y-13520000D01*
X22240000Y-13480000D02*
X22200000Y-13520000D01*
X22220000Y-14200000D02*
X22260000Y-14240000D01*
X22260000Y-14200000D02*
X22220000Y-14240000D01*
X22220000Y-14749999D02*
X22260000Y-14789999D01*
X22260000Y-14749999D02*
X22220000Y-14789999D01*
X22280000Y-8980000D02*
X22320000Y-9020000D01*
X22320000Y-8980000D02*
X22280000Y-9020000D01*
X22330000Y-10980000D02*
X22370000Y-11020000D01*
X22370000Y-10980000D02*
X22330000Y-11020000D01*
X22330000Y-12705000D02*
X22370000Y-12745000D01*
X22370000Y-12705000D02*
X22330000Y-12745000D01*
X22330000Y-11740000D02*
X22370000Y-11780000D01*
X22370000Y-11740000D02*
X22330000Y-11780000D01*
X22380000Y-8880000D02*
X22420000Y-8920000D01*
X22420000Y-8880000D02*
X22380000Y-8920000D01*
X22480000Y-8980000D02*
X22520000Y-9020000D01*
X22520000Y-8980000D02*
X22480000Y-9020000D01*
X22525212Y-11830000D02*
X22565212Y-11870000D01*
X22565212Y-11830000D02*
X22525212Y-11870000D01*
X22530000Y-12980000D02*
X22570000Y-13020000D01*
X22570000Y-12980000D02*
X22530000Y-13020000D01*
X22540000Y-12069999D02*
X22580000Y-12109999D01*
X22580000Y-12069999D02*
X22540000Y-12109999D01*
X22630000Y-12255000D02*
X22670000Y-12295000D01*
X22670000Y-12255000D02*
X22630000Y-12295000D01*
X22648550Y-11279130D02*
X22688550Y-11319130D01*
X22688550Y-11279130D02*
X22648550Y-11319130D01*
X22730000Y-11740000D02*
X22770000Y-11780000D01*
X22770000Y-11740000D02*
X22730000Y-11780000D01*
X22830000Y-6630000D02*
X22870000Y-6670000D01*
X22870000Y-6630000D02*
X22830000Y-6670000D01*
X22952274Y-11778790D02*
X22992274Y-11818790D01*
X22992274Y-11778790D02*
X22952274Y-11818790D01*
X22960000Y-11330000D02*
X23000000Y-11370000D01*
X23000000Y-11330000D02*
X22960000Y-11370000D01*
X22960000Y-13180000D02*
X23000000Y-13220000D01*
X23000000Y-13180000D02*
X22960000Y-13220000D01*
X23000000Y-11980000D02*
X23040000Y-12020000D01*
X23040000Y-11980000D02*
X23000000Y-12020000D01*
X23000000Y-12230000D02*
X23040000Y-12270000D01*
X23040000Y-12230000D02*
X23000000Y-12270000D01*
X23055000Y-14180000D02*
X23095000Y-14220000D01*
X23095000Y-14180000D02*
X23055000Y-14220000D01*
X23130000Y-6830000D02*
X23170000Y-6870000D01*
X23170000Y-6830000D02*
X23130000Y-6870000D01*
X23210000Y-11710000D02*
X23250000Y-11750000D01*
X23250000Y-11710000D02*
X23210000Y-11750000D01*
X23220000Y-12100000D02*
X23260000Y-12140000D01*
X23260000Y-12100000D02*
X23220000Y-12140000D01*
X23230000Y-8255000D02*
X23270000Y-8295000D01*
X23270000Y-8255000D02*
X23230000Y-8295000D01*
X23235000Y-9150000D02*
X23275000Y-9190000D01*
X23275000Y-9150000D02*
X23235000Y-9190000D01*
X23350000Y-11170000D02*
X23390000Y-11210000D01*
X23390000Y-11170000D02*
X23350000Y-11210000D01*
X23390000Y-12910000D02*
X23430000Y-12950000D01*
X23430000Y-12910000D02*
X23390000Y-12950000D01*
X23405000Y-7880000D02*
X23445000Y-7920000D01*
X23445000Y-7880000D02*
X23405000Y-7920000D01*
X23430000Y-11710000D02*
X23470000Y-11750000D01*
X23470000Y-11710000D02*
X23430000Y-11750000D01*
X23450000Y-13340000D02*
X23490000Y-13380000D01*
X23490000Y-13340000D02*
X23450000Y-13380000D01*
X23530000Y-12720000D02*
X23570000Y-12760000D01*
X23570000Y-12720000D02*
X23530000Y-12760000D01*
X23610000Y-14080000D02*
X23650000Y-14120000D01*
X23650000Y-14080000D02*
X23610000Y-14120000D01*
X23610000Y-14420000D02*
X23650000Y-14460000D01*
X23650000Y-14420000D02*
X23610000Y-14460000D01*
X23630000Y-13450000D02*
X23670000Y-13490000D01*
X23670000Y-13450000D02*
X23630000Y-13490000D01*
X23660001Y-14659999D02*
X23700001Y-14699999D01*
X23700001Y-14659999D02*
X23660001Y-14699999D01*
X23810000Y-10640000D02*
X23850000Y-10680000D01*
X23850000Y-10640000D02*
X23810000Y-10680000D01*
X23810000Y-10800000D02*
X23850000Y-10840000D01*
X23850000Y-10800000D02*
X23810000Y-10840000D01*
X23830000Y-7605000D02*
X23870000Y-7645000D01*
X23870000Y-7605000D02*
X23830000Y-7645000D01*
X23830000Y-8105000D02*
X23870000Y-8145000D01*
X23870000Y-8105000D02*
X23830000Y-8145000D01*
X23855000Y-8305000D02*
X23895000Y-8345000D01*
X23895000Y-8305000D02*
X23855000Y-8345000D01*
X23855000Y-8639950D02*
X23895000Y-8679950D01*
X23895000Y-8639950D02*
X23855000Y-8679950D01*
X23870000Y-11180000D02*
X23910000Y-11220000D01*
X23910000Y-11180000D02*
X23870000Y-11220000D01*
X23960000Y-10520000D02*
X24000000Y-10560000D01*
X24000000Y-10520000D02*
X23960000Y-10560000D01*
X23960000Y-11480000D02*
X24000000Y-11520000D01*
X24000000Y-11480000D02*
X23960000Y-11520000D01*
X23980000Y-8405000D02*
X24020000Y-8445000D01*
X24020000Y-8405000D02*
X23980000Y-8445000D01*
X23985000Y-7775000D02*
X24025000Y-7815000D01*
X24025000Y-7775000D02*
X23985000Y-7815000D01*
X24090000Y-10640000D02*
X24130000Y-10680000D01*
X24130000Y-10640000D02*
X24090000Y-10680000D01*
X24090000Y-10800000D02*
X24130000Y-10840000D01*
X24130000Y-10800000D02*
X24090000Y-10840000D01*
X24130000Y-8780000D02*
X24170000Y-8820000D01*
X24170000Y-8780000D02*
X24130000Y-8820000D01*
X24180000Y-8639950D02*
X24220000Y-8679950D01*
X24220000Y-8639950D02*
X24180000Y-8679950D01*
X24320000Y-10080000D02*
X24360000Y-10120000D01*
X24360000Y-10080000D02*
X24320000Y-10120000D01*
X24480000Y-8930000D02*
X24520000Y-8970000D01*
X24520000Y-8930000D02*
X24480000Y-8970000D01*
X24480000Y-13770000D02*
X24520000Y-13810000D01*
X24520000Y-13770000D02*
X24480000Y-13810000D01*
X24530000Y-7680000D02*
X24570000Y-7720000D01*
X24570000Y-7680000D02*
X24530000Y-7720000D01*
X24555000Y-6130000D02*
X24595000Y-6170000D01*
X24595000Y-6130000D02*
X24555000Y-6170000D01*
X24570000Y-10420000D02*
X24610000Y-10460000D01*
X24610000Y-10420000D02*
X24570000Y-10460000D01*
X24570000Y-13860000D02*
X24610000Y-13900000D01*
X24610000Y-13860000D02*
X24570000Y-13900000D01*
X24650000Y-8570000D02*
X24690000Y-8610000D01*
X24690000Y-8570000D02*
X24650000Y-8610000D01*
X24650098Y-7580000D02*
X24690098Y-7620000D01*
X24690098Y-7580000D02*
X24650098Y-7620000D01*
X24680000Y-6130000D02*
X24720000Y-6170000D01*
X24720000Y-6130000D02*
X24680000Y-6170000D01*
X24690000Y-10320000D02*
X24730000Y-10360000D01*
X24730000Y-10320000D02*
X24690000Y-10360000D01*
X24690000Y-12500000D02*
X24730000Y-12540000D01*
X24730000Y-12500000D02*
X24690000Y-12540000D01*
X24690000Y-13910000D02*
X24730000Y-13950000D01*
X24730000Y-13910000D02*
X24690000Y-13950000D01*
X24780000Y-6080000D02*
X24820000Y-6120000D01*
X24820000Y-6080000D02*
X24780000Y-6120000D01*
X24780000Y-8205000D02*
X24820000Y-8245000D01*
X24820000Y-8205000D02*
X24780000Y-8245000D01*
X24780000Y-10230000D02*
X24820000Y-10270000D01*
X24820000Y-10230000D02*
X24780000Y-10270000D01*
X24780000Y-12760000D02*
X24820000Y-12800000D01*
X24820000Y-12760000D02*
X24780000Y-12800000D01*
X24780000Y-13710000D02*
X24820000Y-13750000D01*
X24820000Y-13710000D02*
X24780000Y-13750000D01*
D13*
X5262500Y-5500000D02*
G75*
G03*
X5262500Y-5500000I-25000J0D01*
G01*
X5262500Y-14500000D02*
G75*
G03*
X5262500Y-14500000I-25000J0D01*
G01*
X5339385Y-5314385D02*
G75*
G03*
X5339385Y-5314385I-25000J0D01*
G01*
X5339385Y-5685615D02*
G75*
G03*
X5339385Y-5685615I-25000J0D01*
G01*
X5339385Y-14314384D02*
G75*
G03*
X5339385Y-14314384I-25000J0D01*
G01*
X5339385Y-14685615D02*
G75*
G03*
X5339385Y-14685615I-25000J0D01*
G01*
X5525000Y-5237500D02*
G75*
G03*
X5525000Y-5237500I-25000J0D01*
G01*
X5525000Y-5762500D02*
G75*
G03*
X5525000Y-5762500I-25000J0D01*
G01*
X5525000Y-9600000D02*
G75*
G03*
X5525000Y-9600000I-25000J0D01*
G01*
X5525000Y-10088000D02*
G75*
G03*
X5525000Y-10088000I-25000J0D01*
G01*
X5525000Y-11000000D02*
G75*
G03*
X5525000Y-11000000I-25000J0D01*
G01*
X5525000Y-11488000D02*
G75*
G03*
X5525000Y-11488000I-25000J0D01*
G01*
X5525000Y-14237500D02*
G75*
G03*
X5525000Y-14237500I-25000J0D01*
G01*
X5525000Y-14762500D02*
G75*
G03*
X5525000Y-14762500I-25000J0D01*
G01*
X5710615Y-5314385D02*
G75*
G03*
X5710615Y-5314385I-25000J0D01*
G01*
X5710615Y-5685615D02*
G75*
G03*
X5710615Y-5685615I-25000J0D01*
G01*
X5710615Y-14314384D02*
G75*
G03*
X5710615Y-14314384I-25000J0D01*
G01*
X5710615Y-14685615D02*
G75*
G03*
X5710615Y-14685615I-25000J0D01*
G01*
X5787500Y-5500000D02*
G75*
G03*
X5787500Y-5500000I-25000J0D01*
G01*
X5787500Y-14500000D02*
G75*
G03*
X5787500Y-14500000I-25000J0D01*
G01*
X5825000Y-13800000D02*
G75*
G03*
X5825000Y-13800000I-25000J0D01*
G01*
X5837000Y-13100000D02*
G75*
G03*
X5837000Y-13100000I-25000J0D01*
G01*
X6125000Y-10300000D02*
G75*
G03*
X6125000Y-10300000I-25000J0D01*
G01*
X6125000Y-10788000D02*
G75*
G03*
X6125000Y-10788000I-25000J0D01*
G01*
X6313000Y-13800000D02*
G75*
G03*
X6313000Y-13800000I-25000J0D01*
G01*
X6325000Y-13100000D02*
G75*
G03*
X6325000Y-13100000I-25000J0D01*
G01*
X6625000Y-14500000D02*
G75*
G03*
X6625000Y-14500000I-25000J0D01*
G01*
X7113000Y-14500000D02*
G75*
G03*
X7113000Y-14500000I-25000J0D01*
G01*
X8025000Y-13150000D02*
G75*
G03*
X8025000Y-13150000I-25000J0D01*
G01*
X8825000Y-12650000D02*
G75*
G03*
X8825000Y-12650000I-25000J0D01*
G01*
X9775000Y-6600000D02*
G75*
G03*
X9775000Y-6600000I-25000J0D01*
G01*
X9775000Y-6725000D02*
G75*
G03*
X9775000Y-6725000I-25000J0D01*
G01*
X10275000Y-7275000D02*
G75*
G03*
X10275000Y-7275000I-25000J0D01*
G01*
X10275000Y-7400000D02*
G75*
G03*
X10275000Y-7400000I-25000J0D01*
G01*
X10375000Y-14200000D02*
G75*
G03*
X10375000Y-14200000I-25000J0D01*
G01*
X10575000Y-14500000D02*
G75*
G03*
X10575000Y-14500000I-25000J0D01*
G01*
X12662500Y-8600000D02*
G75*
G03*
X12662500Y-8600000I-25000J0D01*
G01*
X12675000Y-14450000D02*
G75*
G03*
X12675000Y-14450000I-25000J0D01*
G01*
X12700000Y-5825000D02*
G75*
G03*
X12700000Y-5825000I-25000J0D01*
G01*
X12739384Y-8414385D02*
G75*
G03*
X12739384Y-8414385I-25000J0D01*
G01*
X12739384Y-8785616D02*
G75*
G03*
X12739384Y-8785616I-25000J0D01*
G01*
X12800000Y-14450000D02*
G75*
G03*
X12800000Y-14450000I-25000J0D01*
G01*
X12900000Y-6125000D02*
G75*
G03*
X12900000Y-6125000I-25000J0D01*
G01*
X12925000Y-8337500D02*
G75*
G03*
X12925000Y-8337500I-25000J0D01*
G01*
X12925000Y-8862500D02*
G75*
G03*
X12925000Y-8862500I-25000J0D01*
G01*
X13110615Y-8414385D02*
G75*
G03*
X13110615Y-8414385I-25000J0D01*
G01*
X13110615Y-8785616D02*
G75*
G03*
X13110615Y-8785616I-25000J0D01*
G01*
X13187500Y-8600000D02*
G75*
G03*
X13187500Y-8600000I-25000J0D01*
G01*
X13350000Y-13950000D02*
G75*
G03*
X13350000Y-13950000I-25000J0D01*
G01*
X13475000Y-13950000D02*
G75*
G03*
X13475000Y-13950000I-25000J0D01*
G01*
X15775000Y-12250000D02*
G75*
G03*
X15775000Y-12250000I-25000J0D01*
G01*
X15975000Y-12550000D02*
G75*
G03*
X15975000Y-12550000I-25000J0D01*
G01*
X16062500Y-11400000D02*
G75*
G03*
X16062500Y-11400000I-25000J0D01*
G01*
X16139384Y-11214384D02*
G75*
G03*
X16139384Y-11214384I-25000J0D01*
G01*
X16139384Y-11585615D02*
G75*
G03*
X16139384Y-11585615I-25000J0D01*
G01*
X16225000Y-8400000D02*
G75*
G03*
X16225000Y-8400000I-25000J0D01*
G01*
X16325000Y-11137500D02*
G75*
G03*
X16325000Y-11137500I-25000J0D01*
G01*
X16325000Y-11662500D02*
G75*
G03*
X16325000Y-11662500I-25000J0D01*
G01*
X16350000Y-8400000D02*
G75*
G03*
X16350000Y-8400000I-25000J0D01*
G01*
X16510615Y-11214384D02*
G75*
G03*
X16510615Y-11214384I-25000J0D01*
G01*
X16510615Y-11585615D02*
G75*
G03*
X16510615Y-11585615I-25000J0D01*
G01*
X16587500Y-11400000D02*
G75*
G03*
X16587500Y-11400000I-25000J0D01*
G01*
X16900000Y-7900000D02*
G75*
G03*
X16900000Y-7900000I-25000J0D01*
G01*
X17025000Y-7900000D02*
G75*
G03*
X17025000Y-7900000I-25000J0D01*
G01*
X18225000Y-6050000D02*
G75*
G03*
X18225000Y-6050000I-25000J0D01*
G01*
X18350000Y-6050000D02*
G75*
G03*
X18350000Y-6050000I-25000J0D01*
G01*
X18900000Y-5550000D02*
G75*
G03*
X18900000Y-5550000I-25000J0D01*
G01*
X19025000Y-5550000D02*
G75*
G03*
X19025000Y-5550000I-25000J0D01*
G01*
X21775000Y-6050000D02*
G75*
G03*
X21775000Y-6050000I-25000J0D01*
G01*
X21775000Y-6175000D02*
G75*
G03*
X21775000Y-6175000I-25000J0D01*
G01*
X22275000Y-6725000D02*
G75*
G03*
X22275000Y-6725000I-25000J0D01*
G01*
X22275000Y-6850000D02*
G75*
G03*
X22275000Y-6850000I-25000J0D01*
G01*
X24262500Y-5500000D02*
G75*
G03*
X24262500Y-5500000I-25000J0D01*
G01*
X24262500Y-14500000D02*
G75*
G03*
X24262500Y-14500000I-25000J0D01*
G01*
X24339384Y-5314385D02*
G75*
G03*
X24339384Y-5314385I-25000J0D01*
G01*
X24339384Y-5685615D02*
G75*
G03*
X24339384Y-5685615I-25000J0D01*
G01*
X24339384Y-14314384D02*
G75*
G03*
X24339384Y-14314384I-25000J0D01*
G01*
X24339384Y-14685615D02*
G75*
G03*
X24339384Y-14685615I-25000J0D01*
G01*
X24525000Y-5237500D02*
G75*
G03*
X24525000Y-5237500I-25000J0D01*
G01*
X24525000Y-5762500D02*
G75*
G03*
X24525000Y-5762500I-25000J0D01*
G01*
X24525000Y-14237500D02*
G75*
G03*
X24525000Y-14237500I-25000J0D01*
G01*
X24525000Y-14762500D02*
G75*
G03*
X24525000Y-14762500I-25000J0D01*
G01*
X24710615Y-5314385D02*
G75*
G03*
X24710615Y-5314385I-25000J0D01*
G01*
X24710615Y-5685615D02*
G75*
G03*
X24710615Y-5685615I-25000J0D01*
G01*
X24710615Y-14314384D02*
G75*
G03*
X24710615Y-14314384I-25000J0D01*
G01*
X24710615Y-14685615D02*
G75*
G03*
X24710615Y-14685615I-25000J0D01*
G01*
X24787500Y-5500000D02*
G75*
G03*
X24787500Y-5500000I-25000J0D01*
G01*
X24787500Y-14500000D02*
G75*
G03*
X24787500Y-14500000I-25000J0D01*
G01*
D14*
X14762500Y-5671250D02*
X14762500Y-5728750D01*
X14733750Y-5700000D02*
X14791250Y-5700000D01*
X14950000Y-5671250D02*
X14950000Y-5728750D01*
X14921250Y-5700000D02*
X14978750Y-5700000D01*
X15137500Y-5671250D02*
X15137500Y-5728750D01*
X15108750Y-5700000D02*
X15166250Y-5700000D01*
X15712500Y-5671250D02*
X15712500Y-5728750D01*
X15683750Y-5700000D02*
X15741250Y-5700000D01*
X15900000Y-5671250D02*
X15900000Y-5728750D01*
X15871250Y-5700000D02*
X15928750Y-5700000D01*
X16087500Y-5671250D02*
X16087500Y-5728750D01*
X16058750Y-5700000D02*
X16116250Y-5700000D01*
D15*
X6420284Y-7528284D02*
X6420284Y-7471715D01*
X6363715Y-7471715D01*
X6363715Y-7528284D01*
X6420284Y-7528284D01*
X6674284Y-7528284D02*
X6674284Y-7471715D01*
X6617715Y-7471715D01*
X6617715Y-7528284D01*
X6674284Y-7528284D01*
X6928284Y-7528284D02*
X6928284Y-7471715D01*
X6871715Y-7471715D01*
X6871715Y-7528284D01*
X6928284Y-7528284D01*
X7228284Y-5500285D02*
X7228284Y-5443716D01*
X7171715Y-5443716D01*
X7171715Y-5500285D01*
X7228284Y-5500285D01*
X7228284Y-5754284D02*
X7228284Y-5697715D01*
X7171715Y-5697715D01*
X7171715Y-5754284D01*
X7228284Y-5754284D01*
X7228284Y-6008284D02*
X7228284Y-5951715D01*
X7171715Y-5951715D01*
X7171715Y-6008284D01*
X7228284Y-6008284D01*
X7528284Y-10528285D02*
X7528284Y-10471716D01*
X7471715Y-10471716D01*
X7471715Y-10528285D01*
X7528284Y-10528285D01*
X7782284Y-10528285D02*
X7782284Y-10471716D01*
X7725715Y-10471716D01*
X7725715Y-10528285D01*
X7782284Y-10528285D01*
X8036284Y-10528285D02*
X8036284Y-10471716D01*
X7979715Y-10471716D01*
X7979715Y-10528285D01*
X8036284Y-10528285D01*
X21628285Y-10066285D02*
X21628285Y-10009716D01*
X21571716Y-10009716D01*
X21571716Y-10066285D01*
X21628285Y-10066285D01*
X21628285Y-10828285D02*
X21628285Y-10771716D01*
X21571716Y-10771716D01*
X21571716Y-10828285D01*
X21628285Y-10828285D01*
X21882285Y-10066285D02*
X21882285Y-10009716D01*
X21825716Y-10009716D01*
X21825716Y-10066285D01*
X21882285Y-10066285D01*
X21882285Y-10828285D02*
X21882285Y-10771716D01*
X21825716Y-10771716D01*
X21825716Y-10828285D01*
X21882285Y-10828285D01*
X22136285Y-10066285D02*
X22136285Y-10009716D01*
X22079716Y-10009716D01*
X22079716Y-10066285D01*
X22136285Y-10066285D01*
X22136285Y-10828285D02*
X22136285Y-10771716D01*
X22079716Y-10771716D01*
X22079716Y-10828285D01*
X22136285Y-10828285D01*
X22390284Y-10066285D02*
X22390284Y-10009716D01*
X22333716Y-10009716D01*
X22333716Y-10066285D01*
X22390284Y-10066285D01*
X22390284Y-10828285D02*
X22390284Y-10771716D01*
X22333716Y-10771716D01*
X22333716Y-10828285D01*
X22390284Y-10828285D01*
X22644284Y-10066285D02*
X22644284Y-10009716D01*
X22587715Y-10009716D01*
X22587715Y-10066285D01*
X22644284Y-10066285D01*
X22644284Y-10828285D02*
X22644284Y-10771716D01*
X22587715Y-10771716D01*
X22587715Y-10828285D01*
X22644284Y-10828285D01*
X22898284Y-10066285D02*
X22898284Y-10009716D01*
X22841715Y-10009716D01*
X22841715Y-10066285D01*
X22898284Y-10066285D01*
X22898284Y-10828285D02*
X22898284Y-10771716D01*
X22841715Y-10771716D01*
X22841715Y-10828285D01*
X22898284Y-10828285D01*
X23152284Y-10066285D02*
X23152284Y-10009716D01*
X23095715Y-10009716D01*
X23095715Y-10066285D01*
X23152284Y-10066285D01*
X23152284Y-10828285D02*
X23152284Y-10771716D01*
X23095715Y-10771716D01*
X23095715Y-10828285D01*
X23152284Y-10828285D01*
D16*
X6360000Y-5535000D02*
X6405000Y-5490000D01*
X6360000Y-5445000D01*
X6315000Y-5490000D01*
X6360000Y-5535000D01*
X6360000Y-5785000D02*
X6405000Y-5740000D01*
X6360000Y-5695000D01*
X6315000Y-5740000D01*
X6360000Y-5785000D01*
X6360000Y-6035000D02*
X6405000Y-5990000D01*
X6360000Y-5945000D01*
X6315000Y-5990000D01*
X6360000Y-6035000D01*
X6650000Y-11945000D02*
X6695000Y-11900000D01*
X6650000Y-11855000D01*
X6605000Y-11900000D01*
X6650000Y-11945000D01*
X6900000Y-11945000D02*
X6945000Y-11900000D01*
X6900000Y-11855000D01*
X6855000Y-11900000D01*
X6900000Y-11945000D01*
X7150000Y-11945000D02*
X7195000Y-11900000D01*
X7150000Y-11855000D01*
X7105000Y-11900000D01*
X7150000Y-11945000D01*
X12075000Y-12467500D02*
X12120000Y-12422500D01*
X12075000Y-12377500D01*
X12030000Y-12422500D01*
X12075000Y-12467500D01*
X12325000Y-12467500D02*
X12370000Y-12422500D01*
X12325000Y-12377500D01*
X12280000Y-12422500D01*
X12325000Y-12467500D01*
X19250000Y-11095000D02*
X19295000Y-11050000D01*
X19250000Y-11005000D01*
X19205000Y-11050000D01*
X19250000Y-11095000D01*
X19250000Y-11345000D02*
X19295000Y-11300000D01*
X19250000Y-11255000D01*
X19205000Y-11300000D01*
X19250000Y-11345000D01*
X19250000Y-11595000D02*
X19295000Y-11550000D01*
X19250000Y-11505000D01*
X19205000Y-11550000D01*
X19250000Y-11595000D01*
X24150000Y-9295000D02*
X24195000Y-9250000D01*
X24150000Y-9205000D01*
X24105000Y-9250000D01*
X24150000Y-9295000D01*
X24150000Y-9545000D02*
X24195000Y-9500000D01*
X24150000Y-9455000D01*
X24105000Y-9500000D01*
X24150000Y-9545000D01*
X24200000Y-11570000D02*
X24245000Y-11525000D01*
X24200000Y-11480000D01*
X24155000Y-11525000D01*
X24200000Y-11570000D01*
X24200000Y-11820000D02*
X24245000Y-11775000D01*
X24200000Y-11730000D01*
X24155000Y-11775000D01*
X24200000Y-11820000D01*
X24200000Y-12070000D02*
X24245000Y-12025000D01*
X24200000Y-11980000D01*
X24155000Y-12025000D01*
X24200000Y-12070000D01*
X24200000Y-12320000D02*
X24245000Y-12275000D01*
X24200000Y-12230000D01*
X24155000Y-12275000D01*
X24200000Y-12320000D01*
X24200000Y-12570000D02*
X24245000Y-12525000D01*
X24200000Y-12480000D01*
X24155000Y-12525000D01*
X24200000Y-12570000D01*
X24200000Y-12820000D02*
X24245000Y-12775000D01*
X24200000Y-12730000D01*
X24155000Y-12775000D01*
X24200000Y-12820000D01*
X24200000Y-13070000D02*
X24245000Y-13025000D01*
X24200000Y-12980000D01*
X24155000Y-13025000D01*
X24200000Y-13070000D01*
X24200000Y-13320000D02*
X24245000Y-13275000D01*
X24200000Y-13230000D01*
X24155000Y-13275000D01*
X24200000Y-13320000D01*
D17*
X7000000Y-12950000D02*
X7100000Y-13050000D01*
X7100000Y-12950000D02*
X7000000Y-13050000D01*
X7100000Y-13000000D02*
G75*
G03*
X7100000Y-13000000I-50000J0D01*
G01*
X7500000Y-13450000D02*
X7600000Y-13550000D01*
X7600000Y-13450000D02*
X7500000Y-13550000D01*
X7600000Y-13500000D02*
G75*
G03*
X7600000Y-13500000I-50000J0D01*
G01*
X7550000Y-8700000D02*
X7650000Y-8800000D01*
X7650000Y-8700000D02*
X7550000Y-8800000D01*
X7650000Y-8750000D02*
G75*
G03*
X7650000Y-8750000I-50000J0D01*
G01*
X8050000Y-8200000D02*
X8150000Y-8300000D01*
X8150000Y-8200000D02*
X8050000Y-8300000D01*
X8150000Y-8250000D02*
G75*
G03*
X8150000Y-8250000I-50000J0D01*
G01*
X11975000Y-6450000D02*
X12075000Y-6550000D01*
X12075000Y-6450000D02*
X11975000Y-6550000D01*
X12075000Y-6500000D02*
G75*
G03*
X12075000Y-6500000I-50000J0D01*
G01*
X12725000Y-7350000D02*
X12825000Y-7450000D01*
X12825000Y-7350000D02*
X12725000Y-7450000D01*
X12825000Y-7400000D02*
G75*
G03*
X12825000Y-7400000I-50000J0D01*
G01*
X13500000Y-5940000D02*
X13600000Y-6040000D01*
X13600000Y-5940000D02*
X13500000Y-6040000D01*
X13600000Y-5990000D02*
G75*
G03*
X13600000Y-5990000I-50000J0D01*
G01*
X14000000Y-5440000D02*
X14100000Y-5540000D01*
X14100000Y-5440000D02*
X14000000Y-5540000D01*
X14100000Y-5490000D02*
G75*
G03*
X14100000Y-5490000I-50000J0D01*
G01*
X14410000Y-11660000D02*
X14510000Y-11760000D01*
X14510000Y-11660000D02*
X14410000Y-11760000D01*
X14510000Y-11710000D02*
G75*
G03*
X14510000Y-11710000I-50000J0D01*
G01*
X15310000Y-10910000D02*
X15410000Y-11010000D01*
X15410000Y-10910000D02*
X15310000Y-11010000D01*
X15410000Y-10960000D02*
G75*
G03*
X15410000Y-10960000I-50000J0D01*
G01*
X15600000Y-6350000D02*
X15700000Y-6450000D01*
X15700000Y-6350000D02*
X15600000Y-6450000D01*
X15700000Y-6400000D02*
G75*
G03*
X15700000Y-6400000I-50000J0D01*
G01*
X16100000Y-6850000D02*
X16200000Y-6950000D01*
X16200000Y-6850000D02*
X16100000Y-6950000D01*
X16200000Y-6900000D02*
G75*
G03*
X16200000Y-6900000I-50000J0D01*
G01*
X23300000Y-7150000D02*
X23400000Y-7250000D01*
X23400000Y-7150000D02*
X23300000Y-7250000D01*
X23400000Y-7200000D02*
G75*
G03*
X23400000Y-7200000I-50000J0D01*
G01*
X24200000Y-6400000D02*
X24300000Y-6500000D01*
X24300000Y-6400000D02*
X24200000Y-6500000D01*
X24300000Y-6450000D02*
G75*
G03*
X24300000Y-6450000I-50000J0D01*
G01*
D18*
X6958200Y-12338200D02*
X7059800Y-12439800D01*
X7059800Y-12338200D02*
X6958200Y-12439800D01*
X7009000Y-12338200D02*
X7009000Y-12439800D01*
X6958200Y-12389000D02*
X7059800Y-12389000D01*
X8349200Y-7849200D02*
X8450800Y-7950800D01*
X8450800Y-7849200D02*
X8349200Y-7950800D01*
X8400000Y-7849200D02*
X8400000Y-7950800D01*
X8349200Y-7900000D02*
X8450800Y-7900000D01*
X8649200Y-8949200D02*
X8750800Y-9050800D01*
X8750800Y-8949200D02*
X8649200Y-9050800D01*
X8700000Y-8949200D02*
X8700000Y-9050800D01*
X8649200Y-9000000D02*
X8750800Y-9000000D01*
X11349200Y-5549200D02*
X11450800Y-5650800D01*
X11450800Y-5549200D02*
X11349200Y-5650800D01*
X11400000Y-5549200D02*
X11400000Y-5650800D01*
X11349200Y-5600000D02*
X11450800Y-5600000D01*
X14049200Y-7249200D02*
X14150800Y-7350800D01*
X14150800Y-7249200D02*
X14049200Y-7350800D01*
X14100000Y-7249200D02*
X14100000Y-7350800D01*
X14049200Y-7300000D02*
X14150800Y-7300000D01*
X20899200Y-11949200D02*
X21000800Y-12050800D01*
X21000800Y-11949200D02*
X20899200Y-12050800D01*
X20950000Y-11949200D02*
X20950000Y-12050800D01*
X20899200Y-12000000D02*
X21000800Y-12000000D01*
X20899200Y-13599200D02*
X21000800Y-13700800D01*
X21000800Y-13599200D02*
X20899200Y-13700800D01*
X20950000Y-13599200D02*
X20950000Y-13700800D01*
X20899200Y-13650000D02*
X21000800Y-13650000D01*
X21899200Y-13299200D02*
X22000800Y-13400800D01*
X22000800Y-13299200D02*
X21899200Y-13400800D01*
X21950000Y-13299200D02*
X21950000Y-13400800D01*
X21899200Y-13350000D02*
X22000800Y-13350000D01*
X22899200Y-6199200D02*
X23000800Y-6300800D01*
X23000800Y-6199200D02*
X22899200Y-6300800D01*
X22950000Y-6199200D02*
X22950000Y-6300800D01*
X22899200Y-6250000D02*
X23000800Y-6250000D01*
D19*
X8530150Y-13625350D02*
X8669850Y-13765050D01*
X8669850Y-13625350D02*
X8530150Y-13765050D01*
X8649392Y-13744592D02*
X8649392Y-13645808D01*
X8550608Y-13645808D01*
X8550608Y-13744592D01*
X8649392Y-13744592D01*
X8530150Y-14234950D02*
X8669850Y-14374650D01*
X8669850Y-14234950D02*
X8530150Y-14374650D01*
X8649392Y-14354192D02*
X8649392Y-14255408D01*
X8550608Y-14255408D01*
X8550608Y-14354192D01*
X8649392Y-14354192D01*
D20*
X11771000Y-8471000D02*
X11921000Y-8621000D01*
X11921000Y-8471000D02*
X11771000Y-8621000D01*
X11846000Y-8621000D02*
X11921000Y-8546000D01*
X11846000Y-8471000D01*
X11771000Y-8546000D01*
X11846000Y-8621000D01*
X11771000Y-8979000D02*
X11921000Y-9129000D01*
X11921000Y-8979000D02*
X11771000Y-9129000D01*
X11846000Y-9129000D02*
X11921000Y-9054000D01*
X11846000Y-8979000D01*
X11771000Y-9054000D01*
X11846000Y-9129000D01*
X12025000Y-8725000D02*
X12175000Y-8875000D01*
X12175000Y-8725000D02*
X12025000Y-8875000D01*
X12100000Y-8875000D02*
X12175000Y-8800000D01*
X12100000Y-8725000D01*
X12025000Y-8800000D01*
X12100000Y-8875000D01*
X12279000Y-8471000D02*
X12429000Y-8621000D01*
X12429000Y-8471000D02*
X12279000Y-8621000D01*
X12354000Y-8621000D02*
X12429000Y-8546000D01*
X12354000Y-8471000D01*
X12279000Y-8546000D01*
X12354000Y-8621000D01*
X12279000Y-8979000D02*
X12429000Y-9129000D01*
X12429000Y-8979000D02*
X12279000Y-9129000D01*
X12354000Y-9129000D02*
X12429000Y-9054000D01*
X12354000Y-8979000D01*
X12279000Y-9054000D01*
X12354000Y-9129000D01*
X15921000Y-13671000D02*
X16071000Y-13821000D01*
X16071000Y-13671000D02*
X15921000Y-13821000D01*
X15996000Y-13821000D02*
X16071000Y-13746000D01*
X15996000Y-13671000D01*
X15921000Y-13746000D01*
X15996000Y-13821000D01*
X15921000Y-14179000D02*
X16071000Y-14329000D01*
X16071000Y-14179000D02*
X15921000Y-14329000D01*
X15996000Y-14329000D02*
X16071000Y-14254000D01*
X15996000Y-14179000D01*
X15921000Y-14254000D01*
X15996000Y-14329000D01*
X16175000Y-13925000D02*
X16325000Y-14075000D01*
X16325000Y-13925000D02*
X16175000Y-14075000D01*
X16250000Y-14075000D02*
X16325000Y-14000000D01*
X16250000Y-13925000D01*
X16175000Y-14000000D01*
X16250000Y-14075000D01*
X16429000Y-13671000D02*
X16579000Y-13821000D01*
X16579000Y-13671000D02*
X16429000Y-13821000D01*
X16504000Y-13821000D02*
X16579000Y-13746000D01*
X16504000Y-13671000D01*
X16429000Y-13746000D01*
X16504000Y-13821000D01*
X16429000Y-14179000D02*
X16579000Y-14329000D01*
X16579000Y-14179000D02*
X16429000Y-14329000D01*
X16504000Y-14329000D02*
X16579000Y-14254000D01*
X16504000Y-14179000D01*
X16429000Y-14254000D01*
X16504000Y-14329000D01*
X18671000Y-8721000D02*
X18821000Y-8871000D01*
X18821000Y-8721000D02*
X18671000Y-8871000D01*
X18746000Y-8871000D02*
X18821000Y-8796000D01*
X18746000Y-8721000D01*
X18671000Y-8796000D01*
X18746000Y-8871000D01*
X18671000Y-9229000D02*
X18821000Y-9379000D01*
X18821000Y-9229000D02*
X18671000Y-9379000D01*
X18746000Y-9379000D02*
X18821000Y-9304000D01*
X18746000Y-9229000D01*
X18671000Y-9304000D01*
X18746000Y-9379000D01*
X18925000Y-8975000D02*
X19075000Y-9125000D01*
X19075000Y-8975000D02*
X18925000Y-9125000D01*
X19000000Y-9125000D02*
X19075000Y-9050000D01*
X19000000Y-8975000D01*
X18925000Y-9050000D01*
X19000000Y-9125000D01*
X19179000Y-8721000D02*
X19329000Y-8871000D01*
X19329000Y-8721000D02*
X19179000Y-8871000D01*
X19254000Y-8871000D02*
X19329000Y-8796000D01*
X19254000Y-8721000D01*
X19179000Y-8796000D01*
X19254000Y-8871000D01*
X19179000Y-9229000D02*
X19329000Y-9379000D01*
X19329000Y-9229000D02*
X19179000Y-9379000D01*
X19254000Y-9379000D02*
X19329000Y-9304000D01*
X19254000Y-9229000D01*
X19179000Y-9304000D01*
X19254000Y-9379000D01*
X21421000Y-7496000D02*
X21571000Y-7646000D01*
X21571000Y-7496000D02*
X21421000Y-7646000D01*
X21496000Y-7646000D02*
X21571000Y-7571000D01*
X21496000Y-7496000D01*
X21421000Y-7571000D01*
X21496000Y-7646000D01*
X21421000Y-8004000D02*
X21571000Y-8154000D01*
X21571000Y-8004000D02*
X21421000Y-8154000D01*
X21496000Y-8154000D02*
X21571000Y-8079000D01*
X21496000Y-8004000D01*
X21421000Y-8079000D01*
X21496000Y-8154000D01*
X21675000Y-7750000D02*
X21825000Y-7900000D01*
X21825000Y-7750000D02*
X21675000Y-7900000D01*
X21750000Y-7900000D02*
X21825000Y-7825000D01*
X21750000Y-7750000D01*
X21675000Y-7825000D01*
X21750000Y-7900000D01*
X21929000Y-7496000D02*
X22079000Y-7646000D01*
X22079000Y-7496000D02*
X21929000Y-7646000D01*
X22004000Y-7646000D02*
X22079000Y-7571000D01*
X22004000Y-7496000D01*
X21929000Y-7571000D01*
X22004000Y-7646000D01*
X21929000Y-8004000D02*
X22079000Y-8154000D01*
X22079000Y-8004000D02*
X21929000Y-8154000D01*
X22004000Y-8154000D02*
X22079000Y-8079000D01*
X22004000Y-8004000D01*
X21929000Y-8079000D01*
X22004000Y-8154000D01*
D21*
X5500000Y-5325000D02*
X5500000Y-5675000D01*
X5325000Y-5500000D02*
X5675000Y-5500000D01*
X5675000Y-5500000D02*
G75*
G03*
X5675000Y-5500000I-175000J0D01*
G01*
X5500000Y-14325000D02*
X5500000Y-14675000D01*
X5325000Y-14500000D02*
X5675000Y-14500000D01*
X5675000Y-14500000D02*
G75*
G03*
X5675000Y-14500000I-175000J0D01*
G01*
X12900000Y-8425000D02*
X12900000Y-8775000D01*
X12725000Y-8600000D02*
X13075000Y-8600000D01*
X13075000Y-8600000D02*
G75*
G03*
X13075000Y-8600000I-175000J0D01*
G01*
X16300000Y-11225000D02*
X16300000Y-11575000D01*
X16125000Y-11400000D02*
X16475000Y-11400000D01*
X16475000Y-11400000D02*
G75*
G03*
X16475000Y-11400000I-175000J0D01*
G01*
X24500000Y-5325000D02*
X24500000Y-5675000D01*
X24325000Y-5500000D02*
X24675000Y-5500000D01*
X24675000Y-5500000D02*
G75*
G03*
X24675000Y-5500000I-175000J0D01*
G01*
X24500000Y-14325000D02*
X24500000Y-14675000D01*
X24325000Y-14500000D02*
X24675000Y-14500000D01*
X24675000Y-14500000D02*
G75*
G03*
X24675000Y-14500000I-175000J0D01*
G01*
D11*
X5255119Y-15312976D02*
X5255119Y-15112976D01*
X5302738Y-15112976D01*
X5331310Y-15122500D01*
X5350357Y-15141548D01*
X5359881Y-15160595D01*
X5369405Y-15198690D01*
X5369405Y-15227262D01*
X5359881Y-15265357D01*
X5350357Y-15284405D01*
X5331310Y-15303452D01*
X5302738Y-15312976D01*
X5255119Y-15312976D01*
X5455119Y-15312976D02*
X5455119Y-15179643D01*
X5455119Y-15217738D02*
X5464643Y-15198690D01*
X5474167Y-15189167D01*
X5493214Y-15179643D01*
X5512262Y-15179643D01*
X5578929Y-15312976D02*
X5578929Y-15179643D01*
X5578929Y-15112976D02*
X5569405Y-15122500D01*
X5578929Y-15132024D01*
X5588452Y-15122500D01*
X5578929Y-15112976D01*
X5578929Y-15132024D01*
X5702738Y-15312976D02*
X5683690Y-15303452D01*
X5674167Y-15284405D01*
X5674167Y-15112976D01*
X5807500Y-15312976D02*
X5788452Y-15303452D01*
X5778928Y-15284405D01*
X5778928Y-15112976D01*
X6036071Y-15312976D02*
X6036071Y-15112976D01*
X6102738Y-15255833D01*
X6169405Y-15112976D01*
X6169405Y-15312976D01*
X6350357Y-15312976D02*
X6350357Y-15208214D01*
X6340833Y-15189167D01*
X6321786Y-15179643D01*
X6283690Y-15179643D01*
X6264643Y-15189167D01*
X6350357Y-15303452D02*
X6331309Y-15312976D01*
X6283690Y-15312976D01*
X6264643Y-15303452D01*
X6255119Y-15284405D01*
X6255119Y-15265357D01*
X6264643Y-15246309D01*
X6283690Y-15236786D01*
X6331309Y-15236786D01*
X6350357Y-15227262D01*
X6445595Y-15179643D02*
X6445595Y-15379643D01*
X6445595Y-15189167D02*
X6464643Y-15179643D01*
X6502738Y-15179643D01*
X6521786Y-15189167D01*
X6531309Y-15198690D01*
X6540833Y-15217738D01*
X6540833Y-15274881D01*
X6531309Y-15293928D01*
X6521786Y-15303452D01*
X6502738Y-15312976D01*
X6464643Y-15312976D01*
X6445595Y-15303452D01*
X6626548Y-15293928D02*
X6636071Y-15303452D01*
X6626548Y-15312976D01*
X6617024Y-15303452D01*
X6626548Y-15293928D01*
X6626548Y-15312976D01*
X6626548Y-15189167D02*
X6636071Y-15198690D01*
X6626548Y-15208214D01*
X6617024Y-15198690D01*
X6626548Y-15189167D01*
X6626548Y-15208214D01*
D12*
X4957500Y-15622500D02*
X4997500Y-15662500D01*
X4997500Y-15622500D02*
X4957500Y-15662500D01*
D11*
X5293214Y-15532976D02*
X5312262Y-15532976D01*
X5331310Y-15542500D01*
X5340833Y-15552024D01*
X5350357Y-15571071D01*
X5359881Y-15609167D01*
X5359881Y-15656786D01*
X5350357Y-15694881D01*
X5340833Y-15713928D01*
X5331310Y-15723452D01*
X5312262Y-15732976D01*
X5293214Y-15732976D01*
X5274167Y-15723452D01*
X5264643Y-15713928D01*
X5255119Y-15694881D01*
X5245595Y-15656786D01*
X5245595Y-15609167D01*
X5255119Y-15571071D01*
X5264643Y-15552024D01*
X5274167Y-15542500D01*
X5293214Y-15532976D01*
X5445595Y-15713928D02*
X5455119Y-15723452D01*
X5445595Y-15732976D01*
X5436071Y-15723452D01*
X5445595Y-15713928D01*
X5445595Y-15732976D01*
X5626548Y-15599643D02*
X5626548Y-15732976D01*
X5578929Y-15523452D02*
X5531310Y-15666309D01*
X5655119Y-15666309D01*
X5769405Y-15532976D02*
X5788452Y-15532976D01*
X5807500Y-15542500D01*
X5817024Y-15552024D01*
X5826548Y-15571071D01*
X5836071Y-15609167D01*
X5836071Y-15656786D01*
X5826548Y-15694881D01*
X5817024Y-15713928D01*
X5807500Y-15723452D01*
X5788452Y-15732976D01*
X5769405Y-15732976D01*
X5750357Y-15723452D01*
X5740833Y-15713928D01*
X5731309Y-15694881D01*
X5721786Y-15656786D01*
X5721786Y-15609167D01*
X5731309Y-15571071D01*
X5740833Y-15552024D01*
X5750357Y-15542500D01*
X5769405Y-15532976D01*
X5959881Y-15532976D02*
X5978928Y-15532976D01*
X5997976Y-15542500D01*
X6007500Y-15552024D01*
X6017024Y-15571071D01*
X6026548Y-15609167D01*
X6026548Y-15656786D01*
X6017024Y-15694881D01*
X6007500Y-15713928D01*
X5997976Y-15723452D01*
X5978928Y-15732976D01*
X5959881Y-15732976D01*
X5940833Y-15723452D01*
X5931309Y-15713928D01*
X5921786Y-15694881D01*
X5912262Y-15656786D01*
X5912262Y-15609167D01*
X5921786Y-15571071D01*
X5931309Y-15552024D01*
X5940833Y-15542500D01*
X5959881Y-15532976D01*
X6112262Y-15732976D02*
X6112262Y-15599643D01*
X6112262Y-15618690D02*
X6121786Y-15609167D01*
X6140833Y-15599643D01*
X6169405Y-15599643D01*
X6188452Y-15609167D01*
X6197976Y-15628214D01*
X6197976Y-15732976D01*
X6197976Y-15628214D02*
X6207500Y-15609167D01*
X6226548Y-15599643D01*
X6255119Y-15599643D01*
X6274167Y-15609167D01*
X6283690Y-15628214D01*
X6283690Y-15732976D01*
X6378928Y-15732976D02*
X6378928Y-15599643D01*
X6378928Y-15618690D02*
X6388452Y-15609167D01*
X6407500Y-15599643D01*
X6436071Y-15599643D01*
X6455119Y-15609167D01*
X6464643Y-15628214D01*
X6464643Y-15732976D01*
X6464643Y-15628214D02*
X6474167Y-15609167D01*
X6493214Y-15599643D01*
X6521786Y-15599643D01*
X6540833Y-15609167D01*
X6550357Y-15628214D01*
X6550357Y-15732976D01*
X6940833Y-15523452D02*
X6769405Y-15780595D01*
X7197976Y-15532976D02*
X7217024Y-15532976D01*
X7236071Y-15542500D01*
X7245595Y-15552024D01*
X7255119Y-15571071D01*
X7264643Y-15609167D01*
X7264643Y-15656786D01*
X7255119Y-15694881D01*
X7245595Y-15713928D01*
X7236071Y-15723452D01*
X7217024Y-15732976D01*
X7197976Y-15732976D01*
X7178928Y-15723452D01*
X7169405Y-15713928D01*
X7159881Y-15694881D01*
X7150357Y-15656786D01*
X7150357Y-15609167D01*
X7159881Y-15571071D01*
X7169405Y-15552024D01*
X7178928Y-15542500D01*
X7197976Y-15532976D01*
X7350357Y-15713928D02*
X7359881Y-15723452D01*
X7350357Y-15732976D01*
X7340833Y-15723452D01*
X7350357Y-15713928D01*
X7350357Y-15732976D01*
X7483690Y-15532976D02*
X7502738Y-15532976D01*
X7521786Y-15542500D01*
X7531309Y-15552024D01*
X7540833Y-15571071D01*
X7550357Y-15609167D01*
X7550357Y-15656786D01*
X7540833Y-15694881D01*
X7531309Y-15713928D01*
X7521786Y-15723452D01*
X7502738Y-15732976D01*
X7483690Y-15732976D01*
X7464643Y-15723452D01*
X7455119Y-15713928D01*
X7445595Y-15694881D01*
X7436071Y-15656786D01*
X7436071Y-15609167D01*
X7445595Y-15571071D01*
X7455119Y-15552024D01*
X7464643Y-15542500D01*
X7483690Y-15532976D01*
X7740833Y-15732976D02*
X7626548Y-15732976D01*
X7683690Y-15732976D02*
X7683690Y-15532976D01*
X7664643Y-15561548D01*
X7645595Y-15580595D01*
X7626548Y-15590119D01*
X7921786Y-15532976D02*
X7826548Y-15532976D01*
X7817024Y-15628214D01*
X7826548Y-15618690D01*
X7845595Y-15609167D01*
X7893214Y-15609167D01*
X7912262Y-15618690D01*
X7921786Y-15628214D01*
X7931309Y-15647262D01*
X7931309Y-15694881D01*
X7921786Y-15713928D01*
X7912262Y-15723452D01*
X7893214Y-15732976D01*
X7845595Y-15732976D01*
X7826548Y-15723452D01*
X7817024Y-15713928D01*
X7997976Y-15532976D02*
X8131309Y-15532976D01*
X8045595Y-15732976D01*
X8197976Y-15532976D02*
X8197976Y-15571071D01*
X8274167Y-15532976D02*
X8274167Y-15571071D01*
X8569405Y-15809167D02*
X8559881Y-15799643D01*
X8540833Y-15771071D01*
X8531310Y-15752024D01*
X8521786Y-15723452D01*
X8512262Y-15675833D01*
X8512262Y-15637738D01*
X8521786Y-15590119D01*
X8531310Y-15561548D01*
X8540833Y-15542500D01*
X8559881Y-15513928D01*
X8569405Y-15504405D01*
X8731310Y-15599643D02*
X8731310Y-15732976D01*
X8683690Y-15523452D02*
X8636071Y-15666309D01*
X8759881Y-15666309D01*
X8940833Y-15732976D02*
X8826548Y-15732976D01*
X8883690Y-15732976D02*
X8883690Y-15532976D01*
X8864643Y-15561548D01*
X8845595Y-15580595D01*
X8826548Y-15590119D01*
X9064643Y-15532976D02*
X9083690Y-15532976D01*
X9102738Y-15542500D01*
X9112262Y-15552024D01*
X9121786Y-15571071D01*
X9131310Y-15609167D01*
X9131310Y-15656786D01*
X9121786Y-15694881D01*
X9112262Y-15713928D01*
X9102738Y-15723452D01*
X9083690Y-15732976D01*
X9064643Y-15732976D01*
X9045595Y-15723452D01*
X9036071Y-15713928D01*
X9026548Y-15694881D01*
X9017024Y-15656786D01*
X9017024Y-15609167D01*
X9026548Y-15571071D01*
X9036071Y-15552024D01*
X9045595Y-15542500D01*
X9064643Y-15532976D01*
X9369405Y-15732976D02*
X9369405Y-15532976D01*
X9455119Y-15732976D02*
X9455119Y-15628214D01*
X9445595Y-15609167D01*
X9426548Y-15599643D01*
X9397976Y-15599643D01*
X9378929Y-15609167D01*
X9369405Y-15618690D01*
X9578929Y-15732976D02*
X9559881Y-15723452D01*
X9550357Y-15713928D01*
X9540833Y-15694881D01*
X9540833Y-15637738D01*
X9550357Y-15618690D01*
X9559881Y-15609167D01*
X9578929Y-15599643D01*
X9607500Y-15599643D01*
X9626548Y-15609167D01*
X9636071Y-15618690D01*
X9645595Y-15637738D01*
X9645595Y-15694881D01*
X9636071Y-15713928D01*
X9626548Y-15723452D01*
X9607500Y-15732976D01*
X9578929Y-15732976D01*
X9759881Y-15732976D02*
X9740833Y-15723452D01*
X9731310Y-15704405D01*
X9731310Y-15532976D01*
X9912262Y-15723452D02*
X9893214Y-15732976D01*
X9855119Y-15732976D01*
X9836071Y-15723452D01*
X9826548Y-15704405D01*
X9826548Y-15628214D01*
X9836071Y-15609167D01*
X9855119Y-15599643D01*
X9893214Y-15599643D01*
X9912262Y-15609167D01*
X9921786Y-15628214D01*
X9921786Y-15647262D01*
X9826548Y-15666309D01*
X9997976Y-15723452D02*
X10017024Y-15732976D01*
X10055119Y-15732976D01*
X10074167Y-15723452D01*
X10083690Y-15704405D01*
X10083690Y-15694881D01*
X10074167Y-15675833D01*
X10055119Y-15666309D01*
X10026548Y-15666309D01*
X10007500Y-15656786D01*
X9997976Y-15637738D01*
X9997976Y-15628214D01*
X10007500Y-15609167D01*
X10026548Y-15599643D01*
X10055119Y-15599643D01*
X10074167Y-15609167D01*
X10150357Y-15809167D02*
X10159881Y-15799643D01*
X10178929Y-15771071D01*
X10188452Y-15752024D01*
X10197976Y-15723452D01*
X10207500Y-15675833D01*
X10207500Y-15637738D01*
X10197976Y-15590119D01*
X10188452Y-15561548D01*
X10178929Y-15542500D01*
X10159881Y-15513928D01*
X10150357Y-15504405D01*
D13*
X4997500Y-15906500D02*
G75*
G03*
X4997500Y-15906500I-25000J0D01*
G01*
D11*
X5293214Y-15796976D02*
X5312262Y-15796976D01*
X5331310Y-15806500D01*
X5340833Y-15816024D01*
X5350357Y-15835071D01*
X5359881Y-15873167D01*
X5359881Y-15920786D01*
X5350357Y-15958881D01*
X5340833Y-15977928D01*
X5331310Y-15987452D01*
X5312262Y-15996976D01*
X5293214Y-15996976D01*
X5274167Y-15987452D01*
X5264643Y-15977928D01*
X5255119Y-15958881D01*
X5245595Y-15920786D01*
X5245595Y-15873167D01*
X5255119Y-15835071D01*
X5264643Y-15816024D01*
X5274167Y-15806500D01*
X5293214Y-15796976D01*
X5445595Y-15977928D02*
X5455119Y-15987452D01*
X5445595Y-15996976D01*
X5436071Y-15987452D01*
X5445595Y-15977928D01*
X5445595Y-15996976D01*
X5636071Y-15796976D02*
X5540833Y-15796976D01*
X5531310Y-15892214D01*
X5540833Y-15882690D01*
X5559881Y-15873167D01*
X5607500Y-15873167D01*
X5626548Y-15882690D01*
X5636071Y-15892214D01*
X5645595Y-15911262D01*
X5645595Y-15958881D01*
X5636071Y-15977928D01*
X5626548Y-15987452D01*
X5607500Y-15996976D01*
X5559881Y-15996976D01*
X5540833Y-15987452D01*
X5531310Y-15977928D01*
X5769405Y-15796976D02*
X5788452Y-15796976D01*
X5807500Y-15806500D01*
X5817024Y-15816024D01*
X5826548Y-15835071D01*
X5836071Y-15873167D01*
X5836071Y-15920786D01*
X5826548Y-15958881D01*
X5817024Y-15977928D01*
X5807500Y-15987452D01*
X5788452Y-15996976D01*
X5769405Y-15996976D01*
X5750357Y-15987452D01*
X5740833Y-15977928D01*
X5731309Y-15958881D01*
X5721786Y-15920786D01*
X5721786Y-15873167D01*
X5731309Y-15835071D01*
X5740833Y-15816024D01*
X5750357Y-15806500D01*
X5769405Y-15796976D01*
X5959881Y-15796976D02*
X5978928Y-15796976D01*
X5997976Y-15806500D01*
X6007500Y-15816024D01*
X6017024Y-15835071D01*
X6026548Y-15873167D01*
X6026548Y-15920786D01*
X6017024Y-15958881D01*
X6007500Y-15977928D01*
X5997976Y-15987452D01*
X5978928Y-15996976D01*
X5959881Y-15996976D01*
X5940833Y-15987452D01*
X5931309Y-15977928D01*
X5921786Y-15958881D01*
X5912262Y-15920786D01*
X5912262Y-15873167D01*
X5921786Y-15835071D01*
X5931309Y-15816024D01*
X5940833Y-15806500D01*
X5959881Y-15796976D01*
X6112262Y-15996976D02*
X6112262Y-15863643D01*
X6112262Y-15882690D02*
X6121786Y-15873167D01*
X6140833Y-15863643D01*
X6169405Y-15863643D01*
X6188452Y-15873167D01*
X6197976Y-15892214D01*
X6197976Y-15996976D01*
X6197976Y-15892214D02*
X6207500Y-15873167D01*
X6226548Y-15863643D01*
X6255119Y-15863643D01*
X6274167Y-15873167D01*
X6283690Y-15892214D01*
X6283690Y-15996976D01*
X6378928Y-15996976D02*
X6378928Y-15863643D01*
X6378928Y-15882690D02*
X6388452Y-15873167D01*
X6407500Y-15863643D01*
X6436071Y-15863643D01*
X6455119Y-15873167D01*
X6464643Y-15892214D01*
X6464643Y-15996976D01*
X6464643Y-15892214D02*
X6474167Y-15873167D01*
X6493214Y-15863643D01*
X6521786Y-15863643D01*
X6540833Y-15873167D01*
X6550357Y-15892214D01*
X6550357Y-15996976D01*
X6940833Y-15787452D02*
X6769405Y-16044595D01*
X7197976Y-15796976D02*
X7217024Y-15796976D01*
X7236071Y-15806500D01*
X7245595Y-15816024D01*
X7255119Y-15835071D01*
X7264643Y-15873167D01*
X7264643Y-15920786D01*
X7255119Y-15958881D01*
X7245595Y-15977928D01*
X7236071Y-15987452D01*
X7217024Y-15996976D01*
X7197976Y-15996976D01*
X7178928Y-15987452D01*
X7169405Y-15977928D01*
X7159881Y-15958881D01*
X7150357Y-15920786D01*
X7150357Y-15873167D01*
X7159881Y-15835071D01*
X7169405Y-15816024D01*
X7178928Y-15806500D01*
X7197976Y-15796976D01*
X7350357Y-15977928D02*
X7359881Y-15987452D01*
X7350357Y-15996976D01*
X7340833Y-15987452D01*
X7350357Y-15977928D01*
X7350357Y-15996976D01*
X7483690Y-15796976D02*
X7502738Y-15796976D01*
X7521786Y-15806500D01*
X7531309Y-15816024D01*
X7540833Y-15835071D01*
X7550357Y-15873167D01*
X7550357Y-15920786D01*
X7540833Y-15958881D01*
X7531309Y-15977928D01*
X7521786Y-15987452D01*
X7502738Y-15996976D01*
X7483690Y-15996976D01*
X7464643Y-15987452D01*
X7455119Y-15977928D01*
X7445595Y-15958881D01*
X7436071Y-15920786D01*
X7436071Y-15873167D01*
X7445595Y-15835071D01*
X7455119Y-15816024D01*
X7464643Y-15806500D01*
X7483690Y-15796976D01*
X7740833Y-15996976D02*
X7626548Y-15996976D01*
X7683690Y-15996976D02*
X7683690Y-15796976D01*
X7664643Y-15825548D01*
X7645595Y-15844595D01*
X7626548Y-15854119D01*
X7836071Y-15996976D02*
X7874167Y-15996976D01*
X7893214Y-15987452D01*
X7902738Y-15977928D01*
X7921786Y-15949357D01*
X7931309Y-15911262D01*
X7931309Y-15835071D01*
X7921786Y-15816024D01*
X7912262Y-15806500D01*
X7893214Y-15796976D01*
X7855119Y-15796976D01*
X7836071Y-15806500D01*
X7826548Y-15816024D01*
X7817024Y-15835071D01*
X7817024Y-15882690D01*
X7826548Y-15901738D01*
X7836071Y-15911262D01*
X7855119Y-15920786D01*
X7893214Y-15920786D01*
X7912262Y-15911262D01*
X7921786Y-15901738D01*
X7931309Y-15882690D01*
X7997976Y-15796976D02*
X8131309Y-15796976D01*
X8045595Y-15996976D01*
X8197976Y-15796976D02*
X8197976Y-15835071D01*
X8274167Y-15796976D02*
X8274167Y-15835071D01*
X8569405Y-16073167D02*
X8559881Y-16063643D01*
X8540833Y-16035071D01*
X8531310Y-16016024D01*
X8521786Y-15987452D01*
X8512262Y-15939833D01*
X8512262Y-15901738D01*
X8521786Y-15854119D01*
X8531310Y-15825548D01*
X8540833Y-15806500D01*
X8559881Y-15777928D01*
X8569405Y-15768405D01*
X8674167Y-15882690D02*
X8655119Y-15873167D01*
X8645595Y-15863643D01*
X8636071Y-15844595D01*
X8636071Y-15835071D01*
X8645595Y-15816024D01*
X8655119Y-15806500D01*
X8674167Y-15796976D01*
X8712262Y-15796976D01*
X8731310Y-15806500D01*
X8740833Y-15816024D01*
X8750357Y-15835071D01*
X8750357Y-15844595D01*
X8740833Y-15863643D01*
X8731310Y-15873167D01*
X8712262Y-15882690D01*
X8674167Y-15882690D01*
X8655119Y-15892214D01*
X8645595Y-15901738D01*
X8636071Y-15920786D01*
X8636071Y-15958881D01*
X8645595Y-15977928D01*
X8655119Y-15987452D01*
X8674167Y-15996976D01*
X8712262Y-15996976D01*
X8731310Y-15987452D01*
X8740833Y-15977928D01*
X8750357Y-15958881D01*
X8750357Y-15920786D01*
X8740833Y-15901738D01*
X8731310Y-15892214D01*
X8712262Y-15882690D01*
X8864643Y-15882690D02*
X8845595Y-15873167D01*
X8836071Y-15863643D01*
X8826548Y-15844595D01*
X8826548Y-15835071D01*
X8836071Y-15816024D01*
X8845595Y-15806500D01*
X8864643Y-15796976D01*
X8902738Y-15796976D01*
X8921786Y-15806500D01*
X8931310Y-15816024D01*
X8940833Y-15835071D01*
X8940833Y-15844595D01*
X8931310Y-15863643D01*
X8921786Y-15873167D01*
X8902738Y-15882690D01*
X8864643Y-15882690D01*
X8845595Y-15892214D01*
X8836071Y-15901738D01*
X8826548Y-15920786D01*
X8826548Y-15958881D01*
X8836071Y-15977928D01*
X8845595Y-15987452D01*
X8864643Y-15996976D01*
X8902738Y-15996976D01*
X8921786Y-15987452D01*
X8931310Y-15977928D01*
X8940833Y-15958881D01*
X8940833Y-15920786D01*
X8931310Y-15901738D01*
X8921786Y-15892214D01*
X8902738Y-15882690D01*
X9178929Y-15996976D02*
X9178929Y-15796976D01*
X9264643Y-15996976D02*
X9264643Y-15892214D01*
X9255119Y-15873167D01*
X9236071Y-15863643D01*
X9207500Y-15863643D01*
X9188452Y-15873167D01*
X9178929Y-15882690D01*
X9388452Y-15996976D02*
X9369405Y-15987452D01*
X9359881Y-15977928D01*
X9350357Y-15958881D01*
X9350357Y-15901738D01*
X9359881Y-15882690D01*
X9369405Y-15873167D01*
X9388452Y-15863643D01*
X9417024Y-15863643D01*
X9436071Y-15873167D01*
X9445595Y-15882690D01*
X9455119Y-15901738D01*
X9455119Y-15958881D01*
X9445595Y-15977928D01*
X9436071Y-15987452D01*
X9417024Y-15996976D01*
X9388452Y-15996976D01*
X9569405Y-15996976D02*
X9550357Y-15987452D01*
X9540833Y-15968405D01*
X9540833Y-15796976D01*
X9721786Y-15987452D02*
X9702738Y-15996976D01*
X9664643Y-15996976D01*
X9645595Y-15987452D01*
X9636071Y-15968405D01*
X9636071Y-15892214D01*
X9645595Y-15873167D01*
X9664643Y-15863643D01*
X9702738Y-15863643D01*
X9721786Y-15873167D01*
X9731310Y-15892214D01*
X9731310Y-15911262D01*
X9636071Y-15930309D01*
X9807500Y-15987452D02*
X9826548Y-15996976D01*
X9864643Y-15996976D01*
X9883690Y-15987452D01*
X9893214Y-15968405D01*
X9893214Y-15958881D01*
X9883690Y-15939833D01*
X9864643Y-15930309D01*
X9836071Y-15930309D01*
X9817024Y-15920786D01*
X9807500Y-15901738D01*
X9807500Y-15892214D01*
X9817024Y-15873167D01*
X9836071Y-15863643D01*
X9864643Y-15863643D01*
X9883690Y-15873167D01*
X9959881Y-16073167D02*
X9969405Y-16063643D01*
X9988452Y-16035071D01*
X9997976Y-16016024D01*
X10007500Y-15987452D01*
X10017024Y-15939833D01*
X10017024Y-15901738D01*
X10007500Y-15854119D01*
X9997976Y-15825548D01*
X9988452Y-15806500D01*
X9969405Y-15777928D01*
X9959881Y-15768405D01*
D14*
X4968750Y-16141750D02*
X4968750Y-16199250D01*
X4940000Y-16170500D02*
X4997500Y-16170500D01*
D11*
X5293214Y-16060976D02*
X5312262Y-16060976D01*
X5331310Y-16070500D01*
X5340833Y-16080024D01*
X5350357Y-16099071D01*
X5359881Y-16137167D01*
X5359881Y-16184786D01*
X5350357Y-16222881D01*
X5340833Y-16241928D01*
X5331310Y-16251452D01*
X5312262Y-16260976D01*
X5293214Y-16260976D01*
X5274167Y-16251452D01*
X5264643Y-16241928D01*
X5255119Y-16222881D01*
X5245595Y-16184786D01*
X5245595Y-16137167D01*
X5255119Y-16099071D01*
X5264643Y-16080024D01*
X5274167Y-16070500D01*
X5293214Y-16060976D01*
X5445595Y-16241928D02*
X5455119Y-16251452D01*
X5445595Y-16260976D01*
X5436071Y-16251452D01*
X5445595Y-16241928D01*
X5445595Y-16260976D01*
X5636071Y-16060976D02*
X5540833Y-16060976D01*
X5531310Y-16156214D01*
X5540833Y-16146690D01*
X5559881Y-16137167D01*
X5607500Y-16137167D01*
X5626548Y-16146690D01*
X5636071Y-16156214D01*
X5645595Y-16175262D01*
X5645595Y-16222881D01*
X5636071Y-16241928D01*
X5626548Y-16251452D01*
X5607500Y-16260976D01*
X5559881Y-16260976D01*
X5540833Y-16251452D01*
X5531310Y-16241928D01*
X5712262Y-16060976D02*
X5845595Y-16060976D01*
X5759881Y-16260976D01*
X6017024Y-16060976D02*
X5921786Y-16060976D01*
X5912262Y-16156214D01*
X5921786Y-16146690D01*
X5940833Y-16137167D01*
X5988452Y-16137167D01*
X6007500Y-16146690D01*
X6017024Y-16156214D01*
X6026548Y-16175262D01*
X6026548Y-16222881D01*
X6017024Y-16241928D01*
X6007500Y-16251452D01*
X5988452Y-16260976D01*
X5940833Y-16260976D01*
X5921786Y-16251452D01*
X5912262Y-16241928D01*
X6112262Y-16260976D02*
X6112262Y-16127643D01*
X6112262Y-16146690D02*
X6121786Y-16137167D01*
X6140833Y-16127643D01*
X6169405Y-16127643D01*
X6188452Y-16137167D01*
X6197976Y-16156214D01*
X6197976Y-16260976D01*
X6197976Y-16156214D02*
X6207500Y-16137167D01*
X6226548Y-16127643D01*
X6255119Y-16127643D01*
X6274167Y-16137167D01*
X6283690Y-16156214D01*
X6283690Y-16260976D01*
X6378928Y-16260976D02*
X6378928Y-16127643D01*
X6378928Y-16146690D02*
X6388452Y-16137167D01*
X6407500Y-16127643D01*
X6436071Y-16127643D01*
X6455119Y-16137167D01*
X6464643Y-16156214D01*
X6464643Y-16260976D01*
X6464643Y-16156214D02*
X6474167Y-16137167D01*
X6493214Y-16127643D01*
X6521786Y-16127643D01*
X6540833Y-16137167D01*
X6550357Y-16156214D01*
X6550357Y-16260976D01*
X6940833Y-16051452D02*
X6769405Y-16308595D01*
X7197976Y-16060976D02*
X7217024Y-16060976D01*
X7236071Y-16070500D01*
X7245595Y-16080024D01*
X7255119Y-16099071D01*
X7264643Y-16137167D01*
X7264643Y-16184786D01*
X7255119Y-16222881D01*
X7245595Y-16241928D01*
X7236071Y-16251452D01*
X7217024Y-16260976D01*
X7197976Y-16260976D01*
X7178928Y-16251452D01*
X7169405Y-16241928D01*
X7159881Y-16222881D01*
X7150357Y-16184786D01*
X7150357Y-16137167D01*
X7159881Y-16099071D01*
X7169405Y-16080024D01*
X7178928Y-16070500D01*
X7197976Y-16060976D01*
X7350357Y-16241928D02*
X7359881Y-16251452D01*
X7350357Y-16260976D01*
X7340833Y-16251452D01*
X7350357Y-16241928D01*
X7350357Y-16260976D01*
X7483690Y-16060976D02*
X7502738Y-16060976D01*
X7521786Y-16070500D01*
X7531309Y-16080024D01*
X7540833Y-16099071D01*
X7550357Y-16137167D01*
X7550357Y-16184786D01*
X7540833Y-16222881D01*
X7531309Y-16241928D01*
X7521786Y-16251452D01*
X7502738Y-16260976D01*
X7483690Y-16260976D01*
X7464643Y-16251452D01*
X7455119Y-16241928D01*
X7445595Y-16222881D01*
X7436071Y-16184786D01*
X7436071Y-16137167D01*
X7445595Y-16099071D01*
X7455119Y-16080024D01*
X7464643Y-16070500D01*
X7483690Y-16060976D01*
X7626548Y-16080024D02*
X7636071Y-16070500D01*
X7655119Y-16060976D01*
X7702738Y-16060976D01*
X7721786Y-16070500D01*
X7731309Y-16080024D01*
X7740833Y-16099071D01*
X7740833Y-16118119D01*
X7731309Y-16146690D01*
X7617024Y-16260976D01*
X7740833Y-16260976D01*
X7817024Y-16080024D02*
X7826548Y-16070500D01*
X7845595Y-16060976D01*
X7893214Y-16060976D01*
X7912262Y-16070500D01*
X7921786Y-16080024D01*
X7931309Y-16099071D01*
X7931309Y-16118119D01*
X7921786Y-16146690D01*
X7807500Y-16260976D01*
X7931309Y-16260976D01*
X8102738Y-16060976D02*
X8064643Y-16060976D01*
X8045595Y-16070500D01*
X8036071Y-16080024D01*
X8017024Y-16108595D01*
X8007500Y-16146690D01*
X8007500Y-16222881D01*
X8017024Y-16241928D01*
X8026548Y-16251452D01*
X8045595Y-16260976D01*
X8083690Y-16260976D01*
X8102738Y-16251452D01*
X8112262Y-16241928D01*
X8121786Y-16222881D01*
X8121786Y-16175262D01*
X8112262Y-16156214D01*
X8102738Y-16146690D01*
X8083690Y-16137167D01*
X8045595Y-16137167D01*
X8026548Y-16146690D01*
X8017024Y-16156214D01*
X8007500Y-16175262D01*
X8197976Y-16060976D02*
X8197976Y-16099071D01*
X8274167Y-16060976D02*
X8274167Y-16099071D01*
X8569405Y-16337167D02*
X8559881Y-16327643D01*
X8540833Y-16299071D01*
X8531310Y-16280024D01*
X8521786Y-16251452D01*
X8512262Y-16203833D01*
X8512262Y-16165738D01*
X8521786Y-16118119D01*
X8531310Y-16089548D01*
X8540833Y-16070500D01*
X8559881Y-16041928D01*
X8569405Y-16032405D01*
X8731310Y-16060976D02*
X8693214Y-16060976D01*
X8674167Y-16070500D01*
X8664643Y-16080024D01*
X8645595Y-16108595D01*
X8636071Y-16146690D01*
X8636071Y-16222881D01*
X8645595Y-16241928D01*
X8655119Y-16251452D01*
X8674167Y-16260976D01*
X8712262Y-16260976D01*
X8731310Y-16251452D01*
X8740833Y-16241928D01*
X8750357Y-16222881D01*
X8750357Y-16175262D01*
X8740833Y-16156214D01*
X8731310Y-16146690D01*
X8712262Y-16137167D01*
X8674167Y-16137167D01*
X8655119Y-16146690D01*
X8645595Y-16156214D01*
X8636071Y-16175262D01*
X8988452Y-16260976D02*
X8988452Y-16060976D01*
X9074167Y-16260976D02*
X9074167Y-16156214D01*
X9064643Y-16137167D01*
X9045595Y-16127643D01*
X9017024Y-16127643D01*
X8997976Y-16137167D01*
X8988452Y-16146690D01*
X9197976Y-16260976D02*
X9178929Y-16251452D01*
X9169405Y-16241928D01*
X9159881Y-16222881D01*
X9159881Y-16165738D01*
X9169405Y-16146690D01*
X9178929Y-16137167D01*
X9197976Y-16127643D01*
X9226548Y-16127643D01*
X9245595Y-16137167D01*
X9255119Y-16146690D01*
X9264643Y-16165738D01*
X9264643Y-16222881D01*
X9255119Y-16241928D01*
X9245595Y-16251452D01*
X9226548Y-16260976D01*
X9197976Y-16260976D01*
X9378929Y-16260976D02*
X9359881Y-16251452D01*
X9350357Y-16232405D01*
X9350357Y-16060976D01*
X9531310Y-16251452D02*
X9512262Y-16260976D01*
X9474167Y-16260976D01*
X9455119Y-16251452D01*
X9445595Y-16232405D01*
X9445595Y-16156214D01*
X9455119Y-16137167D01*
X9474167Y-16127643D01*
X9512262Y-16127643D01*
X9531310Y-16137167D01*
X9540833Y-16156214D01*
X9540833Y-16175262D01*
X9445595Y-16194309D01*
X9617024Y-16251452D02*
X9636071Y-16260976D01*
X9674167Y-16260976D01*
X9693214Y-16251452D01*
X9702738Y-16232405D01*
X9702738Y-16222881D01*
X9693214Y-16203833D01*
X9674167Y-16194309D01*
X9645595Y-16194309D01*
X9626548Y-16184786D01*
X9617024Y-16165738D01*
X9617024Y-16156214D01*
X9626548Y-16137167D01*
X9645595Y-16127643D01*
X9674167Y-16127643D01*
X9693214Y-16137167D01*
X9769405Y-16337167D02*
X9778929Y-16327643D01*
X9797976Y-16299071D01*
X9807500Y-16280024D01*
X9817024Y-16251452D01*
X9826548Y-16203833D01*
X9826548Y-16165738D01*
X9817024Y-16118119D01*
X9807500Y-16089548D01*
X9797976Y-16070500D01*
X9778929Y-16041928D01*
X9769405Y-16032405D01*
D15*
X4985785Y-16462784D02*
X4985785Y-16406215D01*
X4929216Y-16406215D01*
X4929216Y-16462784D01*
X4985785Y-16462784D01*
D11*
X5293214Y-16324976D02*
X5312262Y-16324976D01*
X5331310Y-16334500D01*
X5340833Y-16344024D01*
X5350357Y-16363071D01*
X5359881Y-16401167D01*
X5359881Y-16448786D01*
X5350357Y-16486881D01*
X5340833Y-16505928D01*
X5331310Y-16515452D01*
X5312262Y-16524976D01*
X5293214Y-16524976D01*
X5274167Y-16515452D01*
X5264643Y-16505928D01*
X5255119Y-16486881D01*
X5245595Y-16448786D01*
X5245595Y-16401167D01*
X5255119Y-16363071D01*
X5264643Y-16344024D01*
X5274167Y-16334500D01*
X5293214Y-16324976D01*
X5445595Y-16505928D02*
X5455119Y-16515452D01*
X5445595Y-16524976D01*
X5436071Y-16515452D01*
X5445595Y-16505928D01*
X5445595Y-16524976D01*
X5569405Y-16410690D02*
X5550357Y-16401167D01*
X5540833Y-16391643D01*
X5531310Y-16372595D01*
X5531310Y-16363071D01*
X5540833Y-16344024D01*
X5550357Y-16334500D01*
X5569405Y-16324976D01*
X5607500Y-16324976D01*
X5626548Y-16334500D01*
X5636071Y-16344024D01*
X5645595Y-16363071D01*
X5645595Y-16372595D01*
X5636071Y-16391643D01*
X5626548Y-16401167D01*
X5607500Y-16410690D01*
X5569405Y-16410690D01*
X5550357Y-16420214D01*
X5540833Y-16429738D01*
X5531310Y-16448786D01*
X5531310Y-16486881D01*
X5540833Y-16505928D01*
X5550357Y-16515452D01*
X5569405Y-16524976D01*
X5607500Y-16524976D01*
X5626548Y-16515452D01*
X5636071Y-16505928D01*
X5645595Y-16486881D01*
X5645595Y-16448786D01*
X5636071Y-16429738D01*
X5626548Y-16420214D01*
X5607500Y-16410690D01*
X5769405Y-16324976D02*
X5788452Y-16324976D01*
X5807500Y-16334500D01*
X5817024Y-16344024D01*
X5826548Y-16363071D01*
X5836071Y-16401167D01*
X5836071Y-16448786D01*
X5826548Y-16486881D01*
X5817024Y-16505928D01*
X5807500Y-16515452D01*
X5788452Y-16524976D01*
X5769405Y-16524976D01*
X5750357Y-16515452D01*
X5740833Y-16505928D01*
X5731309Y-16486881D01*
X5721786Y-16448786D01*
X5721786Y-16401167D01*
X5731309Y-16363071D01*
X5740833Y-16344024D01*
X5750357Y-16334500D01*
X5769405Y-16324976D01*
X5959881Y-16324976D02*
X5978928Y-16324976D01*
X5997976Y-16334500D01*
X6007500Y-16344024D01*
X6017024Y-16363071D01*
X6026548Y-16401167D01*
X6026548Y-16448786D01*
X6017024Y-16486881D01*
X6007500Y-16505928D01*
X5997976Y-16515452D01*
X5978928Y-16524976D01*
X5959881Y-16524976D01*
X5940833Y-16515452D01*
X5931309Y-16505928D01*
X5921786Y-16486881D01*
X5912262Y-16448786D01*
X5912262Y-16401167D01*
X5921786Y-16363071D01*
X5931309Y-16344024D01*
X5940833Y-16334500D01*
X5959881Y-16324976D01*
X6112262Y-16524976D02*
X6112262Y-16391643D01*
X6112262Y-16410690D02*
X6121786Y-16401167D01*
X6140833Y-16391643D01*
X6169405Y-16391643D01*
X6188452Y-16401167D01*
X6197976Y-16420214D01*
X6197976Y-16524976D01*
X6197976Y-16420214D02*
X6207500Y-16401167D01*
X6226548Y-16391643D01*
X6255119Y-16391643D01*
X6274167Y-16401167D01*
X6283690Y-16420214D01*
X6283690Y-16524976D01*
X6378928Y-16524976D02*
X6378928Y-16391643D01*
X6378928Y-16410690D02*
X6388452Y-16401167D01*
X6407500Y-16391643D01*
X6436071Y-16391643D01*
X6455119Y-16401167D01*
X6464643Y-16420214D01*
X6464643Y-16524976D01*
X6464643Y-16420214D02*
X6474167Y-16401167D01*
X6493214Y-16391643D01*
X6521786Y-16391643D01*
X6540833Y-16401167D01*
X6550357Y-16420214D01*
X6550357Y-16524976D01*
X6940833Y-16315452D02*
X6769405Y-16572595D01*
X7197976Y-16324976D02*
X7217024Y-16324976D01*
X7236071Y-16334500D01*
X7245595Y-16344024D01*
X7255119Y-16363071D01*
X7264643Y-16401167D01*
X7264643Y-16448786D01*
X7255119Y-16486881D01*
X7245595Y-16505928D01*
X7236071Y-16515452D01*
X7217024Y-16524976D01*
X7197976Y-16524976D01*
X7178928Y-16515452D01*
X7169405Y-16505928D01*
X7159881Y-16486881D01*
X7150357Y-16448786D01*
X7150357Y-16401167D01*
X7159881Y-16363071D01*
X7169405Y-16344024D01*
X7178928Y-16334500D01*
X7197976Y-16324976D01*
X7350357Y-16505928D02*
X7359881Y-16515452D01*
X7350357Y-16524976D01*
X7340833Y-16515452D01*
X7350357Y-16505928D01*
X7350357Y-16524976D01*
X7483690Y-16324976D02*
X7502738Y-16324976D01*
X7521786Y-16334500D01*
X7531309Y-16344024D01*
X7540833Y-16363071D01*
X7550357Y-16401167D01*
X7550357Y-16448786D01*
X7540833Y-16486881D01*
X7531309Y-16505928D01*
X7521786Y-16515452D01*
X7502738Y-16524976D01*
X7483690Y-16524976D01*
X7464643Y-16515452D01*
X7455119Y-16505928D01*
X7445595Y-16486881D01*
X7436071Y-16448786D01*
X7436071Y-16401167D01*
X7445595Y-16363071D01*
X7455119Y-16344024D01*
X7464643Y-16334500D01*
X7483690Y-16324976D01*
X7617024Y-16324976D02*
X7740833Y-16324976D01*
X7674167Y-16401167D01*
X7702738Y-16401167D01*
X7721786Y-16410690D01*
X7731309Y-16420214D01*
X7740833Y-16439262D01*
X7740833Y-16486881D01*
X7731309Y-16505928D01*
X7721786Y-16515452D01*
X7702738Y-16524976D01*
X7645595Y-16524976D01*
X7626548Y-16515452D01*
X7617024Y-16505928D01*
X7931309Y-16524976D02*
X7817024Y-16524976D01*
X7874167Y-16524976D02*
X7874167Y-16324976D01*
X7855119Y-16353548D01*
X7836071Y-16372595D01*
X7817024Y-16382119D01*
X8112262Y-16324976D02*
X8017024Y-16324976D01*
X8007500Y-16420214D01*
X8017024Y-16410690D01*
X8036071Y-16401167D01*
X8083690Y-16401167D01*
X8102738Y-16410690D01*
X8112262Y-16420214D01*
X8121786Y-16439262D01*
X8121786Y-16486881D01*
X8112262Y-16505928D01*
X8102738Y-16515452D01*
X8083690Y-16524976D01*
X8036071Y-16524976D01*
X8017024Y-16515452D01*
X8007500Y-16505928D01*
X8197976Y-16324976D02*
X8197976Y-16363071D01*
X8274167Y-16324976D02*
X8274167Y-16363071D01*
X8569405Y-16601167D02*
X8559881Y-16591643D01*
X8540833Y-16563071D01*
X8531310Y-16544024D01*
X8521786Y-16515452D01*
X8512262Y-16467833D01*
X8512262Y-16429738D01*
X8521786Y-16382119D01*
X8531310Y-16353548D01*
X8540833Y-16334500D01*
X8559881Y-16305928D01*
X8569405Y-16296405D01*
X8636071Y-16344024D02*
X8645595Y-16334500D01*
X8664643Y-16324976D01*
X8712262Y-16324976D01*
X8731310Y-16334500D01*
X8740833Y-16344024D01*
X8750357Y-16363071D01*
X8750357Y-16382119D01*
X8740833Y-16410690D01*
X8626548Y-16524976D01*
X8750357Y-16524976D01*
X8817024Y-16324976D02*
X8940833Y-16324976D01*
X8874167Y-16401167D01*
X8902738Y-16401167D01*
X8921786Y-16410690D01*
X8931310Y-16420214D01*
X8940833Y-16439262D01*
X8940833Y-16486881D01*
X8931310Y-16505928D01*
X8921786Y-16515452D01*
X8902738Y-16524976D01*
X8845595Y-16524976D01*
X8826548Y-16515452D01*
X8817024Y-16505928D01*
X9178929Y-16524976D02*
X9178929Y-16324976D01*
X9264643Y-16524976D02*
X9264643Y-16420214D01*
X9255119Y-16401167D01*
X9236071Y-16391643D01*
X9207500Y-16391643D01*
X9188452Y-16401167D01*
X9178929Y-16410690D01*
X9388452Y-16524976D02*
X9369405Y-16515452D01*
X9359881Y-16505928D01*
X9350357Y-16486881D01*
X9350357Y-16429738D01*
X9359881Y-16410690D01*
X9369405Y-16401167D01*
X9388452Y-16391643D01*
X9417024Y-16391643D01*
X9436071Y-16401167D01*
X9445595Y-16410690D01*
X9455119Y-16429738D01*
X9455119Y-16486881D01*
X9445595Y-16505928D01*
X9436071Y-16515452D01*
X9417024Y-16524976D01*
X9388452Y-16524976D01*
X9569405Y-16524976D02*
X9550357Y-16515452D01*
X9540833Y-16496405D01*
X9540833Y-16324976D01*
X9721786Y-16515452D02*
X9702738Y-16524976D01*
X9664643Y-16524976D01*
X9645595Y-16515452D01*
X9636071Y-16496405D01*
X9636071Y-16420214D01*
X9645595Y-16401167D01*
X9664643Y-16391643D01*
X9702738Y-16391643D01*
X9721786Y-16401167D01*
X9731310Y-16420214D01*
X9731310Y-16439262D01*
X9636071Y-16458309D01*
X9807500Y-16515452D02*
X9826548Y-16524976D01*
X9864643Y-16524976D01*
X9883690Y-16515452D01*
X9893214Y-16496405D01*
X9893214Y-16486881D01*
X9883690Y-16467833D01*
X9864643Y-16458309D01*
X9836071Y-16458309D01*
X9817024Y-16448786D01*
X9807500Y-16429738D01*
X9807500Y-16420214D01*
X9817024Y-16401167D01*
X9836071Y-16391643D01*
X9864643Y-16391643D01*
X9883690Y-16401167D01*
X9959881Y-16601167D02*
X9969405Y-16591643D01*
X9988452Y-16563071D01*
X9997976Y-16544024D01*
X10007500Y-16515452D01*
X10017024Y-16467833D01*
X10017024Y-16429738D01*
X10007500Y-16382119D01*
X9997976Y-16353548D01*
X9988452Y-16334500D01*
X9969405Y-16305928D01*
X9959881Y-16296405D01*
D16*
X4952500Y-16743500D02*
X4997500Y-16698500D01*
X4952500Y-16653500D01*
X4907500Y-16698500D01*
X4952500Y-16743500D01*
D11*
X5293214Y-16588976D02*
X5312262Y-16588976D01*
X5331310Y-16598500D01*
X5340833Y-16608024D01*
X5350357Y-16627071D01*
X5359881Y-16665167D01*
X5359881Y-16712786D01*
X5350357Y-16750881D01*
X5340833Y-16769928D01*
X5331310Y-16779452D01*
X5312262Y-16788976D01*
X5293214Y-16788976D01*
X5274167Y-16779452D01*
X5264643Y-16769928D01*
X5255119Y-16750881D01*
X5245595Y-16712786D01*
X5245595Y-16665167D01*
X5255119Y-16627071D01*
X5264643Y-16608024D01*
X5274167Y-16598500D01*
X5293214Y-16588976D01*
X5445595Y-16769928D02*
X5455119Y-16779452D01*
X5445595Y-16788976D01*
X5436071Y-16779452D01*
X5445595Y-16769928D01*
X5445595Y-16788976D01*
X5550357Y-16788976D02*
X5588452Y-16788976D01*
X5607500Y-16779452D01*
X5617024Y-16769928D01*
X5636071Y-16741357D01*
X5645595Y-16703262D01*
X5645595Y-16627071D01*
X5636071Y-16608024D01*
X5626548Y-16598500D01*
X5607500Y-16588976D01*
X5569405Y-16588976D01*
X5550357Y-16598500D01*
X5540833Y-16608024D01*
X5531310Y-16627071D01*
X5531310Y-16674690D01*
X5540833Y-16693738D01*
X5550357Y-16703262D01*
X5569405Y-16712786D01*
X5607500Y-16712786D01*
X5626548Y-16703262D01*
X5636071Y-16693738D01*
X5645595Y-16674690D01*
X5769405Y-16588976D02*
X5788452Y-16588976D01*
X5807500Y-16598500D01*
X5817024Y-16608024D01*
X5826548Y-16627071D01*
X5836071Y-16665167D01*
X5836071Y-16712786D01*
X5826548Y-16750881D01*
X5817024Y-16769928D01*
X5807500Y-16779452D01*
X5788452Y-16788976D01*
X5769405Y-16788976D01*
X5750357Y-16779452D01*
X5740833Y-16769928D01*
X5731309Y-16750881D01*
X5721786Y-16712786D01*
X5721786Y-16665167D01*
X5731309Y-16627071D01*
X5740833Y-16608024D01*
X5750357Y-16598500D01*
X5769405Y-16588976D01*
X5959881Y-16588976D02*
X5978928Y-16588976D01*
X5997976Y-16598500D01*
X6007500Y-16608024D01*
X6017024Y-16627071D01*
X6026548Y-16665167D01*
X6026548Y-16712786D01*
X6017024Y-16750881D01*
X6007500Y-16769928D01*
X5997976Y-16779452D01*
X5978928Y-16788976D01*
X5959881Y-16788976D01*
X5940833Y-16779452D01*
X5931309Y-16769928D01*
X5921786Y-16750881D01*
X5912262Y-16712786D01*
X5912262Y-16665167D01*
X5921786Y-16627071D01*
X5931309Y-16608024D01*
X5940833Y-16598500D01*
X5959881Y-16588976D01*
X6112262Y-16788976D02*
X6112262Y-16655643D01*
X6112262Y-16674690D02*
X6121786Y-16665167D01*
X6140833Y-16655643D01*
X6169405Y-16655643D01*
X6188452Y-16665167D01*
X6197976Y-16684214D01*
X6197976Y-16788976D01*
X6197976Y-16684214D02*
X6207500Y-16665167D01*
X6226548Y-16655643D01*
X6255119Y-16655643D01*
X6274167Y-16665167D01*
X6283690Y-16684214D01*
X6283690Y-16788976D01*
X6378928Y-16788976D02*
X6378928Y-16655643D01*
X6378928Y-16674690D02*
X6388452Y-16665167D01*
X6407500Y-16655643D01*
X6436071Y-16655643D01*
X6455119Y-16665167D01*
X6464643Y-16684214D01*
X6464643Y-16788976D01*
X6464643Y-16684214D02*
X6474167Y-16665167D01*
X6493214Y-16655643D01*
X6521786Y-16655643D01*
X6540833Y-16665167D01*
X6550357Y-16684214D01*
X6550357Y-16788976D01*
X6940833Y-16579452D02*
X6769405Y-16836595D01*
X7197976Y-16588976D02*
X7217024Y-16588976D01*
X7236071Y-16598500D01*
X7245595Y-16608024D01*
X7255119Y-16627071D01*
X7264643Y-16665167D01*
X7264643Y-16712786D01*
X7255119Y-16750881D01*
X7245595Y-16769928D01*
X7236071Y-16779452D01*
X7217024Y-16788976D01*
X7197976Y-16788976D01*
X7178928Y-16779452D01*
X7169405Y-16769928D01*
X7159881Y-16750881D01*
X7150357Y-16712786D01*
X7150357Y-16665167D01*
X7159881Y-16627071D01*
X7169405Y-16608024D01*
X7178928Y-16598500D01*
X7197976Y-16588976D01*
X7350357Y-16769928D02*
X7359881Y-16779452D01*
X7350357Y-16788976D01*
X7340833Y-16779452D01*
X7350357Y-16769928D01*
X7350357Y-16788976D01*
X7483690Y-16588976D02*
X7502738Y-16588976D01*
X7521786Y-16598500D01*
X7531309Y-16608024D01*
X7540833Y-16627071D01*
X7550357Y-16665167D01*
X7550357Y-16712786D01*
X7540833Y-16750881D01*
X7531309Y-16769928D01*
X7521786Y-16779452D01*
X7502738Y-16788976D01*
X7483690Y-16788976D01*
X7464643Y-16779452D01*
X7455119Y-16769928D01*
X7445595Y-16750881D01*
X7436071Y-16712786D01*
X7436071Y-16665167D01*
X7445595Y-16627071D01*
X7455119Y-16608024D01*
X7464643Y-16598500D01*
X7483690Y-16588976D01*
X7617024Y-16588976D02*
X7740833Y-16588976D01*
X7674167Y-16665167D01*
X7702738Y-16665167D01*
X7721786Y-16674690D01*
X7731309Y-16684214D01*
X7740833Y-16703262D01*
X7740833Y-16750881D01*
X7731309Y-16769928D01*
X7721786Y-16779452D01*
X7702738Y-16788976D01*
X7645595Y-16788976D01*
X7626548Y-16779452D01*
X7617024Y-16769928D01*
X7921786Y-16588976D02*
X7826548Y-16588976D01*
X7817024Y-16684214D01*
X7826548Y-16674690D01*
X7845595Y-16665167D01*
X7893214Y-16665167D01*
X7912262Y-16674690D01*
X7921786Y-16684214D01*
X7931309Y-16703262D01*
X7931309Y-16750881D01*
X7921786Y-16769928D01*
X7912262Y-16779452D01*
X7893214Y-16788976D01*
X7845595Y-16788976D01*
X7826548Y-16779452D01*
X7817024Y-16769928D01*
X8102738Y-16655643D02*
X8102738Y-16788976D01*
X8055119Y-16579452D02*
X8007500Y-16722309D01*
X8131309Y-16722309D01*
X8197976Y-16588976D02*
X8197976Y-16627071D01*
X8274167Y-16588976D02*
X8274167Y-16627071D01*
X8569405Y-16865167D02*
X8559881Y-16855643D01*
X8540833Y-16827071D01*
X8531310Y-16808024D01*
X8521786Y-16779452D01*
X8512262Y-16731833D01*
X8512262Y-16693738D01*
X8521786Y-16646119D01*
X8531310Y-16617548D01*
X8540833Y-16598500D01*
X8559881Y-16569928D01*
X8569405Y-16560405D01*
X8636071Y-16608024D02*
X8645595Y-16598500D01*
X8664643Y-16588976D01*
X8712262Y-16588976D01*
X8731310Y-16598500D01*
X8740833Y-16608024D01*
X8750357Y-16627071D01*
X8750357Y-16646119D01*
X8740833Y-16674690D01*
X8626548Y-16788976D01*
X8750357Y-16788976D01*
X8940833Y-16788976D02*
X8826548Y-16788976D01*
X8883690Y-16788976D02*
X8883690Y-16588976D01*
X8864643Y-16617548D01*
X8845595Y-16636595D01*
X8826548Y-16646119D01*
X9178929Y-16788976D02*
X9178929Y-16588976D01*
X9264643Y-16788976D02*
X9264643Y-16684214D01*
X9255119Y-16665167D01*
X9236071Y-16655643D01*
X9207500Y-16655643D01*
X9188452Y-16665167D01*
X9178929Y-16674690D01*
X9388452Y-16788976D02*
X9369405Y-16779452D01*
X9359881Y-16769928D01*
X9350357Y-16750881D01*
X9350357Y-16693738D01*
X9359881Y-16674690D01*
X9369405Y-16665167D01*
X9388452Y-16655643D01*
X9417024Y-16655643D01*
X9436071Y-16665167D01*
X9445595Y-16674690D01*
X9455119Y-16693738D01*
X9455119Y-16750881D01*
X9445595Y-16769928D01*
X9436071Y-16779452D01*
X9417024Y-16788976D01*
X9388452Y-16788976D01*
X9569405Y-16788976D02*
X9550357Y-16779452D01*
X9540833Y-16760405D01*
X9540833Y-16588976D01*
X9721786Y-16779452D02*
X9702738Y-16788976D01*
X9664643Y-16788976D01*
X9645595Y-16779452D01*
X9636071Y-16760405D01*
X9636071Y-16684214D01*
X9645595Y-16665167D01*
X9664643Y-16655643D01*
X9702738Y-16655643D01*
X9721786Y-16665167D01*
X9731310Y-16684214D01*
X9731310Y-16703262D01*
X9636071Y-16722309D01*
X9807500Y-16779452D02*
X9826548Y-16788976D01*
X9864643Y-16788976D01*
X9883690Y-16779452D01*
X9893214Y-16760405D01*
X9893214Y-16750881D01*
X9883690Y-16731833D01*
X9864643Y-16722309D01*
X9836071Y-16722309D01*
X9817024Y-16712786D01*
X9807500Y-16693738D01*
X9807500Y-16684214D01*
X9817024Y-16665167D01*
X9836071Y-16655643D01*
X9864643Y-16655643D01*
X9883690Y-16665167D01*
X9959881Y-16865167D02*
X9969405Y-16855643D01*
X9988452Y-16827071D01*
X9997976Y-16808024D01*
X10007500Y-16779452D01*
X10017024Y-16731833D01*
X10017024Y-16693738D01*
X10007500Y-16646119D01*
X9997976Y-16617548D01*
X9988452Y-16598500D01*
X9969405Y-16569928D01*
X9959881Y-16560405D01*
D17*
X4897500Y-16912500D02*
X4997500Y-17012500D01*
X4997500Y-16912500D02*
X4897500Y-17012500D01*
X4997500Y-16962500D02*
G75*
G03*
X4997500Y-16962500I-50000J0D01*
G01*
D11*
X5359881Y-17052976D02*
X5245595Y-17052976D01*
X5302738Y-17052976D02*
X5302738Y-16852976D01*
X5283690Y-16881548D01*
X5264643Y-16900595D01*
X5245595Y-16910119D01*
X5445595Y-17033929D02*
X5455119Y-17043452D01*
X5445595Y-17052976D01*
X5436071Y-17043452D01*
X5445595Y-17033929D01*
X5445595Y-17052976D01*
X5578929Y-16852976D02*
X5597976Y-16852976D01*
X5617024Y-16862500D01*
X5626548Y-16872024D01*
X5636071Y-16891071D01*
X5645595Y-16929167D01*
X5645595Y-16976786D01*
X5636071Y-17014881D01*
X5626548Y-17033929D01*
X5617024Y-17043452D01*
X5597976Y-17052976D01*
X5578929Y-17052976D01*
X5559881Y-17043452D01*
X5550357Y-17033929D01*
X5540833Y-17014881D01*
X5531310Y-16976786D01*
X5531310Y-16929167D01*
X5540833Y-16891071D01*
X5550357Y-16872024D01*
X5559881Y-16862500D01*
X5578929Y-16852976D01*
X5769405Y-16852976D02*
X5788452Y-16852976D01*
X5807500Y-16862500D01*
X5817024Y-16872024D01*
X5826548Y-16891071D01*
X5836071Y-16929167D01*
X5836071Y-16976786D01*
X5826548Y-17014881D01*
X5817024Y-17033929D01*
X5807500Y-17043452D01*
X5788452Y-17052976D01*
X5769405Y-17052976D01*
X5750357Y-17043452D01*
X5740833Y-17033929D01*
X5731309Y-17014881D01*
X5721786Y-16976786D01*
X5721786Y-16929167D01*
X5731309Y-16891071D01*
X5740833Y-16872024D01*
X5750357Y-16862500D01*
X5769405Y-16852976D01*
X5959881Y-16852976D02*
X5978928Y-16852976D01*
X5997976Y-16862500D01*
X6007500Y-16872024D01*
X6017024Y-16891071D01*
X6026548Y-16929167D01*
X6026548Y-16976786D01*
X6017024Y-17014881D01*
X6007500Y-17033929D01*
X5997976Y-17043452D01*
X5978928Y-17052976D01*
X5959881Y-17052976D01*
X5940833Y-17043452D01*
X5931309Y-17033929D01*
X5921786Y-17014881D01*
X5912262Y-16976786D01*
X5912262Y-16929167D01*
X5921786Y-16891071D01*
X5931309Y-16872024D01*
X5940833Y-16862500D01*
X5959881Y-16852976D01*
X6112262Y-17052976D02*
X6112262Y-16919643D01*
X6112262Y-16938690D02*
X6121786Y-16929167D01*
X6140833Y-16919643D01*
X6169405Y-16919643D01*
X6188452Y-16929167D01*
X6197976Y-16948214D01*
X6197976Y-17052976D01*
X6197976Y-16948214D02*
X6207500Y-16929167D01*
X6226548Y-16919643D01*
X6255119Y-16919643D01*
X6274167Y-16929167D01*
X6283690Y-16948214D01*
X6283690Y-17052976D01*
X6378928Y-17052976D02*
X6378928Y-16919643D01*
X6378928Y-16938690D02*
X6388452Y-16929167D01*
X6407500Y-16919643D01*
X6436071Y-16919643D01*
X6455119Y-16929167D01*
X6464643Y-16948214D01*
X6464643Y-17052976D01*
X6464643Y-16948214D02*
X6474167Y-16929167D01*
X6493214Y-16919643D01*
X6521786Y-16919643D01*
X6540833Y-16929167D01*
X6550357Y-16948214D01*
X6550357Y-17052976D01*
X6940833Y-16843452D02*
X6769405Y-17100595D01*
X7197976Y-16852976D02*
X7217024Y-16852976D01*
X7236071Y-16862500D01*
X7245595Y-16872024D01*
X7255119Y-16891071D01*
X7264643Y-16929167D01*
X7264643Y-16976786D01*
X7255119Y-17014881D01*
X7245595Y-17033929D01*
X7236071Y-17043452D01*
X7217024Y-17052976D01*
X7197976Y-17052976D01*
X7178928Y-17043452D01*
X7169405Y-17033929D01*
X7159881Y-17014881D01*
X7150357Y-16976786D01*
X7150357Y-16929167D01*
X7159881Y-16891071D01*
X7169405Y-16872024D01*
X7178928Y-16862500D01*
X7197976Y-16852976D01*
X7350357Y-17033929D02*
X7359881Y-17043452D01*
X7350357Y-17052976D01*
X7340833Y-17043452D01*
X7350357Y-17033929D01*
X7350357Y-17052976D01*
X7483690Y-16852976D02*
X7502738Y-16852976D01*
X7521786Y-16862500D01*
X7531309Y-16872024D01*
X7540833Y-16891071D01*
X7550357Y-16929167D01*
X7550357Y-16976786D01*
X7540833Y-17014881D01*
X7531309Y-17033929D01*
X7521786Y-17043452D01*
X7502738Y-17052976D01*
X7483690Y-17052976D01*
X7464643Y-17043452D01*
X7455119Y-17033929D01*
X7445595Y-17014881D01*
X7436071Y-16976786D01*
X7436071Y-16929167D01*
X7445595Y-16891071D01*
X7455119Y-16872024D01*
X7464643Y-16862500D01*
X7483690Y-16852976D01*
X7617024Y-16852976D02*
X7740833Y-16852976D01*
X7674167Y-16929167D01*
X7702738Y-16929167D01*
X7721786Y-16938690D01*
X7731309Y-16948214D01*
X7740833Y-16967262D01*
X7740833Y-17014881D01*
X7731309Y-17033929D01*
X7721786Y-17043452D01*
X7702738Y-17052976D01*
X7645595Y-17052976D01*
X7626548Y-17043452D01*
X7617024Y-17033929D01*
X7836071Y-17052976D02*
X7874167Y-17052976D01*
X7893214Y-17043452D01*
X7902738Y-17033929D01*
X7921786Y-17005357D01*
X7931309Y-16967262D01*
X7931309Y-16891071D01*
X7921786Y-16872024D01*
X7912262Y-16862500D01*
X7893214Y-16852976D01*
X7855119Y-16852976D01*
X7836071Y-16862500D01*
X7826548Y-16872024D01*
X7817024Y-16891071D01*
X7817024Y-16938690D01*
X7826548Y-16957738D01*
X7836071Y-16967262D01*
X7855119Y-16976786D01*
X7893214Y-16976786D01*
X7912262Y-16967262D01*
X7921786Y-16957738D01*
X7931309Y-16938690D01*
X8102738Y-16919643D02*
X8102738Y-17052976D01*
X8055119Y-16843452D02*
X8007500Y-16986310D01*
X8131309Y-16986310D01*
X8197976Y-16852976D02*
X8197976Y-16891071D01*
X8274167Y-16852976D02*
X8274167Y-16891071D01*
X8569405Y-17129167D02*
X8559881Y-17119643D01*
X8540833Y-17091071D01*
X8531310Y-17072024D01*
X8521786Y-17043452D01*
X8512262Y-16995833D01*
X8512262Y-16957738D01*
X8521786Y-16910119D01*
X8531310Y-16881548D01*
X8540833Y-16862500D01*
X8559881Y-16833929D01*
X8569405Y-16824405D01*
X8750357Y-17052976D02*
X8636071Y-17052976D01*
X8693214Y-17052976D02*
X8693214Y-16852976D01*
X8674167Y-16881548D01*
X8655119Y-16900595D01*
X8636071Y-16910119D01*
X8921786Y-16919643D02*
X8921786Y-17052976D01*
X8874167Y-16843452D02*
X8826548Y-16986310D01*
X8950357Y-16986310D01*
X9178929Y-17052976D02*
X9178929Y-16852976D01*
X9264643Y-17052976D02*
X9264643Y-16948214D01*
X9255119Y-16929167D01*
X9236071Y-16919643D01*
X9207500Y-16919643D01*
X9188452Y-16929167D01*
X9178929Y-16938690D01*
X9388452Y-17052976D02*
X9369405Y-17043452D01*
X9359881Y-17033929D01*
X9350357Y-17014881D01*
X9350357Y-16957738D01*
X9359881Y-16938690D01*
X9369405Y-16929167D01*
X9388452Y-16919643D01*
X9417024Y-16919643D01*
X9436071Y-16929167D01*
X9445595Y-16938690D01*
X9455119Y-16957738D01*
X9455119Y-17014881D01*
X9445595Y-17033929D01*
X9436071Y-17043452D01*
X9417024Y-17052976D01*
X9388452Y-17052976D01*
X9569405Y-17052976D02*
X9550357Y-17043452D01*
X9540833Y-17024405D01*
X9540833Y-16852976D01*
X9721786Y-17043452D02*
X9702738Y-17052976D01*
X9664643Y-17052976D01*
X9645595Y-17043452D01*
X9636071Y-17024405D01*
X9636071Y-16948214D01*
X9645595Y-16929167D01*
X9664643Y-16919643D01*
X9702738Y-16919643D01*
X9721786Y-16929167D01*
X9731310Y-16948214D01*
X9731310Y-16967262D01*
X9636071Y-16986310D01*
X9807500Y-17043452D02*
X9826548Y-17052976D01*
X9864643Y-17052976D01*
X9883690Y-17043452D01*
X9893214Y-17024405D01*
X9893214Y-17014881D01*
X9883690Y-16995833D01*
X9864643Y-16986310D01*
X9836071Y-16986310D01*
X9817024Y-16976786D01*
X9807500Y-16957738D01*
X9807500Y-16948214D01*
X9817024Y-16929167D01*
X9836071Y-16919643D01*
X9864643Y-16919643D01*
X9883690Y-16929167D01*
X9959881Y-17129167D02*
X9969405Y-17119643D01*
X9988452Y-17091071D01*
X9997976Y-17072024D01*
X10007500Y-17043452D01*
X10017024Y-16995833D01*
X10017024Y-16957738D01*
X10007500Y-16910119D01*
X9997976Y-16881548D01*
X9988452Y-16862500D01*
X9969405Y-16833929D01*
X9959881Y-16824405D01*
D18*
X4895900Y-17175700D02*
X4997500Y-17277300D01*
X4997500Y-17175700D02*
X4895900Y-17277300D01*
X4946700Y-17175700D02*
X4946700Y-17277300D01*
X4895900Y-17226500D02*
X4997500Y-17226500D01*
D11*
X5359881Y-17316976D02*
X5245595Y-17316976D01*
X5302738Y-17316976D02*
X5302738Y-17116976D01*
X5283690Y-17145548D01*
X5264643Y-17164595D01*
X5245595Y-17174119D01*
X5445595Y-17297929D02*
X5455119Y-17307452D01*
X5445595Y-17316976D01*
X5436071Y-17307452D01*
X5445595Y-17297929D01*
X5445595Y-17316976D01*
X5578929Y-17116976D02*
X5597976Y-17116976D01*
X5617024Y-17126500D01*
X5626548Y-17136024D01*
X5636071Y-17155071D01*
X5645595Y-17193167D01*
X5645595Y-17240786D01*
X5636071Y-17278881D01*
X5626548Y-17297929D01*
X5617024Y-17307452D01*
X5597976Y-17316976D01*
X5578929Y-17316976D01*
X5559881Y-17307452D01*
X5550357Y-17297929D01*
X5540833Y-17278881D01*
X5531310Y-17240786D01*
X5531310Y-17193167D01*
X5540833Y-17155071D01*
X5550357Y-17136024D01*
X5559881Y-17126500D01*
X5578929Y-17116976D01*
X5836071Y-17316976D02*
X5721786Y-17316976D01*
X5778928Y-17316976D02*
X5778928Y-17116976D01*
X5759881Y-17145548D01*
X5740833Y-17164595D01*
X5721786Y-17174119D01*
X6007500Y-17116976D02*
X5969405Y-17116976D01*
X5950357Y-17126500D01*
X5940833Y-17136024D01*
X5921786Y-17164595D01*
X5912262Y-17202690D01*
X5912262Y-17278881D01*
X5921786Y-17297929D01*
X5931309Y-17307452D01*
X5950357Y-17316976D01*
X5988452Y-17316976D01*
X6007500Y-17307452D01*
X6017024Y-17297929D01*
X6026548Y-17278881D01*
X6026548Y-17231262D01*
X6017024Y-17212214D01*
X6007500Y-17202690D01*
X5988452Y-17193167D01*
X5950357Y-17193167D01*
X5931309Y-17202690D01*
X5921786Y-17212214D01*
X5912262Y-17231262D01*
X6112262Y-17316976D02*
X6112262Y-17183643D01*
X6112262Y-17202690D02*
X6121786Y-17193167D01*
X6140833Y-17183643D01*
X6169405Y-17183643D01*
X6188452Y-17193167D01*
X6197976Y-17212214D01*
X6197976Y-17316976D01*
X6197976Y-17212214D02*
X6207500Y-17193167D01*
X6226548Y-17183643D01*
X6255119Y-17183643D01*
X6274167Y-17193167D01*
X6283690Y-17212214D01*
X6283690Y-17316976D01*
X6378928Y-17316976D02*
X6378928Y-17183643D01*
X6378928Y-17202690D02*
X6388452Y-17193167D01*
X6407500Y-17183643D01*
X6436071Y-17183643D01*
X6455119Y-17193167D01*
X6464643Y-17212214D01*
X6464643Y-17316976D01*
X6464643Y-17212214D02*
X6474167Y-17193167D01*
X6493214Y-17183643D01*
X6521786Y-17183643D01*
X6540833Y-17193167D01*
X6550357Y-17212214D01*
X6550357Y-17316976D01*
X6940833Y-17107452D02*
X6769405Y-17364595D01*
X7197976Y-17116976D02*
X7217024Y-17116976D01*
X7236071Y-17126500D01*
X7245595Y-17136024D01*
X7255119Y-17155071D01*
X7264643Y-17193167D01*
X7264643Y-17240786D01*
X7255119Y-17278881D01*
X7245595Y-17297929D01*
X7236071Y-17307452D01*
X7217024Y-17316976D01*
X7197976Y-17316976D01*
X7178928Y-17307452D01*
X7169405Y-17297929D01*
X7159881Y-17278881D01*
X7150357Y-17240786D01*
X7150357Y-17193167D01*
X7159881Y-17155071D01*
X7169405Y-17136024D01*
X7178928Y-17126500D01*
X7197976Y-17116976D01*
X7350357Y-17297929D02*
X7359881Y-17307452D01*
X7350357Y-17316976D01*
X7340833Y-17307452D01*
X7350357Y-17297929D01*
X7350357Y-17316976D01*
X7483690Y-17116976D02*
X7502738Y-17116976D01*
X7521786Y-17126500D01*
X7531309Y-17136024D01*
X7540833Y-17155071D01*
X7550357Y-17193167D01*
X7550357Y-17240786D01*
X7540833Y-17278881D01*
X7531309Y-17297929D01*
X7521786Y-17307452D01*
X7502738Y-17316976D01*
X7483690Y-17316976D01*
X7464643Y-17307452D01*
X7455119Y-17297929D01*
X7445595Y-17278881D01*
X7436071Y-17240786D01*
X7436071Y-17193167D01*
X7445595Y-17155071D01*
X7455119Y-17136024D01*
X7464643Y-17126500D01*
X7483690Y-17116976D01*
X7721786Y-17183643D02*
X7721786Y-17316976D01*
X7674167Y-17107452D02*
X7626548Y-17250310D01*
X7750357Y-17250310D01*
X7864643Y-17116976D02*
X7883690Y-17116976D01*
X7902738Y-17126500D01*
X7912262Y-17136024D01*
X7921786Y-17155071D01*
X7931309Y-17193167D01*
X7931309Y-17240786D01*
X7921786Y-17278881D01*
X7912262Y-17297929D01*
X7902738Y-17307452D01*
X7883690Y-17316976D01*
X7864643Y-17316976D01*
X7845595Y-17307452D01*
X7836071Y-17297929D01*
X7826548Y-17278881D01*
X7817024Y-17240786D01*
X7817024Y-17193167D01*
X7826548Y-17155071D01*
X7836071Y-17136024D01*
X7845595Y-17126500D01*
X7864643Y-17116976D01*
X8055119Y-17116976D02*
X8074167Y-17116976D01*
X8093214Y-17126500D01*
X8102738Y-17136024D01*
X8112262Y-17155071D01*
X8121786Y-17193167D01*
X8121786Y-17240786D01*
X8112262Y-17278881D01*
X8102738Y-17297929D01*
X8093214Y-17307452D01*
X8074167Y-17316976D01*
X8055119Y-17316976D01*
X8036071Y-17307452D01*
X8026548Y-17297929D01*
X8017024Y-17278881D01*
X8007500Y-17240786D01*
X8007500Y-17193167D01*
X8017024Y-17155071D01*
X8026548Y-17136024D01*
X8036071Y-17126500D01*
X8055119Y-17116976D01*
X8197976Y-17116976D02*
X8197976Y-17155071D01*
X8274167Y-17116976D02*
X8274167Y-17155071D01*
X8569405Y-17393167D02*
X8559881Y-17383643D01*
X8540833Y-17355071D01*
X8531310Y-17336024D01*
X8521786Y-17307452D01*
X8512262Y-17259833D01*
X8512262Y-17221738D01*
X8521786Y-17174119D01*
X8531310Y-17145548D01*
X8540833Y-17126500D01*
X8559881Y-17097929D01*
X8569405Y-17088405D01*
X8655119Y-17316976D02*
X8693214Y-17316976D01*
X8712262Y-17307452D01*
X8721786Y-17297929D01*
X8740833Y-17269357D01*
X8750357Y-17231262D01*
X8750357Y-17155071D01*
X8740833Y-17136024D01*
X8731310Y-17126500D01*
X8712262Y-17116976D01*
X8674167Y-17116976D01*
X8655119Y-17126500D01*
X8645595Y-17136024D01*
X8636071Y-17155071D01*
X8636071Y-17202690D01*
X8645595Y-17221738D01*
X8655119Y-17231262D01*
X8674167Y-17240786D01*
X8712262Y-17240786D01*
X8731310Y-17231262D01*
X8740833Y-17221738D01*
X8750357Y-17202690D01*
X8988452Y-17316976D02*
X8988452Y-17116976D01*
X9074167Y-17316976D02*
X9074167Y-17212214D01*
X9064643Y-17193167D01*
X9045595Y-17183643D01*
X9017024Y-17183643D01*
X8997976Y-17193167D01*
X8988452Y-17202690D01*
X9197976Y-17316976D02*
X9178929Y-17307452D01*
X9169405Y-17297929D01*
X9159881Y-17278881D01*
X9159881Y-17221738D01*
X9169405Y-17202690D01*
X9178929Y-17193167D01*
X9197976Y-17183643D01*
X9226548Y-17183643D01*
X9245595Y-17193167D01*
X9255119Y-17202690D01*
X9264643Y-17221738D01*
X9264643Y-17278881D01*
X9255119Y-17297929D01*
X9245595Y-17307452D01*
X9226548Y-17316976D01*
X9197976Y-17316976D01*
X9378929Y-17316976D02*
X9359881Y-17307452D01*
X9350357Y-17288405D01*
X9350357Y-17116976D01*
X9531310Y-17307452D02*
X9512262Y-17316976D01*
X9474167Y-17316976D01*
X9455119Y-17307452D01*
X9445595Y-17288405D01*
X9445595Y-17212214D01*
X9455119Y-17193167D01*
X9474167Y-17183643D01*
X9512262Y-17183643D01*
X9531310Y-17193167D01*
X9540833Y-17212214D01*
X9540833Y-17231262D01*
X9445595Y-17250310D01*
X9617024Y-17307452D02*
X9636071Y-17316976D01*
X9674167Y-17316976D01*
X9693214Y-17307452D01*
X9702738Y-17288405D01*
X9702738Y-17278881D01*
X9693214Y-17259833D01*
X9674167Y-17250310D01*
X9645595Y-17250310D01*
X9626548Y-17240786D01*
X9617024Y-17221738D01*
X9617024Y-17212214D01*
X9626548Y-17193167D01*
X9645595Y-17183643D01*
X9674167Y-17183643D01*
X9693214Y-17193167D01*
X9769405Y-17393167D02*
X9778929Y-17383643D01*
X9797976Y-17355071D01*
X9807500Y-17336024D01*
X9817024Y-17307452D01*
X9826548Y-17259833D01*
X9826548Y-17221738D01*
X9817024Y-17174119D01*
X9807500Y-17145548D01*
X9797976Y-17126500D01*
X9778929Y-17097929D01*
X9769405Y-17088405D01*
D19*
X4857800Y-17420650D02*
X4997500Y-17560350D01*
X4997500Y-17420650D02*
X4857800Y-17560350D01*
X4977042Y-17539892D02*
X4977042Y-17441108D01*
X4878258Y-17441108D01*
X4878258Y-17539892D01*
X4977042Y-17539892D01*
D11*
X5359881Y-17580976D02*
X5245595Y-17580976D01*
X5302738Y-17580976D02*
X5302738Y-17380976D01*
X5283690Y-17409548D01*
X5264643Y-17428595D01*
X5245595Y-17438119D01*
X5445595Y-17561929D02*
X5455119Y-17571452D01*
X5445595Y-17580976D01*
X5436071Y-17571452D01*
X5445595Y-17561929D01*
X5445595Y-17580976D01*
X5521786Y-17380976D02*
X5645595Y-17380976D01*
X5578929Y-17457167D01*
X5607500Y-17457167D01*
X5626548Y-17466690D01*
X5636071Y-17476214D01*
X5645595Y-17495262D01*
X5645595Y-17542881D01*
X5636071Y-17561929D01*
X5626548Y-17571452D01*
X5607500Y-17580976D01*
X5550357Y-17580976D01*
X5531310Y-17571452D01*
X5521786Y-17561929D01*
X5740833Y-17580976D02*
X5778928Y-17580976D01*
X5797976Y-17571452D01*
X5807500Y-17561929D01*
X5826548Y-17533357D01*
X5836071Y-17495262D01*
X5836071Y-17419071D01*
X5826548Y-17400024D01*
X5817024Y-17390500D01*
X5797976Y-17380976D01*
X5759881Y-17380976D01*
X5740833Y-17390500D01*
X5731309Y-17400024D01*
X5721786Y-17419071D01*
X5721786Y-17466690D01*
X5731309Y-17485738D01*
X5740833Y-17495262D01*
X5759881Y-17504786D01*
X5797976Y-17504786D01*
X5817024Y-17495262D01*
X5826548Y-17485738D01*
X5836071Y-17466690D01*
X5902738Y-17380976D02*
X6036071Y-17380976D01*
X5950357Y-17580976D01*
X6112262Y-17580976D02*
X6112262Y-17447643D01*
X6112262Y-17466690D02*
X6121786Y-17457167D01*
X6140833Y-17447643D01*
X6169405Y-17447643D01*
X6188452Y-17457167D01*
X6197976Y-17476214D01*
X6197976Y-17580976D01*
X6197976Y-17476214D02*
X6207500Y-17457167D01*
X6226548Y-17447643D01*
X6255119Y-17447643D01*
X6274167Y-17457167D01*
X6283690Y-17476214D01*
X6283690Y-17580976D01*
X6378928Y-17580976D02*
X6378928Y-17447643D01*
X6378928Y-17466690D02*
X6388452Y-17457167D01*
X6407500Y-17447643D01*
X6436071Y-17447643D01*
X6455119Y-17457167D01*
X6464643Y-17476214D01*
X6464643Y-17580976D01*
X6464643Y-17476214D02*
X6474167Y-17457167D01*
X6493214Y-17447643D01*
X6521786Y-17447643D01*
X6540833Y-17457167D01*
X6550357Y-17476214D01*
X6550357Y-17580976D01*
X6940833Y-17371452D02*
X6769405Y-17628595D01*
X7197976Y-17380976D02*
X7217024Y-17380976D01*
X7236071Y-17390500D01*
X7245595Y-17400024D01*
X7255119Y-17419071D01*
X7264643Y-17457167D01*
X7264643Y-17504786D01*
X7255119Y-17542881D01*
X7245595Y-17561929D01*
X7236071Y-17571452D01*
X7217024Y-17580976D01*
X7197976Y-17580976D01*
X7178928Y-17571452D01*
X7169405Y-17561929D01*
X7159881Y-17542881D01*
X7150357Y-17504786D01*
X7150357Y-17457167D01*
X7159881Y-17419071D01*
X7169405Y-17400024D01*
X7178928Y-17390500D01*
X7197976Y-17380976D01*
X7350357Y-17561929D02*
X7359881Y-17571452D01*
X7350357Y-17580976D01*
X7340833Y-17571452D01*
X7350357Y-17561929D01*
X7350357Y-17580976D01*
X7483690Y-17380976D02*
X7502738Y-17380976D01*
X7521786Y-17390500D01*
X7531309Y-17400024D01*
X7540833Y-17419071D01*
X7550357Y-17457167D01*
X7550357Y-17504786D01*
X7540833Y-17542881D01*
X7531309Y-17561929D01*
X7521786Y-17571452D01*
X7502738Y-17580976D01*
X7483690Y-17580976D01*
X7464643Y-17571452D01*
X7455119Y-17561929D01*
X7445595Y-17542881D01*
X7436071Y-17504786D01*
X7436071Y-17457167D01*
X7445595Y-17419071D01*
X7455119Y-17400024D01*
X7464643Y-17390500D01*
X7483690Y-17380976D01*
X7731309Y-17380976D02*
X7636071Y-17380976D01*
X7626548Y-17476214D01*
X7636071Y-17466690D01*
X7655119Y-17457167D01*
X7702738Y-17457167D01*
X7721786Y-17466690D01*
X7731309Y-17476214D01*
X7740833Y-17495262D01*
X7740833Y-17542881D01*
X7731309Y-17561929D01*
X7721786Y-17571452D01*
X7702738Y-17580976D01*
X7655119Y-17580976D01*
X7636071Y-17571452D01*
X7626548Y-17561929D01*
X7921786Y-17380976D02*
X7826548Y-17380976D01*
X7817024Y-17476214D01*
X7826548Y-17466690D01*
X7845595Y-17457167D01*
X7893214Y-17457167D01*
X7912262Y-17466690D01*
X7921786Y-17476214D01*
X7931309Y-17495262D01*
X7931309Y-17542881D01*
X7921786Y-17561929D01*
X7912262Y-17571452D01*
X7893214Y-17580976D01*
X7845595Y-17580976D01*
X7826548Y-17571452D01*
X7817024Y-17561929D01*
X8055119Y-17380976D02*
X8074167Y-17380976D01*
X8093214Y-17390500D01*
X8102738Y-17400024D01*
X8112262Y-17419071D01*
X8121786Y-17457167D01*
X8121786Y-17504786D01*
X8112262Y-17542881D01*
X8102738Y-17561929D01*
X8093214Y-17571452D01*
X8074167Y-17580976D01*
X8055119Y-17580976D01*
X8036071Y-17571452D01*
X8026548Y-17561929D01*
X8017024Y-17542881D01*
X8007500Y-17504786D01*
X8007500Y-17457167D01*
X8017024Y-17419071D01*
X8026548Y-17400024D01*
X8036071Y-17390500D01*
X8055119Y-17380976D01*
X8197976Y-17380976D02*
X8197976Y-17419071D01*
X8274167Y-17380976D02*
X8274167Y-17419071D01*
X8569405Y-17657167D02*
X8559881Y-17647643D01*
X8540833Y-17619071D01*
X8531310Y-17600024D01*
X8521786Y-17571452D01*
X8512262Y-17523833D01*
X8512262Y-17485738D01*
X8521786Y-17438119D01*
X8531310Y-17409548D01*
X8540833Y-17390500D01*
X8559881Y-17361929D01*
X8569405Y-17352405D01*
X8636071Y-17400024D02*
X8645595Y-17390500D01*
X8664643Y-17380976D01*
X8712262Y-17380976D01*
X8731310Y-17390500D01*
X8740833Y-17400024D01*
X8750357Y-17419071D01*
X8750357Y-17438119D01*
X8740833Y-17466690D01*
X8626548Y-17580976D01*
X8750357Y-17580976D01*
X8988452Y-17580976D02*
X8988452Y-17380976D01*
X9074167Y-17580976D02*
X9074167Y-17476214D01*
X9064643Y-17457167D01*
X9045595Y-17447643D01*
X9017024Y-17447643D01*
X8997976Y-17457167D01*
X8988452Y-17466690D01*
X9197976Y-17580976D02*
X9178929Y-17571452D01*
X9169405Y-17561929D01*
X9159881Y-17542881D01*
X9159881Y-17485738D01*
X9169405Y-17466690D01*
X9178929Y-17457167D01*
X9197976Y-17447643D01*
X9226548Y-17447643D01*
X9245595Y-17457167D01*
X9255119Y-17466690D01*
X9264643Y-17485738D01*
X9264643Y-17542881D01*
X9255119Y-17561929D01*
X9245595Y-17571452D01*
X9226548Y-17580976D01*
X9197976Y-17580976D01*
X9378929Y-17580976D02*
X9359881Y-17571452D01*
X9350357Y-17552405D01*
X9350357Y-17380976D01*
X9531310Y-17571452D02*
X9512262Y-17580976D01*
X9474167Y-17580976D01*
X9455119Y-17571452D01*
X9445595Y-17552405D01*
X9445595Y-17476214D01*
X9455119Y-17457167D01*
X9474167Y-17447643D01*
X9512262Y-17447643D01*
X9531310Y-17457167D01*
X9540833Y-17476214D01*
X9540833Y-17495262D01*
X9445595Y-17514310D01*
X9617024Y-17571452D02*
X9636071Y-17580976D01*
X9674167Y-17580976D01*
X9693214Y-17571452D01*
X9702738Y-17552405D01*
X9702738Y-17542881D01*
X9693214Y-17523833D01*
X9674167Y-17514310D01*
X9645595Y-17514310D01*
X9626548Y-17504786D01*
X9617024Y-17485738D01*
X9617024Y-17476214D01*
X9626548Y-17457167D01*
X9645595Y-17447643D01*
X9674167Y-17447643D01*
X9693214Y-17457167D01*
X9769405Y-17657167D02*
X9778929Y-17647643D01*
X9797976Y-17619071D01*
X9807500Y-17600024D01*
X9817024Y-17571452D01*
X9826548Y-17523833D01*
X9826548Y-17485738D01*
X9817024Y-17438119D01*
X9807500Y-17409548D01*
X9797976Y-17390500D01*
X9778929Y-17361929D01*
X9769405Y-17352405D01*
D20*
X4847500Y-17679500D02*
X4997500Y-17829500D01*
X4997500Y-17679500D02*
X4847500Y-17829500D01*
X4922500Y-17829500D02*
X4997500Y-17754500D01*
X4922500Y-17679500D01*
X4847500Y-17754500D01*
X4922500Y-17829500D01*
D11*
X5359881Y-17844976D02*
X5245595Y-17844976D01*
X5302738Y-17844976D02*
X5302738Y-17644976D01*
X5283690Y-17673548D01*
X5264643Y-17692595D01*
X5245595Y-17702119D01*
X5445595Y-17825929D02*
X5455119Y-17835452D01*
X5445595Y-17844976D01*
X5436071Y-17835452D01*
X5445595Y-17825929D01*
X5445595Y-17844976D01*
X5636071Y-17644976D02*
X5540833Y-17644976D01*
X5531310Y-17740214D01*
X5540833Y-17730690D01*
X5559881Y-17721167D01*
X5607500Y-17721167D01*
X5626548Y-17730690D01*
X5636071Y-17740214D01*
X5645595Y-17759262D01*
X5645595Y-17806881D01*
X5636071Y-17825929D01*
X5626548Y-17835452D01*
X5607500Y-17844976D01*
X5559881Y-17844976D01*
X5540833Y-17835452D01*
X5531310Y-17825929D01*
X5769405Y-17644976D02*
X5788452Y-17644976D01*
X5807500Y-17654500D01*
X5817024Y-17664024D01*
X5826548Y-17683071D01*
X5836071Y-17721167D01*
X5836071Y-17768786D01*
X5826548Y-17806881D01*
X5817024Y-17825929D01*
X5807500Y-17835452D01*
X5788452Y-17844976D01*
X5769405Y-17844976D01*
X5750357Y-17835452D01*
X5740833Y-17825929D01*
X5731309Y-17806881D01*
X5721786Y-17768786D01*
X5721786Y-17721167D01*
X5731309Y-17683071D01*
X5740833Y-17664024D01*
X5750357Y-17654500D01*
X5769405Y-17644976D01*
X5959881Y-17644976D02*
X5978928Y-17644976D01*
X5997976Y-17654500D01*
X6007500Y-17664024D01*
X6017024Y-17683071D01*
X6026548Y-17721167D01*
X6026548Y-17768786D01*
X6017024Y-17806881D01*
X6007500Y-17825929D01*
X5997976Y-17835452D01*
X5978928Y-17844976D01*
X5959881Y-17844976D01*
X5940833Y-17835452D01*
X5931309Y-17825929D01*
X5921786Y-17806881D01*
X5912262Y-17768786D01*
X5912262Y-17721167D01*
X5921786Y-17683071D01*
X5931309Y-17664024D01*
X5940833Y-17654500D01*
X5959881Y-17644976D01*
X6112262Y-17844976D02*
X6112262Y-17711643D01*
X6112262Y-17730690D02*
X6121786Y-17721167D01*
X6140833Y-17711643D01*
X6169405Y-17711643D01*
X6188452Y-17721167D01*
X6197976Y-17740214D01*
X6197976Y-17844976D01*
X6197976Y-17740214D02*
X6207500Y-17721167D01*
X6226548Y-17711643D01*
X6255119Y-17711643D01*
X6274167Y-17721167D01*
X6283690Y-17740214D01*
X6283690Y-17844976D01*
X6378928Y-17844976D02*
X6378928Y-17711643D01*
X6378928Y-17730690D02*
X6388452Y-17721167D01*
X6407500Y-17711643D01*
X6436071Y-17711643D01*
X6455119Y-17721167D01*
X6464643Y-17740214D01*
X6464643Y-17844976D01*
X6464643Y-17740214D02*
X6474167Y-17721167D01*
X6493214Y-17711643D01*
X6521786Y-17711643D01*
X6540833Y-17721167D01*
X6550357Y-17740214D01*
X6550357Y-17844976D01*
X6940833Y-17635452D02*
X6769405Y-17892595D01*
X7197976Y-17644976D02*
X7217024Y-17644976D01*
X7236071Y-17654500D01*
X7245595Y-17664024D01*
X7255119Y-17683071D01*
X7264643Y-17721167D01*
X7264643Y-17768786D01*
X7255119Y-17806881D01*
X7245595Y-17825929D01*
X7236071Y-17835452D01*
X7217024Y-17844976D01*
X7197976Y-17844976D01*
X7178928Y-17835452D01*
X7169405Y-17825929D01*
X7159881Y-17806881D01*
X7150357Y-17768786D01*
X7150357Y-17721167D01*
X7159881Y-17683071D01*
X7169405Y-17664024D01*
X7178928Y-17654500D01*
X7197976Y-17644976D01*
X7350357Y-17825929D02*
X7359881Y-17835452D01*
X7350357Y-17844976D01*
X7340833Y-17835452D01*
X7350357Y-17825929D01*
X7350357Y-17844976D01*
X7483690Y-17644976D02*
X7502738Y-17644976D01*
X7521786Y-17654500D01*
X7531309Y-17664024D01*
X7540833Y-17683071D01*
X7550357Y-17721167D01*
X7550357Y-17768786D01*
X7540833Y-17806881D01*
X7531309Y-17825929D01*
X7521786Y-17835452D01*
X7502738Y-17844976D01*
X7483690Y-17844976D01*
X7464643Y-17835452D01*
X7455119Y-17825929D01*
X7445595Y-17806881D01*
X7436071Y-17768786D01*
X7436071Y-17721167D01*
X7445595Y-17683071D01*
X7455119Y-17664024D01*
X7464643Y-17654500D01*
X7483690Y-17644976D01*
X7731309Y-17644976D02*
X7636071Y-17644976D01*
X7626548Y-17740214D01*
X7636071Y-17730690D01*
X7655119Y-17721167D01*
X7702738Y-17721167D01*
X7721786Y-17730690D01*
X7731309Y-17740214D01*
X7740833Y-17759262D01*
X7740833Y-17806881D01*
X7731309Y-17825929D01*
X7721786Y-17835452D01*
X7702738Y-17844976D01*
X7655119Y-17844976D01*
X7636071Y-17835452D01*
X7626548Y-17825929D01*
X7836071Y-17844976D02*
X7874167Y-17844976D01*
X7893214Y-17835452D01*
X7902738Y-17825929D01*
X7921786Y-17797357D01*
X7931309Y-17759262D01*
X7931309Y-17683071D01*
X7921786Y-17664024D01*
X7912262Y-17654500D01*
X7893214Y-17644976D01*
X7855119Y-17644976D01*
X7836071Y-17654500D01*
X7826548Y-17664024D01*
X7817024Y-17683071D01*
X7817024Y-17730690D01*
X7826548Y-17749738D01*
X7836071Y-17759262D01*
X7855119Y-17768786D01*
X7893214Y-17768786D01*
X7912262Y-17759262D01*
X7921786Y-17749738D01*
X7931309Y-17730690D01*
X8121786Y-17844976D02*
X8007500Y-17844976D01*
X8064643Y-17844976D02*
X8064643Y-17644976D01*
X8045595Y-17673548D01*
X8026548Y-17692595D01*
X8007500Y-17702119D01*
X8197976Y-17644976D02*
X8197976Y-17683071D01*
X8274167Y-17644976D02*
X8274167Y-17683071D01*
X8569405Y-17921167D02*
X8559881Y-17911643D01*
X8540833Y-17883071D01*
X8531310Y-17864024D01*
X8521786Y-17835452D01*
X8512262Y-17787833D01*
X8512262Y-17749738D01*
X8521786Y-17702119D01*
X8531310Y-17673548D01*
X8540833Y-17654500D01*
X8559881Y-17625929D01*
X8569405Y-17616405D01*
X8636071Y-17664024D02*
X8645595Y-17654500D01*
X8664643Y-17644976D01*
X8712262Y-17644976D01*
X8731310Y-17654500D01*
X8740833Y-17664024D01*
X8750357Y-17683071D01*
X8750357Y-17702119D01*
X8740833Y-17730690D01*
X8626548Y-17844976D01*
X8750357Y-17844976D01*
X8874167Y-17644976D02*
X8893214Y-17644976D01*
X8912262Y-17654500D01*
X8921786Y-17664024D01*
X8931310Y-17683071D01*
X8940833Y-17721167D01*
X8940833Y-17768786D01*
X8931310Y-17806881D01*
X8921786Y-17825929D01*
X8912262Y-17835452D01*
X8893214Y-17844976D01*
X8874167Y-17844976D01*
X8855119Y-17835452D01*
X8845595Y-17825929D01*
X8836071Y-17806881D01*
X8826548Y-17768786D01*
X8826548Y-17721167D01*
X8836071Y-17683071D01*
X8845595Y-17664024D01*
X8855119Y-17654500D01*
X8874167Y-17644976D01*
X9178929Y-17844976D02*
X9178929Y-17644976D01*
X9264643Y-17844976D02*
X9264643Y-17740214D01*
X9255119Y-17721167D01*
X9236071Y-17711643D01*
X9207500Y-17711643D01*
X9188452Y-17721167D01*
X9178929Y-17730690D01*
X9388452Y-17844976D02*
X9369405Y-17835452D01*
X9359881Y-17825929D01*
X9350357Y-17806881D01*
X9350357Y-17749738D01*
X9359881Y-17730690D01*
X9369405Y-17721167D01*
X9388452Y-17711643D01*
X9417024Y-17711643D01*
X9436071Y-17721167D01*
X9445595Y-17730690D01*
X9455119Y-17749738D01*
X9455119Y-17806881D01*
X9445595Y-17825929D01*
X9436071Y-17835452D01*
X9417024Y-17844976D01*
X9388452Y-17844976D01*
X9569405Y-17844976D02*
X9550357Y-17835452D01*
X9540833Y-17816405D01*
X9540833Y-17644976D01*
X9721786Y-17835452D02*
X9702738Y-17844976D01*
X9664643Y-17844976D01*
X9645595Y-17835452D01*
X9636071Y-17816405D01*
X9636071Y-17740214D01*
X9645595Y-17721167D01*
X9664643Y-17711643D01*
X9702738Y-17711643D01*
X9721786Y-17721167D01*
X9731310Y-17740214D01*
X9731310Y-17759262D01*
X9636071Y-17778310D01*
X9807500Y-17835452D02*
X9826548Y-17844976D01*
X9864643Y-17844976D01*
X9883690Y-17835452D01*
X9893214Y-17816405D01*
X9893214Y-17806881D01*
X9883690Y-17787833D01*
X9864643Y-17778310D01*
X9836071Y-17778310D01*
X9817024Y-17768786D01*
X9807500Y-17749738D01*
X9807500Y-17740214D01*
X9817024Y-17721167D01*
X9836071Y-17711643D01*
X9864643Y-17711643D01*
X9883690Y-17721167D01*
X9959881Y-17921167D02*
X9969405Y-17911643D01*
X9988452Y-17883071D01*
X9997976Y-17864024D01*
X10007500Y-17835452D01*
X10017024Y-17787833D01*
X10017024Y-17749738D01*
X10007500Y-17702119D01*
X9997976Y-17673548D01*
X9988452Y-17654500D01*
X9969405Y-17625929D01*
X9959881Y-17616405D01*
X4897500Y-17924500D02*
X4897500Y-18124500D01*
X4797500Y-18024500D02*
X4997500Y-18024500D01*
X4997500Y-18024500D02*
G75*
G03*
X4997500Y-18024500I-100000J0D01*
G01*
X5236071Y-17914976D02*
X5359881Y-17914976D01*
X5293214Y-17991167D01*
X5321786Y-17991167D01*
X5340833Y-18000690D01*
X5350357Y-18010214D01*
X5359881Y-18029262D01*
X5359881Y-18076881D01*
X5350357Y-18095929D01*
X5340833Y-18105452D01*
X5321786Y-18114976D01*
X5264643Y-18114976D01*
X5245595Y-18105452D01*
X5236071Y-18095929D01*
X5445595Y-18095929D02*
X5455119Y-18105452D01*
X5445595Y-18114976D01*
X5436071Y-18105452D01*
X5445595Y-18095929D01*
X5445595Y-18114976D01*
X5636071Y-17914976D02*
X5540833Y-17914976D01*
X5531310Y-18010214D01*
X5540833Y-18000690D01*
X5559881Y-17991167D01*
X5607500Y-17991167D01*
X5626548Y-18000690D01*
X5636071Y-18010214D01*
X5645595Y-18029262D01*
X5645595Y-18076881D01*
X5636071Y-18095929D01*
X5626548Y-18105452D01*
X5607500Y-18114976D01*
X5559881Y-18114976D01*
X5540833Y-18105452D01*
X5531310Y-18095929D01*
X5769405Y-17914976D02*
X5788452Y-17914976D01*
X5807500Y-17924500D01*
X5817024Y-17934024D01*
X5826548Y-17953071D01*
X5836071Y-17991167D01*
X5836071Y-18038786D01*
X5826548Y-18076881D01*
X5817024Y-18095929D01*
X5807500Y-18105452D01*
X5788452Y-18114976D01*
X5769405Y-18114976D01*
X5750357Y-18105452D01*
X5740833Y-18095929D01*
X5731309Y-18076881D01*
X5721786Y-18038786D01*
X5721786Y-17991167D01*
X5731309Y-17953071D01*
X5740833Y-17934024D01*
X5750357Y-17924500D01*
X5769405Y-17914976D01*
X5959881Y-17914976D02*
X5978928Y-17914976D01*
X5997976Y-17924500D01*
X6007500Y-17934024D01*
X6017024Y-17953071D01*
X6026548Y-17991167D01*
X6026548Y-18038786D01*
X6017024Y-18076881D01*
X6007500Y-18095929D01*
X5997976Y-18105452D01*
X5978928Y-18114976D01*
X5959881Y-18114976D01*
X5940833Y-18105452D01*
X5931309Y-18095929D01*
X5921786Y-18076881D01*
X5912262Y-18038786D01*
X5912262Y-17991167D01*
X5921786Y-17953071D01*
X5931309Y-17934024D01*
X5940833Y-17924500D01*
X5959881Y-17914976D01*
X6112262Y-18114976D02*
X6112262Y-17981643D01*
X6112262Y-18000690D02*
X6121786Y-17991167D01*
X6140833Y-17981643D01*
X6169405Y-17981643D01*
X6188452Y-17991167D01*
X6197976Y-18010214D01*
X6197976Y-18114976D01*
X6197976Y-18010214D02*
X6207500Y-17991167D01*
X6226548Y-17981643D01*
X6255119Y-17981643D01*
X6274167Y-17991167D01*
X6283690Y-18010214D01*
X6283690Y-18114976D01*
X6378928Y-18114976D02*
X6378928Y-17981643D01*
X6378928Y-18000690D02*
X6388452Y-17991167D01*
X6407500Y-17981643D01*
X6436071Y-17981643D01*
X6455119Y-17991167D01*
X6464643Y-18010214D01*
X6464643Y-18114976D01*
X6464643Y-18010214D02*
X6474167Y-17991167D01*
X6493214Y-17981643D01*
X6521786Y-17981643D01*
X6540833Y-17991167D01*
X6550357Y-18010214D01*
X6550357Y-18114976D01*
X6940833Y-17905452D02*
X6769405Y-18162595D01*
X7197976Y-17914976D02*
X7217024Y-17914976D01*
X7236071Y-17924500D01*
X7245595Y-17934024D01*
X7255119Y-17953071D01*
X7264643Y-17991167D01*
X7264643Y-18038786D01*
X7255119Y-18076881D01*
X7245595Y-18095929D01*
X7236071Y-18105452D01*
X7217024Y-18114976D01*
X7197976Y-18114976D01*
X7178928Y-18105452D01*
X7169405Y-18095929D01*
X7159881Y-18076881D01*
X7150357Y-18038786D01*
X7150357Y-17991167D01*
X7159881Y-17953071D01*
X7169405Y-17934024D01*
X7178928Y-17924500D01*
X7197976Y-17914976D01*
X7350357Y-18095929D02*
X7359881Y-18105452D01*
X7350357Y-18114976D01*
X7340833Y-18105452D01*
X7350357Y-18095929D01*
X7350357Y-18114976D01*
X7550357Y-18114976D02*
X7436071Y-18114976D01*
X7493214Y-18114976D02*
X7493214Y-17914976D01*
X7474167Y-17943548D01*
X7455119Y-17962595D01*
X7436071Y-17972119D01*
X7617024Y-17914976D02*
X7740833Y-17914976D01*
X7674167Y-17991167D01*
X7702738Y-17991167D01*
X7721786Y-18000690D01*
X7731309Y-18010214D01*
X7740833Y-18029262D01*
X7740833Y-18076881D01*
X7731309Y-18095929D01*
X7721786Y-18105452D01*
X7702738Y-18114976D01*
X7645595Y-18114976D01*
X7626548Y-18105452D01*
X7617024Y-18095929D01*
X7807500Y-17914976D02*
X7940833Y-17914976D01*
X7855119Y-18114976D01*
X8045595Y-18000690D02*
X8026548Y-17991167D01*
X8017024Y-17981643D01*
X8007500Y-17962595D01*
X8007500Y-17953071D01*
X8017024Y-17934024D01*
X8026548Y-17924500D01*
X8045595Y-17914976D01*
X8083690Y-17914976D01*
X8102738Y-17924500D01*
X8112262Y-17934024D01*
X8121786Y-17953071D01*
X8121786Y-17962595D01*
X8112262Y-17981643D01*
X8102738Y-17991167D01*
X8083690Y-18000690D01*
X8045595Y-18000690D01*
X8026548Y-18010214D01*
X8017024Y-18019738D01*
X8007500Y-18038786D01*
X8007500Y-18076881D01*
X8017024Y-18095929D01*
X8026548Y-18105452D01*
X8045595Y-18114976D01*
X8083690Y-18114976D01*
X8102738Y-18105452D01*
X8112262Y-18095929D01*
X8121786Y-18076881D01*
X8121786Y-18038786D01*
X8112262Y-18019738D01*
X8102738Y-18010214D01*
X8083690Y-18000690D01*
X8197976Y-17914976D02*
X8197976Y-17953071D01*
X8274167Y-17914976D02*
X8274167Y-17953071D01*
X8569405Y-18191167D02*
X8559881Y-18181643D01*
X8540833Y-18153071D01*
X8531310Y-18134024D01*
X8521786Y-18105452D01*
X8512262Y-18057833D01*
X8512262Y-18019738D01*
X8521786Y-17972119D01*
X8531310Y-17943548D01*
X8540833Y-17924500D01*
X8559881Y-17895929D01*
X8569405Y-17886405D01*
X8731310Y-17914976D02*
X8693214Y-17914976D01*
X8674167Y-17924500D01*
X8664643Y-17934024D01*
X8645595Y-17962595D01*
X8636071Y-18000690D01*
X8636071Y-18076881D01*
X8645595Y-18095929D01*
X8655119Y-18105452D01*
X8674167Y-18114976D01*
X8712262Y-18114976D01*
X8731310Y-18105452D01*
X8740833Y-18095929D01*
X8750357Y-18076881D01*
X8750357Y-18029262D01*
X8740833Y-18010214D01*
X8731310Y-18000690D01*
X8712262Y-17991167D01*
X8674167Y-17991167D01*
X8655119Y-18000690D01*
X8645595Y-18010214D01*
X8636071Y-18029262D01*
X8988452Y-18114976D02*
X8988452Y-17914976D01*
X9074167Y-18114976D02*
X9074167Y-18010214D01*
X9064643Y-17991167D01*
X9045595Y-17981643D01*
X9017024Y-17981643D01*
X8997976Y-17991167D01*
X8988452Y-18000690D01*
X9197976Y-18114976D02*
X9178929Y-18105452D01*
X9169405Y-18095929D01*
X9159881Y-18076881D01*
X9159881Y-18019738D01*
X9169405Y-18000690D01*
X9178929Y-17991167D01*
X9197976Y-17981643D01*
X9226548Y-17981643D01*
X9245595Y-17991167D01*
X9255119Y-18000690D01*
X9264643Y-18019738D01*
X9264643Y-18076881D01*
X9255119Y-18095929D01*
X9245595Y-18105452D01*
X9226548Y-18114976D01*
X9197976Y-18114976D01*
X9378929Y-18114976D02*
X9359881Y-18105452D01*
X9350357Y-18086405D01*
X9350357Y-17914976D01*
X9531310Y-18105452D02*
X9512262Y-18114976D01*
X9474167Y-18114976D01*
X9455119Y-18105452D01*
X9445595Y-18086405D01*
X9445595Y-18010214D01*
X9455119Y-17991167D01*
X9474167Y-17981643D01*
X9512262Y-17981643D01*
X9531310Y-17991167D01*
X9540833Y-18010214D01*
X9540833Y-18029262D01*
X9445595Y-18048310D01*
X9617024Y-18105452D02*
X9636071Y-18114976D01*
X9674167Y-18114976D01*
X9693214Y-18105452D01*
X9702738Y-18086405D01*
X9702738Y-18076881D01*
X9693214Y-18057833D01*
X9674167Y-18048310D01*
X9645595Y-18048310D01*
X9626548Y-18038786D01*
X9617024Y-18019738D01*
X9617024Y-18010214D01*
X9626548Y-17991167D01*
X9645595Y-17981643D01*
X9674167Y-17981643D01*
X9693214Y-17991167D01*
X9769405Y-18191167D02*
X9778929Y-18181643D01*
X9797976Y-18153071D01*
X9807500Y-18134024D01*
X9817024Y-18105452D01*
X9826548Y-18057833D01*
X9826548Y-18019738D01*
X9817024Y-17972119D01*
X9807500Y-17943548D01*
X9797976Y-17924500D01*
X9778929Y-17895929D01*
X9769405Y-17886405D01*
M02*
