G04 #@! TF.GenerationSoftware,KiCad,Pcbnew,6.0.2-378541a8eb~116~ubuntu20.04.1*
G04 #@! TF.CreationDate,2022-04-18T14:06:08-07:00*
G04 #@! TF.ProjectId,trx_mobo_concept_2,7472785f-6d6f-4626-9f5f-636f6e636570,rev?*
G04 #@! TF.SameCoordinates,Original*
G04 #@! TF.FileFunction,Copper,L1,Top*
G04 #@! TF.FilePolarity,Positive*
%FSLAX46Y46*%
G04 Gerber Fmt 4.6, Leading zero omitted, Abs format (unit mm)*
G04 Created by KiCad (PCBNEW 6.0.2-378541a8eb~116~ubuntu20.04.1) date 2022-04-18 14:06:08*
%MOMM*%
%LPD*%
G01*
G04 APERTURE LIST*
G04 Aperture macros list*
%AMRoundRect*
0 Rectangle with rounded corners*
0 $1 Rounding radius*
0 $2 $3 $4 $5 $6 $7 $8 $9 X,Y pos of 4 corners*
0 Add a 4 corners polygon primitive as box body*
4,1,4,$2,$3,$4,$5,$6,$7,$8,$9,$2,$3,0*
0 Add four circle primitives for the rounded corners*
1,1,$1+$1,$2,$3*
1,1,$1+$1,$4,$5*
1,1,$1+$1,$6,$7*
1,1,$1+$1,$8,$9*
0 Add four rect primitives between the rounded corners*
20,1,$1+$1,$2,$3,$4,$5,0*
20,1,$1+$1,$4,$5,$6,$7,0*
20,1,$1+$1,$6,$7,$8,$9,0*
20,1,$1+$1,$8,$9,$2,$3,0*%
%AMOutline4P*
0 Free polygon, 4 corners , with rotation*
0 The origin of the aperture is its center*
0 number of corners: always 4*
0 $1 to $8 corner X, Y*
0 $9 Rotation angle, in degrees counterclockwise*
0 create outline with 4 corners*
4,1,4,$1,$2,$3,$4,$5,$6,$7,$8,$1,$2,$9*%
G04 Aperture macros list end*
G04 #@! TA.AperFunction,ComponentPad*
%ADD10R,2.100000X1.400000*%
G04 #@! TD*
G04 #@! TA.AperFunction,ComponentPad*
%ADD11O,2.100000X1.400000*%
G04 #@! TD*
G04 #@! TA.AperFunction,ComponentPad*
%ADD12C,0.800000*%
G04 #@! TD*
G04 #@! TA.AperFunction,ComponentPad*
%ADD13C,7.000000*%
G04 #@! TD*
G04 #@! TA.AperFunction,SMDPad,CuDef*
%ADD14RoundRect,0.250000X0.337500X0.475000X-0.337500X0.475000X-0.337500X-0.475000X0.337500X-0.475000X0*%
G04 #@! TD*
G04 #@! TA.AperFunction,SMDPad,CuDef*
%ADD15RoundRect,0.250000X-0.337500X-0.475000X0.337500X-0.475000X0.337500X0.475000X-0.337500X0.475000X0*%
G04 #@! TD*
G04 #@! TA.AperFunction,SMDPad,CuDef*
%ADD16RoundRect,0.250000X-0.475000X0.337500X-0.475000X-0.337500X0.475000X-0.337500X0.475000X0.337500X0*%
G04 #@! TD*
G04 #@! TA.AperFunction,SMDPad,CuDef*
%ADD17RoundRect,0.250000X0.475000X-0.337500X0.475000X0.337500X-0.475000X0.337500X-0.475000X-0.337500X0*%
G04 #@! TD*
G04 #@! TA.AperFunction,SMDPad,CuDef*
%ADD18R,3.500000X1.600000*%
G04 #@! TD*
G04 #@! TA.AperFunction,SMDPad,CuDef*
%ADD19R,1.600000X3.500000*%
G04 #@! TD*
G04 #@! TA.AperFunction,SMDPad,CuDef*
%ADD20R,2.500000X3.500000*%
G04 #@! TD*
G04 #@! TA.AperFunction,SMDPad,CuDef*
%ADD21R,4.000000X2.500000*%
G04 #@! TD*
G04 #@! TA.AperFunction,SMDPad,CuDef*
%ADD22R,2.500000X4.000000*%
G04 #@! TD*
G04 #@! TA.AperFunction,SMDPad,CuDef*
%ADD23R,3.500000X2.500000*%
G04 #@! TD*
G04 #@! TA.AperFunction,SMDPad,CuDef*
%ADD24RoundRect,0.150000X-0.150000X0.587500X-0.150000X-0.587500X0.150000X-0.587500X0.150000X0.587500X0*%
G04 #@! TD*
G04 #@! TA.AperFunction,SMDPad,CuDef*
%ADD25RoundRect,0.150000X0.587500X0.150000X-0.587500X0.150000X-0.587500X-0.150000X0.587500X-0.150000X0*%
G04 #@! TD*
G04 #@! TA.AperFunction,SMDPad,CuDef*
%ADD26RoundRect,0.250000X0.275000X0.350000X-0.275000X0.350000X-0.275000X-0.350000X0.275000X-0.350000X0*%
G04 #@! TD*
G04 #@! TA.AperFunction,SMDPad,CuDef*
%ADD27RoundRect,0.250000X0.350000X-0.275000X0.350000X0.275000X-0.350000X0.275000X-0.350000X-0.275000X0*%
G04 #@! TD*
G04 #@! TA.AperFunction,SMDPad,CuDef*
%ADD28RoundRect,0.250000X-0.350000X0.275000X-0.350000X-0.275000X0.350000X-0.275000X0.350000X0.275000X0*%
G04 #@! TD*
G04 #@! TA.AperFunction,ComponentPad*
%ADD29C,2.150000*%
G04 #@! TD*
G04 #@! TA.AperFunction,ComponentPad*
%ADD30C,2.250000*%
G04 #@! TD*
G04 #@! TA.AperFunction,ComponentPad*
%ADD31O,1.400000X2.100000*%
G04 #@! TD*
G04 #@! TA.AperFunction,ComponentPad*
%ADD32R,1.400000X2.100000*%
G04 #@! TD*
G04 #@! TA.AperFunction,ComponentPad*
%ADD33C,2.000000*%
G04 #@! TD*
G04 #@! TA.AperFunction,ComponentPad*
%ADD34C,1.000000*%
G04 #@! TD*
G04 #@! TA.AperFunction,SMDPad,CuDef*
%ADD35RoundRect,0.150000X-0.587500X-0.150000X0.587500X-0.150000X0.587500X0.150000X-0.587500X0.150000X0*%
G04 #@! TD*
G04 #@! TA.AperFunction,SMDPad,CuDef*
%ADD36RoundRect,0.150000X0.150000X-0.587500X0.150000X0.587500X-0.150000X0.587500X-0.150000X-0.587500X0*%
G04 #@! TD*
G04 #@! TA.AperFunction,SMDPad,CuDef*
%ADD37R,1.000000X1.500000*%
G04 #@! TD*
G04 #@! TA.AperFunction,SMDPad,CuDef*
%ADD38R,2.200000X1.840000*%
G04 #@! TD*
G04 #@! TA.AperFunction,SMDPad,CuDef*
%ADD39Outline4P,-1.100000X-0.500000X1.100000X-0.500000X0.400000X0.500000X-0.400000X0.500000X180.000000*%
G04 #@! TD*
G04 #@! TA.AperFunction,SMDPad,CuDef*
%ADD40Outline4P,-1.100000X-0.425000X1.100000X-0.425000X0.500000X0.425000X-0.500000X0.425000X0.000000*%
G04 #@! TD*
G04 #@! TA.AperFunction,SMDPad,CuDef*
%ADD41R,1.000000X1.800000*%
G04 #@! TD*
G04 #@! TA.AperFunction,SMDPad,CuDef*
%ADD42R,1.500000X1.000000*%
G04 #@! TD*
G04 #@! TA.AperFunction,SMDPad,CuDef*
%ADD43R,1.800000X1.000000*%
G04 #@! TD*
G04 #@! TA.AperFunction,SMDPad,CuDef*
%ADD44R,1.840000X2.200000*%
G04 #@! TD*
G04 #@! TA.AperFunction,SMDPad,CuDef*
%ADD45Outline4P,-1.100000X-0.500000X1.100000X-0.500000X0.400000X0.500000X-0.400000X0.500000X90.000000*%
G04 #@! TD*
G04 #@! TA.AperFunction,SMDPad,CuDef*
%ADD46Outline4P,-1.100000X-0.425000X1.100000X-0.425000X0.500000X0.425000X-0.500000X0.425000X270.000000*%
G04 #@! TD*
G04 #@! TA.AperFunction,SMDPad,CuDef*
%ADD47RoundRect,0.250000X-0.450000X0.325000X-0.450000X-0.325000X0.450000X-0.325000X0.450000X0.325000X0*%
G04 #@! TD*
G04 #@! TA.AperFunction,SMDPad,CuDef*
%ADD48RoundRect,0.250000X-0.325000X-0.450000X0.325000X-0.450000X0.325000X0.450000X-0.325000X0.450000X0*%
G04 #@! TD*
G04 #@! TA.AperFunction,SMDPad,CuDef*
%ADD49RoundRect,0.250000X0.450000X-0.325000X0.450000X0.325000X-0.450000X0.325000X-0.450000X-0.325000X0*%
G04 #@! TD*
G04 #@! TA.AperFunction,SMDPad,CuDef*
%ADD50RoundRect,0.250000X0.325000X0.450000X-0.325000X0.450000X-0.325000X-0.450000X0.325000X-0.450000X0*%
G04 #@! TD*
G04 #@! TA.AperFunction,ComponentPad*
%ADD51C,1.440000*%
G04 #@! TD*
G04 #@! TA.AperFunction,ComponentPad*
%ADD52R,2.032000X2.032000*%
G04 #@! TD*
G04 #@! TA.AperFunction,SMDPad,CuDef*
%ADD53R,0.700000X1.000000*%
G04 #@! TD*
G04 #@! TA.AperFunction,SMDPad,CuDef*
%ADD54R,1.500000X0.450000*%
G04 #@! TD*
G04 #@! TA.AperFunction,SMDPad,CuDef*
%ADD55R,1.650000X2.540000*%
G04 #@! TD*
G04 #@! TA.AperFunction,SMDPad,CuDef*
%ADD56R,0.400000X1.560000*%
G04 #@! TD*
G04 #@! TA.AperFunction,SMDPad,CuDef*
%ADD57R,1.550000X0.600000*%
G04 #@! TD*
G04 #@! TA.AperFunction,ComponentPad*
%ADD58R,1.600000X2.400000*%
G04 #@! TD*
G04 #@! TA.AperFunction,ComponentPad*
%ADD59O,1.600000X2.400000*%
G04 #@! TD*
G04 #@! TA.AperFunction,SMDPad,CuDef*
%ADD60RoundRect,0.150000X-0.512500X-0.150000X0.512500X-0.150000X0.512500X0.150000X-0.512500X0.150000X0*%
G04 #@! TD*
G04 #@! TA.AperFunction,SMDPad,CuDef*
%ADD61R,1.060000X0.650000*%
G04 #@! TD*
G04 #@! TA.AperFunction,SMDPad,CuDef*
%ADD62RoundRect,0.150000X0.512500X0.150000X-0.512500X0.150000X-0.512500X-0.150000X0.512500X-0.150000X0*%
G04 #@! TD*
G04 #@! TA.AperFunction,SMDPad,CuDef*
%ADD63R,2.032000X1.016000*%
G04 #@! TD*
G04 #@! TA.AperFunction,SMDPad,CuDef*
%ADD64R,2.032000X3.657600*%
G04 #@! TD*
G04 #@! TA.AperFunction,ComponentPad*
%ADD65C,0.900000*%
G04 #@! TD*
G04 #@! TA.AperFunction,SMDPad,CuDef*
%ADD66R,3.000000X1.500000*%
G04 #@! TD*
G04 #@! TA.AperFunction,SMDPad,CuDef*
%ADD67R,1.500000X3.000000*%
G04 #@! TD*
G04 #@! TA.AperFunction,ComponentPad*
%ADD68C,2.540000*%
G04 #@! TD*
G04 #@! TA.AperFunction,SMDPad,CuDef*
%ADD69RoundRect,0.250000X1.500000X0.550000X-1.500000X0.550000X-1.500000X-0.550000X1.500000X-0.550000X0*%
G04 #@! TD*
G04 #@! TA.AperFunction,SMDPad,CuDef*
%ADD70R,2.200000X1.200000*%
G04 #@! TD*
G04 #@! TA.AperFunction,SMDPad,CuDef*
%ADD71R,6.400000X5.800000*%
G04 #@! TD*
G04 #@! TA.AperFunction,SMDPad,CuDef*
%ADD72RoundRect,0.250000X0.450000X-0.350000X0.450000X0.350000X-0.450000X0.350000X-0.450000X-0.350000X0*%
G04 #@! TD*
G04 #@! TA.AperFunction,ViaPad*
%ADD73C,0.800000*%
G04 #@! TD*
G04 #@! TA.AperFunction,Conductor*
%ADD74C,0.200000*%
G04 #@! TD*
G04 #@! TA.AperFunction,Conductor*
%ADD75C,0.600000*%
G04 #@! TD*
G04 #@! TA.AperFunction,Conductor*
%ADD76C,0.400000*%
G04 #@! TD*
G04 APERTURE END LIST*
D10*
X63600000Y-59900000D03*
D11*
X63600000Y-54900000D03*
X63600000Y-57400000D03*
D12*
X53143845Y-53143845D03*
X56856155Y-53143845D03*
X57625000Y-55000000D03*
X53143845Y-56856155D03*
X52375000Y-55000000D03*
X55000000Y-57625000D03*
X55000000Y-52375000D03*
X56856155Y-56856155D03*
D13*
X55000000Y-55000000D03*
D12*
X245000000Y-57625000D03*
X245000000Y-52375000D03*
X246856155Y-53143845D03*
X243143845Y-53143845D03*
X246856155Y-56856155D03*
X242375000Y-55000000D03*
X247625000Y-55000000D03*
X243143845Y-56856155D03*
D13*
X245000000Y-55000000D03*
D12*
X57625000Y-145000000D03*
X56856155Y-146856155D03*
X56856155Y-143143845D03*
D13*
X55000000Y-145000000D03*
D12*
X55000000Y-142375000D03*
X53143845Y-146856155D03*
X55000000Y-147625000D03*
X53143845Y-143143845D03*
X52375000Y-145000000D03*
X242375000Y-145000000D03*
X246856155Y-143143845D03*
X247625000Y-145000000D03*
X245000000Y-147625000D03*
X245000000Y-142375000D03*
X243143845Y-143143845D03*
X246856155Y-146856155D03*
X243143845Y-146856155D03*
D13*
X245000000Y-145000000D03*
D12*
X161143845Y-115856155D03*
X161143845Y-112143845D03*
X163000000Y-116625000D03*
X163000000Y-111375000D03*
X160375000Y-114000000D03*
X165625000Y-114000000D03*
X164856155Y-115856155D03*
D13*
X163000000Y-114000000D03*
D12*
X164856155Y-112143845D03*
X130856155Y-87856155D03*
X129000000Y-83375000D03*
X130856155Y-84143845D03*
X127143845Y-84143845D03*
D13*
X129000000Y-86000000D03*
D12*
X131625000Y-86000000D03*
X126375000Y-86000000D03*
X127143845Y-87856155D03*
X129000000Y-88625000D03*
D14*
X237537500Y-126000000D03*
X235462500Y-126000000D03*
X237537500Y-129500000D03*
X235462500Y-129500000D03*
X233537500Y-120000000D03*
X231462500Y-120000000D03*
X233537500Y-122500000D03*
X231462500Y-122500000D03*
D15*
X235462500Y-112000000D03*
X237537500Y-112000000D03*
D14*
X207037500Y-85500000D03*
X204962500Y-85500000D03*
D16*
X223500000Y-132962500D03*
X223500000Y-135037500D03*
D14*
X220562500Y-129000000D03*
X218487500Y-129000000D03*
D15*
X230462500Y-112000000D03*
X232537500Y-112000000D03*
D17*
X66000000Y-91037500D03*
X66000000Y-88962500D03*
X62000000Y-91037500D03*
X62000000Y-88962500D03*
D16*
X72200000Y-88962500D03*
X72200000Y-91037500D03*
X69000000Y-88962500D03*
X69000000Y-91037500D03*
D14*
X109037500Y-71000000D03*
X106962500Y-71000000D03*
D16*
X108000000Y-76962500D03*
X108000000Y-79037500D03*
D17*
X116000000Y-64512500D03*
X116000000Y-62437500D03*
D15*
X92962500Y-73000000D03*
X95037500Y-73000000D03*
X90962500Y-85000000D03*
X93037500Y-85000000D03*
D17*
X118000000Y-139037500D03*
X118000000Y-136962500D03*
D18*
X98800000Y-108000000D03*
X104200000Y-108000000D03*
D19*
X131500000Y-129700000D03*
X131500000Y-124300000D03*
D20*
X131900000Y-111350000D03*
X131900000Y-117850000D03*
D14*
X111537500Y-113000000D03*
X109462500Y-113000000D03*
D15*
X97962500Y-117500000D03*
X100037500Y-117500000D03*
X84962500Y-109000000D03*
X87037500Y-109000000D03*
D18*
X116300000Y-108000000D03*
X121700000Y-108000000D03*
D17*
X114000000Y-122037500D03*
X114000000Y-119962500D03*
D16*
X190500000Y-124962500D03*
X190500000Y-127037500D03*
D21*
X216000000Y-92000000D03*
X224000000Y-92000000D03*
D15*
X216962500Y-112000000D03*
X219037500Y-112000000D03*
D22*
X232000000Y-96000000D03*
X232000000Y-88000000D03*
D15*
X239962500Y-101000000D03*
X242037500Y-101000000D03*
D18*
X173700000Y-119500000D03*
X168300000Y-119500000D03*
D19*
X181000000Y-119700000D03*
X181000000Y-114300000D03*
D18*
X186800000Y-135000000D03*
X192200000Y-135000000D03*
D19*
X177000000Y-137300000D03*
X177000000Y-142700000D03*
D18*
X166200000Y-131000000D03*
X160800000Y-131000000D03*
D19*
X215500000Y-138300000D03*
X215500000Y-143700000D03*
D15*
X232962500Y-141000000D03*
X235037500Y-141000000D03*
D17*
X228500000Y-134037500D03*
X228500000Y-131962500D03*
D15*
X86962500Y-63000000D03*
X89037500Y-63000000D03*
D23*
X87250000Y-56000000D03*
X80750000Y-56000000D03*
D18*
X72700000Y-66000000D03*
X67300000Y-66000000D03*
D17*
X90200000Y-67937500D03*
X90200000Y-65862500D03*
D18*
X92300000Y-57000000D03*
X97700000Y-57000000D03*
X108700000Y-57000000D03*
X103300000Y-57000000D03*
D14*
X87037500Y-71000000D03*
X84962500Y-71000000D03*
D18*
X68700000Y-84500000D03*
X63300000Y-84500000D03*
D19*
X55000000Y-80300000D03*
X55000000Y-85700000D03*
D17*
X136000000Y-74037500D03*
X136000000Y-71962500D03*
D14*
X137037500Y-84000000D03*
X134962500Y-84000000D03*
D17*
X131750000Y-76537500D03*
X131750000Y-74462500D03*
D16*
X142000000Y-86962500D03*
X142000000Y-89037500D03*
D15*
X174962500Y-93000000D03*
X177037500Y-93000000D03*
D16*
X157000000Y-80962500D03*
X157000000Y-83037500D03*
D15*
X160962500Y-91000000D03*
X163037500Y-91000000D03*
X170962500Y-90000000D03*
X173037500Y-90000000D03*
X150962500Y-76000000D03*
X153037500Y-76000000D03*
D16*
X195000000Y-60462500D03*
X195000000Y-62537500D03*
D17*
X183000000Y-72037500D03*
X183000000Y-69962500D03*
D14*
X173037500Y-57000000D03*
X170962500Y-57000000D03*
D16*
X166000000Y-68962500D03*
X166000000Y-71037500D03*
D14*
X168062500Y-58000000D03*
X165987500Y-58000000D03*
D16*
X173000000Y-63962500D03*
X173000000Y-66037500D03*
D15*
X199562500Y-70500000D03*
X201637500Y-70500000D03*
D16*
X202500000Y-76462500D03*
X202500000Y-78537500D03*
D17*
X194500000Y-69537500D03*
X194500000Y-67462500D03*
D14*
X224287500Y-72500000D03*
X222212500Y-72500000D03*
D16*
X220500000Y-54962500D03*
X220500000Y-57037500D03*
D14*
X226537500Y-68500000D03*
X224462500Y-68500000D03*
D16*
X207000000Y-57962500D03*
X207000000Y-60037500D03*
X201500000Y-58462500D03*
X201500000Y-60537500D03*
X207000000Y-65462500D03*
X207000000Y-67537500D03*
D24*
X100950000Y-126062500D03*
X99050000Y-126062500D03*
X100000000Y-127937500D03*
X95950000Y-126062500D03*
X94050000Y-126062500D03*
X95000000Y-127937500D03*
X105950000Y-126062500D03*
X104050000Y-126062500D03*
X105000000Y-127937500D03*
D25*
X87937500Y-120950000D03*
X87937500Y-119050000D03*
X86062500Y-120000000D03*
D26*
X237650000Y-120000000D03*
X235350000Y-120000000D03*
X237650000Y-122500000D03*
X235350000Y-122500000D03*
X238650000Y-133500000D03*
X236350000Y-133500000D03*
X132650000Y-136000000D03*
X130350000Y-136000000D03*
X175650000Y-77100000D03*
X173350000Y-77100000D03*
X195150000Y-57000000D03*
X192850000Y-57000000D03*
X199650000Y-74000000D03*
X197350000Y-74000000D03*
D27*
X191000000Y-69650000D03*
X191000000Y-67350000D03*
D28*
X217500000Y-54850000D03*
X217500000Y-57150000D03*
D29*
X121000000Y-88000000D03*
D30*
X118460000Y-85460000D03*
X123540000Y-85460000D03*
X118460000Y-90540000D03*
X123540000Y-90540000D03*
D10*
X241500000Y-95000000D03*
D11*
X241500000Y-92500000D03*
D10*
X192500000Y-115500000D03*
D11*
X192500000Y-113000000D03*
X192500000Y-110500000D03*
D29*
X217500000Y-78250000D03*
D30*
X214960000Y-75710000D03*
X220040000Y-75710000D03*
X214960000Y-80790000D03*
X220040000Y-80790000D03*
D31*
X66500000Y-119000000D03*
X69000000Y-119000000D03*
D32*
X71500000Y-119000000D03*
D29*
X190000000Y-90500000D03*
D30*
X187460000Y-87960000D03*
X192540000Y-87960000D03*
X187460000Y-93040000D03*
X192540000Y-93040000D03*
D10*
X242000000Y-132750000D03*
D11*
X242000000Y-130250000D03*
X242000000Y-127750000D03*
X242000000Y-125250000D03*
X242000000Y-122750000D03*
X242000000Y-120250000D03*
X242000000Y-117750000D03*
X242000000Y-115250000D03*
D33*
X70500000Y-130000000D03*
X75500000Y-135000000D03*
X76000000Y-87500000D03*
X81000000Y-82500000D03*
D34*
X88000000Y-126500000D03*
X80000000Y-131500000D03*
X157500000Y-122500000D03*
X159500000Y-125500000D03*
X128750000Y-61250000D03*
X126750000Y-58250000D03*
D33*
X161500000Y-69000000D03*
X156500000Y-64000000D03*
X140500000Y-54900000D03*
X135500000Y-59900000D03*
D35*
X231562500Y-130550000D03*
X231562500Y-132450000D03*
X233437500Y-131500000D03*
D25*
X231937500Y-126700000D03*
X231937500Y-124800000D03*
X230062500Y-125750000D03*
D24*
X227450000Y-122625000D03*
X225550000Y-122625000D03*
X226500000Y-124500000D03*
D25*
X112937500Y-68950000D03*
X112937500Y-67050000D03*
X111062500Y-68000000D03*
X116937500Y-143950000D03*
X116937500Y-142050000D03*
X115062500Y-143000000D03*
D24*
X102950000Y-131062500D03*
X101050000Y-131062500D03*
X102000000Y-132937500D03*
X122950000Y-134062500D03*
X121050000Y-134062500D03*
X122000000Y-135937500D03*
X70450000Y-108062500D03*
X68550000Y-108062500D03*
X69500000Y-109937500D03*
D25*
X201437500Y-116450000D03*
X201437500Y-114550000D03*
X199562500Y-115500000D03*
D24*
X180950000Y-124062500D03*
X179050000Y-124062500D03*
X180000000Y-125937500D03*
X177450000Y-129062500D03*
X175550000Y-129062500D03*
X176500000Y-130937500D03*
D35*
X203662500Y-133050000D03*
X203662500Y-134950000D03*
X205537500Y-134000000D03*
D36*
X203050000Y-142937500D03*
X204950000Y-142937500D03*
X204000000Y-141062500D03*
D35*
X198562500Y-142050000D03*
X198562500Y-143950000D03*
X200437500Y-143000000D03*
X209062500Y-124550000D03*
X209062500Y-126450000D03*
X210937500Y-125500000D03*
X211312500Y-129400000D03*
X211312500Y-131300000D03*
X213187500Y-130350000D03*
D24*
X205950000Y-121562500D03*
X204050000Y-121562500D03*
X205000000Y-123437500D03*
D35*
X58062500Y-74050000D03*
X58062500Y-75950000D03*
X59937500Y-75000000D03*
D37*
X165500000Y-89480000D03*
D38*
X167000000Y-86666500D03*
D39*
X167000000Y-88076200D03*
D40*
X167000000Y-85333000D03*
D41*
X167000000Y-89333500D03*
D37*
X168500000Y-89480000D03*
D42*
X175020000Y-58500000D03*
D43*
X175166500Y-60000000D03*
D44*
X177833500Y-60000000D03*
D45*
X176423800Y-60000000D03*
D46*
X179167000Y-60000000D03*
D42*
X175020000Y-61500000D03*
X210520000Y-60500000D03*
D44*
X213333500Y-62000000D03*
D45*
X211923800Y-62000000D03*
D46*
X214667000Y-62000000D03*
D43*
X210666500Y-62000000D03*
D42*
X210520000Y-63500000D03*
D47*
X63000000Y-113975000D03*
X63000000Y-116025000D03*
D48*
X221475000Y-124500000D03*
X223525000Y-124500000D03*
X221475000Y-120000000D03*
X223525000Y-120000000D03*
D49*
X66500000Y-106525000D03*
X66500000Y-104475000D03*
X214000000Y-113525000D03*
X214000000Y-111475000D03*
X211000000Y-113525000D03*
X211000000Y-111475000D03*
X207500000Y-113525000D03*
X207500000Y-111475000D03*
X231500000Y-116025000D03*
X231500000Y-113975000D03*
D48*
X74975000Y-124000000D03*
X77025000Y-124000000D03*
D50*
X89025000Y-85000000D03*
X86975000Y-85000000D03*
D47*
X100000000Y-76975000D03*
X100000000Y-79025000D03*
D48*
X118975000Y-94000000D03*
X121025000Y-94000000D03*
X106975000Y-74000000D03*
X109025000Y-74000000D03*
X122975000Y-94000000D03*
X125025000Y-94000000D03*
D50*
X116025000Y-94000000D03*
X113975000Y-94000000D03*
D47*
X113000000Y-71975000D03*
X113000000Y-74025000D03*
D50*
X116025000Y-59000000D03*
X113975000Y-59000000D03*
D49*
X113000000Y-64525000D03*
X113000000Y-62475000D03*
X93000000Y-81025000D03*
X93000000Y-78975000D03*
D50*
X93025000Y-76000000D03*
X90975000Y-76000000D03*
X89025000Y-81000000D03*
X86975000Y-81000000D03*
X122025000Y-144000000D03*
X119975000Y-144000000D03*
D49*
X105000000Y-138025000D03*
X105000000Y-135975000D03*
D50*
X128525000Y-133000000D03*
X126475000Y-133000000D03*
D48*
X126475000Y-138000000D03*
X128525000Y-138000000D03*
D50*
X110025000Y-139000000D03*
X107975000Y-139000000D03*
D48*
X68975000Y-105000000D03*
X71025000Y-105000000D03*
X105975000Y-131000000D03*
X108025000Y-131000000D03*
D49*
X123000000Y-132025000D03*
X123000000Y-129975000D03*
D50*
X74625000Y-109000000D03*
X72575000Y-109000000D03*
D51*
X75000000Y-105000000D03*
X77540000Y-105000000D03*
X80080000Y-105000000D03*
D49*
X132500000Y-107025000D03*
X132500000Y-104975000D03*
D48*
X80975000Y-109000000D03*
X83025000Y-109000000D03*
X113975000Y-126000000D03*
X116025000Y-126000000D03*
X97975000Y-113000000D03*
X100025000Y-113000000D03*
D49*
X95500000Y-116525000D03*
X95500000Y-114475000D03*
X111000000Y-125025000D03*
X111000000Y-122975000D03*
X78000000Y-114025000D03*
X78000000Y-111975000D03*
D48*
X81975000Y-120000000D03*
X84025000Y-120000000D03*
X235475000Y-101000000D03*
X237525000Y-101000000D03*
D50*
X141525000Y-134000000D03*
X139475000Y-134000000D03*
D47*
X150000000Y-124975000D03*
X150000000Y-127025000D03*
X139500000Y-137975000D03*
X139500000Y-140025000D03*
X144000000Y-133975000D03*
X144000000Y-136025000D03*
D50*
X147025000Y-128000000D03*
X144975000Y-128000000D03*
X147025000Y-124500000D03*
X144975000Y-124500000D03*
X182525000Y-128500000D03*
X180475000Y-128500000D03*
D47*
X175000000Y-123975000D03*
X175000000Y-126025000D03*
D50*
X172525000Y-129000000D03*
X170475000Y-129000000D03*
X172525000Y-125500000D03*
X170475000Y-125500000D03*
D48*
X232975000Y-144500000D03*
X235025000Y-144500000D03*
D47*
X200500000Y-132475000D03*
X200500000Y-134525000D03*
D50*
X206025000Y-138000000D03*
X203975000Y-138000000D03*
D47*
X200500000Y-136975000D03*
X200500000Y-139025000D03*
D49*
X198000000Y-139525000D03*
X198000000Y-137475000D03*
X204500000Y-128525000D03*
X204500000Y-126475000D03*
D47*
X213500000Y-125475000D03*
X213500000Y-127525000D03*
X206500000Y-126475000D03*
X206500000Y-128525000D03*
D49*
X206000000Y-119525000D03*
X206000000Y-117475000D03*
D50*
X78025000Y-66000000D03*
X75975000Y-66000000D03*
D51*
X72000000Y-59800000D03*
X72000000Y-57260000D03*
X72000000Y-54720000D03*
D49*
X93700000Y-67925000D03*
X93700000Y-65875000D03*
D50*
X78025000Y-62000000D03*
X75975000Y-62000000D03*
X82025000Y-62000000D03*
X79975000Y-62000000D03*
X80025000Y-75000000D03*
X77975000Y-75000000D03*
D48*
X61975000Y-70000000D03*
X64025000Y-70000000D03*
D51*
X69000000Y-75000000D03*
X66460000Y-75000000D03*
X63920000Y-75000000D03*
D47*
X58000000Y-69975000D03*
X58000000Y-72025000D03*
D48*
X52975000Y-76000000D03*
X55025000Y-76000000D03*
D50*
X55025000Y-72000000D03*
X52975000Y-72000000D03*
X139025000Y-89000000D03*
X136975000Y-89000000D03*
D48*
X133975000Y-69000000D03*
X136025000Y-69000000D03*
X138975000Y-69000000D03*
X141025000Y-69000000D03*
X133975000Y-65000000D03*
X136025000Y-65000000D03*
D50*
X121025000Y-59000000D03*
X118975000Y-59000000D03*
D47*
X148000000Y-73975000D03*
X148000000Y-76025000D03*
D49*
X140000000Y-65025000D03*
X140000000Y-62975000D03*
D47*
X157000000Y-87975000D03*
X157000000Y-90025000D03*
D50*
X155025000Y-90000000D03*
X152975000Y-90000000D03*
X157025000Y-85000000D03*
X154975000Y-85000000D03*
D47*
X160000000Y-85975000D03*
X160000000Y-88025000D03*
D48*
X187975000Y-81000000D03*
X190025000Y-81000000D03*
D50*
X163025000Y-93000000D03*
X160975000Y-93000000D03*
D48*
X174975000Y-90000000D03*
X177025000Y-90000000D03*
X170975000Y-88000000D03*
X173025000Y-88000000D03*
D50*
X173025000Y-55000000D03*
X170975000Y-55000000D03*
D49*
X183000000Y-68025000D03*
X183000000Y-65975000D03*
D48*
X184975000Y-64000000D03*
X187025000Y-64000000D03*
X184975000Y-68000000D03*
X187025000Y-68000000D03*
D50*
X177525000Y-55000000D03*
X175475000Y-55000000D03*
D47*
X166000000Y-60975000D03*
X166000000Y-63025000D03*
D48*
X165975000Y-66000000D03*
X168025000Y-66000000D03*
X165975000Y-56000000D03*
X168025000Y-56000000D03*
D47*
X171000000Y-60475000D03*
X171000000Y-62525000D03*
X173000000Y-67975000D03*
X173000000Y-70025000D03*
X176500000Y-63975000D03*
X176500000Y-66025000D03*
X202500000Y-81475000D03*
X202500000Y-83525000D03*
D49*
X194500000Y-74025000D03*
X194500000Y-71975000D03*
D48*
X206475000Y-82500000D03*
X208525000Y-82500000D03*
X208475000Y-73000000D03*
X210525000Y-73000000D03*
D47*
X205000000Y-55475000D03*
X205000000Y-57525000D03*
D49*
X230000000Y-68525000D03*
X230000000Y-66475000D03*
D50*
X213525000Y-58000000D03*
X211475000Y-58000000D03*
X207525000Y-62000000D03*
X205475000Y-62000000D03*
D49*
X205000000Y-67525000D03*
X205000000Y-65475000D03*
D47*
X210500000Y-65475000D03*
X210500000Y-67525000D03*
D34*
X102500000Y-74000000D03*
X97500000Y-66000000D03*
X102500000Y-72750000D03*
X97500000Y-67250000D03*
X134500000Y-139500000D03*
X126500000Y-144500000D03*
X133250000Y-139500000D03*
X127750000Y-144500000D03*
X170000000Y-79000000D03*
X162000000Y-84000000D03*
X168750000Y-79000000D03*
X163250000Y-84000000D03*
X190000000Y-55500000D03*
X182000000Y-60500000D03*
X188750000Y-55500000D03*
X183250000Y-60500000D03*
X222500000Y-68500000D03*
X217500000Y-60500000D03*
X222500000Y-67250000D03*
X217500000Y-61750000D03*
D52*
X87000000Y-90000000D03*
X141000000Y-73000000D03*
X229500000Y-62500000D03*
X70090000Y-123890000D03*
X219500000Y-133500000D03*
X209500000Y-136500000D03*
X209500000Y-120000000D03*
X114000000Y-56000000D03*
X84000000Y-79000000D03*
D53*
X233550000Y-116200000D03*
X234500000Y-116200000D03*
X235450000Y-116200000D03*
X235450000Y-113800000D03*
X233550000Y-113800000D03*
X207050000Y-90200000D03*
X208000000Y-90200000D03*
X208950000Y-90200000D03*
X208950000Y-87800000D03*
X207050000Y-87800000D03*
D54*
X222050000Y-112225000D03*
X222050000Y-112875000D03*
X222050000Y-113525000D03*
X222050000Y-114175000D03*
X222050000Y-114825000D03*
X222050000Y-115475000D03*
X222050000Y-116125000D03*
X222050000Y-116775000D03*
X227950000Y-116775000D03*
X227950000Y-116125000D03*
X227950000Y-115475000D03*
X227950000Y-114825000D03*
X227950000Y-114175000D03*
X227950000Y-113525000D03*
X227950000Y-112875000D03*
X227950000Y-112225000D03*
D55*
X113540000Y-83460000D03*
X111000000Y-83460000D03*
X108460000Y-83460000D03*
X108460000Y-88540000D03*
X111000000Y-88540000D03*
X113540000Y-88540000D03*
D56*
X109020000Y-109350000D03*
X109670000Y-109350000D03*
X110330000Y-109350000D03*
X110980000Y-109350000D03*
X110980000Y-106650000D03*
X110330000Y-106650000D03*
X109670000Y-106650000D03*
X109020000Y-106650000D03*
D57*
X85700000Y-114905000D03*
X85700000Y-113635000D03*
X85700000Y-112365000D03*
X85700000Y-111095000D03*
X80300000Y-111095000D03*
X80300000Y-112365000D03*
X80300000Y-113635000D03*
X80300000Y-114905000D03*
X91300000Y-119095000D03*
X91300000Y-120365000D03*
X91300000Y-121635000D03*
X91300000Y-122905000D03*
X96700000Y-122905000D03*
X96700000Y-121635000D03*
X96700000Y-120365000D03*
X96700000Y-119095000D03*
D58*
X216000000Y-108000000D03*
D59*
X218540000Y-108000000D03*
X221080000Y-108000000D03*
X223620000Y-108000000D03*
X226160000Y-108000000D03*
X228700000Y-108000000D03*
X231240000Y-108000000D03*
X231240000Y-100380000D03*
X228700000Y-100380000D03*
X226160000Y-100380000D03*
X223620000Y-100380000D03*
X221080000Y-100380000D03*
X218540000Y-100380000D03*
X216000000Y-100380000D03*
D55*
X153540000Y-133460000D03*
X151000000Y-133460000D03*
X148460000Y-133460000D03*
X148460000Y-138540000D03*
X151000000Y-138540000D03*
X153540000Y-138540000D03*
D57*
X81300000Y-65095000D03*
X81300000Y-66365000D03*
X81300000Y-67635000D03*
X81300000Y-68905000D03*
X86700000Y-68905000D03*
X86700000Y-67635000D03*
X86700000Y-66365000D03*
X86700000Y-65095000D03*
D60*
X134862500Y-78050000D03*
X134862500Y-79000000D03*
X134862500Y-79950000D03*
X137137500Y-79950000D03*
X137137500Y-79000000D03*
X137137500Y-78050000D03*
D61*
X157100000Y-76950000D03*
X157100000Y-76000000D03*
X157100000Y-75050000D03*
X154900000Y-75050000D03*
X154900000Y-76000000D03*
X154900000Y-76950000D03*
D62*
X208637500Y-77450000D03*
X208637500Y-76500000D03*
X208637500Y-75550000D03*
X206362500Y-75550000D03*
X206362500Y-76500000D03*
X206362500Y-77450000D03*
D24*
X225450000Y-128812500D03*
X223550000Y-128812500D03*
X224500000Y-130687500D03*
D63*
X228802000Y-142036000D03*
X228802000Y-139750000D03*
D64*
X222198000Y-139750000D03*
D63*
X228802000Y-137464000D03*
D65*
X55000000Y-96000000D03*
D66*
X55000000Y-92250000D03*
D65*
X55000000Y-100880000D03*
X61000000Y-103000000D03*
D66*
X61000000Y-99250000D03*
D65*
X61000000Y-107880000D03*
X55000000Y-110000000D03*
D66*
X55000000Y-106250000D03*
D65*
X55000000Y-114880000D03*
X63000000Y-131000000D03*
D67*
X66750000Y-131000000D03*
D65*
X58120000Y-131000000D03*
X58000000Y-138000000D03*
D67*
X54250000Y-138000000D03*
D65*
X62880000Y-138000000D03*
X66000000Y-145000000D03*
D67*
X62250000Y-145000000D03*
D65*
X70880000Y-145000000D03*
X160875000Y-57000000D03*
X159000000Y-57000000D03*
X157125000Y-57000000D03*
X147625000Y-57000000D03*
X149500000Y-57000000D03*
X151375000Y-57000000D03*
D48*
X99975000Y-139000000D03*
X102025000Y-139000000D03*
D50*
X97025000Y-130000000D03*
X94975000Y-130000000D03*
X97550000Y-140500000D03*
X95500000Y-140500000D03*
X97525000Y-144000000D03*
X95475000Y-144000000D03*
D16*
X92000000Y-130962500D03*
X92000000Y-133037500D03*
D15*
X99962500Y-136000000D03*
X102037500Y-136000000D03*
D68*
X86000000Y-136952000D03*
X86000000Y-143048000D03*
D14*
X113037500Y-143000000D03*
X110962500Y-143000000D03*
D36*
X95050000Y-138437500D03*
X96950000Y-138437500D03*
X96000000Y-136562500D03*
D34*
X105500000Y-145000000D03*
X103500000Y-142000000D03*
D35*
X66062500Y-112050000D03*
X66062500Y-113950000D03*
X67937500Y-113000000D03*
D49*
X113000000Y-140025000D03*
X113000000Y-137975000D03*
D14*
X79037500Y-117000000D03*
X76962500Y-117000000D03*
D33*
X144600000Y-117100000D03*
X153600000Y-109600000D03*
X127750000Y-74000000D03*
X120250000Y-65000000D03*
X242500000Y-64500000D03*
X233500000Y-72000000D03*
D48*
X106975000Y-69000000D03*
X109025000Y-69000000D03*
D29*
X162500000Y-140000000D03*
D30*
X159960000Y-142540000D03*
X159960000Y-137460000D03*
X165040000Y-142540000D03*
X165040000Y-137460000D03*
D50*
X121025000Y-55000000D03*
X118975000Y-55000000D03*
D62*
X142137500Y-84950000D03*
X142137500Y-84000000D03*
X142137500Y-83050000D03*
X139862500Y-83050000D03*
X139862500Y-84000000D03*
X139862500Y-84950000D03*
D14*
X201537500Y-110000000D03*
X199462500Y-110000000D03*
D17*
X183000000Y-64037500D03*
X183000000Y-61962500D03*
D62*
X199637500Y-68450000D03*
X199637500Y-67500000D03*
X199637500Y-66550000D03*
X197362500Y-66550000D03*
X197362500Y-67500000D03*
X197362500Y-68450000D03*
D25*
X182937500Y-133950000D03*
X182937500Y-132050000D03*
X181062500Y-133000000D03*
D15*
X234962500Y-76250000D03*
X237037500Y-76250000D03*
D35*
X241562500Y-82300000D03*
X241562500Y-84200000D03*
X243437500Y-83250000D03*
D69*
X59700000Y-63250000D03*
X54300000Y-63250000D03*
D35*
X241562500Y-76050000D03*
X241562500Y-77950000D03*
X243437500Y-77000000D03*
D32*
X120750000Y-124225000D03*
D31*
X123250000Y-124225000D03*
D70*
X232375000Y-81030000D03*
X232375000Y-78750000D03*
D71*
X226075000Y-78750000D03*
D70*
X232375000Y-76470000D03*
D72*
X84000000Y-76000000D03*
X84000000Y-74000000D03*
D15*
X234962500Y-81250000D03*
X237037500Y-81250000D03*
D73*
X65600000Y-58000000D03*
X86100000Y-75600000D03*
X121000000Y-100000000D03*
X126000000Y-100000000D03*
X131000000Y-100000000D03*
X136000000Y-100000000D03*
X141000000Y-100000000D03*
X146000000Y-100000000D03*
X151000000Y-100000000D03*
X156000000Y-100000000D03*
X161000000Y-100000000D03*
X166000000Y-100000000D03*
X171000000Y-100000000D03*
X176000000Y-100000000D03*
X181000000Y-100000000D03*
X186000000Y-100000000D03*
X191000000Y-100000000D03*
X196000000Y-100000000D03*
X201000000Y-100000000D03*
X206000000Y-100000000D03*
X116000000Y-100000000D03*
X111000000Y-100000000D03*
X106000000Y-100000000D03*
X101000000Y-100000000D03*
X96000000Y-100000000D03*
X91000000Y-100000000D03*
X86000000Y-100000000D03*
X81000000Y-100000000D03*
X76000000Y-100000000D03*
X71000000Y-100000000D03*
X224000000Y-89000000D03*
X225000000Y-90000000D03*
X108500000Y-86500000D03*
X110900000Y-86500000D03*
X113500000Y-85400000D03*
X182000000Y-144500000D03*
X186500000Y-143500000D03*
X186500000Y-144500000D03*
X192500000Y-143500000D03*
X192500000Y-144500000D03*
X196500000Y-143500000D03*
X196500000Y-144500000D03*
X209800000Y-94000000D03*
X209800000Y-95000000D03*
X206000000Y-94000000D03*
X206000000Y-95000000D03*
X214400000Y-93900000D03*
X214400000Y-94900000D03*
X238300000Y-106600000D03*
X238300000Y-108200000D03*
X241100000Y-108200000D03*
X241100000Y-106600000D03*
X178300004Y-93000000D03*
X112700000Y-94000000D03*
X67300000Y-67600000D03*
X230200000Y-120000000D03*
X158400000Y-76000000D03*
X55800000Y-138100000D03*
X114500000Y-62500000D03*
X217200000Y-129100000D03*
X109700000Y-107969998D03*
X151700000Y-90000000D03*
X210500000Y-68900000D03*
X175000000Y-127500000D03*
X101000000Y-129700000D03*
X72200000Y-92200000D03*
X175500000Y-142700000D03*
X135500000Y-89000000D03*
X91300000Y-123900000D03*
X151000000Y-136500000D03*
X52100000Y-71000000D03*
X80700000Y-53900000D03*
X174400000Y-88000000D03*
X228500000Y-66500000D03*
X112700000Y-59000000D03*
X233700000Y-111900000D03*
X204100000Y-62000000D03*
X169400000Y-66000000D03*
X143900000Y-84000000D03*
X229800000Y-132000000D03*
X206000000Y-143000000D03*
X114000000Y-118600000D03*
X203000000Y-121500000D03*
X243400000Y-101000000D03*
X63200000Y-99200000D03*
X222200000Y-135000000D03*
X169400000Y-56000000D03*
X209800000Y-91200000D03*
X129800000Y-117800000D03*
X200800000Y-67500000D03*
X187000000Y-69600000D03*
X137300000Y-65000000D03*
X178300000Y-90000000D03*
X188400000Y-64000000D03*
X111500000Y-74000000D03*
X234250000Y-79000000D03*
X52800000Y-92200000D03*
X230200000Y-122500000D03*
X222000000Y-89000000D03*
X80500000Y-120100000D03*
X90500000Y-133000000D03*
X148500000Y-136500000D03*
X220300000Y-111800000D03*
X220500000Y-112900000D03*
X217000000Y-143600000D03*
X182000000Y-143500000D03*
X225500000Y-130000000D03*
X203600000Y-85600000D03*
X212750000Y-131400000D03*
X143500000Y-128000000D03*
X87300000Y-111100000D03*
X75600000Y-117000000D03*
X108100000Y-113000000D03*
X87000000Y-79600000D03*
X139500000Y-141400000D03*
X143600000Y-124500000D03*
X153500000Y-135400000D03*
X220600000Y-117200000D03*
X65300000Y-131200000D03*
X209800000Y-76500000D03*
X121700000Y-106400000D03*
X206000000Y-66500000D03*
X69000000Y-92300000D03*
X52700000Y-106100000D03*
X142500000Y-69000000D03*
X176500000Y-67600000D03*
X220500000Y-58400000D03*
X169600000Y-62500000D03*
X169000000Y-125500000D03*
X199500000Y-143900000D03*
X238500000Y-76250000D03*
X196400000Y-62600000D03*
X63700000Y-145100000D03*
X223000000Y-90000000D03*
X89700000Y-76000000D03*
X144000000Y-137400000D03*
X126300000Y-94000000D03*
X153699994Y-85000000D03*
X174400000Y-69900000D03*
X236300000Y-144400000D03*
X89000000Y-61600000D03*
X121100000Y-135100000D03*
X101700000Y-117500000D03*
X234100000Y-129300000D03*
X238900000Y-112000000D03*
X133200000Y-79000000D03*
X60500000Y-84500000D03*
X84900000Y-69600000D03*
X238500000Y-81250000D03*
X230750000Y-142000000D03*
X130000000Y-124300000D03*
X235500000Y-127400000D03*
X79800000Y-69000000D03*
X53300000Y-86100000D03*
X192200000Y-136400000D03*
X104200000Y-106500000D03*
X207500000Y-110100000D03*
X159700000Y-93000000D03*
X234500000Y-117300000D03*
X158300000Y-131000000D03*
X117700000Y-59000000D03*
X236300000Y-141000000D03*
X54250000Y-64750000D03*
X202750000Y-114500000D03*
X182600000Y-114300000D03*
X105000000Y-127000000D03*
X104900000Y-123600000D03*
X247100000Y-139300000D03*
X111900004Y-130700000D03*
X211925000Y-125475000D03*
X246700980Y-76000000D03*
X247100000Y-103400000D03*
X247100000Y-125200000D03*
X183000000Y-148700010D03*
X211600000Y-120000000D03*
X209672373Y-103700042D03*
X115500000Y-148600000D03*
X181900000Y-133000000D03*
X209300000Y-145900000D03*
X61250000Y-64750000D03*
X248000000Y-127800000D03*
X248000000Y-137300000D03*
X69000000Y-106300000D03*
X61500000Y-51500000D03*
X83000000Y-51500000D03*
X65899998Y-103200000D03*
X65900000Y-109700000D03*
X248000000Y-61000000D03*
X248000000Y-102500000D03*
X69000000Y-103200000D03*
X248000000Y-82250000D03*
X64930378Y-63819622D03*
X225600000Y-120899994D03*
X226685503Y-112991302D03*
X229722745Y-117987903D03*
X225452121Y-118500000D03*
X229800000Y-113500000D03*
X232400000Y-121200000D03*
X232300000Y-117300000D03*
X100000000Y-97400000D03*
X208500000Y-92300000D03*
X232500000Y-82750000D03*
X100000000Y-80300000D03*
X133500000Y-146200000D03*
X245000000Y-89500000D03*
X209000000Y-127300000D03*
X232550000Y-91700000D03*
X116000000Y-113000000D03*
X236500000Y-134700000D03*
X134000000Y-105000000D03*
X216000000Y-94600000D03*
X208500000Y-97400000D03*
X95400000Y-145400000D03*
X64600000Y-109800000D03*
X112800000Y-113000000D03*
X116000000Y-127400000D03*
X111600000Y-109300000D03*
X95400000Y-147800000D03*
X245000000Y-137900000D03*
X195400000Y-132500000D03*
X209000000Y-132600000D03*
X111600000Y-111800000D03*
X204600000Y-129900000D03*
X205000000Y-135000000D03*
X112800000Y-97400000D03*
X234700000Y-133600000D03*
X195400000Y-146800000D03*
X236800012Y-146799988D03*
X134000000Y-97400000D03*
X89500000Y-97400000D03*
X205000000Y-131800000D03*
X223500000Y-127250000D03*
X223500000Y-110000000D03*
X227500000Y-117600000D03*
X226500000Y-122750000D03*
X210900000Y-118000000D03*
X210100000Y-85600000D03*
X223500002Y-117600000D03*
X219700000Y-139500000D03*
X245900000Y-138800000D03*
X131300000Y-137900000D03*
X214500000Y-118800010D03*
X222400000Y-147699990D03*
X221325000Y-132975000D03*
X131200000Y-147799994D03*
X221500000Y-121400000D03*
X216800000Y-118800010D03*
X245900000Y-104400000D03*
X134500000Y-137900000D03*
X221500000Y-125900000D03*
X109000000Y-105300000D03*
X109000000Y-103800021D03*
X135500000Y-129700000D03*
X82300000Y-103800021D03*
X82300000Y-107400000D03*
X222400000Y-142200000D03*
X99100000Y-144000000D03*
X105000000Y-139500000D03*
X130800000Y-133100000D03*
X70100000Y-114000000D03*
X92100000Y-129600000D03*
X82100000Y-121500000D03*
X110000000Y-137500000D03*
X82099988Y-124500010D03*
X74700000Y-121400000D03*
X110600000Y-128700000D03*
X69500000Y-111500000D03*
X74700000Y-116100000D03*
X90300000Y-124300000D03*
X98500000Y-133400000D03*
X108000000Y-137500000D03*
X97200000Y-104700021D03*
X93000000Y-108000000D03*
X107200000Y-115100000D03*
X175500000Y-131100000D03*
X107200000Y-111400000D03*
X118200000Y-113800000D03*
X120100000Y-118000000D03*
X170000000Y-135000000D03*
X215600000Y-112100000D03*
X241500000Y-88000000D03*
X166400000Y-122900000D03*
X182100000Y-124000000D03*
X187000000Y-137000000D03*
X178800000Y-137700000D03*
X177100000Y-134200000D03*
X86500000Y-59000000D03*
X81700000Y-59000000D03*
X75975000Y-63675000D03*
X87838870Y-64317925D03*
X78000000Y-64400000D03*
X100700000Y-58700000D03*
X207500000Y-114800000D03*
X207500000Y-116100000D03*
X68000000Y-83000000D03*
X56900000Y-74100000D03*
X72400000Y-75000000D03*
X172100000Y-93000000D03*
X173500000Y-80200000D03*
X169400000Y-93000000D03*
X169200000Y-95200000D03*
X179900000Y-94100000D03*
X154900000Y-78100000D03*
X154900000Y-74100000D03*
X149000000Y-104600000D03*
X182399998Y-104600000D03*
X177600000Y-73600000D03*
X156300000Y-73500000D03*
X177000000Y-72200000D03*
X164300000Y-71000000D03*
X163700000Y-75000000D03*
X207700000Y-78100000D03*
X207700000Y-69400000D03*
X196100000Y-68600000D03*
X196300000Y-74000000D03*
X195950000Y-66550000D03*
X205200000Y-77900000D03*
X205200000Y-74400000D03*
X205200000Y-82500000D03*
X206800000Y-73000000D03*
X217400000Y-58700000D03*
X73600000Y-120000000D03*
X79100000Y-120000000D03*
X73993245Y-115393245D03*
X79100000Y-121800010D03*
X84800000Y-116000000D03*
X97200000Y-114800000D03*
X99000000Y-128000000D03*
X93900000Y-121600000D03*
X97200000Y-124700000D03*
X92700000Y-117225000D03*
X95050500Y-126250000D03*
X123250000Y-58250000D03*
X220385408Y-122637106D03*
X220300000Y-121000000D03*
X188800000Y-128400000D03*
X184250000Y-132000000D03*
X184000000Y-128500000D03*
X206300000Y-130400000D03*
X206300000Y-123700000D03*
X64000000Y-71400000D03*
X73900000Y-69000000D03*
X65600000Y-69200000D03*
X211800000Y-101200000D03*
X212500000Y-123800000D03*
X216300000Y-123900000D03*
X215300000Y-110700000D03*
X246700000Y-85900000D03*
X79100000Y-52400000D03*
X213500000Y-86500000D03*
X247000000Y-61500000D03*
X210100000Y-105900064D03*
X113700000Y-108100000D03*
X113700000Y-104500022D03*
X210000000Y-114900000D03*
X139700000Y-95300000D03*
X185000000Y-96050500D03*
X208500000Y-83900000D03*
X207200000Y-91500000D03*
X239799996Y-105400000D03*
X139700000Y-86200000D03*
X185000000Y-104700000D03*
X198000000Y-104700000D03*
X207100000Y-104600000D03*
X239800000Y-115000000D03*
X138800006Y-77500000D03*
X198000000Y-136000000D03*
X82400000Y-111500000D03*
X206000000Y-106400000D03*
X203500000Y-96500500D03*
X145100000Y-80000000D03*
X145800000Y-96100000D03*
X213500000Y-87700000D03*
X206000000Y-116200000D03*
X213600000Y-107400000D03*
X209000000Y-86500000D03*
X183300000Y-96500500D03*
X211000000Y-74600000D03*
X83700000Y-63000000D03*
X81300000Y-75000000D03*
X83300000Y-66400000D03*
X111500000Y-80100000D03*
X194500000Y-75500000D03*
X62000000Y-92500000D03*
X98000000Y-77000000D03*
X100500000Y-140500000D03*
X95970000Y-134830000D03*
X158500000Y-90200000D03*
X164500000Y-93000000D03*
X186600000Y-81000000D03*
X231500000Y-68500000D03*
X153600000Y-140700000D03*
X151000000Y-131200000D03*
X151500000Y-127200000D03*
X147200000Y-83000000D03*
X191700000Y-80000000D03*
X240000000Y-84250000D03*
X240050000Y-77950000D03*
X212000499Y-96750000D03*
X238750000Y-83250000D03*
X175000000Y-95701460D03*
X175750000Y-78500000D03*
X238750000Y-86599500D03*
X175000000Y-91500000D03*
X242000000Y-86599500D03*
X212250000Y-84250000D03*
X245500000Y-77000000D03*
X245750000Y-61500000D03*
X60500000Y-52250000D03*
X57250000Y-63250000D03*
D74*
X96700000Y-120365000D02*
X102402500Y-120365000D01*
X102402500Y-120365000D02*
X102737011Y-120699511D01*
X96700000Y-122905000D02*
X95505000Y-122905000D01*
X95505000Y-122905000D02*
X94900000Y-122300000D01*
X94565000Y-120365000D02*
X91300000Y-120365000D01*
X94900000Y-122300000D02*
X94900000Y-120700000D01*
X94900000Y-120700000D02*
X94565000Y-120365000D01*
X96700000Y-121635000D02*
X96700000Y-120365000D01*
D75*
X63600489Y-53299511D02*
X80028387Y-53299511D01*
X61549511Y-53299511D02*
X63600489Y-53299511D01*
X63600489Y-53299511D02*
X63600000Y-53300000D01*
X63600000Y-53300000D02*
X63600000Y-54900000D01*
D74*
X65600000Y-58000000D02*
X65600000Y-57900000D01*
X65100000Y-57400000D02*
X63600000Y-57400000D01*
X65600000Y-57900000D02*
X65100000Y-57400000D01*
X85700000Y-76000000D02*
X86100000Y-75600000D01*
X84000000Y-76000000D02*
X85700000Y-76000000D01*
D75*
X113000000Y-74025000D02*
X111525000Y-74025000D01*
X232525000Y-113075000D02*
X232525000Y-112000000D01*
X204920000Y-143010000D02*
X205990000Y-143010000D01*
X54250000Y-138000000D02*
X55700000Y-138000000D01*
D74*
X110400000Y-108200000D02*
X110169998Y-107969998D01*
D75*
X54300000Y-64700000D02*
X54250000Y-64750000D01*
X229775000Y-131975000D02*
X229800000Y-132000000D01*
D74*
X222050000Y-116775000D02*
X221025000Y-116775000D01*
D75*
X121080000Y-133990000D02*
X121080000Y-135080000D01*
X92000000Y-133025000D02*
X90525000Y-133025000D01*
D74*
X109670000Y-107939998D02*
X109700000Y-107969998D01*
D75*
X234300000Y-129500000D02*
X234100000Y-129300000D01*
X237037500Y-81250000D02*
X238500000Y-81250000D01*
D74*
X220525000Y-112875000D02*
X220500000Y-112900000D01*
X199600000Y-67500000D02*
X200800000Y-67500000D01*
D75*
X101080000Y-130990000D02*
X101080000Y-129780000D01*
D74*
X222050000Y-112225000D02*
X222050000Y-112875000D01*
D75*
X228802000Y-142036000D02*
X230714000Y-142036000D01*
X160975000Y-93000000D02*
X159700000Y-93000000D01*
X224000000Y-92000000D02*
X224000000Y-91000000D01*
X231500000Y-113975000D02*
X231625000Y-113975000D01*
X222225000Y-135025000D02*
X222200000Y-135000000D01*
X144000000Y-136025000D02*
X144000000Y-137400000D01*
X121700000Y-108000000D02*
X121700000Y-106400000D01*
X131500000Y-124300000D02*
X130000000Y-124300000D01*
X211000000Y-111475000D02*
X207500000Y-111475000D01*
D74*
X222050000Y-112875000D02*
X222050000Y-113525000D01*
D75*
X231490000Y-132420000D02*
X230220000Y-132420000D01*
X111525000Y-74025000D02*
X111500000Y-74000000D01*
X235025000Y-144500000D02*
X236200000Y-144500000D01*
X228500000Y-131975000D02*
X229775000Y-131975000D01*
X114475000Y-62475000D02*
X114500000Y-62500000D01*
X212750000Y-131400000D02*
X211412500Y-131400000D01*
X136975000Y-89000000D02*
X135500000Y-89000000D01*
D74*
X91300000Y-122905000D02*
X91300000Y-123900000D01*
D75*
X152975000Y-90000000D02*
X151700000Y-90000000D01*
X195000000Y-62525000D02*
X196325000Y-62525000D01*
D74*
X87295000Y-111095000D02*
X87300000Y-111100000D01*
X81300000Y-68905000D02*
X79895000Y-68905000D01*
D75*
X80600000Y-120000000D02*
X80500000Y-120100000D01*
X210500000Y-67525000D02*
X210500000Y-68900000D01*
X160800000Y-131000000D02*
X158300000Y-131000000D01*
X84975000Y-69675000D02*
X84900000Y-69600000D01*
X225480000Y-129980000D02*
X225500000Y-130000000D01*
X219025000Y-112000000D02*
X220100000Y-112000000D01*
X232375000Y-78750000D02*
X226075000Y-78750000D01*
X198490000Y-143920000D02*
X199480000Y-143920000D01*
X205000000Y-65475000D02*
X205000000Y-65500000D01*
X154975000Y-85000000D02*
X153699994Y-85000000D01*
X62250000Y-145000000D02*
X63600000Y-145000000D01*
X86975000Y-81000000D02*
X86975000Y-79625000D01*
X217300000Y-129000000D02*
X217200000Y-129100000D01*
X55000000Y-92250000D02*
X52850000Y-92250000D01*
X214000000Y-111475000D02*
X211000000Y-111475000D01*
X187025000Y-64000000D02*
X188400000Y-64000000D01*
X204975000Y-85500000D02*
X203700000Y-85500000D01*
X61000000Y-99250000D02*
X63150000Y-99250000D01*
X196325000Y-62525000D02*
X196400000Y-62600000D01*
D74*
X157100000Y-76000000D02*
X158400000Y-76000000D01*
D75*
X187025000Y-69575000D02*
X187000000Y-69600000D01*
D74*
X221025000Y-116775000D02*
X220600000Y-117200000D01*
D75*
X215500000Y-143700000D02*
X216900000Y-143700000D01*
X168025000Y-56000000D02*
X169400000Y-56000000D01*
X66750000Y-131000000D02*
X65500000Y-131000000D01*
X237037500Y-76250000D02*
X238500000Y-76250000D01*
X76975000Y-117000000D02*
X75600000Y-117000000D01*
X176500000Y-66025000D02*
X176500000Y-67600000D01*
X54300000Y-63250000D02*
X54300000Y-64700000D01*
X118975000Y-59000000D02*
X117700000Y-59000000D01*
X218500000Y-129000000D02*
X217300000Y-129000000D01*
X170475000Y-125500000D02*
X169000000Y-125500000D01*
X220500000Y-57025000D02*
X220500000Y-58400000D01*
X53700000Y-85700000D02*
X53300000Y-86100000D01*
X235475000Y-129500000D02*
X234300000Y-129500000D01*
X236200000Y-144500000D02*
X236300000Y-144400000D01*
D74*
X79895000Y-68905000D02*
X79800000Y-69000000D01*
D75*
X63600000Y-145000000D02*
X63700000Y-145100000D01*
X55000000Y-106250000D02*
X52850000Y-106250000D01*
X52975000Y-72000000D02*
X52975000Y-71875000D01*
X136025000Y-65000000D02*
X137300000Y-65000000D01*
X223500000Y-135025000D02*
X222225000Y-135025000D01*
X174275000Y-70025000D02*
X174400000Y-69900000D01*
X235025000Y-141000000D02*
X236300000Y-141000000D01*
X224000000Y-91000000D02*
X223000000Y-90000000D01*
X230000000Y-66475000D02*
X228525000Y-66475000D01*
X205000000Y-65500000D02*
X206000000Y-66500000D01*
X237525000Y-112000000D02*
X238900000Y-112000000D01*
X169625000Y-62525000D02*
X169600000Y-62500000D01*
X65500000Y-131000000D02*
X65300000Y-131200000D01*
X202750000Y-114500000D02*
X201487500Y-114500000D01*
X113975000Y-59000000D02*
X112700000Y-59000000D01*
X177025000Y-90000000D02*
X178300000Y-90000000D01*
X80750000Y-53950000D02*
X80700000Y-53900000D01*
X199480000Y-143920000D02*
X199500000Y-143900000D01*
X173025000Y-88000000D02*
X174400000Y-88000000D01*
X235475000Y-127375000D02*
X235500000Y-127400000D01*
X208950000Y-90350000D02*
X209800000Y-91200000D01*
X144975000Y-128000000D02*
X143500000Y-128000000D01*
X230714000Y-142036000D02*
X230750000Y-142000000D01*
X55700000Y-138000000D02*
X55800000Y-138100000D01*
X104200000Y-108000000D02*
X104200000Y-106500000D01*
X63300000Y-84500000D02*
X60500000Y-84500000D01*
D74*
X134650000Y-79000000D02*
X133200000Y-79000000D01*
D75*
X177000000Y-142700000D02*
X175500000Y-142700000D01*
X89025000Y-61625000D02*
X89000000Y-61600000D01*
D74*
X110400000Y-109100000D02*
X110400000Y-108200000D01*
D75*
X225480000Y-128990000D02*
X225480000Y-129980000D01*
X113975000Y-94000000D02*
X112700000Y-94000000D01*
X201487500Y-114500000D02*
X201437500Y-114550000D01*
D74*
X222050000Y-112875000D02*
X220525000Y-112875000D01*
D75*
X109475000Y-113000000D02*
X108100000Y-113000000D01*
X242025000Y-101000000D02*
X243400000Y-101000000D01*
X203987500Y-121500000D02*
X204050000Y-121562500D01*
X208950000Y-90200000D02*
X208950000Y-90350000D01*
X220100000Y-112000000D02*
X220300000Y-111800000D01*
X101080000Y-129780000D02*
X101000000Y-129700000D01*
D74*
X85700000Y-111095000D02*
X87295000Y-111095000D01*
D75*
X72200000Y-92200000D02*
X72200000Y-91025000D01*
X113000000Y-62475000D02*
X114475000Y-62475000D01*
X203700000Y-85500000D02*
X203600000Y-85600000D01*
X129800000Y-117800000D02*
X131850000Y-117800000D01*
X52850000Y-92250000D02*
X52800000Y-92200000D01*
X234250000Y-79000000D02*
X234000000Y-78750000D01*
X231475000Y-120000000D02*
X230200000Y-120000000D01*
X233600000Y-112000000D02*
X233700000Y-111900000D01*
X173000000Y-70025000D02*
X174275000Y-70025000D01*
D74*
X208600000Y-76500000D02*
X209800000Y-76500000D01*
D75*
X231625000Y-113975000D02*
X232525000Y-113075000D01*
X141025000Y-69000000D02*
X142500000Y-69000000D01*
X55000000Y-85700000D02*
X53700000Y-85700000D01*
X216900000Y-143700000D02*
X217000000Y-143600000D01*
D74*
X110169998Y-107969998D02*
X109700000Y-107969998D01*
D75*
X234500000Y-116200000D02*
X234500000Y-117300000D01*
X114000000Y-119975000D02*
X114000000Y-118600000D01*
X171000000Y-62525000D02*
X169625000Y-62525000D01*
D74*
X110330000Y-109170000D02*
X110400000Y-109100000D01*
D75*
X207500000Y-111475000D02*
X207500000Y-110100000D01*
X232525000Y-112000000D02*
X233600000Y-112000000D01*
X231475000Y-122500000D02*
X230200000Y-122500000D01*
X89025000Y-63000000D02*
X89025000Y-61625000D01*
X144975000Y-124500000D02*
X143600000Y-124500000D01*
X230220000Y-132420000D02*
X229800000Y-132000000D01*
X90525000Y-133025000D02*
X90500000Y-133000000D01*
X52975000Y-71875000D02*
X52100000Y-71000000D01*
X90975000Y-76000000D02*
X89700000Y-76000000D01*
X121080000Y-135080000D02*
X121100000Y-135100000D01*
X86975000Y-79625000D02*
X87000000Y-79600000D01*
X175000000Y-126025000D02*
X175000000Y-127500000D01*
X177025000Y-93000000D02*
X178300004Y-93000000D01*
X181000000Y-114300000D02*
X182600000Y-114300000D01*
X205475000Y-62000000D02*
X204100000Y-62000000D01*
X234000000Y-78750000D02*
X232375000Y-78750000D01*
X228525000Y-66475000D02*
X228500000Y-66500000D01*
X131850000Y-117800000D02*
X131900000Y-117850000D01*
X63150000Y-99250000D02*
X63200000Y-99200000D01*
X187025000Y-68000000D02*
X187025000Y-69575000D01*
X211412500Y-131400000D02*
X211312500Y-131300000D01*
X205990000Y-143010000D02*
X206000000Y-143000000D01*
X125025000Y-94000000D02*
X126300000Y-94000000D01*
X203000000Y-121500000D02*
X203987500Y-121500000D01*
X52850000Y-106250000D02*
X52700000Y-106100000D01*
X69000000Y-91025000D02*
X69000000Y-92300000D01*
X67300000Y-66000000D02*
X67300000Y-67600000D01*
D74*
X109670000Y-106650000D02*
X109670000Y-107939998D01*
D75*
X168025000Y-66000000D02*
X169400000Y-66000000D01*
X139500000Y-140025000D02*
X139500000Y-141400000D01*
X84975000Y-71000000D02*
X84975000Y-69675000D01*
X81975000Y-120000000D02*
X80600000Y-120000000D01*
X100025000Y-117500000D02*
X101700000Y-117500000D01*
D74*
X142350000Y-84000000D02*
X143900000Y-84000000D01*
D75*
X80750000Y-56000000D02*
X80750000Y-53950000D01*
D74*
X110330000Y-109350000D02*
X110330000Y-109170000D01*
D75*
X235475000Y-126000000D02*
X235475000Y-127375000D01*
X192200000Y-135000000D02*
X192200000Y-136400000D01*
D74*
X72100000Y-122300000D02*
X70800000Y-121000000D01*
X80400011Y-125200011D02*
X77500000Y-122300000D01*
X93100000Y-123600000D02*
X91499990Y-125200010D01*
X69000000Y-120500000D02*
X69000000Y-119000000D01*
X105030000Y-127990000D02*
X105030000Y-127030000D01*
X104900000Y-123600000D02*
X93100000Y-123600000D01*
X91499990Y-125200010D02*
X80400011Y-125200011D01*
X70800000Y-121000000D02*
X69500000Y-121000000D01*
X77500000Y-122300000D02*
X72100000Y-122300000D01*
X69500000Y-121000000D02*
X69000000Y-120500000D01*
X105030000Y-127030000D02*
X105000000Y-127000000D01*
D75*
X108025000Y-131000000D02*
X111600004Y-131000000D01*
X181010000Y-133030000D02*
X181870000Y-133030000D01*
X123000000Y-129975000D02*
X112625004Y-129975000D01*
X242392053Y-103600011D02*
X209772404Y-103600011D01*
X247100000Y-125200000D02*
X242050000Y-125200000D01*
X210995000Y-125475000D02*
X210990000Y-125470000D01*
X242592064Y-103400000D02*
X242392053Y-103600011D01*
X242050000Y-125200000D02*
X242000000Y-125250000D01*
X183100010Y-148600000D02*
X183000000Y-148700010D01*
X209500000Y-120000000D02*
X211600000Y-120000000D01*
X246600000Y-139800000D02*
X241200000Y-139800000D01*
X115600010Y-148700010D02*
X183000000Y-148700010D01*
X240600000Y-140400000D02*
X240600000Y-147500000D01*
X111600004Y-131000000D02*
X111900004Y-130700000D01*
X241612500Y-76000000D02*
X241562500Y-76050000D01*
X115500000Y-148600000D02*
X115600010Y-148700010D01*
X238800000Y-126000000D02*
X239550000Y-125250000D01*
X239550000Y-125250000D02*
X242000000Y-125250000D01*
X181870000Y-133030000D02*
X181900000Y-133000000D01*
X213500000Y-125475000D02*
X211925000Y-125475000D01*
X239500000Y-148600000D02*
X183100010Y-148600000D01*
X246700980Y-76000000D02*
X241612500Y-76000000D01*
X211925000Y-125475000D02*
X210995000Y-125475000D01*
X209772404Y-103600011D02*
X209672373Y-103700042D01*
X240600000Y-147500000D02*
X239500000Y-148600000D01*
X237525000Y-126000000D02*
X238800000Y-126000000D01*
X112625004Y-129975000D02*
X111900004Y-130700000D01*
X241200000Y-139800000D02*
X240600000Y-140400000D01*
X247100000Y-139300000D02*
X246600000Y-139800000D01*
X247100000Y-103400000D02*
X242592064Y-103400000D01*
X238199970Y-139405878D02*
X238199970Y-145800030D01*
X234290002Y-130520000D02*
X234670002Y-130900000D01*
X216800001Y-145800000D02*
X216800001Y-145850001D01*
X240000000Y-60000000D02*
X247100000Y-60000000D01*
X216700001Y-145950001D02*
X214299999Y-145950001D01*
X242050000Y-127800000D02*
X242000000Y-127750000D01*
X69299989Y-102900011D02*
X69000000Y-103200000D01*
X209500000Y-136500000D02*
X207600000Y-136500000D01*
X239100000Y-52000000D02*
X239100000Y-59100000D01*
X63950000Y-64800000D02*
X64930378Y-63819622D01*
X207000000Y-135900000D02*
X206000000Y-135900000D01*
X61250000Y-64750000D02*
X61300000Y-64800000D01*
X216800001Y-145850001D02*
X216700001Y-145950001D01*
X110648553Y-102800000D02*
X110548542Y-102900011D01*
X206000000Y-135900000D02*
X206000000Y-137975000D01*
X69000000Y-103200000D02*
X65899998Y-103200000D01*
X206000000Y-137975000D02*
X206025000Y-138000000D01*
X214199999Y-145800000D02*
X209400000Y-145800000D01*
X83000000Y-51500000D02*
X238600000Y-51500000D01*
X241562500Y-82300000D02*
X247950000Y-82300000D01*
X214199999Y-145850001D02*
X214199999Y-145800000D01*
X214299999Y-145950001D02*
X214199999Y-145850001D01*
X231490000Y-130520000D02*
X234290002Y-130520000D01*
X207600000Y-136500000D02*
X207000000Y-135900000D01*
X248000000Y-102500000D02*
X242360678Y-102500000D01*
X240805848Y-136800000D02*
X238199970Y-139405878D01*
X238199940Y-145800000D02*
X216800001Y-145800000D01*
X237525000Y-130375000D02*
X237525000Y-129500000D01*
X238600000Y-51500000D02*
X239100000Y-52000000D01*
X247100000Y-60000000D02*
X248000000Y-60900000D01*
X238199970Y-145800030D02*
X238199940Y-145800000D01*
X239100000Y-59100000D02*
X240000000Y-60000000D01*
X61500000Y-51500000D02*
X83000000Y-51500000D01*
X61300000Y-64800000D02*
X63950000Y-64800000D01*
X240150000Y-127750000D02*
X242000000Y-127750000D01*
X238400000Y-129500000D02*
X240150000Y-127750000D01*
X248000000Y-60900000D02*
X248000000Y-61000000D01*
X237000000Y-130900000D02*
X237525000Y-130375000D01*
X209400000Y-145800000D02*
X209300000Y-145900000D01*
X65900000Y-109700000D02*
X65900000Y-111887500D01*
X237525000Y-129500000D02*
X238400000Y-129500000D01*
X247950000Y-82300000D02*
X248000000Y-82250000D01*
X248000000Y-137300000D02*
X247500000Y-136800000D01*
X242360678Y-102500000D02*
X242060678Y-102800000D01*
X68975000Y-105000000D02*
X68975000Y-106275000D01*
X247500000Y-136800000D02*
X240805848Y-136800000D01*
X110548542Y-102900011D02*
X69299989Y-102900011D01*
X248000000Y-127800000D02*
X242050000Y-127800000D01*
X65900000Y-111887500D02*
X66062500Y-112050000D01*
X68975000Y-106275000D02*
X69000000Y-106300000D01*
X234670002Y-130900000D02*
X237000000Y-130900000D01*
X242060678Y-102800000D02*
X110648553Y-102800000D01*
X206000000Y-134000000D02*
X206000000Y-135900000D01*
D74*
X225600000Y-122575000D02*
X225550000Y-122625000D01*
X229240001Y-120610001D02*
X228950008Y-120899994D01*
X233525000Y-119125000D02*
X233100000Y-118700000D01*
X228950008Y-120899994D02*
X225600000Y-120899994D01*
X233100000Y-118700000D02*
X230000000Y-118700000D01*
X233525000Y-120000000D02*
X233525000Y-119125000D01*
X235475000Y-120000000D02*
X233525000Y-120000000D01*
X226801805Y-112875000D02*
X226685503Y-112991302D01*
X230000000Y-118700000D02*
X229240001Y-119459999D01*
X235475000Y-120000000D02*
X235475000Y-116225000D01*
X225600000Y-120899994D02*
X225600000Y-122575000D01*
X229240001Y-119459999D02*
X229240001Y-120610001D01*
X227950000Y-112875000D02*
X226801805Y-112875000D01*
X235475000Y-116225000D02*
X235450000Y-116200000D01*
X229722745Y-117987903D02*
X230210648Y-117500000D01*
X225652121Y-118300000D02*
X229410648Y-118300000D01*
X230210648Y-117500000D02*
X232100000Y-117500000D01*
X232500000Y-123750000D02*
X231937500Y-124312500D01*
X225452121Y-118500000D02*
X225652121Y-118300000D01*
X233525000Y-122500000D02*
X233525000Y-122325000D01*
X233537500Y-123462500D02*
X233250000Y-123750000D01*
X232450000Y-117300000D02*
X232300000Y-117300000D01*
X235475000Y-122500000D02*
X233525000Y-122500000D01*
X229410648Y-118300000D02*
X229722745Y-117987903D01*
X233525000Y-122325000D02*
X232400000Y-121200000D01*
X231937500Y-124312500D02*
X231937500Y-124800000D01*
X233537500Y-122500000D02*
X233537500Y-123462500D01*
X227975000Y-113500000D02*
X227950000Y-113525000D01*
X232100000Y-117500000D02*
X232300000Y-117300000D01*
X233250000Y-123750000D02*
X232500000Y-123750000D01*
X229800000Y-113500000D02*
X227975000Y-113500000D01*
X233550000Y-116200000D02*
X232450000Y-117300000D01*
D75*
X242000000Y-132750000D02*
X240850000Y-132750000D01*
X240100000Y-133500000D02*
X238525000Y-133500000D01*
X240850000Y-132750000D02*
X240100000Y-133500000D01*
X236800012Y-146799988D02*
X238500012Y-146799988D01*
X95400000Y-147800000D02*
X113900000Y-147800000D01*
D74*
X111550000Y-109350000D02*
X111600000Y-109300000D01*
D75*
X203200000Y-131800000D02*
X205000000Y-131800000D01*
X229975000Y-134025000D02*
X228500000Y-134025000D01*
X234700000Y-133600000D02*
X236375000Y-133600000D01*
X227900000Y-92600000D02*
X227900000Y-94000000D01*
X204600000Y-129900000D02*
X204600000Y-128625000D01*
X238500012Y-146799988D02*
X238999979Y-146300021D01*
X238200000Y-91200000D02*
X237700000Y-91700000D01*
X100000000Y-79025000D02*
X100000000Y-80300000D01*
X63000000Y-113975000D02*
X63000000Y-111400000D01*
X116000000Y-127400000D02*
X116000000Y-126025000D01*
X209000000Y-127300000D02*
X209000000Y-126430000D01*
X111600000Y-112925000D02*
X111525000Y-113000000D01*
X216000000Y-94600000D02*
X216000000Y-92000000D01*
X237700000Y-91700000D02*
X232550000Y-91700000D01*
X221967986Y-146800000D02*
X221967998Y-146799988D01*
X116000000Y-126025000D02*
X116025000Y-126000000D01*
X232550000Y-91700000D02*
X228800000Y-91700000D01*
X236475000Y-134675000D02*
X236500000Y-134700000D01*
X133975000Y-104975000D02*
X134000000Y-105000000D01*
X200500000Y-132475000D02*
X195425000Y-132475000D01*
X215700000Y-92300000D02*
X216000000Y-92000000D01*
X227300000Y-94600000D02*
X216000000Y-94600000D01*
X240837230Y-137900000D02*
X245000000Y-137900000D01*
X238400000Y-89500000D02*
X238200000Y-89700000D01*
X204950000Y-134950000D02*
X205000000Y-135000000D01*
X115500000Y-146200000D02*
X133500000Y-146200000D01*
X194300000Y-145700000D02*
X195400000Y-146800000D01*
X238999979Y-139737251D02*
X240837230Y-137900000D01*
X228802000Y-134339500D02*
X228500000Y-134037500D01*
X111525000Y-113000000D02*
X112800000Y-113000000D01*
X236375000Y-133600000D02*
X236475000Y-133500000D01*
X132500000Y-104975000D02*
X133975000Y-104975000D01*
X245000000Y-89500000D02*
X238400000Y-89500000D01*
X200500000Y-132475000D02*
X202525000Y-132475000D01*
X232375000Y-81030000D02*
X232375000Y-82625000D01*
X111600000Y-111800000D02*
X111600000Y-112925000D01*
X134000000Y-97400000D02*
X207700002Y-97400000D01*
X208500000Y-92300000D02*
X215700000Y-92300000D01*
X216000000Y-94600000D02*
X216000000Y-100380000D01*
X234742500Y-81030000D02*
X234962500Y-81250000D01*
X236475000Y-133500000D02*
X236475000Y-134675000D01*
X208200000Y-131800000D02*
X209000000Y-132600000D01*
X207700002Y-97400000D02*
X208500000Y-97400000D01*
X232375000Y-82625000D02*
X232500000Y-82750000D01*
X95475000Y-144000000D02*
X95475000Y-145325000D01*
X230400000Y-133600000D02*
X229975000Y-134025000D01*
X202525000Y-132475000D02*
X203200000Y-131800000D01*
X112800000Y-113000000D02*
X116000000Y-113000000D01*
X228800000Y-91700000D02*
X227900000Y-92600000D01*
X204600000Y-128625000D02*
X204500000Y-128525000D01*
X195400000Y-146800000D02*
X221967986Y-146800000D01*
X89500000Y-97400000D02*
X100000000Y-97400000D01*
X63000000Y-111400000D02*
X64600000Y-109800000D01*
X100000000Y-97400000D02*
X112800000Y-97400000D01*
X205000000Y-131800000D02*
X208200000Y-131800000D01*
X113900000Y-147800000D02*
X115500000Y-146200000D01*
X232375000Y-81030000D02*
X234742500Y-81030000D01*
X221967998Y-146799988D02*
X236800012Y-146799988D01*
X95475000Y-145325000D02*
X95400000Y-145400000D01*
D74*
X110980000Y-109350000D02*
X111550000Y-109350000D01*
D75*
X228802000Y-137464000D02*
X228802000Y-134339500D01*
X112800000Y-97400000D02*
X134000000Y-97400000D01*
X234700000Y-133600000D02*
X230400000Y-133600000D01*
X204000000Y-134950000D02*
X204950000Y-134950000D01*
X195425000Y-132475000D02*
X195400000Y-132500000D01*
X134000000Y-145700000D02*
X194300000Y-145700000D01*
X238200000Y-89700000D02*
X238200000Y-91200000D01*
X227900000Y-94000000D02*
X227300000Y-94600000D01*
X133500000Y-146200000D02*
X134000000Y-145700000D01*
X238999979Y-146300021D02*
X238999979Y-139737251D01*
X223500002Y-117600000D02*
X227500000Y-117600000D01*
X218300000Y-118700000D02*
X217500009Y-117900009D01*
X228750000Y-127250000D02*
X223500000Y-127250000D01*
X227325000Y-122750000D02*
X227450000Y-122625000D01*
X235400000Y-111925000D02*
X235475000Y-112000000D01*
X207025000Y-87775000D02*
X207050000Y-87800000D01*
X223570000Y-129000000D02*
X223580000Y-128990000D01*
X231937500Y-126700000D02*
X229300000Y-126700000D01*
X222400002Y-118700000D02*
X218300000Y-118700000D01*
D74*
X227950000Y-112225000D02*
X229375000Y-112225000D01*
D75*
X223500000Y-110000000D02*
X230200000Y-110000000D01*
X230475000Y-112000000D02*
X230475000Y-110275000D01*
D74*
X229375000Y-112225000D02*
X229600000Y-112000000D01*
D75*
X223500002Y-117600000D02*
X222400002Y-118700000D01*
X235450000Y-113800000D02*
X235450000Y-112025000D01*
X217500009Y-117900009D02*
X210999991Y-117900009D01*
X229300000Y-126700000D02*
X228750000Y-127250000D01*
X235450000Y-112025000D02*
X235475000Y-112000000D01*
X226500000Y-122750000D02*
X227325000Y-122750000D01*
X207025000Y-85500000D02*
X210000000Y-85500000D01*
X220550000Y-129000000D02*
X223570000Y-129000000D01*
X223500000Y-127250000D02*
X223500000Y-128762500D01*
X235400000Y-110000000D02*
X235400000Y-111925000D01*
X210000000Y-85500000D02*
X210100000Y-85600000D01*
X210999991Y-117900009D02*
X210900000Y-118000000D01*
X230200000Y-110000000D02*
X235400000Y-110000000D01*
X230475000Y-110275000D02*
X230200000Y-110000000D01*
D74*
X229600000Y-112000000D02*
X230475000Y-112000000D01*
D75*
X223500000Y-128762500D02*
X223550000Y-128812500D01*
X207025000Y-85500000D02*
X207025000Y-87775000D01*
X222400000Y-142200000D02*
X222400000Y-139952000D01*
X217999990Y-120000000D02*
X216800000Y-118800010D01*
X132525000Y-136000000D02*
X132525000Y-133125000D01*
X221325000Y-132975000D02*
X220800000Y-133500000D01*
X245900000Y-138800000D02*
X241068616Y-138800000D01*
X239799990Y-140068626D02*
X239799990Y-147000010D01*
X221500000Y-121400000D02*
X221500000Y-120025000D01*
X221834315Y-147699990D02*
X221734305Y-147800000D01*
X208240373Y-103600022D02*
X110979917Y-103600022D01*
X209240394Y-104600043D02*
X208240373Y-103600022D01*
X220800000Y-133500000D02*
X219500000Y-133500000D01*
X210104374Y-104600043D02*
X209240394Y-104600043D01*
X132500000Y-137900000D02*
X134500000Y-137900000D01*
X132525000Y-137875000D02*
X132500000Y-137900000D01*
X241068616Y-138800000D02*
X239799990Y-140068626D01*
X223810000Y-130990000D02*
X223500000Y-131300000D01*
X219000000Y-139500000D02*
X217800000Y-138300000D01*
X222198000Y-139750000D02*
X228802000Y-139750000D01*
X81300000Y-107400000D02*
X80975000Y-107725000D01*
X239799990Y-147000010D02*
X239100010Y-147699990D01*
X224530000Y-130990000D02*
X223810000Y-130990000D01*
X110779918Y-103800021D02*
X109000000Y-103800021D01*
X131300000Y-137900000D02*
X132500000Y-137900000D01*
X132525000Y-133125000D02*
X131500000Y-132100000D01*
X219700000Y-139500000D02*
X219000000Y-139500000D01*
X245899978Y-104400022D02*
X210304395Y-104400022D01*
X219700000Y-139500000D02*
X221948000Y-139500000D01*
X223500000Y-131300000D02*
X223500000Y-132975000D01*
X210304395Y-104400022D02*
X210104374Y-104600043D01*
X221475000Y-124500000D02*
X221475000Y-125875000D01*
X214500000Y-118800010D02*
X216800000Y-118800010D01*
X221948000Y-139500000D02*
X222198000Y-139750000D01*
X131500000Y-132100000D02*
X131500000Y-129700000D01*
X231500000Y-141000000D02*
X232962500Y-141000000D01*
X131200006Y-147800000D02*
X131200000Y-147799994D01*
X109000000Y-103800021D02*
X82300000Y-103800021D01*
X222400000Y-139952000D02*
X222198000Y-139750000D01*
X230250000Y-139750000D02*
X231500000Y-141000000D01*
X110979917Y-103600022D02*
X110779918Y-103800021D01*
X221475000Y-120000000D02*
X217999990Y-120000000D01*
X232975000Y-144500000D02*
X232975000Y-141000000D01*
X245900000Y-104400000D02*
X245899978Y-104400022D01*
X221475000Y-125875000D02*
X221500000Y-125900000D01*
X132525000Y-136000000D02*
X132525000Y-137875000D01*
X221500000Y-120025000D02*
X221475000Y-120000000D01*
X239100010Y-147699990D02*
X222400000Y-147699990D01*
X80300000Y-111095000D02*
X80300000Y-110500000D01*
X217800000Y-138300000D02*
X215500000Y-138300000D01*
D74*
X109020000Y-106650000D02*
X109020000Y-105320000D01*
D75*
X80800000Y-109175000D02*
X80975000Y-109000000D01*
X221734305Y-147800000D02*
X131200006Y-147800000D01*
X82300000Y-107400000D02*
X81300000Y-107400000D01*
X80800000Y-110000000D02*
X80800000Y-109175000D01*
X135500000Y-129700000D02*
X131500000Y-129700000D01*
X228802000Y-139750000D02*
X230250000Y-139750000D01*
X80975000Y-107725000D02*
X80975000Y-109000000D01*
X223500000Y-132975000D02*
X221325000Y-132975000D01*
X80300000Y-110500000D02*
X80800000Y-110000000D01*
X222400000Y-147699990D02*
X221834315Y-147699990D01*
D74*
X109020000Y-105320000D02*
X109000000Y-105300000D01*
D76*
X109025000Y-69000000D02*
X109025000Y-71000000D01*
D74*
X113000000Y-64525000D02*
X113000000Y-67070000D01*
X113025000Y-64500000D02*
X113000000Y-64525000D01*
X116000000Y-64500000D02*
X113025000Y-64500000D01*
X116025000Y-62425000D02*
X116000000Y-62450000D01*
X116025000Y-59000000D02*
X116025000Y-62425000D01*
D76*
X89025000Y-85000000D02*
X90975000Y-85000000D01*
D74*
X105000000Y-139500000D02*
X105000000Y-138025000D01*
X97525000Y-144000000D02*
X99100000Y-144000000D01*
X130800000Y-133100000D02*
X128625000Y-133100000D01*
X128625000Y-133100000D02*
X128525000Y-133000000D01*
X98510000Y-138510000D02*
X96920000Y-138510000D01*
X99975000Y-136000000D02*
X99975000Y-139000000D01*
X99000000Y-139000000D02*
X98510000Y-138510000D01*
X99975000Y-139000000D02*
X99000000Y-139000000D01*
X105000000Y-135975000D02*
X102050000Y-135975000D01*
X102025000Y-136000000D02*
X102050000Y-135975000D01*
X102030000Y-132990000D02*
X102030000Y-135995000D01*
X124600000Y-135500000D02*
X124110000Y-135990000D01*
X124110000Y-135990000D02*
X122030000Y-135990000D01*
X119325000Y-136975000D02*
X118000000Y-136975000D01*
X126475000Y-133000000D02*
X125100000Y-133000000D01*
X124600000Y-133500000D02*
X124600000Y-135500000D01*
X122030000Y-135990000D02*
X120310000Y-135990000D01*
X125100000Y-133000000D02*
X124600000Y-133500000D01*
X120310000Y-135990000D02*
X119325000Y-136975000D01*
X117010000Y-142080000D02*
X118020000Y-142080000D01*
X118020000Y-142080000D02*
X118000000Y-142060000D01*
X123800000Y-138000000D02*
X122775000Y-139025000D01*
X126475000Y-138000000D02*
X123800000Y-138000000D01*
X122775000Y-139025000D02*
X118000000Y-139025000D01*
X118000000Y-142060000D02*
X118000000Y-139025000D01*
X69500000Y-110020000D02*
X69530000Y-109990000D01*
X81700000Y-121100000D02*
X82100000Y-121500000D01*
X100210741Y-129500000D02*
X98077138Y-129500000D01*
X110025000Y-137525000D02*
X110000000Y-137500000D01*
X70020000Y-115720000D02*
X70020000Y-114080000D01*
X110600000Y-128700000D02*
X109800000Y-129500000D01*
X69500000Y-111500000D02*
X69500000Y-110020000D01*
X100710252Y-129000489D02*
X100210741Y-129500000D01*
X101289748Y-129000489D02*
X100710252Y-129000489D01*
X101699511Y-129500000D02*
X101699511Y-129410252D01*
X110025000Y-139000000D02*
X110500000Y-139000000D01*
X97577618Y-129000480D02*
X95974520Y-129000480D01*
X70020000Y-115720000D02*
X70400000Y-116100000D01*
X70400000Y-116100000D02*
X74700000Y-116100000D01*
X70020000Y-114080000D02*
X70100000Y-114000000D01*
X74700000Y-121400000D02*
X75000000Y-121100000D01*
X93500000Y-129600000D02*
X93900000Y-130000000D01*
X92100000Y-129600000D02*
X93500000Y-129600000D01*
X93900000Y-130000000D02*
X94975000Y-130000000D01*
X90300000Y-124300000D02*
X90099990Y-124500010D01*
X92000000Y-129700000D02*
X92100000Y-129600000D01*
X98077138Y-129500000D02*
X97577618Y-129000480D01*
X110500000Y-139000000D02*
X111525000Y-137975000D01*
X109800000Y-129500000D02*
X101699511Y-129500000D01*
X110025000Y-139000000D02*
X110025000Y-137525000D01*
X92000000Y-130975000D02*
X92000000Y-129700000D01*
X111525000Y-137975000D02*
X113000000Y-137975000D01*
X95974520Y-129000480D02*
X94975000Y-130000000D01*
X101699511Y-129410252D02*
X101289748Y-129000489D01*
X90099990Y-124500010D02*
X82099988Y-124500010D01*
X75000000Y-121100000D02*
X81700000Y-121100000D01*
X109200000Y-136300000D02*
X108000000Y-137500000D01*
X122400000Y-137900000D02*
X115100000Y-137900000D01*
X128525000Y-136755002D02*
X128540001Y-136740001D01*
X123559999Y-136740001D02*
X122400000Y-137900000D01*
X128525000Y-138000000D02*
X128525000Y-136755002D01*
X128540001Y-136740001D02*
X123559999Y-136740001D01*
X107975000Y-139000000D02*
X106774999Y-140200001D01*
X107975000Y-139000000D02*
X107975000Y-137525000D01*
X98750000Y-134500000D02*
X98500000Y-134250000D01*
X103225001Y-140200001D02*
X102025000Y-139000000D01*
X115100000Y-137900000D02*
X113500000Y-136300000D01*
X80379979Y-104700021D02*
X80080000Y-105000000D01*
X130475000Y-136000000D02*
X129734999Y-136740001D01*
X100900000Y-137875000D02*
X100900000Y-134900000D01*
X98500000Y-134250000D02*
X98500000Y-133400000D01*
X97200000Y-104700021D02*
X80379979Y-104700021D01*
X100900000Y-134900000D02*
X100500000Y-134500000D01*
X129734999Y-136740001D02*
X128540001Y-136740001D01*
X107975000Y-137525000D02*
X108000000Y-137500000D01*
X102025000Y-139000000D02*
X100900000Y-137875000D01*
X106774999Y-140200001D02*
X103225001Y-140200001D01*
X100500000Y-134500000D02*
X98750000Y-134500000D01*
X113500000Y-136300000D02*
X109200000Y-136300000D01*
X98800000Y-108000000D02*
X93000000Y-108000000D01*
X80300000Y-114905000D02*
X80300000Y-117000000D01*
X132500000Y-108700000D02*
X132500000Y-107025000D01*
X111500000Y-118750000D02*
X112572176Y-117677824D01*
X80300000Y-117000000D02*
X80300000Y-117600000D01*
X99225000Y-118750000D02*
X111500000Y-118750000D01*
X118600000Y-117200000D02*
X123600000Y-117200000D01*
X129450000Y-111350000D02*
X131900000Y-111350000D01*
X131900000Y-111350000D02*
X131900000Y-109300000D01*
X96700000Y-118100000D02*
X96700000Y-117700000D01*
X96700000Y-117700000D02*
X97100000Y-117300000D01*
X80800000Y-118100000D02*
X96700000Y-118100000D01*
X97100000Y-117300000D02*
X97775000Y-117300000D01*
X96700000Y-119095000D02*
X96700000Y-118100000D01*
X112572176Y-117677824D02*
X118122176Y-117677824D01*
X131900000Y-109300000D02*
X132500000Y-108700000D01*
X80300000Y-117600000D02*
X80800000Y-118100000D01*
X79025000Y-117000000D02*
X80300000Y-117000000D01*
X118122176Y-117677824D02*
X118600000Y-117200000D01*
X123600000Y-117200000D02*
X129450000Y-111350000D01*
X97775000Y-117300000D02*
X99225000Y-118750000D01*
X88950000Y-109350000D02*
X88600000Y-109000000D01*
X88600000Y-109000000D02*
X87025000Y-109000000D01*
X109020000Y-109350000D02*
X88950000Y-109350000D01*
X84465000Y-112365000D02*
X85700000Y-112365000D01*
X83025000Y-109000000D02*
X84975000Y-109000000D01*
X83025000Y-110925000D02*
X84465000Y-112365000D01*
X83025000Y-109000000D02*
X83025000Y-110925000D01*
X100725001Y-112299999D02*
X108265007Y-112299999D01*
X116300000Y-109700000D02*
X116300000Y-108000000D01*
X114900000Y-111100000D02*
X116300000Y-109700000D01*
X108265007Y-112299999D02*
X109465006Y-111100000D01*
X100025000Y-113000000D02*
X100725001Y-112299999D01*
X109465006Y-111100000D02*
X114900000Y-111100000D01*
X114000000Y-122025000D02*
X113175000Y-122025000D01*
X113175000Y-122025000D02*
X112225000Y-122975000D01*
X112225000Y-122975000D02*
X111000000Y-122975000D01*
X123250000Y-121750000D02*
X123250000Y-124225000D01*
X119250000Y-121000000D02*
X119750000Y-121500000D01*
X102737011Y-120699511D02*
X112449511Y-120699511D01*
X112750000Y-121000000D02*
X119250000Y-121000000D01*
X123000000Y-121500000D02*
X123250000Y-121750000D01*
X119750000Y-121500000D02*
X123000000Y-121500000D01*
X112449511Y-120699511D02*
X112750000Y-121000000D01*
X175610000Y-130990000D02*
X175500000Y-131100000D01*
X165900000Y-135000000D02*
X163400000Y-132500000D01*
X116900000Y-115100000D02*
X118200000Y-113800000D01*
X150100000Y-129300000D02*
X149000000Y-130400000D01*
X109670000Y-109350000D02*
X109670000Y-110330000D01*
X163400000Y-130509998D02*
X162190002Y-129300000D01*
X108600000Y-111400000D02*
X107200000Y-111400000D01*
X162190002Y-129300000D02*
X150100000Y-129300000D01*
X176500000Y-130937500D02*
X188062500Y-130937500D01*
X170000000Y-135000000D02*
X165900000Y-135000000D01*
X126000000Y-121000000D02*
X123000000Y-118000000D01*
X123000000Y-118000000D02*
X120100000Y-118000000D01*
X176530000Y-130990000D02*
X175610000Y-130990000D01*
X107200000Y-115100000D02*
X116900000Y-115100000D01*
X163400000Y-132500000D02*
X163400000Y-130509998D01*
X109670000Y-110330000D02*
X108600000Y-111400000D01*
X190500000Y-128500000D02*
X190500000Y-127037500D01*
X188062500Y-130937500D02*
X190500000Y-128500000D01*
X139400000Y-130400000D02*
X138900000Y-129900000D01*
X137500000Y-121000000D02*
X126000000Y-121000000D01*
X149000000Y-130400000D02*
X139400000Y-130400000D01*
X138900000Y-129900000D02*
X138900000Y-122400000D01*
X138900000Y-122400000D02*
X137500000Y-121000000D01*
X216975000Y-112000000D02*
X215700000Y-112000000D01*
X215700000Y-112000000D02*
X215600000Y-112100000D01*
X199475000Y-115495000D02*
X199510000Y-115530000D01*
X199475000Y-112975000D02*
X199475000Y-115495000D01*
X199475000Y-110000000D02*
X199475000Y-112975000D01*
X199450000Y-113000000D02*
X199475000Y-112975000D01*
X192500000Y-113000000D02*
X199450000Y-113000000D01*
X218540000Y-108000000D02*
X218540000Y-109160000D01*
X202125001Y-109399999D02*
X201525000Y-110000000D01*
X218540000Y-109160000D02*
X218000000Y-109700000D01*
X208136002Y-109700000D02*
X207836001Y-109399999D01*
X207836001Y-109399999D02*
X202125001Y-109399999D01*
X218000000Y-109700000D02*
X208136002Y-109700000D01*
D75*
X231240000Y-96760000D02*
X232000000Y-96000000D01*
X231240000Y-100380000D02*
X231240000Y-96760000D01*
X231240000Y-100380000D02*
X233580000Y-100380000D01*
X233580000Y-100380000D02*
X234200000Y-101000000D01*
X234200000Y-101000000D02*
X235475000Y-101000000D01*
X232000000Y-88000000D02*
X241500000Y-88000000D01*
D74*
X239975000Y-101000000D02*
X237525000Y-101000000D01*
X175000000Y-123975000D02*
X179065000Y-123975000D01*
X173700000Y-121700000D02*
X173700000Y-119500000D01*
X175000000Y-123975000D02*
X175000000Y-123000000D01*
X179065000Y-123975000D02*
X179080000Y-123990000D01*
X175000000Y-123000000D02*
X173700000Y-121700000D01*
X166400000Y-122900000D02*
X168300000Y-121000000D01*
X168300000Y-121000000D02*
X168300000Y-119500000D01*
X180980000Y-123990000D02*
X182090000Y-123990000D01*
X181000000Y-123970000D02*
X180980000Y-123990000D01*
X182090000Y-123990000D02*
X182100000Y-124000000D01*
X181000000Y-119700000D02*
X181000000Y-123970000D01*
X184600000Y-135000000D02*
X186800000Y-135000000D01*
X187000000Y-137000000D02*
X187000000Y-135200000D01*
X184400000Y-134800000D02*
X184600000Y-135000000D01*
X184400000Y-134400000D02*
X184400000Y-134800000D01*
X183980000Y-133980000D02*
X184400000Y-134400000D01*
X183010000Y-133980000D02*
X183980000Y-133980000D01*
X187000000Y-135200000D02*
X186800000Y-135000000D01*
X177100000Y-137200000D02*
X177000000Y-137300000D01*
X178400000Y-137300000D02*
X178800000Y-137700000D01*
X177100000Y-134200000D02*
X177100000Y-137200000D01*
X177000000Y-137300000D02*
X178400000Y-137300000D01*
X167100000Y-129000000D02*
X166200000Y-129900000D01*
X166200000Y-129900000D02*
X166200000Y-131000000D01*
X170475000Y-129000000D02*
X167100000Y-129000000D01*
X86500000Y-57900000D02*
X86500000Y-59000000D01*
X86975000Y-64820000D02*
X86700000Y-65095000D01*
X86975000Y-63000000D02*
X86975000Y-59475000D01*
X86975000Y-59475000D02*
X86500000Y-59000000D01*
X87250000Y-56000000D02*
X87250000Y-57150000D01*
X86975000Y-63000000D02*
X86975000Y-64820000D01*
X87250000Y-57150000D02*
X86500000Y-57900000D01*
X75975000Y-63675000D02*
X75975000Y-62000000D01*
X81700000Y-59000000D02*
X77300000Y-59000000D01*
X77300000Y-59000000D02*
X75975000Y-60325000D01*
X75975000Y-66000000D02*
X75975000Y-63675000D01*
X72700000Y-66000000D02*
X75975000Y-66000000D01*
X75975000Y-60325000D02*
X75975000Y-62000000D01*
X92500000Y-66800000D02*
X94327834Y-66800000D01*
X94400000Y-57000000D02*
X92300000Y-57000000D01*
X94327834Y-66800000D02*
X94700000Y-66427834D01*
X88035000Y-67635000D02*
X86700000Y-67635000D01*
X94700000Y-66427834D02*
X94700000Y-57300000D01*
X94700000Y-57300000D02*
X94400000Y-57000000D01*
X90200000Y-67925000D02*
X88325000Y-67925000D01*
X91375000Y-67925000D02*
X92500000Y-66800000D01*
X88325000Y-67925000D02*
X88035000Y-67635000D01*
X90200000Y-67925000D02*
X91375000Y-67925000D01*
X86700000Y-67635000D02*
X86700000Y-66365000D01*
X90200000Y-65875000D02*
X90200000Y-64700000D01*
X90200000Y-64700000D02*
X89817925Y-64317925D01*
X93700000Y-65875000D02*
X90200000Y-65875000D01*
X89817925Y-64317925D02*
X87838870Y-64317925D01*
X78025000Y-66625000D02*
X79035000Y-67635000D01*
X78025000Y-64425000D02*
X78000000Y-64400000D01*
X79035000Y-67635000D02*
X81300000Y-67635000D01*
X78025000Y-66000000D02*
X78025000Y-66625000D01*
X78025000Y-66000000D02*
X78025000Y-64425000D01*
X100700000Y-58700000D02*
X100700000Y-57100000D01*
X100600000Y-57100000D02*
X103200000Y-57100000D01*
X97800000Y-57100000D02*
X97700000Y-57000000D01*
X103200000Y-57100000D02*
X103300000Y-57000000D01*
X100600000Y-57100000D02*
X97800000Y-57100000D01*
X207500000Y-113525000D02*
X207500000Y-114800000D01*
X207800000Y-116100000D02*
X207825000Y-116125000D01*
X222050000Y-116125000D02*
X207825000Y-116125000D01*
X204100000Y-114800000D02*
X202420000Y-116480000D01*
X207500000Y-114800000D02*
X204100000Y-114800000D01*
X202420000Y-116480000D02*
X201510000Y-116480000D01*
X207500000Y-116100000D02*
X207800000Y-116100000D01*
X87025000Y-71000000D02*
X87025000Y-70225000D01*
X93700000Y-69100000D02*
X93700000Y-67925000D01*
X87025000Y-70225000D02*
X86700000Y-69900000D01*
X86700000Y-68905000D02*
X88105000Y-68905000D01*
X88105000Y-68905000D02*
X88600000Y-69400000D01*
X88600000Y-69400000D02*
X93400000Y-69400000D01*
X93400000Y-69400000D02*
X93700000Y-69100000D01*
X86700000Y-69900000D02*
X86700000Y-68905000D01*
X61975000Y-70000000D02*
X61975000Y-72175000D01*
X68000000Y-83800000D02*
X68700000Y-84500000D01*
X68000000Y-83000000D02*
X68000000Y-83800000D01*
X58000000Y-69975000D02*
X61950000Y-69975000D01*
X67500000Y-73500000D02*
X69000000Y-75000000D01*
X61975000Y-72175000D02*
X63300000Y-73500000D01*
X61950000Y-69975000D02*
X61975000Y-70000000D01*
X63300000Y-73500000D02*
X67500000Y-73500000D01*
X63920000Y-75000000D02*
X60020000Y-75000000D01*
X60020000Y-75000000D02*
X59990000Y-74970000D01*
X56900000Y-74100000D02*
X57910000Y-74100000D01*
X58000000Y-72025000D02*
X58000000Y-74010000D01*
X57910000Y-74100000D02*
X57990000Y-74020000D01*
X58000000Y-74010000D02*
X57990000Y-74020000D01*
X55000000Y-80300000D02*
X55000000Y-78000000D01*
X54700000Y-77700000D02*
X53500000Y-77700000D01*
X52975000Y-77175000D02*
X52975000Y-76000000D01*
X55000000Y-78000000D02*
X54700000Y-77700000D01*
X53500000Y-77700000D02*
X52975000Y-77175000D01*
X77975000Y-75000000D02*
X72400000Y-75000000D01*
D76*
X139050000Y-89025000D02*
X139025000Y-89000000D01*
X142000000Y-89025000D02*
X139050000Y-89025000D01*
D74*
X168750000Y-78769998D02*
X168750000Y-79000000D01*
X173475000Y-77100000D02*
X170419998Y-77100000D01*
X173475000Y-77100000D02*
X173475000Y-80175000D01*
X172100000Y-93000000D02*
X169400000Y-93000000D01*
X173475000Y-80175000D02*
X173500000Y-80200000D01*
X170419998Y-77100000D02*
X168750000Y-78769998D01*
X160000000Y-90700000D02*
X160300000Y-91000000D01*
X160300000Y-91000000D02*
X160975000Y-91000000D01*
X160000000Y-88025000D02*
X160000000Y-90700000D01*
D76*
X169800010Y-94599990D02*
X179400010Y-94599990D01*
X169200000Y-95200000D02*
X169800010Y-94599990D01*
X179400010Y-94599990D02*
X179900000Y-94100000D01*
D74*
X174975000Y-90000000D02*
X173025000Y-90000000D01*
X154900000Y-78100000D02*
X154900000Y-76950000D01*
X154900000Y-75050000D02*
X154900000Y-74100000D01*
X149000000Y-104600000D02*
X182399998Y-104600000D01*
X156300000Y-73500000D02*
X177500000Y-73500000D01*
X177500000Y-73500000D02*
X177600000Y-73600000D01*
X192975000Y-57000000D02*
X192975000Y-56975000D01*
X187000000Y-53750000D02*
X188750000Y-55500000D01*
X192975000Y-56975000D02*
X190300000Y-54300000D01*
X189200000Y-54300000D02*
X188750000Y-54750000D01*
X190300000Y-54300000D02*
X189200000Y-54300000D01*
X174275000Y-53750000D02*
X187000000Y-53750000D01*
X173025000Y-55000000D02*
X174275000Y-53750000D01*
X188750000Y-54750000D02*
X188750000Y-55500000D01*
D76*
X183000000Y-72025000D02*
X177175000Y-72025000D01*
X177175000Y-72025000D02*
X177000000Y-72200000D01*
D74*
X175475000Y-56125000D02*
X175475000Y-55000000D01*
X174300000Y-56400000D02*
X175200000Y-56400000D01*
X173700000Y-57000000D02*
X174300000Y-56400000D01*
X175200000Y-56400000D02*
X175475000Y-56125000D01*
X173025000Y-57000000D02*
X173700000Y-57000000D01*
D76*
X164300000Y-71000000D02*
X165975000Y-71000000D01*
X157100000Y-75050000D02*
X157150001Y-74999999D01*
X163699999Y-74999999D02*
X163700000Y-75000000D01*
X157150001Y-74999999D02*
X163699999Y-74999999D01*
X165975000Y-71000000D02*
X166000000Y-71025000D01*
D74*
X173000000Y-67975000D02*
X173000000Y-66025000D01*
D76*
X199600000Y-68450000D02*
X199600000Y-70475000D01*
X199600000Y-70475000D02*
X199575000Y-70500000D01*
X202725000Y-69400000D02*
X201625000Y-70500000D01*
X208600000Y-77450000D02*
X208350000Y-77450000D01*
X208350000Y-77450000D02*
X207700000Y-78100000D01*
X207700000Y-69400000D02*
X202725000Y-69400000D01*
X224287500Y-72500000D02*
X230250000Y-72500000D01*
X230250000Y-72500000D02*
X230750000Y-72000000D01*
X230750000Y-72000000D02*
X233500000Y-72000000D01*
X213000000Y-74500000D02*
X213000000Y-73500000D01*
X208637500Y-75550000D02*
X211950000Y-75550000D01*
X213000000Y-73500000D02*
X214000000Y-72500000D01*
X214000000Y-72500000D02*
X222212500Y-72500000D01*
X211950000Y-75550000D02*
X213000000Y-74500000D01*
D74*
X197475000Y-74000000D02*
X196300000Y-74000000D01*
X196250000Y-68450000D02*
X196100000Y-68600000D01*
X197400000Y-68450000D02*
X196250000Y-68450000D01*
X191150000Y-66550000D02*
X191000000Y-66700000D01*
X195950000Y-66550000D02*
X191150000Y-66550000D01*
X197400000Y-66550000D02*
X195950000Y-66550000D01*
X191000000Y-66700000D02*
X191000000Y-67475000D01*
X200900000Y-74400000D02*
X200500000Y-74000000D01*
X206400000Y-77450000D02*
X205650000Y-77450000D01*
X205200000Y-74400000D02*
X200900000Y-74400000D01*
X205650000Y-77450000D02*
X205200000Y-77900000D01*
X200500000Y-74000000D02*
X199525000Y-74000000D01*
X206475000Y-82500000D02*
X205200000Y-82500000D01*
X195210678Y-72900000D02*
X191700000Y-72900000D01*
X191700000Y-72900000D02*
X191000000Y-72200000D01*
X195310678Y-73000000D02*
X195210678Y-72900000D01*
X191000000Y-72200000D02*
X191000000Y-69525000D01*
X208475000Y-73000000D02*
X206400000Y-73000000D01*
X206400000Y-75550000D02*
X206400000Y-73000000D01*
X195310678Y-73000000D02*
X206400000Y-73000000D01*
X206500000Y-53900000D02*
X214000000Y-53900000D01*
X215200000Y-55100000D02*
X215200000Y-56300000D01*
X215200000Y-56300000D02*
X215925000Y-57025000D01*
X205000000Y-55475000D02*
X205000000Y-55400000D01*
X205000000Y-55400000D02*
X206500000Y-53900000D01*
X215925000Y-57025000D02*
X217500000Y-57025000D01*
X217500000Y-57025000D02*
X217500000Y-58600000D01*
X217500000Y-58600000D02*
X217400000Y-58700000D01*
X214000000Y-53900000D02*
X215200000Y-55100000D01*
X211475000Y-58000000D02*
X207025000Y-58000000D01*
X207025000Y-58000000D02*
X207000000Y-57975000D01*
D76*
X201500000Y-65300000D02*
X201500000Y-60525000D01*
X199600000Y-66550000D02*
X200250000Y-66550000D01*
X200250000Y-66550000D02*
X201500000Y-65300000D01*
D74*
X210520000Y-65455000D02*
X210500000Y-65475000D01*
X205000000Y-67525000D02*
X207000000Y-67525000D01*
X72000000Y-113250000D02*
X71760000Y-113010000D01*
X80299990Y-123000000D02*
X79100000Y-121800010D01*
X86010000Y-120890000D02*
X86010000Y-120030000D01*
X72893245Y-115393245D02*
X72000000Y-114500000D01*
X74300000Y-120000000D02*
X73999999Y-120300001D01*
X84025000Y-120000000D02*
X85980000Y-120000000D01*
X79100000Y-120000000D02*
X74300000Y-120000000D01*
X73999999Y-120300001D02*
X73900001Y-120300001D01*
X85000000Y-123000000D02*
X80299990Y-123000000D01*
X73993245Y-115393245D02*
X72893245Y-115393245D01*
X72000000Y-114500000D02*
X72000000Y-113250000D01*
X85980000Y-120000000D02*
X86010000Y-120030000D01*
X67947500Y-113010000D02*
X67937500Y-113000000D01*
X85000000Y-123000000D02*
X85000000Y-121900000D01*
X71760000Y-113010000D02*
X67947500Y-113010000D01*
X85000000Y-121900000D02*
X86010000Y-120890000D01*
X73900001Y-120300001D02*
X73600000Y-120000000D01*
X85700000Y-115600000D02*
X85700000Y-114905000D01*
X95500000Y-116525000D02*
X90625000Y-116525000D01*
X97200000Y-114800000D02*
X97200000Y-115800000D01*
X85300000Y-116000000D02*
X85700000Y-115600000D01*
X96475000Y-116525000D02*
X95500000Y-116525000D01*
X84800000Y-116000000D02*
X85300000Y-116000000D01*
X100020000Y-128000000D02*
X100030000Y-127990000D01*
X89005000Y-114905000D02*
X85700000Y-114905000D01*
X99000000Y-128000000D02*
X100020000Y-128000000D01*
X90625000Y-116525000D02*
X89005000Y-114905000D01*
X97200000Y-115800000D02*
X96475000Y-116525000D01*
X96500000Y-124700000D02*
X95980000Y-125220000D01*
X95980000Y-125220000D02*
X95980000Y-125990000D01*
X105980000Y-125990000D02*
X105980000Y-124880000D01*
X101000000Y-124700000D02*
X97200000Y-124700000D01*
X113400000Y-126000000D02*
X112425000Y-125025000D01*
X109375000Y-125025000D02*
X111000000Y-125025000D01*
X108410000Y-125990000D02*
X109375000Y-125025000D01*
X112425000Y-125025000D02*
X111000000Y-125025000D01*
X100980000Y-125990000D02*
X100980000Y-124720000D01*
X105800000Y-124700000D02*
X101000000Y-124700000D01*
X100980000Y-124720000D02*
X101000000Y-124700000D01*
X105980000Y-124880000D02*
X105800000Y-124700000D01*
X91300000Y-121635000D02*
X93865000Y-121635000D01*
X105980000Y-125990000D02*
X108410000Y-125990000D01*
X113975000Y-126000000D02*
X113400000Y-126000000D01*
X93865000Y-121635000D02*
X93900000Y-121600000D01*
X97200000Y-124700000D02*
X96500000Y-124700000D01*
X95050500Y-126250000D02*
X95030000Y-126270500D01*
X80300000Y-113635000D02*
X79265000Y-113635000D01*
X84000000Y-117200000D02*
X82200000Y-115400000D01*
X78875000Y-114025000D02*
X78000000Y-114025000D01*
X95030000Y-126270500D02*
X95030000Y-127990000D01*
X84210002Y-117200000D02*
X84000000Y-117200000D01*
X81635000Y-113635000D02*
X80300000Y-113635000D01*
X82200000Y-115400000D02*
X82200000Y-114200000D01*
X82200000Y-114200000D02*
X81635000Y-113635000D01*
X84235002Y-117225000D02*
X84210002Y-117200000D01*
X79265000Y-113635000D02*
X78875000Y-114025000D01*
X92700000Y-117225000D02*
X84235002Y-117225000D01*
X91300000Y-120365000D02*
X91300000Y-119095000D01*
X89995000Y-120365000D02*
X91300000Y-120365000D01*
X88010000Y-120980000D02*
X89380000Y-120980000D01*
X89380000Y-120980000D02*
X89995000Y-120365000D01*
X242000000Y-120250000D02*
X240050000Y-120250000D01*
X240050000Y-120250000D02*
X239800000Y-120000000D01*
X239800000Y-120000000D02*
X237525000Y-120000000D01*
X240750000Y-122750000D02*
X240500000Y-122500000D01*
X240500000Y-122500000D02*
X237525000Y-122500000D01*
X242000000Y-122750000D02*
X240750000Y-122750000D01*
D76*
X122975000Y-94000000D02*
X121025000Y-94000000D01*
X121000000Y-88000000D02*
X121000000Y-93975000D01*
X121000000Y-93975000D02*
X121025000Y-94000000D01*
D74*
X190750000Y-110500000D02*
X192500000Y-110500000D01*
X190500000Y-110750000D02*
X190750000Y-110500000D01*
X190500000Y-124962500D02*
X190500000Y-110750000D01*
D76*
X210600000Y-80500000D02*
X210100000Y-81000000D01*
X205219998Y-81000000D02*
X204000000Y-82219998D01*
X211750000Y-78250000D02*
X210600000Y-79400000D01*
X210600000Y-79400000D02*
X210600000Y-80500000D01*
X204000000Y-82219998D02*
X204000000Y-83000000D01*
X217500000Y-78250000D02*
X211750000Y-78250000D01*
X204000000Y-83000000D02*
X203475000Y-83525000D01*
X203475000Y-83525000D02*
X202500000Y-83525000D01*
X210100000Y-81000000D02*
X205219998Y-81000000D01*
D74*
X63000000Y-116025000D02*
X63000000Y-118600000D01*
X63000000Y-118600000D02*
X63400000Y-119000000D01*
X63400000Y-119000000D02*
X66500000Y-119000000D01*
D75*
X234639310Y-132000000D02*
X240250000Y-132000000D01*
X240250000Y-132000000D02*
X242000000Y-130250000D01*
X234109310Y-131470000D02*
X234639310Y-132000000D01*
X233490000Y-131470000D02*
X234109310Y-131470000D01*
D76*
X80000000Y-131500000D02*
X80000000Y-129000000D01*
X80000000Y-129000000D02*
X77025000Y-126025000D01*
X77025000Y-126025000D02*
X77025000Y-124000000D01*
D74*
X122500000Y-59000000D02*
X121025000Y-59000000D01*
X123250000Y-58250000D02*
X122500000Y-59000000D01*
X121025000Y-59000000D02*
X121025000Y-55000000D01*
X220385408Y-122637106D02*
X223137106Y-122637106D01*
X223137106Y-122637106D02*
X223525000Y-123025000D01*
X230062500Y-125750000D02*
X228750000Y-125750000D01*
X223525000Y-123025000D02*
X223525000Y-124500000D01*
X223750000Y-126250000D02*
X223525000Y-126025000D01*
X223525000Y-126025000D02*
X223525000Y-124500000D01*
X228250000Y-126250000D02*
X223750000Y-126250000D01*
X228750000Y-125750000D02*
X228250000Y-126250000D01*
X224350001Y-122100001D02*
X224750000Y-122500000D01*
X223525000Y-122025000D02*
X223600001Y-122100001D01*
X220300000Y-121565685D02*
X220834316Y-122100001D01*
X225650891Y-124500000D02*
X226500000Y-124500000D01*
X224750000Y-122500000D02*
X224750000Y-123599109D01*
X223525000Y-120000000D02*
X223525000Y-122025000D01*
X224750000Y-123599109D02*
X225650891Y-124500000D01*
X223600001Y-122100001D02*
X224350001Y-122100001D01*
X220300000Y-121000000D02*
X220300000Y-121565685D01*
X220834316Y-122100001D02*
X223600001Y-122100001D01*
X105975000Y-131000000D02*
X102990000Y-131000000D01*
X122980000Y-133020000D02*
X122980000Y-133990000D01*
X123000000Y-132025000D02*
X123000000Y-133000000D01*
X123000000Y-133000000D02*
X122980000Y-133020000D01*
X70480000Y-107990000D02*
X70480000Y-107080000D01*
X71100000Y-106460000D02*
X71100000Y-105075000D01*
X71100000Y-105075000D02*
X71025000Y-105000000D01*
X70480000Y-107080000D02*
X71100000Y-106460000D01*
X67510000Y-107990000D02*
X68580000Y-107990000D01*
X70099520Y-109099520D02*
X72475480Y-109099520D01*
X66500000Y-107500000D02*
X67000000Y-108000000D01*
X72475480Y-109099520D02*
X72575000Y-109000000D01*
X69062500Y-108062500D02*
X68550000Y-108062500D01*
X66500000Y-106525000D02*
X66500000Y-107500000D01*
X67000000Y-108000000D02*
X67500000Y-108000000D01*
X70099520Y-109099520D02*
X69062500Y-108062500D01*
X67500000Y-108000000D02*
X67510000Y-107990000D01*
X182525000Y-128500000D02*
X184000000Y-128500000D01*
X188700000Y-128500000D02*
X188800000Y-128400000D01*
X184250000Y-132000000D02*
X182987500Y-132000000D01*
X184000000Y-128500000D02*
X188700000Y-128500000D01*
X182987500Y-132000000D02*
X182937500Y-132050000D01*
X180030000Y-125990000D02*
X180030000Y-126730000D01*
X177480000Y-128990000D02*
X178510000Y-128990000D01*
X180030000Y-126730000D02*
X180475000Y-127175000D01*
X179000000Y-128500000D02*
X180475000Y-128500000D01*
X178510000Y-128990000D02*
X179000000Y-128500000D01*
X180475000Y-127175000D02*
X180475000Y-128500000D01*
X172535000Y-128990000D02*
X172525000Y-129000000D01*
X172525000Y-129000000D02*
X172525000Y-125500000D01*
X175580000Y-128990000D02*
X172535000Y-128990000D01*
X200500000Y-136975000D02*
X200500000Y-134525000D01*
X203150000Y-133050000D02*
X204000000Y-133050000D01*
X200500000Y-134525000D02*
X201675000Y-134525000D01*
X201675000Y-134525000D02*
X203150000Y-133050000D01*
X200490000Y-139035000D02*
X200500000Y-139025000D01*
X200530000Y-143010000D02*
X200490000Y-142970000D01*
X200490000Y-142970000D02*
X200490000Y-139035000D01*
X203020000Y-143010000D02*
X200530000Y-143010000D01*
X203970000Y-141010000D02*
X203970000Y-138005000D01*
X203970000Y-138005000D02*
X203975000Y-138000000D01*
X198490000Y-142020000D02*
X198490000Y-141490000D01*
X198490000Y-141490000D02*
X198000000Y-141000000D01*
X198000000Y-141000000D02*
X198000000Y-139525000D01*
X204500000Y-126475000D02*
X206500000Y-126475000D01*
X206500000Y-126475000D02*
X206500000Y-125500000D01*
X206500000Y-125500000D02*
X207480000Y-124520000D01*
X207480000Y-124520000D02*
X208990000Y-124520000D01*
X206300000Y-130400000D02*
X206300000Y-128725000D01*
X208750000Y-128500000D02*
X206525000Y-128500000D01*
X206300000Y-128725000D02*
X206500000Y-128525000D01*
X205030000Y-123490000D02*
X206090000Y-123490000D01*
X211312500Y-129400000D02*
X209650000Y-129400000D01*
X206525000Y-128500000D02*
X206500000Y-128525000D01*
X209650000Y-129400000D02*
X208750000Y-128500000D01*
X206090000Y-123490000D02*
X206300000Y-123700000D01*
X213240000Y-128910000D02*
X213450000Y-128700000D01*
X213450000Y-127575000D02*
X213500000Y-127525000D01*
X213450000Y-128700000D02*
X213450000Y-127575000D01*
X213240000Y-130320000D02*
X213240000Y-128910000D01*
X206000000Y-119525000D02*
X206000000Y-121470000D01*
X206000000Y-121470000D02*
X205980000Y-121490000D01*
X64000000Y-70025000D02*
X64025000Y-70000000D01*
X64000000Y-71400000D02*
X64000000Y-70025000D01*
X55025000Y-76000000D02*
X57910000Y-76000000D01*
X57910000Y-76000000D02*
X57990000Y-75920000D01*
X55025000Y-76000000D02*
X55025000Y-72000000D01*
X73900000Y-69000000D02*
X73000000Y-69900000D01*
X73000000Y-69900000D02*
X66300000Y-69900000D01*
X66300000Y-69900000D02*
X65600000Y-69200000D01*
X64725000Y-104475000D02*
X66500000Y-104475000D01*
X110400010Y-102200000D02*
X110300010Y-102300000D01*
X64600000Y-102563998D02*
X64600000Y-104350000D01*
X216300000Y-123900000D02*
X212600000Y-123900000D01*
X110300010Y-102300000D02*
X64863998Y-102300000D01*
X211800000Y-101200000D02*
X210800000Y-102200000D01*
X64863998Y-102300000D02*
X64600000Y-102563998D01*
X212600000Y-123900000D02*
X212500000Y-123800000D01*
X210800000Y-102200000D02*
X110400010Y-102200000D01*
X64600000Y-104350000D02*
X64725000Y-104475000D01*
X213500000Y-86500000D02*
X214900000Y-85100000D01*
X236950000Y-52200000D02*
X238250000Y-53500000D01*
X235800000Y-85900000D02*
X246700000Y-85900000D01*
X239450000Y-60700000D02*
X246400000Y-60700000D01*
X223100001Y-113990001D02*
X222915002Y-114175000D01*
X79300000Y-52200000D02*
X236950000Y-52200000D01*
X238250000Y-59500000D02*
X239450000Y-60700000D01*
X238250000Y-53500000D02*
X238250000Y-59500000D01*
X218000000Y-110700000D02*
X218000000Y-113250000D01*
X214900000Y-85100000D02*
X235000000Y-85100000D01*
X215300000Y-110700000D02*
X222100000Y-110700000D01*
X247000000Y-61300000D02*
X247000000Y-61500000D01*
X235000000Y-85100000D02*
X235800000Y-85900000D01*
X217725000Y-113525000D02*
X214000000Y-113525000D01*
X79100000Y-52400000D02*
X79300000Y-52200000D01*
X222915002Y-114175000D02*
X222050000Y-114175000D01*
X218000000Y-113250000D02*
X217725000Y-113525000D01*
X222100000Y-110700000D02*
X223100000Y-111700000D01*
X223100000Y-111700000D02*
X223100001Y-113990001D01*
X246400000Y-60700000D02*
X247000000Y-61300000D01*
X133177824Y-106149990D02*
X133800000Y-106772166D01*
X110330000Y-107520002D02*
X110909998Y-108100000D01*
X113700000Y-104500022D02*
X130472188Y-104500022D01*
X110909998Y-108100000D02*
X113700000Y-108100000D01*
X132122156Y-106149990D02*
X133177824Y-106149990D01*
X211000000Y-113525000D02*
X211000000Y-114900000D01*
X222050000Y-114825000D02*
X212675000Y-114825000D01*
X211000000Y-114900000D02*
X212600000Y-114900000D01*
X133800000Y-106772166D02*
X133800000Y-106900000D01*
X110330000Y-106650000D02*
X110330000Y-107520002D01*
X146400000Y-106900000D02*
X147650257Y-105649743D01*
X147650257Y-105649743D02*
X209849679Y-105649743D01*
X212600000Y-114900000D02*
X212675000Y-114825000D01*
X209849679Y-105649743D02*
X210100000Y-105900064D01*
X133800000Y-106900000D02*
X146400000Y-106900000D01*
X130472188Y-104500022D02*
X132122156Y-106149990D01*
X210000000Y-114900000D02*
X211000000Y-114900000D01*
X227950000Y-114825000D02*
X228900000Y-114825000D01*
X231500000Y-115100000D02*
X239700000Y-115100000D01*
X229175000Y-115100000D02*
X231500000Y-115100000D01*
X207700050Y-105200050D02*
X210436020Y-105200050D01*
X207200000Y-91500000D02*
X207200000Y-90350000D01*
X184150529Y-95800989D02*
X183010252Y-95800989D01*
X198000000Y-137475000D02*
X198000000Y-136000000D01*
X210436038Y-105200032D02*
X239034343Y-105200032D01*
X208525000Y-82500000D02*
X208525000Y-83875000D01*
X173865986Y-96400960D02*
X173865005Y-96399979D01*
X208525000Y-83875000D02*
X208500000Y-83900000D01*
X207000000Y-104700000D02*
X207100000Y-104600000D01*
X137350000Y-78050000D02*
X138250006Y-78050000D01*
X198000000Y-104700000D02*
X207000000Y-104700000D01*
X148099979Y-96399979D02*
X147000000Y-95300000D01*
X182410281Y-96400960D02*
X173865986Y-96400960D01*
X231500000Y-115100000D02*
X231500000Y-116025000D01*
X184700020Y-96350480D02*
X184150529Y-95800989D01*
X183010252Y-95800989D02*
X182410281Y-96400960D01*
X138250006Y-78050000D02*
X138800006Y-77500000D01*
X207100000Y-104600000D02*
X207700050Y-105200050D01*
X173865005Y-96399979D02*
X148099979Y-96399979D01*
X139650000Y-86150000D02*
X139700000Y-86200000D01*
X239034343Y-105200032D02*
X239234311Y-105400000D01*
X239700000Y-115100000D02*
X239800000Y-115000000D01*
X208000000Y-90200000D02*
X207050000Y-90200000D01*
X185000000Y-96050500D02*
X184700020Y-96350480D01*
X185000000Y-104700000D02*
X198000000Y-104700000D01*
X228900000Y-114825000D02*
X229175000Y-115100000D01*
X239234311Y-105400000D02*
X239799996Y-105400000D01*
X147000000Y-95300000D02*
X139700000Y-95300000D01*
X139650000Y-84950000D02*
X139650000Y-86150000D01*
X207200000Y-90350000D02*
X207050000Y-90200000D01*
X210436020Y-105200050D02*
X210436038Y-105200032D01*
X75600000Y-109000000D02*
X77540000Y-107060000D01*
X75600000Y-109000000D02*
X74625000Y-109000000D01*
X77540000Y-107060000D02*
X77540000Y-105000000D01*
X81275000Y-112365000D02*
X82140000Y-111500000D01*
X78875000Y-111975000D02*
X79265000Y-112365000D01*
X80300000Y-112365000D02*
X81275000Y-112365000D01*
X82140000Y-111500000D02*
X82400000Y-111500000D01*
X78000000Y-111975000D02*
X78875000Y-111975000D01*
X79265000Y-112365000D02*
X80300000Y-112365000D01*
X95500000Y-114475000D02*
X90075000Y-114475000D01*
X90075000Y-114475000D02*
X89235000Y-113635000D01*
X96100000Y-113000000D02*
X95500000Y-113600000D01*
X97975000Y-113000000D02*
X96100000Y-113000000D01*
X95500000Y-113600000D02*
X95500000Y-114475000D01*
X89235000Y-113635000D02*
X85700000Y-113635000D01*
X208950000Y-87800000D02*
X208950000Y-86550000D01*
X210525000Y-73000000D02*
X210525000Y-74125000D01*
X183300000Y-96500500D02*
X183000020Y-96800480D01*
X145050000Y-79950000D02*
X145100000Y-80000000D01*
X206000000Y-106400000D02*
X207000000Y-107400000D01*
X209050000Y-87700000D02*
X208950000Y-87800000D01*
X183000020Y-96800480D02*
X173700500Y-96800480D01*
X209050000Y-87700000D02*
X213500000Y-87700000D01*
X173700500Y-96800480D02*
X173700010Y-96799990D01*
X139750000Y-79950000D02*
X139750000Y-82950000D01*
X208950000Y-86550000D02*
X209000000Y-86500000D01*
X146499990Y-96799990D02*
X145800000Y-96100000D01*
X183549500Y-96750000D02*
X183300000Y-96500500D01*
X207000000Y-107400000D02*
X213600000Y-107400000D01*
X203250500Y-96750000D02*
X183549500Y-96750000D01*
X173700010Y-96799990D02*
X146499990Y-96799990D01*
X203500000Y-96500500D02*
X203250500Y-96750000D01*
X206000000Y-117475000D02*
X206000000Y-116200000D01*
X137350000Y-79950000D02*
X145050000Y-79950000D01*
X210525000Y-74125000D02*
X211000000Y-74600000D01*
X82025000Y-63275000D02*
X82025000Y-62000000D01*
X83700000Y-62400000D02*
X83300000Y-62000000D01*
X81300000Y-64000000D02*
X82025000Y-63275000D01*
X83700000Y-63000000D02*
X83700000Y-62400000D01*
X83300000Y-62000000D02*
X82025000Y-62000000D01*
X81300000Y-65095000D02*
X81300000Y-64000000D01*
X81500000Y-75000000D02*
X82500000Y-74000000D01*
X83300000Y-66400000D02*
X81335000Y-66400000D01*
X80265000Y-66365000D02*
X79975000Y-66075000D01*
X79975000Y-66075000D02*
X79975000Y-62000000D01*
X78025000Y-62000000D02*
X79975000Y-62000000D01*
X81300000Y-66365000D02*
X80265000Y-66365000D01*
X81300000Y-75000000D02*
X81500000Y-75000000D01*
X81335000Y-66400000D02*
X81300000Y-66365000D01*
X82500000Y-74000000D02*
X84000000Y-74000000D01*
X80025000Y-75000000D02*
X81300000Y-75000000D01*
D76*
X111000000Y-80600000D02*
X111500000Y-80100000D01*
X111000000Y-83460000D02*
X111000000Y-80600000D01*
X139575000Y-66925000D02*
X133975000Y-66925000D01*
X140000000Y-66500000D02*
X139575000Y-66925000D01*
X140000000Y-65025000D02*
X140000000Y-66500000D01*
X133975000Y-65000000D02*
X133975000Y-66925000D01*
X133975000Y-66925000D02*
X133975000Y-69000000D01*
X150975000Y-76000000D02*
X148025000Y-76000000D01*
X148025000Y-76000000D02*
X148000000Y-76025000D01*
X194500000Y-75500000D02*
X194500000Y-74025000D01*
X62000000Y-91025000D02*
X62000000Y-92500000D01*
X62000000Y-91025000D02*
X66000000Y-91025000D01*
X62000000Y-88975000D02*
X66000000Y-88975000D01*
X72500000Y-87500000D02*
X72200000Y-87800000D01*
X76000000Y-87500000D02*
X72500000Y-87500000D01*
X72200000Y-88975000D02*
X69000000Y-88975000D01*
X72200000Y-87800000D02*
X72200000Y-88975000D01*
X66000000Y-88975000D02*
X69000000Y-88975000D01*
X99975000Y-77000000D02*
X100000000Y-76975000D01*
X104800000Y-73600000D02*
X105200000Y-74000000D01*
X98000000Y-77000000D02*
X99975000Y-77000000D01*
X104350000Y-72750000D02*
X104800000Y-73200000D01*
X102500000Y-72750000D02*
X104350000Y-72750000D01*
X104800000Y-73200000D02*
X104800000Y-73600000D01*
X105200000Y-74000000D02*
X106975000Y-74000000D01*
X111200000Y-72600000D02*
X111825000Y-71975000D01*
X111825000Y-71975000D02*
X113000000Y-71975000D01*
X109100000Y-72600000D02*
X111200000Y-72600000D01*
X107200000Y-72600000D02*
X109100000Y-72600000D01*
X108700000Y-75500000D02*
X108400000Y-75500000D01*
X113010000Y-71965000D02*
X113000000Y-71975000D01*
X106975000Y-72375000D02*
X107200000Y-72600000D01*
X108000000Y-75900000D02*
X108000000Y-76975000D01*
X109025000Y-72675000D02*
X109100000Y-72600000D01*
X106975000Y-71000000D02*
X106975000Y-72375000D01*
X109025000Y-74000000D02*
X109025000Y-72675000D01*
X109025000Y-74000000D02*
X109025000Y-75175000D01*
X113010000Y-68980000D02*
X113010000Y-71965000D01*
X109025000Y-75175000D02*
X108700000Y-75500000D01*
X108400000Y-75500000D02*
X108000000Y-75900000D01*
X108460000Y-80760000D02*
X108460000Y-83460000D01*
X108000000Y-79025000D02*
X108000000Y-80300000D01*
X108000000Y-80300000D02*
X108460000Y-80760000D01*
X93025000Y-73050000D02*
X92975000Y-73000000D01*
X93000000Y-76025000D02*
X93025000Y-76000000D01*
X93025000Y-76000000D02*
X93025000Y-73050000D01*
X93000000Y-78975000D02*
X93000000Y-76025000D01*
X95025000Y-71275000D02*
X95025000Y-73000000D01*
X95025000Y-73000000D02*
X95025000Y-74325000D01*
X95025000Y-74325000D02*
X96100000Y-75400000D01*
X101800000Y-75400000D02*
X102500000Y-74700000D01*
X97500000Y-67250000D02*
X97500000Y-68800000D01*
X102500000Y-74700000D02*
X102500000Y-74000000D01*
X96100000Y-75400000D02*
X101800000Y-75400000D01*
X97500000Y-68800000D02*
X95025000Y-71275000D01*
X93025000Y-85000000D02*
X93025000Y-81050000D01*
X93025000Y-81050000D02*
X93000000Y-81025000D01*
X89050000Y-81025000D02*
X89025000Y-81000000D01*
X93000000Y-81025000D02*
X89050000Y-81025000D01*
X113055000Y-143030000D02*
X113025000Y-143000000D01*
X113000000Y-142975000D02*
X113025000Y-143000000D01*
X115010000Y-143030000D02*
X113055000Y-143030000D01*
X113000000Y-140025000D02*
X113000000Y-142975000D01*
X104500000Y-143000000D02*
X103500000Y-142000000D01*
X97550000Y-140500000D02*
X100500000Y-140500000D01*
X110975000Y-143000000D02*
X104500000Y-143000000D01*
X102000000Y-140500000D02*
X103500000Y-142000000D01*
X100500000Y-140500000D02*
X102000000Y-140500000D01*
X95970000Y-132730000D02*
X95970000Y-134830000D01*
X97025000Y-131675000D02*
X95970000Y-132730000D01*
X95970000Y-134830000D02*
X95970000Y-136510000D01*
X97025000Y-130000000D02*
X97025000Y-131675000D01*
X147025000Y-124500000D02*
X147025000Y-122725000D01*
X147025000Y-122725000D02*
X144600000Y-120300000D01*
X150000000Y-124975000D02*
X149175000Y-124975000D01*
X144600000Y-120300000D02*
X144600000Y-117100000D01*
X149175000Y-124975000D02*
X148700000Y-124500000D01*
X148700000Y-124500000D02*
X147025000Y-124500000D01*
X138325000Y-74025000D02*
X140000000Y-75700000D01*
X139500000Y-79000000D02*
X137350000Y-79000000D01*
X136000000Y-74025000D02*
X138325000Y-74025000D01*
X140000000Y-78500000D02*
X139500000Y-79000000D01*
X140000000Y-75700000D02*
X140000000Y-78500000D01*
X136025000Y-69000000D02*
X136025000Y-71950000D01*
X136025000Y-71950000D02*
X136000000Y-71975000D01*
X138975000Y-69000000D02*
X136025000Y-69000000D01*
X134650000Y-79950000D02*
X134650000Y-81250000D01*
X134975000Y-81575000D02*
X134975000Y-84000000D01*
X134650000Y-81250000D02*
X134975000Y-81575000D01*
X139650000Y-84000000D02*
X137025000Y-84000000D01*
X131750000Y-76537500D02*
X134537500Y-76537500D01*
X134862500Y-76862500D02*
X134862500Y-78050000D01*
X134537500Y-76537500D02*
X134862500Y-76862500D01*
X129500000Y-74000000D02*
X127750000Y-74000000D01*
X129962500Y-74462500D02*
X129500000Y-74000000D01*
X131750000Y-74462500D02*
X129962500Y-74462500D01*
X142350000Y-85750000D02*
X142000000Y-86100000D01*
X142350000Y-84950000D02*
X142350000Y-85750000D01*
X142000000Y-86100000D02*
X142000000Y-86975000D01*
X158500000Y-90200000D02*
X157175000Y-90200000D01*
X157000000Y-90025000D02*
X155050000Y-90025000D01*
X157175000Y-90200000D02*
X157000000Y-90025000D01*
X155050000Y-90025000D02*
X155025000Y-90000000D01*
X167600000Y-80700000D02*
X169007106Y-80700000D01*
X164300000Y-84000000D02*
X167600000Y-80700000D01*
X170000000Y-79707106D02*
X170000000Y-79000000D01*
X169007106Y-80700000D02*
X170000000Y-79707106D01*
X163250000Y-84000000D02*
X164300000Y-84000000D01*
X157000000Y-79200000D02*
X157100000Y-79100000D01*
X157000000Y-80975000D02*
X157000000Y-79200000D01*
X157100000Y-79100000D02*
X157100000Y-76950000D01*
X157025000Y-85000000D02*
X157025000Y-87950000D01*
X157000000Y-83025000D02*
X157000000Y-84975000D01*
X157000000Y-84975000D02*
X157025000Y-85000000D01*
X157025000Y-87950000D02*
X157000000Y-87975000D01*
X187975000Y-81000000D02*
X186600000Y-81000000D01*
X154900000Y-76000000D02*
X153025000Y-76000000D01*
X184975000Y-64000000D02*
X183025000Y-64000000D01*
X183000000Y-64025000D02*
X183000000Y-65975000D01*
X183025000Y-64000000D02*
X183000000Y-64025000D01*
X190000000Y-56600000D02*
X188600000Y-58000000D01*
X190000000Y-55500000D02*
X190000000Y-56600000D01*
X183250000Y-59150000D02*
X183250000Y-60500000D01*
X183250000Y-61250000D02*
X183250000Y-60500000D01*
X183000000Y-61500000D02*
X183250000Y-61250000D01*
X183000000Y-61975000D02*
X183000000Y-61500000D01*
X184400000Y-58000000D02*
X183250000Y-59150000D01*
X188600000Y-58000000D02*
X184400000Y-58000000D01*
X184975000Y-68000000D02*
X183025000Y-68000000D01*
X183025000Y-68000000D02*
X183000000Y-68025000D01*
X183000000Y-68025000D02*
X183000000Y-69975000D01*
X165975000Y-66000000D02*
X165975000Y-63050000D01*
X166000000Y-66025000D02*
X165975000Y-66000000D01*
X166000000Y-68975000D02*
X166000000Y-66025000D01*
X165975000Y-63050000D02*
X166000000Y-63025000D01*
X166000000Y-60975000D02*
X166000000Y-58000000D01*
X166000000Y-56025000D02*
X165975000Y-56000000D01*
X166000000Y-58000000D02*
X166000000Y-56025000D01*
X202500000Y-78525000D02*
X202500000Y-81475000D01*
X202525000Y-76500000D02*
X202500000Y-76475000D01*
X206400000Y-76500000D02*
X202525000Y-76500000D01*
X194500000Y-69525000D02*
X194500000Y-71975000D01*
X194700001Y-67550001D02*
X196449999Y-67550001D01*
X194625000Y-67475000D02*
X194700001Y-67550001D01*
X194500000Y-67475000D02*
X194625000Y-67475000D01*
X196449999Y-67550001D02*
X196500000Y-67500000D01*
X196500000Y-67500000D02*
X197400000Y-67500000D01*
X219050000Y-61750000D02*
X217500000Y-61750000D01*
X219400000Y-66107106D02*
X219400000Y-62100000D01*
X221792894Y-68500000D02*
X219400000Y-66107106D01*
X219400000Y-62100000D02*
X219050000Y-61750000D01*
X222500000Y-68500000D02*
X224475000Y-68500000D01*
X222500000Y-68500000D02*
X221792894Y-68500000D01*
X226525000Y-68500000D02*
X229975000Y-68500000D01*
X229975000Y-68500000D02*
X230000000Y-68525000D01*
X231475000Y-68525000D02*
X231500000Y-68500000D01*
X230000000Y-68525000D02*
X231475000Y-68525000D01*
X201500000Y-57650000D02*
X201500000Y-58475000D01*
X201625000Y-57525000D02*
X201500000Y-57650000D01*
X205000000Y-57525000D02*
X201625000Y-57525000D01*
X72900000Y-130000000D02*
X70500000Y-130000000D01*
X74975000Y-127925000D02*
X72900000Y-130000000D01*
X74975000Y-124000000D02*
X74975000Y-127925000D01*
X86975000Y-85000000D02*
X81400000Y-85000000D01*
X81000000Y-84600000D02*
X81000000Y-82500000D01*
X81400000Y-85000000D02*
X81000000Y-84600000D01*
X149100000Y-68000000D02*
X148000000Y-69100000D01*
X157600000Y-69000000D02*
X156600000Y-68000000D01*
X156600000Y-68000000D02*
X149100000Y-68000000D01*
X148000000Y-69100000D02*
X148000000Y-73975000D01*
X161500000Y-69000000D02*
X157600000Y-69000000D01*
X138900000Y-59900000D02*
X140000000Y-61000000D01*
X135500000Y-59900000D02*
X138900000Y-59900000D01*
X140000000Y-61000000D02*
X140000000Y-62975000D01*
X110200000Y-66000000D02*
X110900000Y-66700000D01*
X106975000Y-66025000D02*
X107000000Y-66000000D01*
X97500000Y-66000000D02*
X107000000Y-66000000D01*
X110900000Y-66700000D02*
X110900000Y-67920000D01*
X107000000Y-66000000D02*
X110200000Y-66000000D01*
X110900000Y-67920000D02*
X111010000Y-68030000D01*
X106975000Y-69000000D02*
X106975000Y-66025000D01*
X95020000Y-139020000D02*
X95500000Y-139500000D01*
X95020000Y-138510000D02*
X95020000Y-139020000D01*
X95500000Y-139500000D02*
X95500000Y-140500000D01*
X119955000Y-143980000D02*
X119975000Y-144000000D01*
X117010000Y-143980000D02*
X119955000Y-143980000D01*
X167000000Y-86666500D02*
X167000000Y-85333000D01*
X177833500Y-60000000D02*
X175166500Y-60000000D01*
X210666500Y-62000000D02*
X213333500Y-62000000D01*
X115140000Y-88540000D02*
X116025000Y-89425000D01*
X113540000Y-88540000D02*
X115140000Y-88540000D01*
X118975000Y-94000000D02*
X116025000Y-94000000D01*
X116025000Y-89425000D02*
X116025000Y-94000000D01*
X122025000Y-144000000D02*
X126000001Y-144000001D01*
X126000001Y-144000001D02*
X126500000Y-144500000D01*
X153600000Y-138600000D02*
X153540000Y-138540000D01*
X153600000Y-140700000D02*
X153600000Y-138600000D01*
X148460000Y-133460000D02*
X146940000Y-133460000D01*
X146940000Y-133460000D02*
X146425000Y-133975000D01*
X141525000Y-134000000D02*
X143975000Y-134000000D01*
X143975000Y-134000000D02*
X144000000Y-133975000D01*
X146425000Y-133975000D02*
X144000000Y-133975000D01*
X150175000Y-127200000D02*
X150000000Y-127025000D01*
X151500000Y-127200000D02*
X150175000Y-127200000D01*
X147425000Y-128400000D02*
X147025000Y-128000000D01*
X151000000Y-133460000D02*
X151000000Y-131200000D01*
X149600000Y-128400000D02*
X147425000Y-128400000D01*
X150000000Y-127025000D02*
X150000000Y-128000000D01*
X150000000Y-128000000D02*
X149600000Y-128400000D01*
D74*
X116400000Y-56000000D02*
X114000000Y-56000000D01*
X117400000Y-55000000D02*
X116400000Y-56000000D01*
X118975000Y-55000000D02*
X117400000Y-55000000D01*
X112300000Y-56000000D02*
X111300000Y-57000000D01*
X111300000Y-57000000D02*
X108700000Y-57000000D01*
X114000000Y-56000000D02*
X112300000Y-56000000D01*
D76*
X142350000Y-83050000D02*
X142400001Y-82999999D01*
X142400001Y-82999999D02*
X147199999Y-82999999D01*
X147199999Y-82999999D02*
X147200000Y-83000000D01*
X191700000Y-80000000D02*
X191700000Y-80600000D01*
X191300000Y-81000000D02*
X190025000Y-81000000D01*
X191700000Y-80600000D02*
X191300000Y-81000000D01*
X139475000Y-134000000D02*
X139475000Y-137950000D01*
X135299999Y-140600001D02*
X128499999Y-140600001D01*
X139500000Y-137975000D02*
X137925000Y-137975000D01*
X127750000Y-141350000D02*
X127750000Y-144500000D01*
X128499999Y-140600001D02*
X127750000Y-141350000D01*
X137925000Y-137975000D02*
X135299999Y-140600001D01*
X139475000Y-137950000D02*
X139500000Y-137975000D01*
D75*
X240050000Y-77950000D02*
X235450000Y-77950000D01*
X234962500Y-77462500D02*
X234962500Y-76250000D01*
X235450000Y-77950000D02*
X234962500Y-77462500D01*
X241562500Y-77950000D02*
X240050000Y-77950000D01*
X241562500Y-84200000D02*
X240050000Y-84200000D01*
X240050000Y-84200000D02*
X240000000Y-84250000D01*
X234962500Y-76250000D02*
X232595000Y-76250000D01*
X232595000Y-76250000D02*
X232375000Y-76470000D01*
X212250000Y-84250000D02*
X234500000Y-84250000D01*
X206227898Y-96500000D02*
X211750499Y-96500000D01*
X234500000Y-84250000D02*
X235500000Y-83250000D01*
X242000000Y-86599500D02*
X238750000Y-86599500D01*
X205328887Y-95600989D02*
X206227898Y-96500000D01*
X175000000Y-91500000D02*
X175000000Y-92962500D01*
X185849520Y-95000000D02*
X185849520Y-95099520D01*
X235500000Y-83250000D02*
X238750000Y-83250000D01*
X211750499Y-96500000D02*
X212000499Y-96750000D01*
X182963391Y-95000000D02*
X185849520Y-95000000D01*
X185849520Y-95099520D02*
X186350989Y-95600989D01*
X182261931Y-95701460D02*
X182963391Y-95000000D01*
X175650000Y-78400000D02*
X175750000Y-78500000D01*
X175000000Y-92962500D02*
X174962500Y-93000000D01*
X238750000Y-83250000D02*
X243437500Y-83250000D01*
X175000000Y-95701460D02*
X182261931Y-95701460D01*
X175650000Y-77100000D02*
X175650000Y-78400000D01*
X186350989Y-95600989D02*
X205328887Y-95600989D01*
X245500000Y-77000000D02*
X243437500Y-77000000D01*
X217500000Y-54850000D02*
X217500000Y-53250000D01*
X220500000Y-54962500D02*
X220500000Y-53250000D01*
X195150000Y-53150960D02*
X195150480Y-53150480D01*
X195150000Y-60312500D02*
X195000000Y-60462500D01*
X80327409Y-53000489D02*
X81072591Y-53000489D01*
X195150000Y-57000000D02*
X195150000Y-53150960D01*
X220500000Y-53250000D02*
X220599520Y-53150480D01*
X164450480Y-52799520D02*
X194799520Y-52799520D01*
X60500000Y-52250000D02*
X61549511Y-53299511D01*
X81072591Y-53000489D02*
X81371613Y-53299511D01*
X81371613Y-53299511D02*
X163950489Y-53299511D01*
X237250000Y-59997849D02*
X238752151Y-61500000D01*
X80028387Y-53299511D02*
X80327409Y-53000489D01*
X236302630Y-53150480D02*
X237250000Y-54097850D01*
X163950489Y-53299511D02*
X164450480Y-52799520D01*
X195150480Y-53150480D02*
X217599520Y-53150480D01*
X217599520Y-53150480D02*
X220599520Y-53150480D01*
X238752151Y-61500000D02*
X245750000Y-61500000D01*
X237250000Y-54097850D02*
X237250000Y-59997849D01*
X195150000Y-57000000D02*
X195150000Y-60312500D01*
X194799520Y-52799520D02*
X195150480Y-53150480D01*
X217500000Y-53250000D02*
X217599520Y-53150480D01*
X220599520Y-53150480D02*
X236302630Y-53150480D01*
D74*
X57250000Y-63250000D02*
X59700000Y-63250000D01*
G04 #@! TA.AperFunction,Conductor*
G36*
X241642121Y-106120002D02*
G01*
X241688614Y-106173658D01*
X241700000Y-106226000D01*
X241700000Y-108574000D01*
X241679998Y-108642121D01*
X241626342Y-108688614D01*
X241574000Y-108700000D01*
X237926000Y-108700000D01*
X237857879Y-108679998D01*
X237811386Y-108626342D01*
X237800000Y-108574000D01*
X237800000Y-106226000D01*
X237820002Y-106157879D01*
X237873658Y-106111386D01*
X237926000Y-106100000D01*
X241574000Y-106100000D01*
X241642121Y-106120002D01*
G37*
G04 #@! TD.AperFunction*
G04 #@! TA.AperFunction,Conductor*
G36*
X214942121Y-93520002D02*
G01*
X214988614Y-93573658D01*
X215000000Y-93626000D01*
X215000000Y-95374000D01*
X214979998Y-95442121D01*
X214926342Y-95488614D01*
X214874000Y-95500000D01*
X205987902Y-95500000D01*
X205919781Y-95479998D01*
X205898807Y-95463095D01*
X205732421Y-95296709D01*
X205724955Y-95287365D01*
X205724565Y-95287697D01*
X205718747Y-95280861D01*
X205713957Y-95273269D01*
X205674286Y-95238233D01*
X205668599Y-95232887D01*
X205657381Y-95221669D01*
X205653792Y-95218979D01*
X205649203Y-95215539D01*
X205641364Y-95209157D01*
X205613226Y-95184307D01*
X205606499Y-95178366D01*
X205598376Y-95174552D01*
X205595223Y-95172481D01*
X205582211Y-95164662D01*
X205578892Y-95162845D01*
X205571711Y-95157463D01*
X205564890Y-95154906D01*
X205515345Y-95105249D01*
X205500000Y-95044988D01*
X205500000Y-93626000D01*
X205520002Y-93557879D01*
X205573658Y-93511386D01*
X205626000Y-93500000D01*
X214874000Y-93500000D01*
X214942121Y-93520002D01*
G37*
G04 #@! TD.AperFunction*
G04 #@! TA.AperFunction,Conductor*
G36*
X196942121Y-143020002D02*
G01*
X196988614Y-143073658D01*
X197000000Y-143126000D01*
X197000000Y-144874000D01*
X196979998Y-144942121D01*
X196926342Y-144988614D01*
X196874000Y-145000000D01*
X181626000Y-145000000D01*
X181557879Y-144979998D01*
X181511386Y-144926342D01*
X181500000Y-144874000D01*
X181500000Y-143126000D01*
X181520002Y-143057879D01*
X181573658Y-143011386D01*
X181626000Y-143000000D01*
X196874000Y-143000000D01*
X196942121Y-143020002D01*
G37*
G04 #@! TD.AperFunction*
G04 #@! TA.AperFunction,Conductor*
G36*
X226042121Y-88020002D02*
G01*
X226088614Y-88073658D01*
X226100000Y-88126000D01*
X226100000Y-93374000D01*
X226079998Y-93442121D01*
X226026342Y-93488614D01*
X225974000Y-93500000D01*
X221126000Y-93500000D01*
X221057879Y-93479998D01*
X221011386Y-93426342D01*
X221000000Y-93374000D01*
X221000000Y-88126000D01*
X221020002Y-88057879D01*
X221073658Y-88011386D01*
X221126000Y-88000000D01*
X225974000Y-88000000D01*
X226042121Y-88020002D01*
G37*
G04 #@! TD.AperFunction*
G04 #@! TA.AperFunction,Conductor*
G36*
X219942121Y-89020002D02*
G01*
X219988614Y-89073658D01*
X220000000Y-89126000D01*
X220000000Y-97874000D01*
X219979998Y-97942121D01*
X219926342Y-97988614D01*
X219874000Y-98000000D01*
X217000000Y-98000000D01*
X217000000Y-100874000D01*
X216979998Y-100942121D01*
X216926342Y-100988614D01*
X216874000Y-101000000D01*
X215626000Y-101000000D01*
X215557879Y-100979998D01*
X215511386Y-100926342D01*
X215500000Y-100874000D01*
X215500000Y-89126000D01*
X215520002Y-89057879D01*
X215573658Y-89011386D01*
X215626000Y-89000000D01*
X219874000Y-89000000D01*
X219942121Y-89020002D01*
G37*
G04 #@! TD.AperFunction*
G04 #@! TA.AperFunction,Conductor*
G36*
X171542121Y-87220002D02*
G01*
X171588614Y-87273658D01*
X171600000Y-87326000D01*
X171600000Y-90674000D01*
X171579998Y-90742121D01*
X171526342Y-90788614D01*
X171474000Y-90800000D01*
X170326000Y-90800000D01*
X170257879Y-90779998D01*
X170211386Y-90726342D01*
X170200000Y-90674000D01*
X170200000Y-90300000D01*
X168126000Y-90300000D01*
X168057879Y-90279998D01*
X168011386Y-90226342D01*
X168000000Y-90174000D01*
X168000000Y-88826000D01*
X168020002Y-88757879D01*
X168073658Y-88711386D01*
X168126000Y-88700000D01*
X170200000Y-88700000D01*
X170200000Y-87326000D01*
X170220002Y-87257879D01*
X170273658Y-87211386D01*
X170326000Y-87200000D01*
X171474000Y-87200000D01*
X171542121Y-87220002D01*
G37*
G04 #@! TD.AperFunction*
G04 #@! TA.AperFunction,Conductor*
G36*
X165942121Y-88720002D02*
G01*
X165988614Y-88773658D01*
X166000000Y-88826000D01*
X166000000Y-90674000D01*
X165979998Y-90742121D01*
X165926342Y-90788614D01*
X165874000Y-90800000D01*
X164900000Y-90800000D01*
X164900000Y-93574000D01*
X164879998Y-93642121D01*
X164826342Y-93688614D01*
X164774000Y-93700000D01*
X162526000Y-93700000D01*
X162457879Y-93679998D01*
X162411386Y-93626342D01*
X162400000Y-93574000D01*
X162400000Y-88826000D01*
X162420002Y-88757879D01*
X162473658Y-88711386D01*
X162526000Y-88700000D01*
X165874000Y-88700000D01*
X165942121Y-88720002D01*
G37*
G04 #@! TD.AperFunction*
G04 #@! TA.AperFunction,Conductor*
G36*
X162442121Y-83520002D02*
G01*
X162488614Y-83573658D01*
X162500000Y-83626000D01*
X162500000Y-85400000D01*
X167374000Y-85400000D01*
X167442121Y-85420002D01*
X167488614Y-85473658D01*
X167500000Y-85526000D01*
X167500000Y-90074000D01*
X167479998Y-90142121D01*
X167426342Y-90188614D01*
X167374000Y-90200000D01*
X166626000Y-90200000D01*
X166557879Y-90179998D01*
X166511386Y-90126342D01*
X166500000Y-90074000D01*
X166500000Y-86500000D01*
X159426000Y-86500000D01*
X159357879Y-86479998D01*
X159311386Y-86426342D01*
X159300000Y-86374000D01*
X159300000Y-85526000D01*
X159320002Y-85457879D01*
X159373658Y-85411386D01*
X159426000Y-85400000D01*
X161500000Y-85400000D01*
X161500000Y-83626000D01*
X161520002Y-83557879D01*
X161573658Y-83511386D01*
X161626000Y-83500000D01*
X162374000Y-83500000D01*
X162442121Y-83520002D01*
G37*
G04 #@! TD.AperFunction*
G04 #@! TA.AperFunction,Conductor*
G36*
X175742121Y-61020002D02*
G01*
X175788614Y-61073658D01*
X175800000Y-61126000D01*
X175800000Y-63400000D01*
X177074000Y-63400000D01*
X177142121Y-63420002D01*
X177188614Y-63473658D01*
X177200000Y-63526000D01*
X177200000Y-64574000D01*
X177179998Y-64642121D01*
X177126342Y-64688614D01*
X177074000Y-64700000D01*
X172426000Y-64700000D01*
X172357879Y-64679998D01*
X172311386Y-64626342D01*
X172300000Y-64574000D01*
X172300000Y-63526000D01*
X172320002Y-63457879D01*
X172373658Y-63411386D01*
X172426000Y-63400000D01*
X174200000Y-63400000D01*
X174200000Y-61126000D01*
X174220002Y-61057879D01*
X174273658Y-61011386D01*
X174326000Y-61000000D01*
X175674000Y-61000000D01*
X175742121Y-61020002D01*
G37*
G04 #@! TD.AperFunction*
G04 #@! TA.AperFunction,Conductor*
G36*
X171542121Y-54320002D02*
G01*
X171588614Y-54373658D01*
X171600000Y-54426000D01*
X171600000Y-58200000D01*
X173600000Y-58200000D01*
X173611159Y-58195536D01*
X173611161Y-58195536D01*
X174077470Y-58009012D01*
X174124265Y-58000000D01*
X175674000Y-58000000D01*
X175742121Y-58020002D01*
X175788614Y-58073658D01*
X175800000Y-58126000D01*
X175800000Y-59074000D01*
X175779998Y-59142121D01*
X175726342Y-59188614D01*
X175674000Y-59200000D01*
X171800000Y-59200000D01*
X171800000Y-60974000D01*
X171779998Y-61042121D01*
X171726342Y-61088614D01*
X171674000Y-61100000D01*
X169826000Y-61100000D01*
X169757879Y-61079998D01*
X169711386Y-61026342D01*
X169700000Y-60974000D01*
X169700000Y-58700000D01*
X167626000Y-58700000D01*
X167557879Y-58679998D01*
X167511386Y-58626342D01*
X167500000Y-58574000D01*
X167500000Y-57425215D01*
X167520002Y-57357094D01*
X167573658Y-57310601D01*
X167626087Y-57299215D01*
X170000000Y-57300874D01*
X170000000Y-56051417D01*
X170001078Y-56034971D01*
X170004604Y-56008188D01*
X170005682Y-56000000D01*
X170001078Y-55965029D01*
X170000000Y-55948583D01*
X170000000Y-54426000D01*
X170020002Y-54357879D01*
X170073658Y-54311386D01*
X170126000Y-54300000D01*
X171474000Y-54300000D01*
X171542121Y-54320002D01*
G37*
G04 #@! TD.AperFunction*
G04 #@! TA.AperFunction,Conductor*
G36*
X178642121Y-54320002D02*
G01*
X178688614Y-54373658D01*
X178700000Y-54426000D01*
X178700000Y-58900000D01*
X178710827Y-58907218D01*
X178710828Y-58907219D01*
X179543892Y-59462595D01*
X179589477Y-59517024D01*
X179600000Y-59567433D01*
X179600000Y-59900000D01*
X182058000Y-59900000D01*
X182126121Y-59920002D01*
X182133600Y-59925200D01*
X182449600Y-60162200D01*
X182492095Y-60219074D01*
X182500000Y-60263000D01*
X182500000Y-60647810D01*
X182479998Y-60715931D01*
X182463095Y-60736905D01*
X182136905Y-61063095D01*
X182074593Y-61097121D01*
X182047810Y-61100000D01*
X177026000Y-61100000D01*
X176957879Y-61079998D01*
X176911386Y-61026342D01*
X176900000Y-60974000D01*
X176900000Y-54426000D01*
X176920002Y-54357879D01*
X176973658Y-54311386D01*
X177026000Y-54300000D01*
X178574000Y-54300000D01*
X178642121Y-54320002D01*
G37*
G04 #@! TD.AperFunction*
G04 #@! TA.AperFunction,Conductor*
G36*
X211242121Y-63020002D02*
G01*
X211288614Y-63073658D01*
X211300000Y-63126000D01*
X211300000Y-65974000D01*
X211279998Y-66042121D01*
X211226342Y-66088614D01*
X211174000Y-66100000D01*
X206526000Y-66100000D01*
X206457879Y-66079998D01*
X206411386Y-66026342D01*
X206400000Y-65974000D01*
X206400000Y-65026000D01*
X206420002Y-64957879D01*
X206473658Y-64911386D01*
X206526000Y-64900000D01*
X209700000Y-64900000D01*
X209700000Y-63126000D01*
X209720002Y-63057879D01*
X209773658Y-63011386D01*
X209826000Y-63000000D01*
X211174000Y-63000000D01*
X211242121Y-63020002D01*
G37*
G04 #@! TD.AperFunction*
G04 #@! TA.AperFunction,Conductor*
G36*
X205642121Y-56920002D02*
G01*
X205688614Y-56973658D01*
X205700000Y-57026000D01*
X205700000Y-59000000D01*
X207938375Y-59000000D01*
X208006496Y-59020002D01*
X208037833Y-59048643D01*
X208688879Y-59885702D01*
X208700000Y-59900000D01*
X211274000Y-59900000D01*
X211342121Y-59920002D01*
X211388614Y-59973658D01*
X211400000Y-60026000D01*
X211400000Y-60974000D01*
X211379998Y-61042121D01*
X211326342Y-61088614D01*
X211274000Y-61100000D01*
X208700000Y-61100000D01*
X208300000Y-61500000D01*
X208300000Y-62574000D01*
X208279998Y-62642121D01*
X208226342Y-62688614D01*
X208174000Y-62700000D01*
X206926000Y-62700000D01*
X206857879Y-62679998D01*
X206811386Y-62626342D01*
X206800000Y-62574000D01*
X206800000Y-61000000D01*
X206790603Y-60993133D01*
X206790601Y-60993131D01*
X204251658Y-59137750D01*
X204208459Y-59081408D01*
X204200000Y-59036019D01*
X204200000Y-57026000D01*
X204220002Y-56957879D01*
X204273658Y-56911386D01*
X204326000Y-56900000D01*
X205574000Y-56900000D01*
X205642121Y-56920002D01*
G37*
G04 #@! TD.AperFunction*
G04 #@! TA.AperFunction,Conductor*
G36*
X214442121Y-57120002D02*
G01*
X214488614Y-57173658D01*
X214500000Y-57226000D01*
X214500000Y-60000000D01*
X217774000Y-60000000D01*
X217842121Y-60020002D01*
X217888614Y-60073658D01*
X217900000Y-60126000D01*
X217900000Y-60874000D01*
X217879998Y-60942121D01*
X217826342Y-60988614D01*
X217774000Y-61000000D01*
X216500000Y-61000000D01*
X216492525Y-61012459D01*
X215636704Y-62438826D01*
X215584505Y-62486949D01*
X215528660Y-62500000D01*
X213026000Y-62500000D01*
X212957879Y-62479998D01*
X212911386Y-62426342D01*
X212900000Y-62374000D01*
X212900000Y-57226000D01*
X212920002Y-57157879D01*
X212973658Y-57111386D01*
X213026000Y-57100000D01*
X214374000Y-57100000D01*
X214442121Y-57120002D01*
G37*
G04 #@! TD.AperFunction*
G04 #@! TA.AperFunction,Conductor*
G36*
X114342121Y-81920002D02*
G01*
X114388614Y-81973658D01*
X114400000Y-82026000D01*
X114400000Y-86574000D01*
X114379998Y-86642121D01*
X114326342Y-86688614D01*
X114274000Y-86700000D01*
X112100000Y-86700000D01*
X112100000Y-89874000D01*
X112079998Y-89942121D01*
X112026342Y-89988614D01*
X111974000Y-90000000D01*
X107526000Y-90000000D01*
X107457879Y-89979998D01*
X107411386Y-89926342D01*
X107400000Y-89874000D01*
X107400000Y-85226000D01*
X107420002Y-85157879D01*
X107473658Y-85111386D01*
X107526000Y-85100000D01*
X112600000Y-85100000D01*
X112600000Y-82026000D01*
X112620002Y-81957879D01*
X112673658Y-81911386D01*
X112726000Y-81900000D01*
X114274000Y-81900000D01*
X114342121Y-81920002D01*
G37*
G04 #@! TD.AperFunction*
G04 #@! TA.AperFunction,Conductor*
G36*
X154342121Y-132020002D02*
G01*
X154388614Y-132073658D01*
X154400000Y-132126000D01*
X154400000Y-136674000D01*
X154379998Y-136742121D01*
X154326342Y-136788614D01*
X154274000Y-136800000D01*
X152100000Y-136800000D01*
X152100000Y-139974000D01*
X152079998Y-140042121D01*
X152026342Y-140088614D01*
X151974000Y-140100000D01*
X147526000Y-140100000D01*
X147457879Y-140079998D01*
X147411386Y-140026342D01*
X147400000Y-139974000D01*
X147400000Y-135326000D01*
X147420002Y-135257879D01*
X147473658Y-135211386D01*
X147526000Y-135200000D01*
X152600000Y-135200000D01*
X152600000Y-132126000D01*
X152620002Y-132057879D01*
X152673658Y-132011386D01*
X152726000Y-132000000D01*
X154274000Y-132000000D01*
X154342121Y-132020002D01*
G37*
G04 #@! TD.AperFunction*
G04 #@! TA.AperFunction,Conductor*
G36*
X89465029Y-98001078D02*
G01*
X89500000Y-98005682D01*
X89508188Y-98004604D01*
X89534971Y-98001078D01*
X89551417Y-98000000D01*
X99948583Y-98000000D01*
X99965029Y-98001078D01*
X100000000Y-98005682D01*
X100008188Y-98004604D01*
X100034971Y-98001078D01*
X100051417Y-98000000D01*
X112748583Y-98000000D01*
X112765029Y-98001078D01*
X112800000Y-98005682D01*
X112808188Y-98004604D01*
X112834971Y-98001078D01*
X112851417Y-98000000D01*
X133948583Y-98000000D01*
X133965029Y-98001078D01*
X134000000Y-98005682D01*
X134008188Y-98004604D01*
X134034971Y-98001078D01*
X134051417Y-98000000D01*
X208448583Y-98000000D01*
X208465029Y-98001078D01*
X208500000Y-98005682D01*
X208508188Y-98004604D01*
X208534971Y-98001078D01*
X208551417Y-98000000D01*
X209874000Y-98000000D01*
X209942121Y-98020002D01*
X209988614Y-98073658D01*
X210000000Y-98126000D01*
X210000000Y-101773500D01*
X209979998Y-101841621D01*
X209926342Y-101888114D01*
X209874000Y-101899500D01*
X110452376Y-101899500D01*
X110449703Y-101899304D01*
X110444668Y-101897575D01*
X110433046Y-101898011D01*
X110433044Y-101898011D01*
X110395754Y-101899411D01*
X110391028Y-101899500D01*
X110372062Y-101899500D01*
X110367327Y-101900381D01*
X110363800Y-101900610D01*
X110359264Y-101900780D01*
X110332801Y-101901774D01*
X110322114Y-101906366D01*
X110317502Y-101907405D01*
X110305810Y-101910957D01*
X110301393Y-101912661D01*
X110289957Y-101914791D01*
X110272029Y-101925842D01*
X110268971Y-101927727D01*
X110252599Y-101936231D01*
X110238122Y-101942451D01*
X110238118Y-101942453D01*
X110229947Y-101945964D01*
X110225061Y-101949978D01*
X110222876Y-101952163D01*
X110220613Y-101954215D01*
X110220468Y-101954055D01*
X110211460Y-101961175D01*
X110205213Y-101966840D01*
X110202842Y-101967988D01*
X110199961Y-101970265D01*
X110194663Y-101973532D01*
X110193911Y-101972313D01*
X110141314Y-101997782D01*
X110120575Y-101999500D01*
X69126000Y-101999500D01*
X69057879Y-101979498D01*
X69011386Y-101925842D01*
X69000000Y-101873500D01*
X69000000Y-98126000D01*
X69020002Y-98057879D01*
X69073658Y-98011386D01*
X69126000Y-98000000D01*
X89448583Y-98000000D01*
X89465029Y-98001078D01*
G37*
G04 #@! TD.AperFunction*
G04 #@! TA.AperFunction,Conductor*
G36*
X89465029Y-98001078D02*
G01*
X89500000Y-98005682D01*
X89508188Y-98004604D01*
X89534971Y-98001078D01*
X89551417Y-98000000D01*
X99948583Y-98000000D01*
X99965029Y-98001078D01*
X100000000Y-98005682D01*
X100008188Y-98004604D01*
X100034971Y-98001078D01*
X100051417Y-98000000D01*
X112748583Y-98000000D01*
X112765029Y-98001078D01*
X112800000Y-98005682D01*
X112808188Y-98004604D01*
X112834971Y-98001078D01*
X112851417Y-98000000D01*
X133948583Y-98000000D01*
X133965029Y-98001078D01*
X134000000Y-98005682D01*
X134008188Y-98004604D01*
X134034971Y-98001078D01*
X134051417Y-98000000D01*
X208448583Y-98000000D01*
X208465029Y-98001078D01*
X208500000Y-98005682D01*
X208508188Y-98004604D01*
X208534971Y-98001078D01*
X208551417Y-98000000D01*
X209874000Y-98000000D01*
X209942121Y-98020002D01*
X209988614Y-98073658D01*
X210000000Y-98126000D01*
X210000000Y-101773500D01*
X209979998Y-101841621D01*
X209926342Y-101888114D01*
X209874000Y-101899500D01*
X110452376Y-101899500D01*
X110449703Y-101899304D01*
X110444668Y-101897575D01*
X110433046Y-101898011D01*
X110433044Y-101898011D01*
X110395754Y-101899411D01*
X110391028Y-101899500D01*
X110372062Y-101899500D01*
X110367327Y-101900381D01*
X110363800Y-101900610D01*
X110359264Y-101900780D01*
X110332801Y-101901774D01*
X110322114Y-101906366D01*
X110317502Y-101907405D01*
X110305810Y-101910957D01*
X110301393Y-101912661D01*
X110289957Y-101914791D01*
X110272029Y-101925842D01*
X110268971Y-101927727D01*
X110252599Y-101936231D01*
X110238122Y-101942451D01*
X110238118Y-101942453D01*
X110229947Y-101945964D01*
X110225061Y-101949978D01*
X110222876Y-101952163D01*
X110220613Y-101954215D01*
X110220468Y-101954055D01*
X110211460Y-101961175D01*
X110205213Y-101966840D01*
X110202842Y-101967988D01*
X110199961Y-101970265D01*
X110194663Y-101973532D01*
X110193911Y-101972313D01*
X110141314Y-101997782D01*
X110120575Y-101999500D01*
X69126000Y-101999500D01*
X69057879Y-101979498D01*
X69011386Y-101925842D01*
X69000000Y-101873500D01*
X69000000Y-98126000D01*
X69020002Y-98057879D01*
X69073658Y-98011386D01*
X69126000Y-98000000D01*
X89448583Y-98000000D01*
X89465029Y-98001078D01*
G37*
G04 #@! TD.AperFunction*
M02*
