G04 #@! TF.GenerationSoftware,KiCad,Pcbnew,6.0.2-378541a8eb~116~ubuntu20.04.1*
G04 #@! TF.CreationDate,2022-04-18T14:06:08-07:00*
G04 #@! TF.ProjectId,trx_mobo_concept_2,7472785f-6d6f-4626-9f5f-636f6e636570,rev?*
G04 #@! TF.SameCoordinates,Original*
G04 #@! TF.FileFunction,Soldermask,Top*
G04 #@! TF.FilePolarity,Negative*
%FSLAX46Y46*%
G04 Gerber Fmt 4.6, Leading zero omitted, Abs format (unit mm)*
G04 Created by KiCad (PCBNEW 6.0.2-378541a8eb~116~ubuntu20.04.1) date 2022-04-18 14:06:08*
%MOMM*%
%LPD*%
G01*
G04 APERTURE LIST*
G04 Aperture macros list*
%AMRoundRect*
0 Rectangle with rounded corners*
0 $1 Rounding radius*
0 $2 $3 $4 $5 $6 $7 $8 $9 X,Y pos of 4 corners*
0 Add a 4 corners polygon primitive as box body*
4,1,4,$2,$3,$4,$5,$6,$7,$8,$9,$2,$3,0*
0 Add four circle primitives for the rounded corners*
1,1,$1+$1,$2,$3*
1,1,$1+$1,$4,$5*
1,1,$1+$1,$6,$7*
1,1,$1+$1,$8,$9*
0 Add four rect primitives between the rounded corners*
20,1,$1+$1,$2,$3,$4,$5,0*
20,1,$1+$1,$4,$5,$6,$7,0*
20,1,$1+$1,$6,$7,$8,$9,0*
20,1,$1+$1,$8,$9,$2,$3,0*%
%AMOutline4P*
0 Free polygon, 4 corners , with rotation*
0 The origin of the aperture is its center*
0 number of corners: always 4*
0 $1 to $8 corner X, Y*
0 $9 Rotation angle, in degrees counterclockwise*
0 create outline with 4 corners*
4,1,4,$1,$2,$3,$4,$5,$6,$7,$8,$1,$2,$9*%
G04 Aperture macros list end*
%ADD10R,2.100000X1.400000*%
%ADD11O,2.100000X1.400000*%
%ADD12C,0.800000*%
%ADD13C,7.000000*%
%ADD14RoundRect,0.250000X0.337500X0.475000X-0.337500X0.475000X-0.337500X-0.475000X0.337500X-0.475000X0*%
%ADD15RoundRect,0.250000X-0.337500X-0.475000X0.337500X-0.475000X0.337500X0.475000X-0.337500X0.475000X0*%
%ADD16RoundRect,0.250000X-0.475000X0.337500X-0.475000X-0.337500X0.475000X-0.337500X0.475000X0.337500X0*%
%ADD17RoundRect,0.250000X0.475000X-0.337500X0.475000X0.337500X-0.475000X0.337500X-0.475000X-0.337500X0*%
%ADD18R,3.500000X1.600000*%
%ADD19R,1.600000X3.500000*%
%ADD20R,2.500000X3.500000*%
%ADD21R,4.000000X2.500000*%
%ADD22R,2.500000X4.000000*%
%ADD23R,3.500000X2.500000*%
%ADD24RoundRect,0.150000X-0.150000X0.587500X-0.150000X-0.587500X0.150000X-0.587500X0.150000X0.587500X0*%
%ADD25RoundRect,0.150000X0.587500X0.150000X-0.587500X0.150000X-0.587500X-0.150000X0.587500X-0.150000X0*%
%ADD26RoundRect,0.250000X0.275000X0.350000X-0.275000X0.350000X-0.275000X-0.350000X0.275000X-0.350000X0*%
%ADD27RoundRect,0.250000X0.350000X-0.275000X0.350000X0.275000X-0.350000X0.275000X-0.350000X-0.275000X0*%
%ADD28RoundRect,0.250000X-0.350000X0.275000X-0.350000X-0.275000X0.350000X-0.275000X0.350000X0.275000X0*%
%ADD29C,2.150000*%
%ADD30C,2.250000*%
%ADD31O,1.400000X2.100000*%
%ADD32R,1.400000X2.100000*%
%ADD33C,2.000000*%
%ADD34C,1.000000*%
%ADD35RoundRect,0.150000X-0.587500X-0.150000X0.587500X-0.150000X0.587500X0.150000X-0.587500X0.150000X0*%
%ADD36RoundRect,0.150000X0.150000X-0.587500X0.150000X0.587500X-0.150000X0.587500X-0.150000X-0.587500X0*%
%ADD37R,1.000000X1.500000*%
%ADD38R,2.200000X1.840000*%
%ADD39Outline4P,-1.100000X-0.500000X1.100000X-0.500000X0.400000X0.500000X-0.400000X0.500000X180.000000*%
%ADD40Outline4P,-1.100000X-0.425000X1.100000X-0.425000X0.500000X0.425000X-0.500000X0.425000X0.000000*%
%ADD41R,1.000000X1.800000*%
%ADD42R,1.500000X1.000000*%
%ADD43R,1.800000X1.000000*%
%ADD44R,1.840000X2.200000*%
%ADD45Outline4P,-1.100000X-0.500000X1.100000X-0.500000X0.400000X0.500000X-0.400000X0.500000X90.000000*%
%ADD46Outline4P,-1.100000X-0.425000X1.100000X-0.425000X0.500000X0.425000X-0.500000X0.425000X270.000000*%
%ADD47RoundRect,0.250000X-0.450000X0.325000X-0.450000X-0.325000X0.450000X-0.325000X0.450000X0.325000X0*%
%ADD48RoundRect,0.250000X-0.325000X-0.450000X0.325000X-0.450000X0.325000X0.450000X-0.325000X0.450000X0*%
%ADD49RoundRect,0.250000X0.450000X-0.325000X0.450000X0.325000X-0.450000X0.325000X-0.450000X-0.325000X0*%
%ADD50RoundRect,0.250000X0.325000X0.450000X-0.325000X0.450000X-0.325000X-0.450000X0.325000X-0.450000X0*%
%ADD51C,1.440000*%
%ADD52R,2.032000X2.032000*%
%ADD53R,0.700000X1.000000*%
%ADD54R,1.500000X0.450000*%
%ADD55R,1.650000X2.540000*%
%ADD56R,0.400000X1.560000*%
%ADD57R,1.550000X0.600000*%
%ADD58R,1.600000X2.400000*%
%ADD59O,1.600000X2.400000*%
%ADD60RoundRect,0.150000X-0.512500X-0.150000X0.512500X-0.150000X0.512500X0.150000X-0.512500X0.150000X0*%
%ADD61R,1.060000X0.650000*%
%ADD62RoundRect,0.150000X0.512500X0.150000X-0.512500X0.150000X-0.512500X-0.150000X0.512500X-0.150000X0*%
%ADD63R,2.032000X1.016000*%
%ADD64R,2.032000X3.657600*%
%ADD65C,0.900000*%
%ADD66R,3.000000X1.500000*%
%ADD67R,1.500000X3.000000*%
%ADD68C,2.540000*%
%ADD69RoundRect,0.250000X1.500000X0.550000X-1.500000X0.550000X-1.500000X-0.550000X1.500000X-0.550000X0*%
%ADD70R,2.200000X1.200000*%
%ADD71R,6.400000X5.800000*%
%ADD72RoundRect,0.250000X0.450000X-0.350000X0.450000X0.350000X-0.450000X0.350000X-0.450000X-0.350000X0*%
G04 APERTURE END LIST*
D10*
X63600000Y-59900000D03*
D11*
X63600000Y-54900000D03*
X63600000Y-57400000D03*
D12*
X53143845Y-53143845D03*
X56856155Y-53143845D03*
X57625000Y-55000000D03*
X53143845Y-56856155D03*
X52375000Y-55000000D03*
X55000000Y-57625000D03*
X55000000Y-52375000D03*
X56856155Y-56856155D03*
D13*
X55000000Y-55000000D03*
D12*
X245000000Y-57625000D03*
X245000000Y-52375000D03*
X246856155Y-53143845D03*
X243143845Y-53143845D03*
X246856155Y-56856155D03*
X242375000Y-55000000D03*
X247625000Y-55000000D03*
X243143845Y-56856155D03*
D13*
X245000000Y-55000000D03*
D12*
X57625000Y-145000000D03*
X56856155Y-146856155D03*
X56856155Y-143143845D03*
D13*
X55000000Y-145000000D03*
D12*
X55000000Y-142375000D03*
X53143845Y-146856155D03*
X55000000Y-147625000D03*
X53143845Y-143143845D03*
X52375000Y-145000000D03*
X242375000Y-145000000D03*
X246856155Y-143143845D03*
X247625000Y-145000000D03*
X245000000Y-147625000D03*
X245000000Y-142375000D03*
X243143845Y-143143845D03*
X246856155Y-146856155D03*
X243143845Y-146856155D03*
D13*
X245000000Y-145000000D03*
D12*
X161143845Y-115856155D03*
X161143845Y-112143845D03*
X163000000Y-116625000D03*
X163000000Y-111375000D03*
X160375000Y-114000000D03*
X165625000Y-114000000D03*
X164856155Y-115856155D03*
D13*
X163000000Y-114000000D03*
D12*
X164856155Y-112143845D03*
X130856155Y-87856155D03*
X129000000Y-83375000D03*
X130856155Y-84143845D03*
X127143845Y-84143845D03*
D13*
X129000000Y-86000000D03*
D12*
X131625000Y-86000000D03*
X126375000Y-86000000D03*
X127143845Y-87856155D03*
X129000000Y-88625000D03*
D14*
X237537500Y-126000000D03*
X235462500Y-126000000D03*
X237537500Y-129500000D03*
X235462500Y-129500000D03*
X233537500Y-120000000D03*
X231462500Y-120000000D03*
X233537500Y-122500000D03*
X231462500Y-122500000D03*
D15*
X235462500Y-112000000D03*
X237537500Y-112000000D03*
D14*
X207037500Y-85500000D03*
X204962500Y-85500000D03*
D16*
X223500000Y-132962500D03*
X223500000Y-135037500D03*
D14*
X220562500Y-129000000D03*
X218487500Y-129000000D03*
D15*
X230462500Y-112000000D03*
X232537500Y-112000000D03*
D17*
X66000000Y-91037500D03*
X66000000Y-88962500D03*
X62000000Y-91037500D03*
X62000000Y-88962500D03*
D16*
X72200000Y-88962500D03*
X72200000Y-91037500D03*
X69000000Y-88962500D03*
X69000000Y-91037500D03*
D14*
X109037500Y-71000000D03*
X106962500Y-71000000D03*
D16*
X108000000Y-76962500D03*
X108000000Y-79037500D03*
D17*
X116000000Y-64512500D03*
X116000000Y-62437500D03*
D15*
X92962500Y-73000000D03*
X95037500Y-73000000D03*
X90962500Y-85000000D03*
X93037500Y-85000000D03*
D17*
X118000000Y-139037500D03*
X118000000Y-136962500D03*
D18*
X98800000Y-108000000D03*
X104200000Y-108000000D03*
D19*
X131500000Y-129700000D03*
X131500000Y-124300000D03*
D20*
X131900000Y-111350000D03*
X131900000Y-117850000D03*
D14*
X111537500Y-113000000D03*
X109462500Y-113000000D03*
D15*
X97962500Y-117500000D03*
X100037500Y-117500000D03*
X84962500Y-109000000D03*
X87037500Y-109000000D03*
D18*
X116300000Y-108000000D03*
X121700000Y-108000000D03*
D17*
X114000000Y-122037500D03*
X114000000Y-119962500D03*
D16*
X190500000Y-124962500D03*
X190500000Y-127037500D03*
D21*
X216000000Y-92000000D03*
X224000000Y-92000000D03*
D15*
X216962500Y-112000000D03*
X219037500Y-112000000D03*
D22*
X232000000Y-96000000D03*
X232000000Y-88000000D03*
D15*
X239962500Y-101000000D03*
X242037500Y-101000000D03*
D18*
X173700000Y-119500000D03*
X168300000Y-119500000D03*
D19*
X181000000Y-119700000D03*
X181000000Y-114300000D03*
D18*
X186800000Y-135000000D03*
X192200000Y-135000000D03*
D19*
X177000000Y-137300000D03*
X177000000Y-142700000D03*
D18*
X166200000Y-131000000D03*
X160800000Y-131000000D03*
D19*
X215500000Y-138300000D03*
X215500000Y-143700000D03*
D15*
X232962500Y-141000000D03*
X235037500Y-141000000D03*
D17*
X228500000Y-134037500D03*
X228500000Y-131962500D03*
D15*
X86962500Y-63000000D03*
X89037500Y-63000000D03*
D23*
X87250000Y-56000000D03*
X80750000Y-56000000D03*
D18*
X72700000Y-66000000D03*
X67300000Y-66000000D03*
D17*
X90200000Y-67937500D03*
X90200000Y-65862500D03*
D18*
X92300000Y-57000000D03*
X97700000Y-57000000D03*
X108700000Y-57000000D03*
X103300000Y-57000000D03*
D14*
X87037500Y-71000000D03*
X84962500Y-71000000D03*
D18*
X68700000Y-84500000D03*
X63300000Y-84500000D03*
D19*
X55000000Y-80300000D03*
X55000000Y-85700000D03*
D17*
X136000000Y-74037500D03*
X136000000Y-71962500D03*
D14*
X137037500Y-84000000D03*
X134962500Y-84000000D03*
D17*
X131750000Y-76537500D03*
X131750000Y-74462500D03*
D16*
X142000000Y-86962500D03*
X142000000Y-89037500D03*
D15*
X174962500Y-93000000D03*
X177037500Y-93000000D03*
D16*
X157000000Y-80962500D03*
X157000000Y-83037500D03*
D15*
X160962500Y-91000000D03*
X163037500Y-91000000D03*
X170962500Y-90000000D03*
X173037500Y-90000000D03*
X150962500Y-76000000D03*
X153037500Y-76000000D03*
D16*
X195000000Y-60462500D03*
X195000000Y-62537500D03*
D17*
X183000000Y-72037500D03*
X183000000Y-69962500D03*
D14*
X173037500Y-57000000D03*
X170962500Y-57000000D03*
D16*
X166000000Y-68962500D03*
X166000000Y-71037500D03*
D14*
X168062500Y-58000000D03*
X165987500Y-58000000D03*
D16*
X173000000Y-63962500D03*
X173000000Y-66037500D03*
D15*
X199562500Y-70500000D03*
X201637500Y-70500000D03*
D16*
X202500000Y-76462500D03*
X202500000Y-78537500D03*
D17*
X194500000Y-69537500D03*
X194500000Y-67462500D03*
D14*
X224287500Y-72500000D03*
X222212500Y-72500000D03*
D16*
X220500000Y-54962500D03*
X220500000Y-57037500D03*
D14*
X226537500Y-68500000D03*
X224462500Y-68500000D03*
D16*
X207000000Y-57962500D03*
X207000000Y-60037500D03*
X201500000Y-58462500D03*
X201500000Y-60537500D03*
X207000000Y-65462500D03*
X207000000Y-67537500D03*
D24*
X100950000Y-126062500D03*
X99050000Y-126062500D03*
X100000000Y-127937500D03*
X95950000Y-126062500D03*
X94050000Y-126062500D03*
X95000000Y-127937500D03*
X105950000Y-126062500D03*
X104050000Y-126062500D03*
X105000000Y-127937500D03*
D25*
X87937500Y-120950000D03*
X87937500Y-119050000D03*
X86062500Y-120000000D03*
D26*
X237650000Y-120000000D03*
X235350000Y-120000000D03*
X237650000Y-122500000D03*
X235350000Y-122500000D03*
X238650000Y-133500000D03*
X236350000Y-133500000D03*
X132650000Y-136000000D03*
X130350000Y-136000000D03*
X175650000Y-77100000D03*
X173350000Y-77100000D03*
X195150000Y-57000000D03*
X192850000Y-57000000D03*
X199650000Y-74000000D03*
X197350000Y-74000000D03*
D27*
X191000000Y-69650000D03*
X191000000Y-67350000D03*
D28*
X217500000Y-54850000D03*
X217500000Y-57150000D03*
D29*
X121000000Y-88000000D03*
D30*
X118460000Y-85460000D03*
X123540000Y-85460000D03*
X118460000Y-90540000D03*
X123540000Y-90540000D03*
D10*
X241500000Y-95000000D03*
D11*
X241500000Y-92500000D03*
D10*
X192500000Y-115500000D03*
D11*
X192500000Y-113000000D03*
X192500000Y-110500000D03*
D29*
X217500000Y-78250000D03*
D30*
X214960000Y-75710000D03*
X220040000Y-75710000D03*
X214960000Y-80790000D03*
X220040000Y-80790000D03*
D31*
X66500000Y-119000000D03*
X69000000Y-119000000D03*
D32*
X71500000Y-119000000D03*
D29*
X190000000Y-90500000D03*
D30*
X187460000Y-87960000D03*
X192540000Y-87960000D03*
X187460000Y-93040000D03*
X192540000Y-93040000D03*
D10*
X242000000Y-132750000D03*
D11*
X242000000Y-130250000D03*
X242000000Y-127750000D03*
X242000000Y-125250000D03*
X242000000Y-122750000D03*
X242000000Y-120250000D03*
X242000000Y-117750000D03*
X242000000Y-115250000D03*
D33*
X70500000Y-130000000D03*
X75500000Y-135000000D03*
X76000000Y-87500000D03*
X81000000Y-82500000D03*
D34*
X88000000Y-126500000D03*
X80000000Y-131500000D03*
X157500000Y-122500000D03*
X159500000Y-125500000D03*
X128750000Y-61250000D03*
X126750000Y-58250000D03*
D33*
X161500000Y-69000000D03*
X156500000Y-64000000D03*
X140500000Y-54900000D03*
X135500000Y-59900000D03*
D35*
X231562500Y-130550000D03*
X231562500Y-132450000D03*
X233437500Y-131500000D03*
D25*
X231937500Y-126700000D03*
X231937500Y-124800000D03*
X230062500Y-125750000D03*
D24*
X227450000Y-122625000D03*
X225550000Y-122625000D03*
X226500000Y-124500000D03*
D25*
X112937500Y-68950000D03*
X112937500Y-67050000D03*
X111062500Y-68000000D03*
X116937500Y-143950000D03*
X116937500Y-142050000D03*
X115062500Y-143000000D03*
D24*
X102950000Y-131062500D03*
X101050000Y-131062500D03*
X102000000Y-132937500D03*
X122950000Y-134062500D03*
X121050000Y-134062500D03*
X122000000Y-135937500D03*
X70450000Y-108062500D03*
X68550000Y-108062500D03*
X69500000Y-109937500D03*
D25*
X201437500Y-116450000D03*
X201437500Y-114550000D03*
X199562500Y-115500000D03*
D24*
X180950000Y-124062500D03*
X179050000Y-124062500D03*
X180000000Y-125937500D03*
X177450000Y-129062500D03*
X175550000Y-129062500D03*
X176500000Y-130937500D03*
D35*
X203662500Y-133050000D03*
X203662500Y-134950000D03*
X205537500Y-134000000D03*
D36*
X203050000Y-142937500D03*
X204950000Y-142937500D03*
X204000000Y-141062500D03*
D35*
X198562500Y-142050000D03*
X198562500Y-143950000D03*
X200437500Y-143000000D03*
X209062500Y-124550000D03*
X209062500Y-126450000D03*
X210937500Y-125500000D03*
X211312500Y-129400000D03*
X211312500Y-131300000D03*
X213187500Y-130350000D03*
D24*
X205950000Y-121562500D03*
X204050000Y-121562500D03*
X205000000Y-123437500D03*
D35*
X58062500Y-74050000D03*
X58062500Y-75950000D03*
X59937500Y-75000000D03*
D37*
X165500000Y-89480000D03*
D38*
X167000000Y-86666500D03*
D39*
X167000000Y-88076200D03*
D40*
X167000000Y-85333000D03*
D41*
X167000000Y-89333500D03*
D37*
X168500000Y-89480000D03*
D42*
X175020000Y-58500000D03*
D43*
X175166500Y-60000000D03*
D44*
X177833500Y-60000000D03*
D45*
X176423800Y-60000000D03*
D46*
X179167000Y-60000000D03*
D42*
X175020000Y-61500000D03*
X210520000Y-60500000D03*
D44*
X213333500Y-62000000D03*
D45*
X211923800Y-62000000D03*
D46*
X214667000Y-62000000D03*
D43*
X210666500Y-62000000D03*
D42*
X210520000Y-63500000D03*
D47*
X63000000Y-113975000D03*
X63000000Y-116025000D03*
D48*
X221475000Y-124500000D03*
X223525000Y-124500000D03*
X221475000Y-120000000D03*
X223525000Y-120000000D03*
D49*
X66500000Y-106525000D03*
X66500000Y-104475000D03*
X214000000Y-113525000D03*
X214000000Y-111475000D03*
X211000000Y-113525000D03*
X211000000Y-111475000D03*
X207500000Y-113525000D03*
X207500000Y-111475000D03*
X231500000Y-116025000D03*
X231500000Y-113975000D03*
D48*
X74975000Y-124000000D03*
X77025000Y-124000000D03*
D50*
X89025000Y-85000000D03*
X86975000Y-85000000D03*
D47*
X100000000Y-76975000D03*
X100000000Y-79025000D03*
D48*
X118975000Y-94000000D03*
X121025000Y-94000000D03*
X106975000Y-74000000D03*
X109025000Y-74000000D03*
X122975000Y-94000000D03*
X125025000Y-94000000D03*
D50*
X116025000Y-94000000D03*
X113975000Y-94000000D03*
D47*
X113000000Y-71975000D03*
X113000000Y-74025000D03*
D50*
X116025000Y-59000000D03*
X113975000Y-59000000D03*
D49*
X113000000Y-64525000D03*
X113000000Y-62475000D03*
X93000000Y-81025000D03*
X93000000Y-78975000D03*
D50*
X93025000Y-76000000D03*
X90975000Y-76000000D03*
X89025000Y-81000000D03*
X86975000Y-81000000D03*
X122025000Y-144000000D03*
X119975000Y-144000000D03*
D49*
X105000000Y-138025000D03*
X105000000Y-135975000D03*
D50*
X128525000Y-133000000D03*
X126475000Y-133000000D03*
D48*
X126475000Y-138000000D03*
X128525000Y-138000000D03*
D50*
X110025000Y-139000000D03*
X107975000Y-139000000D03*
D48*
X68975000Y-105000000D03*
X71025000Y-105000000D03*
X105975000Y-131000000D03*
X108025000Y-131000000D03*
D49*
X123000000Y-132025000D03*
X123000000Y-129975000D03*
D50*
X74625000Y-109000000D03*
X72575000Y-109000000D03*
D51*
X75000000Y-105000000D03*
X77540000Y-105000000D03*
X80080000Y-105000000D03*
D49*
X132500000Y-107025000D03*
X132500000Y-104975000D03*
D48*
X80975000Y-109000000D03*
X83025000Y-109000000D03*
X113975000Y-126000000D03*
X116025000Y-126000000D03*
X97975000Y-113000000D03*
X100025000Y-113000000D03*
D49*
X95500000Y-116525000D03*
X95500000Y-114475000D03*
X111000000Y-125025000D03*
X111000000Y-122975000D03*
X78000000Y-114025000D03*
X78000000Y-111975000D03*
D48*
X81975000Y-120000000D03*
X84025000Y-120000000D03*
X235475000Y-101000000D03*
X237525000Y-101000000D03*
D50*
X141525000Y-134000000D03*
X139475000Y-134000000D03*
D47*
X150000000Y-124975000D03*
X150000000Y-127025000D03*
X139500000Y-137975000D03*
X139500000Y-140025000D03*
X144000000Y-133975000D03*
X144000000Y-136025000D03*
D50*
X147025000Y-128000000D03*
X144975000Y-128000000D03*
X147025000Y-124500000D03*
X144975000Y-124500000D03*
X182525000Y-128500000D03*
X180475000Y-128500000D03*
D47*
X175000000Y-123975000D03*
X175000000Y-126025000D03*
D50*
X172525000Y-129000000D03*
X170475000Y-129000000D03*
X172525000Y-125500000D03*
X170475000Y-125500000D03*
D48*
X232975000Y-144500000D03*
X235025000Y-144500000D03*
D47*
X200500000Y-132475000D03*
X200500000Y-134525000D03*
D50*
X206025000Y-138000000D03*
X203975000Y-138000000D03*
D47*
X200500000Y-136975000D03*
X200500000Y-139025000D03*
D49*
X198000000Y-139525000D03*
X198000000Y-137475000D03*
X204500000Y-128525000D03*
X204500000Y-126475000D03*
D47*
X213500000Y-125475000D03*
X213500000Y-127525000D03*
X206500000Y-126475000D03*
X206500000Y-128525000D03*
D49*
X206000000Y-119525000D03*
X206000000Y-117475000D03*
D50*
X78025000Y-66000000D03*
X75975000Y-66000000D03*
D51*
X72000000Y-59800000D03*
X72000000Y-57260000D03*
X72000000Y-54720000D03*
D49*
X93700000Y-67925000D03*
X93700000Y-65875000D03*
D50*
X78025000Y-62000000D03*
X75975000Y-62000000D03*
X82025000Y-62000000D03*
X79975000Y-62000000D03*
X80025000Y-75000000D03*
X77975000Y-75000000D03*
D48*
X61975000Y-70000000D03*
X64025000Y-70000000D03*
D51*
X69000000Y-75000000D03*
X66460000Y-75000000D03*
X63920000Y-75000000D03*
D47*
X58000000Y-69975000D03*
X58000000Y-72025000D03*
D48*
X52975000Y-76000000D03*
X55025000Y-76000000D03*
D50*
X55025000Y-72000000D03*
X52975000Y-72000000D03*
X139025000Y-89000000D03*
X136975000Y-89000000D03*
D48*
X133975000Y-69000000D03*
X136025000Y-69000000D03*
X138975000Y-69000000D03*
X141025000Y-69000000D03*
X133975000Y-65000000D03*
X136025000Y-65000000D03*
D50*
X121025000Y-59000000D03*
X118975000Y-59000000D03*
D47*
X148000000Y-73975000D03*
X148000000Y-76025000D03*
D49*
X140000000Y-65025000D03*
X140000000Y-62975000D03*
D47*
X157000000Y-87975000D03*
X157000000Y-90025000D03*
D50*
X155025000Y-90000000D03*
X152975000Y-90000000D03*
X157025000Y-85000000D03*
X154975000Y-85000000D03*
D47*
X160000000Y-85975000D03*
X160000000Y-88025000D03*
D48*
X187975000Y-81000000D03*
X190025000Y-81000000D03*
D50*
X163025000Y-93000000D03*
X160975000Y-93000000D03*
D48*
X174975000Y-90000000D03*
X177025000Y-90000000D03*
X170975000Y-88000000D03*
X173025000Y-88000000D03*
D50*
X173025000Y-55000000D03*
X170975000Y-55000000D03*
D49*
X183000000Y-68025000D03*
X183000000Y-65975000D03*
D48*
X184975000Y-64000000D03*
X187025000Y-64000000D03*
X184975000Y-68000000D03*
X187025000Y-68000000D03*
D50*
X177525000Y-55000000D03*
X175475000Y-55000000D03*
D47*
X166000000Y-60975000D03*
X166000000Y-63025000D03*
D48*
X165975000Y-66000000D03*
X168025000Y-66000000D03*
X165975000Y-56000000D03*
X168025000Y-56000000D03*
D47*
X171000000Y-60475000D03*
X171000000Y-62525000D03*
X173000000Y-67975000D03*
X173000000Y-70025000D03*
X176500000Y-63975000D03*
X176500000Y-66025000D03*
X202500000Y-81475000D03*
X202500000Y-83525000D03*
D49*
X194500000Y-74025000D03*
X194500000Y-71975000D03*
D48*
X206475000Y-82500000D03*
X208525000Y-82500000D03*
X208475000Y-73000000D03*
X210525000Y-73000000D03*
D47*
X205000000Y-55475000D03*
X205000000Y-57525000D03*
D49*
X230000000Y-68525000D03*
X230000000Y-66475000D03*
D50*
X213525000Y-58000000D03*
X211475000Y-58000000D03*
X207525000Y-62000000D03*
X205475000Y-62000000D03*
D49*
X205000000Y-67525000D03*
X205000000Y-65475000D03*
D47*
X210500000Y-65475000D03*
X210500000Y-67525000D03*
D34*
X102500000Y-74000000D03*
X97500000Y-66000000D03*
X102500000Y-72750000D03*
X97500000Y-67250000D03*
X134500000Y-139500000D03*
X126500000Y-144500000D03*
X133250000Y-139500000D03*
X127750000Y-144500000D03*
X170000000Y-79000000D03*
X162000000Y-84000000D03*
X168750000Y-79000000D03*
X163250000Y-84000000D03*
X190000000Y-55500000D03*
X182000000Y-60500000D03*
X188750000Y-55500000D03*
X183250000Y-60500000D03*
X222500000Y-68500000D03*
X217500000Y-60500000D03*
X222500000Y-67250000D03*
X217500000Y-61750000D03*
D52*
X87000000Y-90000000D03*
X141000000Y-73000000D03*
X229500000Y-62500000D03*
X70090000Y-123890000D03*
X219500000Y-133500000D03*
X209500000Y-136500000D03*
X209500000Y-120000000D03*
X114000000Y-56000000D03*
X84000000Y-79000000D03*
D53*
X233550000Y-116200000D03*
X234500000Y-116200000D03*
X235450000Y-116200000D03*
X235450000Y-113800000D03*
X233550000Y-113800000D03*
X207050000Y-90200000D03*
X208000000Y-90200000D03*
X208950000Y-90200000D03*
X208950000Y-87800000D03*
X207050000Y-87800000D03*
D54*
X222050000Y-112225000D03*
X222050000Y-112875000D03*
X222050000Y-113525000D03*
X222050000Y-114175000D03*
X222050000Y-114825000D03*
X222050000Y-115475000D03*
X222050000Y-116125000D03*
X222050000Y-116775000D03*
X227950000Y-116775000D03*
X227950000Y-116125000D03*
X227950000Y-115475000D03*
X227950000Y-114825000D03*
X227950000Y-114175000D03*
X227950000Y-113525000D03*
X227950000Y-112875000D03*
X227950000Y-112225000D03*
D55*
X113540000Y-83460000D03*
X111000000Y-83460000D03*
X108460000Y-83460000D03*
X108460000Y-88540000D03*
X111000000Y-88540000D03*
X113540000Y-88540000D03*
D56*
X109020000Y-109350000D03*
X109670000Y-109350000D03*
X110330000Y-109350000D03*
X110980000Y-109350000D03*
X110980000Y-106650000D03*
X110330000Y-106650000D03*
X109670000Y-106650000D03*
X109020000Y-106650000D03*
D57*
X85700000Y-114905000D03*
X85700000Y-113635000D03*
X85700000Y-112365000D03*
X85700000Y-111095000D03*
X80300000Y-111095000D03*
X80300000Y-112365000D03*
X80300000Y-113635000D03*
X80300000Y-114905000D03*
X91300000Y-119095000D03*
X91300000Y-120365000D03*
X91300000Y-121635000D03*
X91300000Y-122905000D03*
X96700000Y-122905000D03*
X96700000Y-121635000D03*
X96700000Y-120365000D03*
X96700000Y-119095000D03*
D58*
X216000000Y-108000000D03*
D59*
X218540000Y-108000000D03*
X221080000Y-108000000D03*
X223620000Y-108000000D03*
X226160000Y-108000000D03*
X228700000Y-108000000D03*
X231240000Y-108000000D03*
X231240000Y-100380000D03*
X228700000Y-100380000D03*
X226160000Y-100380000D03*
X223620000Y-100380000D03*
X221080000Y-100380000D03*
X218540000Y-100380000D03*
X216000000Y-100380000D03*
D55*
X153540000Y-133460000D03*
X151000000Y-133460000D03*
X148460000Y-133460000D03*
X148460000Y-138540000D03*
X151000000Y-138540000D03*
X153540000Y-138540000D03*
D57*
X81300000Y-65095000D03*
X81300000Y-66365000D03*
X81300000Y-67635000D03*
X81300000Y-68905000D03*
X86700000Y-68905000D03*
X86700000Y-67635000D03*
X86700000Y-66365000D03*
X86700000Y-65095000D03*
D60*
X134862500Y-78050000D03*
X134862500Y-79000000D03*
X134862500Y-79950000D03*
X137137500Y-79950000D03*
X137137500Y-79000000D03*
X137137500Y-78050000D03*
D61*
X157100000Y-76950000D03*
X157100000Y-76000000D03*
X157100000Y-75050000D03*
X154900000Y-75050000D03*
X154900000Y-76000000D03*
X154900000Y-76950000D03*
D62*
X208637500Y-77450000D03*
X208637500Y-76500000D03*
X208637500Y-75550000D03*
X206362500Y-75550000D03*
X206362500Y-76500000D03*
X206362500Y-77450000D03*
D24*
X225450000Y-128812500D03*
X223550000Y-128812500D03*
X224500000Y-130687500D03*
D63*
X228802000Y-142036000D03*
X228802000Y-139750000D03*
D64*
X222198000Y-139750000D03*
D63*
X228802000Y-137464000D03*
D65*
X55000000Y-96000000D03*
D66*
X55000000Y-92250000D03*
D65*
X55000000Y-100880000D03*
X61000000Y-103000000D03*
D66*
X61000000Y-99250000D03*
D65*
X61000000Y-107880000D03*
X55000000Y-110000000D03*
D66*
X55000000Y-106250000D03*
D65*
X55000000Y-114880000D03*
X63000000Y-131000000D03*
D67*
X66750000Y-131000000D03*
D65*
X58120000Y-131000000D03*
X58000000Y-138000000D03*
D67*
X54250000Y-138000000D03*
D65*
X62880000Y-138000000D03*
X66000000Y-145000000D03*
D67*
X62250000Y-145000000D03*
D65*
X70880000Y-145000000D03*
X160875000Y-57000000D03*
X159000000Y-57000000D03*
X157125000Y-57000000D03*
X147625000Y-57000000D03*
X149500000Y-57000000D03*
X151375000Y-57000000D03*
D48*
X99975000Y-139000000D03*
X102025000Y-139000000D03*
D50*
X97025000Y-130000000D03*
X94975000Y-130000000D03*
X97550000Y-140500000D03*
X95500000Y-140500000D03*
X97525000Y-144000000D03*
X95475000Y-144000000D03*
D16*
X92000000Y-130962500D03*
X92000000Y-133037500D03*
D15*
X99962500Y-136000000D03*
X102037500Y-136000000D03*
D68*
X86000000Y-136952000D03*
X86000000Y-143048000D03*
D14*
X113037500Y-143000000D03*
X110962500Y-143000000D03*
D36*
X95050000Y-138437500D03*
X96950000Y-138437500D03*
X96000000Y-136562500D03*
D34*
X105500000Y-145000000D03*
X103500000Y-142000000D03*
D35*
X66062500Y-112050000D03*
X66062500Y-113950000D03*
X67937500Y-113000000D03*
D49*
X113000000Y-140025000D03*
X113000000Y-137975000D03*
D14*
X79037500Y-117000000D03*
X76962500Y-117000000D03*
D33*
X144600000Y-117100000D03*
X153600000Y-109600000D03*
X127750000Y-74000000D03*
X120250000Y-65000000D03*
X242500000Y-64500000D03*
X233500000Y-72000000D03*
D48*
X106975000Y-69000000D03*
X109025000Y-69000000D03*
D29*
X162500000Y-140000000D03*
D30*
X159960000Y-142540000D03*
X159960000Y-137460000D03*
X165040000Y-142540000D03*
X165040000Y-137460000D03*
D50*
X121025000Y-55000000D03*
X118975000Y-55000000D03*
D62*
X142137500Y-84950000D03*
X142137500Y-84000000D03*
X142137500Y-83050000D03*
X139862500Y-83050000D03*
X139862500Y-84000000D03*
X139862500Y-84950000D03*
D14*
X201537500Y-110000000D03*
X199462500Y-110000000D03*
D17*
X183000000Y-64037500D03*
X183000000Y-61962500D03*
D62*
X199637500Y-68450000D03*
X199637500Y-67500000D03*
X199637500Y-66550000D03*
X197362500Y-66550000D03*
X197362500Y-67500000D03*
X197362500Y-68450000D03*
D25*
X182937500Y-133950000D03*
X182937500Y-132050000D03*
X181062500Y-133000000D03*
D15*
X234962500Y-76250000D03*
X237037500Y-76250000D03*
D35*
X241562500Y-82300000D03*
X241562500Y-84200000D03*
X243437500Y-83250000D03*
D69*
X59700000Y-63250000D03*
X54300000Y-63250000D03*
D35*
X241562500Y-76050000D03*
X241562500Y-77950000D03*
X243437500Y-77000000D03*
D32*
X120750000Y-124225000D03*
D31*
X123250000Y-124225000D03*
D70*
X232375000Y-81030000D03*
X232375000Y-78750000D03*
D71*
X226075000Y-78750000D03*
D70*
X232375000Y-76470000D03*
D72*
X84000000Y-76000000D03*
X84000000Y-74000000D03*
D15*
X234962500Y-81250000D03*
X237037500Y-81250000D03*
G36*
X209942121Y-98020002D02*
G01*
X209988614Y-98073658D01*
X210000000Y-98126000D01*
X210000000Y-101874000D01*
X209979998Y-101942121D01*
X209926342Y-101988614D01*
X209874000Y-102000000D01*
X69126000Y-102000000D01*
X69057879Y-101979998D01*
X69011386Y-101926342D01*
X69000000Y-101874000D01*
X69000000Y-98126000D01*
X69020002Y-98057879D01*
X69073658Y-98011386D01*
X69126000Y-98000000D01*
X209874000Y-98000000D01*
X209942121Y-98020002D01*
G37*
M02*
