M48
; DRILL file {KiCad 6.0.2-378541a8eb~116~ubuntu20.04.1} date Mon 18 Apr 2022 02:06:02 PM PDT
; FORMAT={-:-/ absolute / metric / decimal}
; #@! TF.CreationDate,2022-04-18T14:06:02-07:00
; #@! TF.GenerationSoftware,Kicad,Pcbnew,6.0.2-378541a8eb~116~ubuntu20.04.1
; #@! TF.FileFunction,Plated,1,2,PTH
FMAT,2
METRIC
; #@! TA.AperFunction,Plated,PTH,ViaDrill
T1C0.400
; #@! TA.AperFunction,Plated,PTH,ComponentDrill
T2C0.500
; #@! TA.AperFunction,Plated,PTH,ComponentDrill
T3C0.575
; #@! TA.AperFunction,Plated,PTH,ComponentDrill
T4C0.800
; #@! TA.AperFunction,Plated,PTH,ComponentDrill
T5C0.900
; #@! TA.AperFunction,Plated,PTH,ComponentDrill
T6C1.000
; #@! TA.AperFunction,Plated,PTH,ComponentDrill
T7C1.016
; #@! TA.AperFunction,Plated,PTH,ComponentDrill
T8C1.397
; #@! TA.AperFunction,Plated,PTH,ComponentDrill
T9C1.500
; #@! TA.AperFunction,Plated,PTH,ComponentDrill
T10C3.500
%
G90
G05
T1
X52.1Y-71.0
X52.7Y-106.1
X52.8Y-92.2
X53.3Y-86.1
X54.25Y-64.75
X55.8Y-138.1
X56.9Y-74.1
X57.25Y-63.25
X60.5Y-52.25
X60.5Y-84.5
X61.25Y-64.75
X61.5Y-51.5
X62.0Y-92.5
X63.2Y-99.2
X63.7Y-145.1
X64.0Y-71.4
X64.6Y-109.8
X64.93Y-63.82
X65.3Y-131.2
X65.6Y-58.0
X65.6Y-69.2
X65.9Y-103.2
X65.9Y-109.7
X67.3Y-67.6
X68.0Y-83.0
X69.0Y-92.3
X69.0Y-103.2
X69.0Y-106.3
X69.5Y-111.5
X70.1Y-114.0
X71.0Y-100.0
X72.2Y-92.2
X72.4Y-75.0
X73.6Y-120.0
X73.9Y-69.0
X73.993Y-115.393
X74.7Y-116.1
X74.7Y-121.4
X75.6Y-117.0
X75.975Y-63.675
X76.0Y-100.0
X78.0Y-64.4
X79.1Y-52.4
X79.1Y-120.0
X79.1Y-121.8
X79.8Y-69.0
X80.5Y-120.1
X80.7Y-53.9
X81.0Y-100.0
X81.3Y-75.0
X81.7Y-59.0
X82.1Y-124.5
X82.1Y-121.5
X82.3Y-103.8
X82.3Y-107.4
X82.4Y-111.5
X83.0Y-51.5
X83.3Y-66.4
X83.7Y-63.0
X84.8Y-116.0
X84.9Y-69.6
X86.0Y-100.0
X86.1Y-75.6
X86.5Y-59.0
X87.0Y-79.6
X87.3Y-111.1
X87.839Y-64.318
X89.0Y-61.6
X89.5Y-97.4
X89.7Y-76.0
X90.3Y-124.3
X90.5Y-133.0
X91.0Y-100.0
X91.3Y-123.9
X92.1Y-129.6
X92.7Y-117.225
X93.0Y-108.0
X93.9Y-121.6
X95.05Y-126.25
X95.4Y-145.4
X95.4Y-147.8
X95.97Y-134.83
X96.0Y-100.0
X97.2Y-104.7
X97.2Y-114.8
X97.2Y-124.7
X98.0Y-77.0
X98.5Y-133.4
X99.0Y-128.0
X99.1Y-144.0
X100.0Y-80.3
X100.0Y-97.4
X100.5Y-140.5
X100.7Y-58.7
X101.0Y-100.0
X101.0Y-129.7
X101.7Y-117.5
X104.2Y-106.5
X104.9Y-123.6
X105.0Y-127.0
X105.0Y-139.5
X106.0Y-100.0
X107.2Y-111.4
X107.2Y-115.1
X108.0Y-137.5
X108.1Y-113.0
X108.5Y-86.5
X109.0Y-103.8
X109.0Y-105.3
X109.7Y-107.97
X110.0Y-137.5
X110.6Y-128.7
X110.9Y-86.5
X111.0Y-100.0
X111.5Y-74.0
X111.5Y-80.1
X111.6Y-109.3
X111.6Y-111.8
X111.9Y-130.7
X112.7Y-59.0
X112.7Y-94.0
X112.8Y-97.4
X112.8Y-113.0
X113.5Y-85.4
X113.7Y-104.5
X113.7Y-108.1
X114.0Y-118.6
X114.5Y-62.5
X115.5Y-148.6
X116.0Y-100.0
X116.0Y-113.0
X116.0Y-127.4
X117.7Y-59.0
X118.2Y-113.8
X120.1Y-118.0
X121.0Y-100.0
X121.1Y-135.1
X121.7Y-106.4
X123.25Y-58.25
X126.0Y-100.0
X126.3Y-94.0
X129.8Y-117.8
X130.0Y-124.3
X130.8Y-133.1
X131.0Y-100.0
X131.2Y-147.8
X131.3Y-137.9
X133.2Y-79.0
X133.5Y-146.2
X134.0Y-97.4
X134.0Y-105.0
X134.5Y-137.9
X135.5Y-89.0
X135.5Y-129.7
X136.0Y-100.0
X137.3Y-65.0
X138.8Y-77.5
X139.5Y-141.4
X139.7Y-86.2
X139.7Y-95.3
X141.0Y-100.0
X142.5Y-69.0
X143.5Y-128.0
X143.6Y-124.5
X143.9Y-84.0
X144.0Y-137.4
X145.1Y-80.0
X145.8Y-96.1
X146.0Y-100.0
X147.2Y-83.0
X148.5Y-136.5
X149.0Y-104.6
X151.0Y-100.0
X151.0Y-131.2
X151.0Y-136.5
X151.5Y-127.2
X151.7Y-90.0
X153.5Y-135.4
X153.6Y-140.7
X153.7Y-85.0
X154.9Y-74.1
X154.9Y-78.1
X156.0Y-100.0
X156.3Y-73.5
X158.3Y-131.0
X158.4Y-76.0
X158.5Y-90.2
X159.7Y-93.0
X161.0Y-100.0
X163.7Y-75.0
X164.3Y-71.0
X164.5Y-93.0
X166.0Y-100.0
X166.4Y-122.9
X169.0Y-125.5
X169.2Y-95.2
X169.4Y-56.0
X169.4Y-66.0
X169.4Y-93.0
X169.6Y-62.5
X170.0Y-135.0
X171.0Y-100.0
X172.1Y-93.0
X173.5Y-80.2
X174.4Y-69.9
X174.4Y-88.0
X175.0Y-91.5
X175.0Y-95.701
X175.0Y-127.5
X175.5Y-131.1
X175.5Y-142.7
X175.75Y-78.5
X176.0Y-100.0
X176.5Y-67.6
X177.0Y-72.2
X177.1Y-134.2
X177.6Y-73.6
X178.3Y-90.0
X178.3Y-93.0
X178.8Y-137.7
X179.9Y-94.1
X181.0Y-100.0
X181.9Y-133.0
X182.0Y-143.5
X182.0Y-144.5
X182.1Y-124.0
X182.4Y-104.6
X182.6Y-114.3
X183.0Y-148.7
X183.3Y-96.501
X184.0Y-128.5
X184.25Y-132.0
X185.0Y-96.05
X185.0Y-104.7
X186.0Y-100.0
X186.5Y-143.5
X186.5Y-144.5
X186.6Y-81.0
X187.0Y-69.6
X187.0Y-137.0
X188.4Y-64.0
X188.8Y-128.4
X191.0Y-100.0
X191.7Y-80.0
X192.2Y-136.4
X192.5Y-143.5
X192.5Y-144.5
X194.5Y-75.5
X195.4Y-132.5
X195.4Y-146.8
X195.95Y-66.55
X196.0Y-100.0
X196.1Y-68.6
X196.3Y-74.0
X196.4Y-62.6
X196.5Y-143.5
X196.5Y-144.5
X198.0Y-104.7
X198.0Y-136.0
X199.5Y-143.9
X200.8Y-67.5
X201.0Y-100.0
X202.75Y-114.5
X203.0Y-121.5
X203.5Y-96.501
X203.6Y-85.6
X204.1Y-62.0
X204.6Y-129.9
X205.0Y-131.8
X205.0Y-135.0
X205.2Y-74.4
X205.2Y-77.9
X205.2Y-82.5
X206.0Y-66.5
X206.0Y-94.0
X206.0Y-95.0
X206.0Y-100.0
X206.0Y-106.4
X206.0Y-116.2
X206.0Y-143.0
X206.3Y-123.7
X206.3Y-130.4
X206.8Y-73.0
X207.1Y-104.6
X207.2Y-91.5
X207.5Y-110.1
X207.5Y-114.8
X207.5Y-116.1
X207.7Y-69.4
X207.7Y-78.1
X208.5Y-83.9
X208.5Y-92.3
X208.5Y-97.4
X209.0Y-86.5
X209.0Y-127.3
X209.0Y-132.6
X209.3Y-145.9
X209.672Y-103.7
X209.8Y-76.5
X209.8Y-91.2
X209.8Y-94.0
X209.8Y-95.0
X210.0Y-114.9
X210.1Y-85.6
X210.1Y-105.9
X210.5Y-68.9
X210.9Y-118.0
X211.0Y-74.6
X211.6Y-120.0
X211.8Y-101.2
X211.925Y-125.475
X212.0Y-96.75
X212.25Y-84.25
X212.5Y-123.8
X212.75Y-131.4
X213.5Y-86.5
X213.5Y-87.7
X213.6Y-107.4
X214.4Y-93.9
X214.4Y-94.9
X214.5Y-118.8
X215.3Y-110.7
X215.6Y-112.1
X216.0Y-94.6
X216.3Y-123.9
X216.8Y-118.8
X217.0Y-143.6
X217.2Y-129.1
X217.4Y-58.7
X219.7Y-139.5
X220.3Y-111.8
X220.3Y-121.0
X220.385Y-122.637
X220.5Y-58.4
X220.5Y-112.9
X220.6Y-117.2
X221.325Y-132.975
X221.5Y-121.4
X221.5Y-125.9
X222.0Y-89.0
X222.2Y-135.0
X222.4Y-142.2
X222.4Y-147.7
X223.0Y-90.0
X223.5Y-110.0
X223.5Y-127.25
X223.5Y-117.6
X224.0Y-89.0
X225.0Y-90.0
X225.452Y-118.5
X225.5Y-130.0
X225.6Y-120.9
X226.5Y-122.75
X226.686Y-112.991
X227.5Y-117.6
X228.5Y-66.5
X229.723Y-117.988
X229.8Y-113.5
X229.8Y-132.0
X230.2Y-120.0
X230.2Y-122.5
X230.75Y-142.0
X231.5Y-68.5
X232.3Y-117.3
X232.4Y-121.2
X232.5Y-82.75
X232.55Y-91.7
X233.7Y-111.9
X234.1Y-129.3
X234.25Y-79.0
X234.5Y-117.3
X234.7Y-133.6
X235.5Y-127.4
X236.3Y-141.0
X236.3Y-144.4
X236.5Y-134.7
X236.8Y-146.8
X238.3Y-106.6
X238.3Y-108.2
X238.5Y-76.25
X238.5Y-81.25
X238.75Y-83.25
X238.75Y-86.599
X238.9Y-112.0
X239.8Y-105.4
X239.8Y-115.0
X240.0Y-84.25
X240.05Y-77.95
X241.1Y-106.6
X241.1Y-108.2
X241.5Y-88.0
X242.0Y-86.599
X243.4Y-101.0
X245.0Y-89.5
X245.0Y-137.9
X245.5Y-77.0
X245.75Y-61.5
X245.9Y-104.4
X245.9Y-138.8
X246.7Y-85.9
X246.701Y-76.0
X247.0Y-61.5
X247.1Y-103.4
X247.1Y-125.2
X247.1Y-139.3
X248.0Y-61.0
X248.0Y-82.25
X248.0Y-102.5
X248.0Y-127.8
X248.0Y-137.3
T2
X52.375Y-55.0
X52.375Y-145.0
X53.144Y-53.144
X53.144Y-56.856
X53.144Y-143.144
X53.144Y-146.856
X55.0Y-52.375
X55.0Y-57.625
X55.0Y-96.0
X55.0Y-100.88
X55.0Y-110.0
X55.0Y-114.88
X55.0Y-142.375
X55.0Y-147.625
X56.856Y-53.144
X56.856Y-56.856
X56.856Y-143.144
X56.856Y-146.856
X57.625Y-55.0
X57.625Y-145.0
X58.0Y-138.0
X58.12Y-131.0
X61.0Y-103.0
X61.0Y-107.88
X62.88Y-138.0
X63.0Y-131.0
X66.0Y-145.0
X70.88Y-145.0
X80.0Y-131.5
X88.0Y-126.5
X97.5Y-66.0
X97.5Y-67.25
X102.5Y-72.75
X102.5Y-74.0
X103.5Y-142.0
X105.5Y-145.0
X126.375Y-86.0
X126.5Y-144.5
X126.75Y-58.25
X127.144Y-84.144
X127.144Y-87.856
X127.75Y-144.5
X128.75Y-61.25
X129.0Y-83.375
X129.0Y-88.625
X130.856Y-84.144
X130.856Y-87.856
X131.625Y-86.0
X133.25Y-139.5
X134.5Y-139.5
X157.5Y-122.5
X159.5Y-125.5
X160.375Y-114.0
X161.144Y-112.144
X161.144Y-115.856
X162.0Y-84.0
X163.0Y-111.375
X163.0Y-116.625
X163.25Y-84.0
X164.856Y-112.144
X164.856Y-115.856
X165.625Y-114.0
X168.75Y-79.0
X170.0Y-79.0
X182.0Y-60.5
X183.25Y-60.5
X188.75Y-55.5
X190.0Y-55.5
X217.5Y-60.5
X217.5Y-61.75
X222.5Y-67.25
X222.5Y-68.5
X242.375Y-55.0
X242.375Y-145.0
X243.144Y-53.144
X243.144Y-56.856
X243.144Y-143.144
X243.144Y-146.856
X245.0Y-52.375
X245.0Y-57.625
X245.0Y-142.375
X245.0Y-147.625
X246.856Y-53.144
X246.856Y-56.856
X246.856Y-143.144
X246.856Y-146.856
X247.625Y-55.0
X247.625Y-145.0
T3
X147.625Y-57.0
X149.5Y-57.0
X151.375Y-57.0
X157.125Y-57.0
X159.0Y-57.0
X160.875Y-57.0
T4
X63.92Y-75.0
X66.46Y-75.0
X69.0Y-75.0
X72.0Y-54.72
X72.0Y-57.26
X72.0Y-59.8
X75.0Y-105.0
X77.54Y-105.0
X80.08Y-105.0
X216.0Y-100.38
X216.0Y-108.0
X218.54Y-100.38
X218.54Y-108.0
X221.08Y-100.38
X221.08Y-108.0
X223.62Y-100.38
X223.62Y-108.0
X226.16Y-100.38
X226.16Y-108.0
X228.7Y-100.38
X228.7Y-108.0
X231.24Y-100.38
X231.24Y-108.0
T5
X63.6Y-54.9
X63.6Y-57.4
X63.6Y-59.9
X66.5Y-119.0
X69.0Y-119.0
X71.5Y-119.0
X120.75Y-124.225
X123.25Y-124.225
X192.5Y-110.5
X192.5Y-113.0
X192.5Y-115.5
X241.5Y-92.5
X241.5Y-95.0
X242.0Y-115.25
X242.0Y-117.75
X242.0Y-120.25
X242.0Y-122.75
X242.0Y-125.25
X242.0Y-127.75
X242.0Y-130.25
X242.0Y-132.75
T6
X70.5Y-130.0
X75.5Y-135.0
X76.0Y-87.5
X81.0Y-82.5
X120.25Y-65.0
X127.75Y-74.0
X135.5Y-59.9
X140.5Y-54.9
X144.6Y-117.1
X153.6Y-109.6
X156.5Y-64.0
X161.5Y-69.0
X233.5Y-72.0
X242.5Y-64.5
T7
X70.09Y-123.89
X84.0Y-79.0
X87.0Y-90.0
X114.0Y-56.0
X141.0Y-73.0
X209.5Y-120.0
X209.5Y-136.5
X219.5Y-133.5
X229.5Y-62.5
T8
X86.0Y-136.952
X86.0Y-143.048
T9
X118.46Y-85.46
X118.46Y-90.54
X121.0Y-88.0
X123.54Y-85.46
X123.54Y-90.54
X159.96Y-137.46
X159.96Y-142.54
X162.5Y-140.0
X165.04Y-137.46
X165.04Y-142.54
X187.46Y-87.96
X187.46Y-93.04
X190.0Y-90.5
X192.54Y-87.96
X192.54Y-93.04
X214.96Y-75.71
X214.96Y-80.79
X217.5Y-78.25
X220.04Y-75.71
X220.04Y-80.79
T10
X55.0Y-55.0
X55.0Y-145.0
X129.0Y-86.0
X163.0Y-114.0
X245.0Y-55.0
X245.0Y-145.0
T0
M30
