G04 #@! TF.GenerationSoftware,KiCad,Pcbnew,5.1.12-84ad8e8a86~92~ubuntu20.04.1*
G04 #@! TF.CreationDate,2022-01-01T09:02:10-08:00*
G04 #@! TF.ProjectId,trx_mobo_concept_2,7472785f-6d6f-4626-9f5f-636f6e636570,rev?*
G04 #@! TF.SameCoordinates,Original*
G04 #@! TF.FileFunction,Soldermask,Bot*
G04 #@! TF.FilePolarity,Negative*
%FSLAX46Y46*%
G04 Gerber Fmt 4.6, Leading zero omitted, Abs format (unit mm)*
G04 Created by KiCad (PCBNEW 5.1.12-84ad8e8a86~92~ubuntu20.04.1) date 2022-01-01 09:02:10*
%MOMM*%
%LPD*%
G01*
G04 APERTURE LIST*
%ADD10C,0.900000*%
%ADD11C,1.440000*%
%ADD12C,2.000000*%
%ADD13C,0.800000*%
%ADD14C,7.000000*%
%ADD15C,2.540000*%
%ADD16C,2.150000*%
%ADD17C,2.250000*%
%ADD18O,2.100000X1.400000*%
%ADD19R,2.100000X1.400000*%
%ADD20R,1.400000X2.100000*%
%ADD21O,1.400000X2.100000*%
%ADD22C,1.000000*%
%ADD23R,0.800000X0.900000*%
%ADD24R,0.900000X0.800000*%
%ADD25R,2.032000X2.032000*%
%ADD26R,1.000000X0.700000*%
%ADD27R,1.600000X2.400000*%
%ADD28O,1.600000X2.400000*%
%ADD29R,1.060000X0.650000*%
%ADD30R,2.540000X1.650000*%
G04 APERTURE END LIST*
D10*
X157125000Y-57000000D03*
X160875000Y-57000000D03*
X159000000Y-57000000D03*
X151375000Y-57000000D03*
X147625000Y-57000000D03*
X149500000Y-57000000D03*
D11*
X72000000Y-59800000D03*
X72000000Y-57260000D03*
X72000000Y-54720000D03*
D12*
X161500000Y-120500000D03*
X156500000Y-125500000D03*
D13*
X164856155Y-112143845D03*
X163000000Y-111375000D03*
X161143845Y-112143845D03*
X160375000Y-114000000D03*
X161143845Y-115856155D03*
X163000000Y-116625000D03*
X164856155Y-115856155D03*
X165625000Y-114000000D03*
D14*
X163000000Y-114000000D03*
D13*
X56856155Y-53143845D03*
X55000000Y-52375000D03*
X53143845Y-53143845D03*
X52375000Y-55000000D03*
X53143845Y-56856155D03*
X55000000Y-57625000D03*
X56856155Y-56856155D03*
X57625000Y-55000000D03*
D14*
X55000000Y-55000000D03*
D13*
X246856155Y-53143845D03*
X245000000Y-52375000D03*
X243143845Y-53143845D03*
X242375000Y-55000000D03*
X243143845Y-56856155D03*
X245000000Y-57625000D03*
X246856155Y-56856155D03*
X247625000Y-55000000D03*
D14*
X245000000Y-55000000D03*
D13*
X56856155Y-143143845D03*
X55000000Y-142375000D03*
X53143845Y-143143845D03*
X52375000Y-145000000D03*
X53143845Y-146856155D03*
X55000000Y-147625000D03*
X56856155Y-146856155D03*
X57625000Y-145000000D03*
D14*
X55000000Y-145000000D03*
D13*
X246856155Y-143143845D03*
X245000000Y-142375000D03*
X243143845Y-143143845D03*
X242375000Y-145000000D03*
X243143845Y-146856155D03*
X245000000Y-147625000D03*
X246856155Y-146856155D03*
X247625000Y-145000000D03*
D14*
X245000000Y-145000000D03*
D13*
X130856155Y-84143845D03*
X129000000Y-83375000D03*
X127143845Y-84143845D03*
X126375000Y-86000000D03*
X127143845Y-87856155D03*
X129000000Y-88625000D03*
X130856155Y-87856155D03*
X131625000Y-86000000D03*
D14*
X129000000Y-86000000D03*
G36*
G01*
X68600000Y-115549999D02*
X68600000Y-116450001D01*
G75*
G02*
X68350001Y-116700000I-249999J0D01*
G01*
X67699999Y-116700000D01*
G75*
G02*
X67450000Y-116450001I0J249999D01*
G01*
X67450000Y-115549999D01*
G75*
G02*
X67699999Y-115300000I249999J0D01*
G01*
X68350001Y-115300000D01*
G75*
G02*
X68600000Y-115549999I0J-249999D01*
G01*
G37*
G36*
G01*
X66550000Y-115549999D02*
X66550000Y-116450001D01*
G75*
G02*
X66300001Y-116700000I-249999J0D01*
G01*
X65649999Y-116700000D01*
G75*
G02*
X65400000Y-116450001I0J249999D01*
G01*
X65400000Y-115549999D01*
G75*
G02*
X65649999Y-115300000I249999J0D01*
G01*
X66300001Y-115300000D01*
G75*
G02*
X66550000Y-115549999I0J-249999D01*
G01*
G37*
G36*
G01*
X236050000Y-125549999D02*
X236050000Y-126450001D01*
G75*
G02*
X235800001Y-126700000I-249999J0D01*
G01*
X235149999Y-126700000D01*
G75*
G02*
X234900000Y-126450001I0J249999D01*
G01*
X234900000Y-125549999D01*
G75*
G02*
X235149999Y-125300000I249999J0D01*
G01*
X235800001Y-125300000D01*
G75*
G02*
X236050000Y-125549999I0J-249999D01*
G01*
G37*
G36*
G01*
X238100000Y-125549999D02*
X238100000Y-126450001D01*
G75*
G02*
X237850001Y-126700000I-249999J0D01*
G01*
X237199999Y-126700000D01*
G75*
G02*
X236950000Y-126450001I0J249999D01*
G01*
X236950000Y-125549999D01*
G75*
G02*
X237199999Y-125300000I249999J0D01*
G01*
X237850001Y-125300000D01*
G75*
G02*
X238100000Y-125549999I0J-249999D01*
G01*
G37*
G36*
G01*
X66549999Y-59450000D02*
X67450001Y-59450000D01*
G75*
G02*
X67700000Y-59699999I0J-249999D01*
G01*
X67700000Y-60350001D01*
G75*
G02*
X67450001Y-60600000I-249999J0D01*
G01*
X66549999Y-60600000D01*
G75*
G02*
X66300000Y-60350001I0J249999D01*
G01*
X66300000Y-59699999D01*
G75*
G02*
X66549999Y-59450000I249999J0D01*
G01*
G37*
G36*
G01*
X66549999Y-57400000D02*
X67450001Y-57400000D01*
G75*
G02*
X67700000Y-57649999I0J-249999D01*
G01*
X67700000Y-58300001D01*
G75*
G02*
X67450001Y-58550000I-249999J0D01*
G01*
X66549999Y-58550000D01*
G75*
G02*
X66300000Y-58300001I0J249999D01*
G01*
X66300000Y-57649999D01*
G75*
G02*
X66549999Y-57400000I249999J0D01*
G01*
G37*
G36*
G01*
X236050000Y-129049999D02*
X236050000Y-129950001D01*
G75*
G02*
X235800001Y-130200000I-249999J0D01*
G01*
X235149999Y-130200000D01*
G75*
G02*
X234900000Y-129950001I0J249999D01*
G01*
X234900000Y-129049999D01*
G75*
G02*
X235149999Y-128800000I249999J0D01*
G01*
X235800001Y-128800000D01*
G75*
G02*
X236050000Y-129049999I0J-249999D01*
G01*
G37*
G36*
G01*
X238100000Y-129049999D02*
X238100000Y-129950001D01*
G75*
G02*
X237850001Y-130200000I-249999J0D01*
G01*
X237199999Y-130200000D01*
G75*
G02*
X236950000Y-129950001I0J249999D01*
G01*
X236950000Y-129049999D01*
G75*
G02*
X237199999Y-128800000I249999J0D01*
G01*
X237850001Y-128800000D01*
G75*
G02*
X238100000Y-129049999I0J-249999D01*
G01*
G37*
G36*
G01*
X240549999Y-134400000D02*
X241450001Y-134400000D01*
G75*
G02*
X241700000Y-134649999I0J-249999D01*
G01*
X241700000Y-135300001D01*
G75*
G02*
X241450001Y-135550000I-249999J0D01*
G01*
X240549999Y-135550000D01*
G75*
G02*
X240300000Y-135300001I0J249999D01*
G01*
X240300000Y-134649999D01*
G75*
G02*
X240549999Y-134400000I249999J0D01*
G01*
G37*
G36*
G01*
X240549999Y-136450000D02*
X241450001Y-136450000D01*
G75*
G02*
X241700000Y-136699999I0J-249999D01*
G01*
X241700000Y-137350001D01*
G75*
G02*
X241450001Y-137600000I-249999J0D01*
G01*
X240549999Y-137600000D01*
G75*
G02*
X240300000Y-137350001I0J249999D01*
G01*
X240300000Y-136699999D01*
G75*
G02*
X240549999Y-136450000I249999J0D01*
G01*
G37*
G36*
G01*
X233549999Y-136450000D02*
X234450001Y-136450000D01*
G75*
G02*
X234700000Y-136699999I0J-249999D01*
G01*
X234700000Y-137350001D01*
G75*
G02*
X234450001Y-137600000I-249999J0D01*
G01*
X233549999Y-137600000D01*
G75*
G02*
X233300000Y-137350001I0J249999D01*
G01*
X233300000Y-136699999D01*
G75*
G02*
X233549999Y-136450000I249999J0D01*
G01*
G37*
G36*
G01*
X233549999Y-134400000D02*
X234450001Y-134400000D01*
G75*
G02*
X234700000Y-134649999I0J-249999D01*
G01*
X234700000Y-135300001D01*
G75*
G02*
X234450001Y-135550000I-249999J0D01*
G01*
X233549999Y-135550000D01*
G75*
G02*
X233300000Y-135300001I0J249999D01*
G01*
X233300000Y-134649999D01*
G75*
G02*
X233549999Y-134400000I249999J0D01*
G01*
G37*
G36*
G01*
X214049999Y-121450000D02*
X214950001Y-121450000D01*
G75*
G02*
X215200000Y-121699999I0J-249999D01*
G01*
X215200000Y-122350001D01*
G75*
G02*
X214950001Y-122600000I-249999J0D01*
G01*
X214049999Y-122600000D01*
G75*
G02*
X213800000Y-122350001I0J249999D01*
G01*
X213800000Y-121699999D01*
G75*
G02*
X214049999Y-121450000I249999J0D01*
G01*
G37*
G36*
G01*
X214049999Y-119400000D02*
X214950001Y-119400000D01*
G75*
G02*
X215200000Y-119649999I0J-249999D01*
G01*
X215200000Y-120300001D01*
G75*
G02*
X214950001Y-120550000I-249999J0D01*
G01*
X214049999Y-120550000D01*
G75*
G02*
X213800000Y-120300001I0J249999D01*
G01*
X213800000Y-119649999D01*
G75*
G02*
X214049999Y-119400000I249999J0D01*
G01*
G37*
G36*
G01*
X58550000Y-114549999D02*
X58550000Y-115450001D01*
G75*
G02*
X58300001Y-115700000I-249999J0D01*
G01*
X57649999Y-115700000D01*
G75*
G02*
X57400000Y-115450001I0J249999D01*
G01*
X57400000Y-114549999D01*
G75*
G02*
X57649999Y-114300000I249999J0D01*
G01*
X58300001Y-114300000D01*
G75*
G02*
X58550000Y-114549999I0J-249999D01*
G01*
G37*
G36*
G01*
X60600000Y-114549999D02*
X60600000Y-115450001D01*
G75*
G02*
X60350001Y-115700000I-249999J0D01*
G01*
X59699999Y-115700000D01*
G75*
G02*
X59450000Y-115450001I0J249999D01*
G01*
X59450000Y-114549999D01*
G75*
G02*
X59699999Y-114300000I249999J0D01*
G01*
X60350001Y-114300000D01*
G75*
G02*
X60600000Y-114549999I0J-249999D01*
G01*
G37*
G36*
G01*
X62400000Y-126450001D02*
X62400000Y-125549999D01*
G75*
G02*
X62649999Y-125300000I249999J0D01*
G01*
X63300001Y-125300000D01*
G75*
G02*
X63550000Y-125549999I0J-249999D01*
G01*
X63550000Y-126450001D01*
G75*
G02*
X63300001Y-126700000I-249999J0D01*
G01*
X62649999Y-126700000D01*
G75*
G02*
X62400000Y-126450001I0J249999D01*
G01*
G37*
G36*
G01*
X64450000Y-126450001D02*
X64450000Y-125549999D01*
G75*
G02*
X64699999Y-125300000I249999J0D01*
G01*
X65350001Y-125300000D01*
G75*
G02*
X65600000Y-125549999I0J-249999D01*
G01*
X65600000Y-126450001D01*
G75*
G02*
X65350001Y-126700000I-249999J0D01*
G01*
X64699999Y-126700000D01*
G75*
G02*
X64450000Y-126450001I0J249999D01*
G01*
G37*
G36*
G01*
X58550000Y-118549999D02*
X58550000Y-119450001D01*
G75*
G02*
X58300001Y-119700000I-249999J0D01*
G01*
X57649999Y-119700000D01*
G75*
G02*
X57400000Y-119450001I0J249999D01*
G01*
X57400000Y-118549999D01*
G75*
G02*
X57649999Y-118300000I249999J0D01*
G01*
X58300001Y-118300000D01*
G75*
G02*
X58550000Y-118549999I0J-249999D01*
G01*
G37*
G36*
G01*
X60600000Y-118549999D02*
X60600000Y-119450001D01*
G75*
G02*
X60350001Y-119700000I-249999J0D01*
G01*
X59699999Y-119700000D01*
G75*
G02*
X59450000Y-119450001I0J249999D01*
G01*
X59450000Y-118549999D01*
G75*
G02*
X59699999Y-118300000I249999J0D01*
G01*
X60350001Y-118300000D01*
G75*
G02*
X60600000Y-118549999I0J-249999D01*
G01*
G37*
G36*
G01*
X62400000Y-123450001D02*
X62400000Y-122549999D01*
G75*
G02*
X62649999Y-122300000I249999J0D01*
G01*
X63300001Y-122300000D01*
G75*
G02*
X63550000Y-122549999I0J-249999D01*
G01*
X63550000Y-123450001D01*
G75*
G02*
X63300001Y-123700000I-249999J0D01*
G01*
X62649999Y-123700000D01*
G75*
G02*
X62400000Y-123450001I0J249999D01*
G01*
G37*
G36*
G01*
X64450000Y-123450001D02*
X64450000Y-122549999D01*
G75*
G02*
X64699999Y-122300000I249999J0D01*
G01*
X65350001Y-122300000D01*
G75*
G02*
X65600000Y-122549999I0J-249999D01*
G01*
X65600000Y-123450001D01*
G75*
G02*
X65350001Y-123700000I-249999J0D01*
G01*
X64699999Y-123700000D01*
G75*
G02*
X64450000Y-123450001I0J249999D01*
G01*
G37*
G36*
G01*
X54600000Y-102549999D02*
X54600000Y-103450001D01*
G75*
G02*
X54350001Y-103700000I-249999J0D01*
G01*
X53699999Y-103700000D01*
G75*
G02*
X53450000Y-103450001I0J249999D01*
G01*
X53450000Y-102549999D01*
G75*
G02*
X53699999Y-102300000I249999J0D01*
G01*
X54350001Y-102300000D01*
G75*
G02*
X54600000Y-102549999I0J-249999D01*
G01*
G37*
G36*
G01*
X52550000Y-102549999D02*
X52550000Y-103450001D01*
G75*
G02*
X52300001Y-103700000I-249999J0D01*
G01*
X51649999Y-103700000D01*
G75*
G02*
X51400000Y-103450001I0J249999D01*
G01*
X51400000Y-102549999D01*
G75*
G02*
X51649999Y-102300000I249999J0D01*
G01*
X52300001Y-102300000D01*
G75*
G02*
X52550000Y-102549999I0J-249999D01*
G01*
G37*
G36*
G01*
X52550000Y-111549999D02*
X52550000Y-112450001D01*
G75*
G02*
X52300001Y-112700000I-249999J0D01*
G01*
X51649999Y-112700000D01*
G75*
G02*
X51400000Y-112450001I0J249999D01*
G01*
X51400000Y-111549999D01*
G75*
G02*
X51649999Y-111300000I249999J0D01*
G01*
X52300001Y-111300000D01*
G75*
G02*
X52550000Y-111549999I0J-249999D01*
G01*
G37*
G36*
G01*
X54600000Y-111549999D02*
X54600000Y-112450001D01*
G75*
G02*
X54350001Y-112700000I-249999J0D01*
G01*
X53699999Y-112700000D01*
G75*
G02*
X53450000Y-112450001I0J249999D01*
G01*
X53450000Y-111549999D01*
G75*
G02*
X53699999Y-111300000I249999J0D01*
G01*
X54350001Y-111300000D01*
G75*
G02*
X54600000Y-111549999I0J-249999D01*
G01*
G37*
G36*
G01*
X54600000Y-107549999D02*
X54600000Y-108450001D01*
G75*
G02*
X54350001Y-108700000I-249999J0D01*
G01*
X53699999Y-108700000D01*
G75*
G02*
X53450000Y-108450001I0J249999D01*
G01*
X53450000Y-107549999D01*
G75*
G02*
X53699999Y-107300000I249999J0D01*
G01*
X54350001Y-107300000D01*
G75*
G02*
X54600000Y-107549999I0J-249999D01*
G01*
G37*
G36*
G01*
X52550000Y-107549999D02*
X52550000Y-108450001D01*
G75*
G02*
X52300001Y-108700000I-249999J0D01*
G01*
X51649999Y-108700000D01*
G75*
G02*
X51400000Y-108450001I0J249999D01*
G01*
X51400000Y-107549999D01*
G75*
G02*
X51649999Y-107300000I249999J0D01*
G01*
X52300001Y-107300000D01*
G75*
G02*
X52550000Y-107549999I0J-249999D01*
G01*
G37*
G36*
G01*
X56550000Y-132549999D02*
X56550000Y-133450001D01*
G75*
G02*
X56300001Y-133700000I-249999J0D01*
G01*
X55649999Y-133700000D01*
G75*
G02*
X55400000Y-133450001I0J249999D01*
G01*
X55400000Y-132549999D01*
G75*
G02*
X55649999Y-132300000I249999J0D01*
G01*
X56300001Y-132300000D01*
G75*
G02*
X56550000Y-132549999I0J-249999D01*
G01*
G37*
G36*
G01*
X58600000Y-132549999D02*
X58600000Y-133450001D01*
G75*
G02*
X58350001Y-133700000I-249999J0D01*
G01*
X57699999Y-133700000D01*
G75*
G02*
X57450000Y-133450001I0J249999D01*
G01*
X57450000Y-132549999D01*
G75*
G02*
X57699999Y-132300000I249999J0D01*
G01*
X58350001Y-132300000D01*
G75*
G02*
X58600000Y-132549999I0J-249999D01*
G01*
G37*
G36*
G01*
X56550000Y-135549999D02*
X56550000Y-136450001D01*
G75*
G02*
X56300001Y-136700000I-249999J0D01*
G01*
X55649999Y-136700000D01*
G75*
G02*
X55400000Y-136450001I0J249999D01*
G01*
X55400000Y-135549999D01*
G75*
G02*
X55649999Y-135300000I249999J0D01*
G01*
X56300001Y-135300000D01*
G75*
G02*
X56550000Y-135549999I0J-249999D01*
G01*
G37*
G36*
G01*
X58600000Y-135549999D02*
X58600000Y-136450001D01*
G75*
G02*
X58350001Y-136700000I-249999J0D01*
G01*
X57699999Y-136700000D01*
G75*
G02*
X57450000Y-136450001I0J249999D01*
G01*
X57450000Y-135549999D01*
G75*
G02*
X57699999Y-135300000I249999J0D01*
G01*
X58350001Y-135300000D01*
G75*
G02*
X58600000Y-135549999I0J-249999D01*
G01*
G37*
G36*
G01*
X62550000Y-140549999D02*
X62550000Y-141450001D01*
G75*
G02*
X62300001Y-141700000I-249999J0D01*
G01*
X61649999Y-141700000D01*
G75*
G02*
X61400000Y-141450001I0J249999D01*
G01*
X61400000Y-140549999D01*
G75*
G02*
X61649999Y-140300000I249999J0D01*
G01*
X62300001Y-140300000D01*
G75*
G02*
X62550000Y-140549999I0J-249999D01*
G01*
G37*
G36*
G01*
X64600000Y-140549999D02*
X64600000Y-141450001D01*
G75*
G02*
X64350001Y-141700000I-249999J0D01*
G01*
X63699999Y-141700000D01*
G75*
G02*
X63450000Y-141450001I0J249999D01*
G01*
X63450000Y-140549999D01*
G75*
G02*
X63699999Y-140300000I249999J0D01*
G01*
X64350001Y-140300000D01*
G75*
G02*
X64600000Y-140549999I0J-249999D01*
G01*
G37*
G36*
G01*
X58550000Y-122549999D02*
X58550000Y-123450001D01*
G75*
G02*
X58300001Y-123700000I-249999J0D01*
G01*
X57649999Y-123700000D01*
G75*
G02*
X57400000Y-123450001I0J249999D01*
G01*
X57400000Y-122549999D01*
G75*
G02*
X57649999Y-122300000I249999J0D01*
G01*
X58300001Y-122300000D01*
G75*
G02*
X58550000Y-122549999I0J-249999D01*
G01*
G37*
G36*
G01*
X60600000Y-122549999D02*
X60600000Y-123450001D01*
G75*
G02*
X60350001Y-123700000I-249999J0D01*
G01*
X59699999Y-123700000D01*
G75*
G02*
X59450000Y-123450001I0J249999D01*
G01*
X59450000Y-122549999D01*
G75*
G02*
X59699999Y-122300000I249999J0D01*
G01*
X60350001Y-122300000D01*
G75*
G02*
X60600000Y-122549999I0J-249999D01*
G01*
G37*
G36*
G01*
X60600000Y-125549999D02*
X60600000Y-126450001D01*
G75*
G02*
X60350001Y-126700000I-249999J0D01*
G01*
X59699999Y-126700000D01*
G75*
G02*
X59450000Y-126450001I0J249999D01*
G01*
X59450000Y-125549999D01*
G75*
G02*
X59699999Y-125300000I249999J0D01*
G01*
X60350001Y-125300000D01*
G75*
G02*
X60600000Y-125549999I0J-249999D01*
G01*
G37*
G36*
G01*
X58550000Y-125549999D02*
X58550000Y-126450001D01*
G75*
G02*
X58300001Y-126700000I-249999J0D01*
G01*
X57649999Y-126700000D01*
G75*
G02*
X57400000Y-126450001I0J249999D01*
G01*
X57400000Y-125549999D01*
G75*
G02*
X57649999Y-125300000I249999J0D01*
G01*
X58300001Y-125300000D01*
G75*
G02*
X58550000Y-125549999I0J-249999D01*
G01*
G37*
G36*
G01*
X74450000Y-145450001D02*
X74450000Y-144549999D01*
G75*
G02*
X74699999Y-144300000I249999J0D01*
G01*
X75350001Y-144300000D01*
G75*
G02*
X75600000Y-144549999I0J-249999D01*
G01*
X75600000Y-145450001D01*
G75*
G02*
X75350001Y-145700000I-249999J0D01*
G01*
X74699999Y-145700000D01*
G75*
G02*
X74450000Y-145450001I0J249999D01*
G01*
G37*
G36*
G01*
X72400000Y-145450001D02*
X72400000Y-144549999D01*
G75*
G02*
X72649999Y-144300000I249999J0D01*
G01*
X73300001Y-144300000D01*
G75*
G02*
X73550000Y-144549999I0J-249999D01*
G01*
X73550000Y-145450001D01*
G75*
G02*
X73300001Y-145700000I-249999J0D01*
G01*
X72649999Y-145700000D01*
G75*
G02*
X72400000Y-145450001I0J249999D01*
G01*
G37*
G36*
G01*
X72400000Y-141450001D02*
X72400000Y-140549999D01*
G75*
G02*
X72649999Y-140300000I249999J0D01*
G01*
X73300001Y-140300000D01*
G75*
G02*
X73550000Y-140549999I0J-249999D01*
G01*
X73550000Y-141450001D01*
G75*
G02*
X73300001Y-141700000I-249999J0D01*
G01*
X72649999Y-141700000D01*
G75*
G02*
X72400000Y-141450001I0J249999D01*
G01*
G37*
G36*
G01*
X74450000Y-141450001D02*
X74450000Y-140549999D01*
G75*
G02*
X74699999Y-140300000I249999J0D01*
G01*
X75350001Y-140300000D01*
G75*
G02*
X75600000Y-140549999I0J-249999D01*
G01*
X75600000Y-141450001D01*
G75*
G02*
X75350001Y-141700000I-249999J0D01*
G01*
X74699999Y-141700000D01*
G75*
G02*
X74450000Y-141450001I0J249999D01*
G01*
G37*
G36*
G01*
X77400000Y-145450001D02*
X77400000Y-144549999D01*
G75*
G02*
X77649999Y-144300000I249999J0D01*
G01*
X78300001Y-144300000D01*
G75*
G02*
X78550000Y-144549999I0J-249999D01*
G01*
X78550000Y-145450001D01*
G75*
G02*
X78300001Y-145700000I-249999J0D01*
G01*
X77649999Y-145700000D01*
G75*
G02*
X77400000Y-145450001I0J249999D01*
G01*
G37*
G36*
G01*
X79450000Y-145450001D02*
X79450000Y-144549999D01*
G75*
G02*
X79699999Y-144300000I249999J0D01*
G01*
X80350001Y-144300000D01*
G75*
G02*
X80600000Y-144549999I0J-249999D01*
G01*
X80600000Y-145450001D01*
G75*
G02*
X80350001Y-145700000I-249999J0D01*
G01*
X79699999Y-145700000D01*
G75*
G02*
X79450000Y-145450001I0J249999D01*
G01*
G37*
G36*
G01*
X79450000Y-141450001D02*
X79450000Y-140549999D01*
G75*
G02*
X79699999Y-140300000I249999J0D01*
G01*
X80350001Y-140300000D01*
G75*
G02*
X80600000Y-140549999I0J-249999D01*
G01*
X80600000Y-141450001D01*
G75*
G02*
X80350001Y-141700000I-249999J0D01*
G01*
X79699999Y-141700000D01*
G75*
G02*
X79450000Y-141450001I0J249999D01*
G01*
G37*
G36*
G01*
X77400000Y-141450001D02*
X77400000Y-140549999D01*
G75*
G02*
X77649999Y-140300000I249999J0D01*
G01*
X78300001Y-140300000D01*
G75*
G02*
X78550000Y-140549999I0J-249999D01*
G01*
X78550000Y-141450001D01*
G75*
G02*
X78300001Y-141700000I-249999J0D01*
G01*
X77649999Y-141700000D01*
G75*
G02*
X77400000Y-141450001I0J249999D01*
G01*
G37*
G36*
G01*
X100450001Y-71550000D02*
X99549999Y-71550000D01*
G75*
G02*
X99300000Y-71300001I0J249999D01*
G01*
X99300000Y-70649999D01*
G75*
G02*
X99549999Y-70400000I249999J0D01*
G01*
X100450001Y-70400000D01*
G75*
G02*
X100700000Y-70649999I0J-249999D01*
G01*
X100700000Y-71300001D01*
G75*
G02*
X100450001Y-71550000I-249999J0D01*
G01*
G37*
G36*
G01*
X100450001Y-73600000D02*
X99549999Y-73600000D01*
G75*
G02*
X99300000Y-73350001I0J249999D01*
G01*
X99300000Y-72699999D01*
G75*
G02*
X99549999Y-72450000I249999J0D01*
G01*
X100450001Y-72450000D01*
G75*
G02*
X100700000Y-72699999I0J-249999D01*
G01*
X100700000Y-73350001D01*
G75*
G02*
X100450001Y-73600000I-249999J0D01*
G01*
G37*
G36*
G01*
X108450000Y-145450001D02*
X108450000Y-144549999D01*
G75*
G02*
X108699999Y-144300000I249999J0D01*
G01*
X109350001Y-144300000D01*
G75*
G02*
X109600000Y-144549999I0J-249999D01*
G01*
X109600000Y-145450001D01*
G75*
G02*
X109350001Y-145700000I-249999J0D01*
G01*
X108699999Y-145700000D01*
G75*
G02*
X108450000Y-145450001I0J249999D01*
G01*
G37*
G36*
G01*
X106400000Y-145450001D02*
X106400000Y-144549999D01*
G75*
G02*
X106649999Y-144300000I249999J0D01*
G01*
X107300001Y-144300000D01*
G75*
G02*
X107550000Y-144549999I0J-249999D01*
G01*
X107550000Y-145450001D01*
G75*
G02*
X107300001Y-145700000I-249999J0D01*
G01*
X106649999Y-145700000D01*
G75*
G02*
X106400000Y-145450001I0J249999D01*
G01*
G37*
G36*
G01*
X135549999Y-141400000D02*
X136450001Y-141400000D01*
G75*
G02*
X136700000Y-141649999I0J-249999D01*
G01*
X136700000Y-142300001D01*
G75*
G02*
X136450001Y-142550000I-249999J0D01*
G01*
X135549999Y-142550000D01*
G75*
G02*
X135300000Y-142300001I0J249999D01*
G01*
X135300000Y-141649999D01*
G75*
G02*
X135549999Y-141400000I249999J0D01*
G01*
G37*
G36*
G01*
X135549999Y-143450000D02*
X136450001Y-143450000D01*
G75*
G02*
X136700000Y-143699999I0J-249999D01*
G01*
X136700000Y-144350001D01*
G75*
G02*
X136450001Y-144600000I-249999J0D01*
G01*
X135549999Y-144600000D01*
G75*
G02*
X135300000Y-144350001I0J249999D01*
G01*
X135300000Y-143699999D01*
G75*
G02*
X135549999Y-143450000I249999J0D01*
G01*
G37*
G36*
G01*
X93600000Y-136549999D02*
X93600000Y-137450001D01*
G75*
G02*
X93350001Y-137700000I-249999J0D01*
G01*
X92699999Y-137700000D01*
G75*
G02*
X92450000Y-137450001I0J249999D01*
G01*
X92450000Y-136549999D01*
G75*
G02*
X92699999Y-136300000I249999J0D01*
G01*
X93350001Y-136300000D01*
G75*
G02*
X93600000Y-136549999I0J-249999D01*
G01*
G37*
G36*
G01*
X91550000Y-136549999D02*
X91550000Y-137450001D01*
G75*
G02*
X91300001Y-137700000I-249999J0D01*
G01*
X90649999Y-137700000D01*
G75*
G02*
X90400000Y-137450001I0J249999D01*
G01*
X90400000Y-136549999D01*
G75*
G02*
X90649999Y-136300000I249999J0D01*
G01*
X91300001Y-136300000D01*
G75*
G02*
X91550000Y-136549999I0J-249999D01*
G01*
G37*
D15*
X86000000Y-136952000D03*
X86000000Y-143048000D03*
G36*
G01*
X133900000Y-136450001D02*
X133900000Y-135549999D01*
G75*
G02*
X134149999Y-135300000I249999J0D01*
G01*
X134800001Y-135300000D01*
G75*
G02*
X135050000Y-135549999I0J-249999D01*
G01*
X135050000Y-136450001D01*
G75*
G02*
X134800001Y-136700000I-249999J0D01*
G01*
X134149999Y-136700000D01*
G75*
G02*
X133900000Y-136450001I0J249999D01*
G01*
G37*
G36*
G01*
X135950000Y-136450001D02*
X135950000Y-135549999D01*
G75*
G02*
X136199999Y-135300000I249999J0D01*
G01*
X136850001Y-135300000D01*
G75*
G02*
X137100000Y-135549999I0J-249999D01*
G01*
X137100000Y-136450001D01*
G75*
G02*
X136850001Y-136700000I-249999J0D01*
G01*
X136199999Y-136700000D01*
G75*
G02*
X135950000Y-136450001I0J249999D01*
G01*
G37*
G36*
G01*
X108450001Y-134550000D02*
X107549999Y-134550000D01*
G75*
G02*
X107300000Y-134300001I0J249999D01*
G01*
X107300000Y-133649999D01*
G75*
G02*
X107549999Y-133400000I249999J0D01*
G01*
X108450001Y-133400000D01*
G75*
G02*
X108700000Y-133649999I0J-249999D01*
G01*
X108700000Y-134300001D01*
G75*
G02*
X108450001Y-134550000I-249999J0D01*
G01*
G37*
G36*
G01*
X108450001Y-136600000D02*
X107549999Y-136600000D01*
G75*
G02*
X107300000Y-136350001I0J249999D01*
G01*
X107300000Y-135699999D01*
G75*
G02*
X107549999Y-135450000I249999J0D01*
G01*
X108450001Y-135450000D01*
G75*
G02*
X108700000Y-135699999I0J-249999D01*
G01*
X108700000Y-136350001D01*
G75*
G02*
X108450001Y-136600000I-249999J0D01*
G01*
G37*
G36*
G01*
X135950001Y-127600000D02*
X135049999Y-127600000D01*
G75*
G02*
X134800000Y-127350001I0J249999D01*
G01*
X134800000Y-126699999D01*
G75*
G02*
X135049999Y-126450000I249999J0D01*
G01*
X135950001Y-126450000D01*
G75*
G02*
X136200000Y-126699999I0J-249999D01*
G01*
X136200000Y-127350001D01*
G75*
G02*
X135950001Y-127600000I-249999J0D01*
G01*
G37*
G36*
G01*
X135950001Y-125550000D02*
X135049999Y-125550000D01*
G75*
G02*
X134800000Y-125300001I0J249999D01*
G01*
X134800000Y-124649999D01*
G75*
G02*
X135049999Y-124400000I249999J0D01*
G01*
X135950001Y-124400000D01*
G75*
G02*
X136200000Y-124649999I0J-249999D01*
G01*
X136200000Y-125300001D01*
G75*
G02*
X135950001Y-125550000I-249999J0D01*
G01*
G37*
G36*
G01*
X215400000Y-96450001D02*
X215400000Y-95549999D01*
G75*
G02*
X215649999Y-95300000I249999J0D01*
G01*
X216300001Y-95300000D01*
G75*
G02*
X216550000Y-95549999I0J-249999D01*
G01*
X216550000Y-96450001D01*
G75*
G02*
X216300001Y-96700000I-249999J0D01*
G01*
X215649999Y-96700000D01*
G75*
G02*
X215400000Y-96450001I0J249999D01*
G01*
G37*
G36*
G01*
X217450000Y-96450001D02*
X217450000Y-95549999D01*
G75*
G02*
X217699999Y-95300000I249999J0D01*
G01*
X218350001Y-95300000D01*
G75*
G02*
X218600000Y-95549999I0J-249999D01*
G01*
X218600000Y-96450001D01*
G75*
G02*
X218350001Y-96700000I-249999J0D01*
G01*
X217699999Y-96700000D01*
G75*
G02*
X217450000Y-96450001I0J249999D01*
G01*
G37*
G36*
G01*
X147500000Y-114050001D02*
X147500000Y-113149999D01*
G75*
G02*
X147749999Y-112900000I249999J0D01*
G01*
X148400001Y-112900000D01*
G75*
G02*
X148650000Y-113149999I0J-249999D01*
G01*
X148650000Y-114050001D01*
G75*
G02*
X148400001Y-114300000I-249999J0D01*
G01*
X147749999Y-114300000D01*
G75*
G02*
X147500000Y-114050001I0J249999D01*
G01*
G37*
G36*
G01*
X149550000Y-114050001D02*
X149550000Y-113149999D01*
G75*
G02*
X149799999Y-112900000I249999J0D01*
G01*
X150450001Y-112900000D01*
G75*
G02*
X150700000Y-113149999I0J-249999D01*
G01*
X150700000Y-114050001D01*
G75*
G02*
X150450001Y-114300000I-249999J0D01*
G01*
X149799999Y-114300000D01*
G75*
G02*
X149550000Y-114050001I0J249999D01*
G01*
G37*
G36*
G01*
X162549999Y-124450000D02*
X163450001Y-124450000D01*
G75*
G02*
X163700000Y-124699999I0J-249999D01*
G01*
X163700000Y-125350001D01*
G75*
G02*
X163450001Y-125600000I-249999J0D01*
G01*
X162549999Y-125600000D01*
G75*
G02*
X162300000Y-125350001I0J249999D01*
G01*
X162300000Y-124699999D01*
G75*
G02*
X162549999Y-124450000I249999J0D01*
G01*
G37*
G36*
G01*
X162549999Y-122400000D02*
X163450001Y-122400000D01*
G75*
G02*
X163700000Y-122649999I0J-249999D01*
G01*
X163700000Y-123300001D01*
G75*
G02*
X163450001Y-123550000I-249999J0D01*
G01*
X162549999Y-123550000D01*
G75*
G02*
X162300000Y-123300001I0J249999D01*
G01*
X162300000Y-122649999D01*
G75*
G02*
X162549999Y-122400000I249999J0D01*
G01*
G37*
G36*
G01*
X142049999Y-107450000D02*
X142950001Y-107450000D01*
G75*
G02*
X143200000Y-107699999I0J-249999D01*
G01*
X143200000Y-108350001D01*
G75*
G02*
X142950001Y-108600000I-249999J0D01*
G01*
X142049999Y-108600000D01*
G75*
G02*
X141800000Y-108350001I0J249999D01*
G01*
X141800000Y-107699999D01*
G75*
G02*
X142049999Y-107450000I249999J0D01*
G01*
G37*
G36*
G01*
X142049999Y-105400000D02*
X142950001Y-105400000D01*
G75*
G02*
X143200000Y-105649999I0J-249999D01*
G01*
X143200000Y-106300001D01*
G75*
G02*
X142950001Y-106550000I-249999J0D01*
G01*
X142049999Y-106550000D01*
G75*
G02*
X141800000Y-106300001I0J249999D01*
G01*
X141800000Y-105649999D01*
G75*
G02*
X142049999Y-105400000I249999J0D01*
G01*
G37*
G36*
G01*
X66550000Y-54549999D02*
X66550000Y-55450001D01*
G75*
G02*
X66300001Y-55700000I-249999J0D01*
G01*
X65649999Y-55700000D01*
G75*
G02*
X65400000Y-55450001I0J249999D01*
G01*
X65400000Y-54549999D01*
G75*
G02*
X65649999Y-54300000I249999J0D01*
G01*
X66300001Y-54300000D01*
G75*
G02*
X66550000Y-54549999I0J-249999D01*
G01*
G37*
G36*
G01*
X68600000Y-54549999D02*
X68600000Y-55450001D01*
G75*
G02*
X68350001Y-55700000I-249999J0D01*
G01*
X67699999Y-55700000D01*
G75*
G02*
X67450000Y-55450001I0J249999D01*
G01*
X67450000Y-54549999D01*
G75*
G02*
X67699999Y-54300000I249999J0D01*
G01*
X68350001Y-54300000D01*
G75*
G02*
X68600000Y-54549999I0J-249999D01*
G01*
G37*
G36*
G01*
X77600000Y-56549999D02*
X77600000Y-57450001D01*
G75*
G02*
X77350001Y-57700000I-249999J0D01*
G01*
X76699999Y-57700000D01*
G75*
G02*
X76450000Y-57450001I0J249999D01*
G01*
X76450000Y-56549999D01*
G75*
G02*
X76699999Y-56300000I249999J0D01*
G01*
X77350001Y-56300000D01*
G75*
G02*
X77600000Y-56549999I0J-249999D01*
G01*
G37*
G36*
G01*
X75550000Y-56549999D02*
X75550000Y-57450001D01*
G75*
G02*
X75300001Y-57700000I-249999J0D01*
G01*
X74649999Y-57700000D01*
G75*
G02*
X74400000Y-57450001I0J249999D01*
G01*
X74400000Y-56549999D01*
G75*
G02*
X74649999Y-56300000I249999J0D01*
G01*
X75300001Y-56300000D01*
G75*
G02*
X75550000Y-56549999I0J-249999D01*
G01*
G37*
G36*
G01*
X69600000Y-78549999D02*
X69600000Y-79450001D01*
G75*
G02*
X69350001Y-79700000I-249999J0D01*
G01*
X68699999Y-79700000D01*
G75*
G02*
X68450000Y-79450001I0J249999D01*
G01*
X68450000Y-78549999D01*
G75*
G02*
X68699999Y-78300000I249999J0D01*
G01*
X69350001Y-78300000D01*
G75*
G02*
X69600000Y-78549999I0J-249999D01*
G01*
G37*
G36*
G01*
X67550000Y-78549999D02*
X67550000Y-79450001D01*
G75*
G02*
X67300001Y-79700000I-249999J0D01*
G01*
X66649999Y-79700000D01*
G75*
G02*
X66400000Y-79450001I0J249999D01*
G01*
X66400000Y-78549999D01*
G75*
G02*
X66649999Y-78300000I249999J0D01*
G01*
X67300001Y-78300000D01*
G75*
G02*
X67550000Y-78549999I0J-249999D01*
G01*
G37*
G36*
G01*
X62450001Y-78550000D02*
X61549999Y-78550000D01*
G75*
G02*
X61300000Y-78300001I0J249999D01*
G01*
X61300000Y-77649999D01*
G75*
G02*
X61549999Y-77400000I249999J0D01*
G01*
X62450001Y-77400000D01*
G75*
G02*
X62700000Y-77649999I0J-249999D01*
G01*
X62700000Y-78300001D01*
G75*
G02*
X62450001Y-78550000I-249999J0D01*
G01*
G37*
G36*
G01*
X62450001Y-80600000D02*
X61549999Y-80600000D01*
G75*
G02*
X61300000Y-80350001I0J249999D01*
G01*
X61300000Y-79699999D01*
G75*
G02*
X61549999Y-79450000I249999J0D01*
G01*
X62450001Y-79450000D01*
G75*
G02*
X62700000Y-79699999I0J-249999D01*
G01*
X62700000Y-80350001D01*
G75*
G02*
X62450001Y-80600000I-249999J0D01*
G01*
G37*
G36*
G01*
X56400000Y-83450001D02*
X56400000Y-82549999D01*
G75*
G02*
X56649999Y-82300000I249999J0D01*
G01*
X57300001Y-82300000D01*
G75*
G02*
X57550000Y-82549999I0J-249999D01*
G01*
X57550000Y-83450001D01*
G75*
G02*
X57300001Y-83700000I-249999J0D01*
G01*
X56649999Y-83700000D01*
G75*
G02*
X56400000Y-83450001I0J249999D01*
G01*
G37*
G36*
G01*
X58450000Y-83450001D02*
X58450000Y-82549999D01*
G75*
G02*
X58699999Y-82300000I249999J0D01*
G01*
X59350001Y-82300000D01*
G75*
G02*
X59600000Y-82549999I0J-249999D01*
G01*
X59600000Y-83450001D01*
G75*
G02*
X59350001Y-83700000I-249999J0D01*
G01*
X58699999Y-83700000D01*
G75*
G02*
X58450000Y-83450001I0J249999D01*
G01*
G37*
G36*
G01*
X53450000Y-83450001D02*
X53450000Y-82549999D01*
G75*
G02*
X53699999Y-82300000I249999J0D01*
G01*
X54350001Y-82300000D01*
G75*
G02*
X54600000Y-82549999I0J-249999D01*
G01*
X54600000Y-83450001D01*
G75*
G02*
X54350001Y-83700000I-249999J0D01*
G01*
X53699999Y-83700000D01*
G75*
G02*
X53450000Y-83450001I0J249999D01*
G01*
G37*
G36*
G01*
X51400000Y-83450001D02*
X51400000Y-82549999D01*
G75*
G02*
X51649999Y-82300000I249999J0D01*
G01*
X52300001Y-82300000D01*
G75*
G02*
X52550000Y-82549999I0J-249999D01*
G01*
X52550000Y-83450001D01*
G75*
G02*
X52300001Y-83700000I-249999J0D01*
G01*
X51649999Y-83700000D01*
G75*
G02*
X51400000Y-83450001I0J249999D01*
G01*
G37*
G36*
G01*
X57600000Y-79549999D02*
X57600000Y-80450001D01*
G75*
G02*
X57350001Y-80700000I-249999J0D01*
G01*
X56699999Y-80700000D01*
G75*
G02*
X56450000Y-80450001I0J249999D01*
G01*
X56450000Y-79549999D01*
G75*
G02*
X56699999Y-79300000I249999J0D01*
G01*
X57350001Y-79300000D01*
G75*
G02*
X57600000Y-79549999I0J-249999D01*
G01*
G37*
G36*
G01*
X55550000Y-79549999D02*
X55550000Y-80450001D01*
G75*
G02*
X55300001Y-80700000I-249999J0D01*
G01*
X54649999Y-80700000D01*
G75*
G02*
X54400000Y-80450001I0J249999D01*
G01*
X54400000Y-79549999D01*
G75*
G02*
X54649999Y-79300000I249999J0D01*
G01*
X55300001Y-79300000D01*
G75*
G02*
X55550000Y-79549999I0J-249999D01*
G01*
G37*
G36*
G01*
X74450001Y-73550000D02*
X73549999Y-73550000D01*
G75*
G02*
X73300000Y-73300001I0J249999D01*
G01*
X73300000Y-72649999D01*
G75*
G02*
X73549999Y-72400000I249999J0D01*
G01*
X74450001Y-72400000D01*
G75*
G02*
X74700000Y-72649999I0J-249999D01*
G01*
X74700000Y-73300001D01*
G75*
G02*
X74450001Y-73550000I-249999J0D01*
G01*
G37*
G36*
G01*
X74450001Y-75600000D02*
X73549999Y-75600000D01*
G75*
G02*
X73300000Y-75350001I0J249999D01*
G01*
X73300000Y-74699999D01*
G75*
G02*
X73549999Y-74450000I249999J0D01*
G01*
X74450001Y-74450000D01*
G75*
G02*
X74700000Y-74699999I0J-249999D01*
G01*
X74700000Y-75350001D01*
G75*
G02*
X74450001Y-75600000I-249999J0D01*
G01*
G37*
G36*
G01*
X122450001Y-77600000D02*
X121549999Y-77600000D01*
G75*
G02*
X121300000Y-77350001I0J249999D01*
G01*
X121300000Y-76699999D01*
G75*
G02*
X121549999Y-76450000I249999J0D01*
G01*
X122450001Y-76450000D01*
G75*
G02*
X122700000Y-76699999I0J-249999D01*
G01*
X122700000Y-77350001D01*
G75*
G02*
X122450001Y-77600000I-249999J0D01*
G01*
G37*
G36*
G01*
X122450001Y-75550000D02*
X121549999Y-75550000D01*
G75*
G02*
X121300000Y-75300001I0J249999D01*
G01*
X121300000Y-74649999D01*
G75*
G02*
X121549999Y-74400000I249999J0D01*
G01*
X122450001Y-74400000D01*
G75*
G02*
X122700000Y-74649999I0J-249999D01*
G01*
X122700000Y-75300001D01*
G75*
G02*
X122450001Y-75550000I-249999J0D01*
G01*
G37*
G36*
G01*
X153049999Y-58450000D02*
X153950001Y-58450000D01*
G75*
G02*
X154200000Y-58699999I0J-249999D01*
G01*
X154200000Y-59350001D01*
G75*
G02*
X153950001Y-59600000I-249999J0D01*
G01*
X153049999Y-59600000D01*
G75*
G02*
X152800000Y-59350001I0J249999D01*
G01*
X152800000Y-58699999D01*
G75*
G02*
X153049999Y-58450000I249999J0D01*
G01*
G37*
G36*
G01*
X153049999Y-56400000D02*
X153950001Y-56400000D01*
G75*
G02*
X154200000Y-56649999I0J-249999D01*
G01*
X154200000Y-57300001D01*
G75*
G02*
X153950001Y-57550000I-249999J0D01*
G01*
X153049999Y-57550000D01*
G75*
G02*
X152800000Y-57300001I0J249999D01*
G01*
X152800000Y-56649999D01*
G75*
G02*
X153049999Y-56400000I249999J0D01*
G01*
G37*
G36*
G01*
X168950001Y-77600000D02*
X168049999Y-77600000D01*
G75*
G02*
X167800000Y-77350001I0J249999D01*
G01*
X167800000Y-76699999D01*
G75*
G02*
X168049999Y-76450000I249999J0D01*
G01*
X168950001Y-76450000D01*
G75*
G02*
X169200000Y-76699999I0J-249999D01*
G01*
X169200000Y-77350001D01*
G75*
G02*
X168950001Y-77600000I-249999J0D01*
G01*
G37*
G36*
G01*
X168950001Y-75550000D02*
X168049999Y-75550000D01*
G75*
G02*
X167800000Y-75300001I0J249999D01*
G01*
X167800000Y-74649999D01*
G75*
G02*
X168049999Y-74400000I249999J0D01*
G01*
X168950001Y-74400000D01*
G75*
G02*
X169200000Y-74649999I0J-249999D01*
G01*
X169200000Y-75300001D01*
G75*
G02*
X168950001Y-75550000I-249999J0D01*
G01*
G37*
G36*
G01*
X160800000Y-80750001D02*
X160800000Y-79849999D01*
G75*
G02*
X161049999Y-79600000I249999J0D01*
G01*
X161700001Y-79600000D01*
G75*
G02*
X161950000Y-79849999I0J-249999D01*
G01*
X161950000Y-80750001D01*
G75*
G02*
X161700001Y-81000000I-249999J0D01*
G01*
X161049999Y-81000000D01*
G75*
G02*
X160800000Y-80750001I0J249999D01*
G01*
G37*
G36*
G01*
X162850000Y-80750001D02*
X162850000Y-79849999D01*
G75*
G02*
X163099999Y-79600000I249999J0D01*
G01*
X163750001Y-79600000D01*
G75*
G02*
X164000000Y-79849999I0J-249999D01*
G01*
X164000000Y-80750001D01*
G75*
G02*
X163750001Y-81000000I-249999J0D01*
G01*
X163099999Y-81000000D01*
G75*
G02*
X162850000Y-80750001I0J249999D01*
G01*
G37*
G36*
G01*
X167450000Y-95650001D02*
X167450000Y-94749999D01*
G75*
G02*
X167699999Y-94500000I249999J0D01*
G01*
X168350001Y-94500000D01*
G75*
G02*
X168600000Y-94749999I0J-249999D01*
G01*
X168600000Y-95650001D01*
G75*
G02*
X168350001Y-95900000I-249999J0D01*
G01*
X167699999Y-95900000D01*
G75*
G02*
X167450000Y-95650001I0J249999D01*
G01*
G37*
G36*
G01*
X165400000Y-95650001D02*
X165400000Y-94749999D01*
G75*
G02*
X165649999Y-94500000I249999J0D01*
G01*
X166300001Y-94500000D01*
G75*
G02*
X166550000Y-94749999I0J-249999D01*
G01*
X166550000Y-95650001D01*
G75*
G02*
X166300001Y-95900000I-249999J0D01*
G01*
X165649999Y-95900000D01*
G75*
G02*
X165400000Y-95650001I0J249999D01*
G01*
G37*
G36*
G01*
X182400000Y-81450001D02*
X182400000Y-80549999D01*
G75*
G02*
X182649999Y-80300000I249999J0D01*
G01*
X183300001Y-80300000D01*
G75*
G02*
X183550000Y-80549999I0J-249999D01*
G01*
X183550000Y-81450001D01*
G75*
G02*
X183300001Y-81700000I-249999J0D01*
G01*
X182649999Y-81700000D01*
G75*
G02*
X182400000Y-81450001I0J249999D01*
G01*
G37*
G36*
G01*
X184450000Y-81450001D02*
X184450000Y-80549999D01*
G75*
G02*
X184699999Y-80300000I249999J0D01*
G01*
X185350001Y-80300000D01*
G75*
G02*
X185600000Y-80549999I0J-249999D01*
G01*
X185600000Y-81450001D01*
G75*
G02*
X185350001Y-81700000I-249999J0D01*
G01*
X184699999Y-81700000D01*
G75*
G02*
X184450000Y-81450001I0J249999D01*
G01*
G37*
G36*
G01*
X152549999Y-79450000D02*
X153450001Y-79450000D01*
G75*
G02*
X153700000Y-79699999I0J-249999D01*
G01*
X153700000Y-80350001D01*
G75*
G02*
X153450001Y-80600000I-249999J0D01*
G01*
X152549999Y-80600000D01*
G75*
G02*
X152300000Y-80350001I0J249999D01*
G01*
X152300000Y-79699999D01*
G75*
G02*
X152549999Y-79450000I249999J0D01*
G01*
G37*
G36*
G01*
X152549999Y-77400000D02*
X153450001Y-77400000D01*
G75*
G02*
X153700000Y-77649999I0J-249999D01*
G01*
X153700000Y-78300001D01*
G75*
G02*
X153450001Y-78550000I-249999J0D01*
G01*
X152549999Y-78550000D01*
G75*
G02*
X152300000Y-78300001I0J249999D01*
G01*
X152300000Y-77649999D01*
G75*
G02*
X152549999Y-77400000I249999J0D01*
G01*
G37*
G36*
G01*
X151950001Y-72600000D02*
X151049999Y-72600000D01*
G75*
G02*
X150800000Y-72350001I0J249999D01*
G01*
X150800000Y-71699999D01*
G75*
G02*
X151049999Y-71450000I249999J0D01*
G01*
X151950001Y-71450000D01*
G75*
G02*
X152200000Y-71699999I0J-249999D01*
G01*
X152200000Y-72350001D01*
G75*
G02*
X151950001Y-72600000I-249999J0D01*
G01*
G37*
G36*
G01*
X151950001Y-70550000D02*
X151049999Y-70550000D01*
G75*
G02*
X150800000Y-70300001I0J249999D01*
G01*
X150800000Y-69649999D01*
G75*
G02*
X151049999Y-69400000I249999J0D01*
G01*
X151950001Y-69400000D01*
G75*
G02*
X152200000Y-69649999I0J-249999D01*
G01*
X152200000Y-70300001D01*
G75*
G02*
X151950001Y-70550000I-249999J0D01*
G01*
G37*
G36*
G01*
X179549999Y-85450000D02*
X180450001Y-85450000D01*
G75*
G02*
X180700000Y-85699999I0J-249999D01*
G01*
X180700000Y-86350001D01*
G75*
G02*
X180450001Y-86600000I-249999J0D01*
G01*
X179549999Y-86600000D01*
G75*
G02*
X179300000Y-86350001I0J249999D01*
G01*
X179300000Y-85699999D01*
G75*
G02*
X179549999Y-85450000I249999J0D01*
G01*
G37*
G36*
G01*
X179549999Y-83400000D02*
X180450001Y-83400000D01*
G75*
G02*
X180700000Y-83649999I0J-249999D01*
G01*
X180700000Y-84300001D01*
G75*
G02*
X180450001Y-84550000I-249999J0D01*
G01*
X179549999Y-84550000D01*
G75*
G02*
X179300000Y-84300001I0J249999D01*
G01*
X179300000Y-83649999D01*
G75*
G02*
X179549999Y-83400000I249999J0D01*
G01*
G37*
G36*
G01*
X180450001Y-78600000D02*
X179549999Y-78600000D01*
G75*
G02*
X179300000Y-78350001I0J249999D01*
G01*
X179300000Y-77699999D01*
G75*
G02*
X179549999Y-77450000I249999J0D01*
G01*
X180450001Y-77450000D01*
G75*
G02*
X180700000Y-77699999I0J-249999D01*
G01*
X180700000Y-78350001D01*
G75*
G02*
X180450001Y-78600000I-249999J0D01*
G01*
G37*
G36*
G01*
X180450001Y-76550000D02*
X179549999Y-76550000D01*
G75*
G02*
X179300000Y-76300001I0J249999D01*
G01*
X179300000Y-75649999D01*
G75*
G02*
X179549999Y-75400000I249999J0D01*
G01*
X180450001Y-75400000D01*
G75*
G02*
X180700000Y-75649999I0J-249999D01*
G01*
X180700000Y-76300001D01*
G75*
G02*
X180450001Y-76550000I-249999J0D01*
G01*
G37*
G36*
G01*
X192300000Y-54750001D02*
X192300000Y-53849999D01*
G75*
G02*
X192549999Y-53600000I249999J0D01*
G01*
X193200001Y-53600000D01*
G75*
G02*
X193450000Y-53849999I0J-249999D01*
G01*
X193450000Y-54750001D01*
G75*
G02*
X193200001Y-55000000I-249999J0D01*
G01*
X192549999Y-55000000D01*
G75*
G02*
X192300000Y-54750001I0J249999D01*
G01*
G37*
G36*
G01*
X194350000Y-54750001D02*
X194350000Y-53849999D01*
G75*
G02*
X194599999Y-53600000I249999J0D01*
G01*
X195250001Y-53600000D01*
G75*
G02*
X195500000Y-53849999I0J-249999D01*
G01*
X195500000Y-54750001D01*
G75*
G02*
X195250001Y-55000000I-249999J0D01*
G01*
X194599999Y-55000000D01*
G75*
G02*
X194350000Y-54750001I0J249999D01*
G01*
G37*
G36*
G01*
X223100000Y-74049999D02*
X223100000Y-74950001D01*
G75*
G02*
X222850001Y-75200000I-249999J0D01*
G01*
X222199999Y-75200000D01*
G75*
G02*
X221950000Y-74950001I0J249999D01*
G01*
X221950000Y-74049999D01*
G75*
G02*
X222199999Y-73800000I249999J0D01*
G01*
X222850001Y-73800000D01*
G75*
G02*
X223100000Y-74049999I0J-249999D01*
G01*
G37*
G36*
G01*
X221050000Y-74049999D02*
X221050000Y-74950001D01*
G75*
G02*
X220800001Y-75200000I-249999J0D01*
G01*
X220149999Y-75200000D01*
G75*
G02*
X219900000Y-74950001I0J249999D01*
G01*
X219900000Y-74049999D01*
G75*
G02*
X220149999Y-73800000I249999J0D01*
G01*
X220800001Y-73800000D01*
G75*
G02*
X221050000Y-74049999I0J-249999D01*
G01*
G37*
G36*
G01*
X198950000Y-70950001D02*
X198950000Y-70049999D01*
G75*
G02*
X199199999Y-69800000I249999J0D01*
G01*
X199850001Y-69800000D01*
G75*
G02*
X200100000Y-70049999I0J-249999D01*
G01*
X200100000Y-70950001D01*
G75*
G02*
X199850001Y-71200000I-249999J0D01*
G01*
X199199999Y-71200000D01*
G75*
G02*
X198950000Y-70950001I0J249999D01*
G01*
G37*
G36*
G01*
X196900000Y-70950001D02*
X196900000Y-70049999D01*
G75*
G02*
X197149999Y-69800000I249999J0D01*
G01*
X197800001Y-69800000D01*
G75*
G02*
X198050000Y-70049999I0J-249999D01*
G01*
X198050000Y-70950001D01*
G75*
G02*
X197800001Y-71200000I-249999J0D01*
G01*
X197149999Y-71200000D01*
G75*
G02*
X196900000Y-70950001I0J249999D01*
G01*
G37*
G36*
G01*
X195600000Y-63549999D02*
X195600000Y-64450001D01*
G75*
G02*
X195350001Y-64700000I-249999J0D01*
G01*
X194699999Y-64700000D01*
G75*
G02*
X194450000Y-64450001I0J249999D01*
G01*
X194450000Y-63549999D01*
G75*
G02*
X194699999Y-63300000I249999J0D01*
G01*
X195350001Y-63300000D01*
G75*
G02*
X195600000Y-63549999I0J-249999D01*
G01*
G37*
G36*
G01*
X193550000Y-63549999D02*
X193550000Y-64450001D01*
G75*
G02*
X193300001Y-64700000I-249999J0D01*
G01*
X192649999Y-64700000D01*
G75*
G02*
X192400000Y-64450001I0J249999D01*
G01*
X192400000Y-63549999D01*
G75*
G02*
X192649999Y-63300000I249999J0D01*
G01*
X193300001Y-63300000D01*
G75*
G02*
X193550000Y-63549999I0J-249999D01*
G01*
G37*
G36*
G01*
X207950000Y-79950001D02*
X207950000Y-79049999D01*
G75*
G02*
X208199999Y-78800000I249999J0D01*
G01*
X208850001Y-78800000D01*
G75*
G02*
X209100000Y-79049999I0J-249999D01*
G01*
X209100000Y-79950001D01*
G75*
G02*
X208850001Y-80200000I-249999J0D01*
G01*
X208199999Y-80200000D01*
G75*
G02*
X207950000Y-79950001I0J249999D01*
G01*
G37*
G36*
G01*
X205900000Y-79950001D02*
X205900000Y-79049999D01*
G75*
G02*
X206149999Y-78800000I249999J0D01*
G01*
X206800001Y-78800000D01*
G75*
G02*
X207050000Y-79049999I0J-249999D01*
G01*
X207050000Y-79950001D01*
G75*
G02*
X206800001Y-80200000I-249999J0D01*
G01*
X206149999Y-80200000D01*
G75*
G02*
X205900000Y-79950001I0J249999D01*
G01*
G37*
G36*
G01*
X205950001Y-71550000D02*
X205049999Y-71550000D01*
G75*
G02*
X204800000Y-71300001I0J249999D01*
G01*
X204800000Y-70649999D01*
G75*
G02*
X205049999Y-70400000I249999J0D01*
G01*
X205950001Y-70400000D01*
G75*
G02*
X206200000Y-70649999I0J-249999D01*
G01*
X206200000Y-71300001D01*
G75*
G02*
X205950001Y-71550000I-249999J0D01*
G01*
G37*
G36*
G01*
X205950001Y-73600000D02*
X205049999Y-73600000D01*
G75*
G02*
X204800000Y-73350001I0J249999D01*
G01*
X204800000Y-72699999D01*
G75*
G02*
X205049999Y-72450000I249999J0D01*
G01*
X205950001Y-72450000D01*
G75*
G02*
X206200000Y-72699999I0J-249999D01*
G01*
X206200000Y-73350001D01*
G75*
G02*
X205950001Y-73600000I-249999J0D01*
G01*
G37*
G36*
G01*
X219050000Y-66549999D02*
X219050000Y-67450001D01*
G75*
G02*
X218800001Y-67700000I-249999J0D01*
G01*
X218149999Y-67700000D01*
G75*
G02*
X217900000Y-67450001I0J249999D01*
G01*
X217900000Y-66549999D01*
G75*
G02*
X218149999Y-66300000I249999J0D01*
G01*
X218800001Y-66300000D01*
G75*
G02*
X219050000Y-66549999I0J-249999D01*
G01*
G37*
G36*
G01*
X221100000Y-66549999D02*
X221100000Y-67450001D01*
G75*
G02*
X220850001Y-67700000I-249999J0D01*
G01*
X220199999Y-67700000D01*
G75*
G02*
X219950000Y-67450001I0J249999D01*
G01*
X219950000Y-66549999D01*
G75*
G02*
X220199999Y-66300000I249999J0D01*
G01*
X220850001Y-66300000D01*
G75*
G02*
X221100000Y-66549999I0J-249999D01*
G01*
G37*
G36*
G01*
X227550000Y-78549999D02*
X227550000Y-79450001D01*
G75*
G02*
X227300001Y-79700000I-249999J0D01*
G01*
X226649999Y-79700000D01*
G75*
G02*
X226400000Y-79450001I0J249999D01*
G01*
X226400000Y-78549999D01*
G75*
G02*
X226649999Y-78300000I249999J0D01*
G01*
X227300001Y-78300000D01*
G75*
G02*
X227550000Y-78549999I0J-249999D01*
G01*
G37*
G36*
G01*
X229600000Y-78549999D02*
X229600000Y-79450001D01*
G75*
G02*
X229350001Y-79700000I-249999J0D01*
G01*
X228699999Y-79700000D01*
G75*
G02*
X228450000Y-79450001I0J249999D01*
G01*
X228450000Y-78549999D01*
G75*
G02*
X228699999Y-78300000I249999J0D01*
G01*
X229350001Y-78300000D01*
G75*
G02*
X229600000Y-78549999I0J-249999D01*
G01*
G37*
G36*
G01*
X149450001Y-78550000D02*
X148549999Y-78550000D01*
G75*
G02*
X148300000Y-78300001I0J249999D01*
G01*
X148300000Y-77649999D01*
G75*
G02*
X148549999Y-77400000I249999J0D01*
G01*
X149450001Y-77400000D01*
G75*
G02*
X149700000Y-77649999I0J-249999D01*
G01*
X149700000Y-78300001D01*
G75*
G02*
X149450001Y-78550000I-249999J0D01*
G01*
G37*
G36*
G01*
X149450001Y-80600000D02*
X148549999Y-80600000D01*
G75*
G02*
X148300000Y-80350001I0J249999D01*
G01*
X148300000Y-79699999D01*
G75*
G02*
X148549999Y-79450000I249999J0D01*
G01*
X149450001Y-79450000D01*
G75*
G02*
X149700000Y-79699999I0J-249999D01*
G01*
X149700000Y-80350001D01*
G75*
G02*
X149450001Y-80600000I-249999J0D01*
G01*
G37*
G36*
G01*
X154549999Y-69400000D02*
X155450001Y-69400000D01*
G75*
G02*
X155700000Y-69649999I0J-249999D01*
G01*
X155700000Y-70300001D01*
G75*
G02*
X155450001Y-70550000I-249999J0D01*
G01*
X154549999Y-70550000D01*
G75*
G02*
X154300000Y-70300001I0J249999D01*
G01*
X154300000Y-69649999D01*
G75*
G02*
X154549999Y-69400000I249999J0D01*
G01*
G37*
G36*
G01*
X154549999Y-71450000D02*
X155450001Y-71450000D01*
G75*
G02*
X155700000Y-71699999I0J-249999D01*
G01*
X155700000Y-72350001D01*
G75*
G02*
X155450001Y-72600000I-249999J0D01*
G01*
X154549999Y-72600000D01*
G75*
G02*
X154300000Y-72350001I0J249999D01*
G01*
X154300000Y-71699999D01*
G75*
G02*
X154549999Y-71450000I249999J0D01*
G01*
G37*
D16*
X121000000Y-88000000D03*
D17*
X123540000Y-90540000D03*
X123540000Y-85460000D03*
X118460000Y-85460000D03*
X118460000Y-90540000D03*
D18*
X241500000Y-92500000D03*
D19*
X241500000Y-95000000D03*
D17*
X165040000Y-142540000D03*
X159960000Y-142540000D03*
X159960000Y-137460000D03*
X165040000Y-137460000D03*
D16*
X162500000Y-140000000D03*
D18*
X192500000Y-113000000D03*
X192500000Y-110500000D03*
D19*
X192500000Y-115500000D03*
D16*
X216500000Y-80500000D03*
D17*
X219040000Y-83040000D03*
X219040000Y-77960000D03*
X213960000Y-77960000D03*
X213960000Y-83040000D03*
D20*
X71500000Y-119000000D03*
D21*
X66500000Y-119000000D03*
X69000000Y-119000000D03*
D19*
X63000000Y-57250000D03*
D18*
X63000000Y-54750000D03*
D17*
X187460000Y-93040000D03*
X187460000Y-87960000D03*
X192540000Y-87960000D03*
X192540000Y-93040000D03*
D16*
X190000000Y-90500000D03*
D18*
X242000000Y-130250000D03*
X242000000Y-127750000D03*
D19*
X242000000Y-132750000D03*
D18*
X242000000Y-125250000D03*
X242000000Y-122750000D03*
X242000000Y-120250000D03*
X242000000Y-117750000D03*
X242000000Y-115250000D03*
D12*
X70500000Y-130000000D03*
X75500000Y-135000000D03*
X81000000Y-82500000D03*
X76000000Y-87500000D03*
D22*
X105500000Y-145000000D03*
X103500000Y-142000000D03*
X88000000Y-126500000D03*
X80000000Y-131500000D03*
D12*
X124500000Y-60000000D03*
X129500000Y-65000000D03*
X161500000Y-69000000D03*
X156500000Y-64000000D03*
X135500000Y-59900000D03*
X140500000Y-54900000D03*
D23*
X63020000Y-64990000D03*
X64920000Y-64990000D03*
X63970000Y-66990000D03*
D24*
X76010000Y-67020000D03*
X76010000Y-68920000D03*
X74010000Y-67970000D03*
G36*
G01*
X222900000Y-114950001D02*
X222900000Y-114049999D01*
G75*
G02*
X223149999Y-113800000I249999J0D01*
G01*
X223800001Y-113800000D01*
G75*
G02*
X224050000Y-114049999I0J-249999D01*
G01*
X224050000Y-114950001D01*
G75*
G02*
X223800001Y-115200000I-249999J0D01*
G01*
X223149999Y-115200000D01*
G75*
G02*
X222900000Y-114950001I0J249999D01*
G01*
G37*
G36*
G01*
X224950000Y-114950001D02*
X224950000Y-114049999D01*
G75*
G02*
X225199999Y-113800000I249999J0D01*
G01*
X225850001Y-113800000D01*
G75*
G02*
X226100000Y-114049999I0J-249999D01*
G01*
X226100000Y-114950001D01*
G75*
G02*
X225850001Y-115200000I-249999J0D01*
G01*
X225199999Y-115200000D01*
G75*
G02*
X224950000Y-114950001I0J249999D01*
G01*
G37*
G36*
G01*
X224950000Y-111950001D02*
X224950000Y-111049999D01*
G75*
G02*
X225199999Y-110800000I249999J0D01*
G01*
X225850001Y-110800000D01*
G75*
G02*
X226100000Y-111049999I0J-249999D01*
G01*
X226100000Y-111950001D01*
G75*
G02*
X225850001Y-112200000I-249999J0D01*
G01*
X225199999Y-112200000D01*
G75*
G02*
X224950000Y-111950001I0J249999D01*
G01*
G37*
G36*
G01*
X222900000Y-111950001D02*
X222900000Y-111049999D01*
G75*
G02*
X223149999Y-110800000I249999J0D01*
G01*
X223800001Y-110800000D01*
G75*
G02*
X224050000Y-111049999I0J-249999D01*
G01*
X224050000Y-111950001D01*
G75*
G02*
X223800001Y-112200000I-249999J0D01*
G01*
X223149999Y-112200000D01*
G75*
G02*
X222900000Y-111950001I0J249999D01*
G01*
G37*
G36*
G01*
X133049999Y-141400000D02*
X133950001Y-141400000D01*
G75*
G02*
X134200000Y-141649999I0J-249999D01*
G01*
X134200000Y-142300001D01*
G75*
G02*
X133950001Y-142550000I-249999J0D01*
G01*
X133049999Y-142550000D01*
G75*
G02*
X132800000Y-142300001I0J249999D01*
G01*
X132800000Y-141649999D01*
G75*
G02*
X133049999Y-141400000I249999J0D01*
G01*
G37*
G36*
G01*
X133049999Y-143450000D02*
X133950001Y-143450000D01*
G75*
G02*
X134200000Y-143699999I0J-249999D01*
G01*
X134200000Y-144350001D01*
G75*
G02*
X133950001Y-144600000I-249999J0D01*
G01*
X133049999Y-144600000D01*
G75*
G02*
X132800000Y-144350001I0J249999D01*
G01*
X132800000Y-143699999D01*
G75*
G02*
X133049999Y-143450000I249999J0D01*
G01*
G37*
G36*
G01*
X100950001Y-144600000D02*
X100049999Y-144600000D01*
G75*
G02*
X99800000Y-144350001I0J249999D01*
G01*
X99800000Y-143699999D01*
G75*
G02*
X100049999Y-143450000I249999J0D01*
G01*
X100950001Y-143450000D01*
G75*
G02*
X101200000Y-143699999I0J-249999D01*
G01*
X101200000Y-144350001D01*
G75*
G02*
X100950001Y-144600000I-249999J0D01*
G01*
G37*
G36*
G01*
X100950001Y-142550000D02*
X100049999Y-142550000D01*
G75*
G02*
X99800000Y-142300001I0J249999D01*
G01*
X99800000Y-141649999D01*
G75*
G02*
X100049999Y-141400000I249999J0D01*
G01*
X100950001Y-141400000D01*
G75*
G02*
X101200000Y-141649999I0J-249999D01*
G01*
X101200000Y-142300001D01*
G75*
G02*
X100950001Y-142550000I-249999J0D01*
G01*
G37*
G36*
G01*
X86549999Y-129450000D02*
X87450001Y-129450000D01*
G75*
G02*
X87700000Y-129699999I0J-249999D01*
G01*
X87700000Y-130350001D01*
G75*
G02*
X87450001Y-130600000I-249999J0D01*
G01*
X86549999Y-130600000D01*
G75*
G02*
X86300000Y-130350001I0J249999D01*
G01*
X86300000Y-129699999D01*
G75*
G02*
X86549999Y-129450000I249999J0D01*
G01*
G37*
G36*
G01*
X86549999Y-127400000D02*
X87450001Y-127400000D01*
G75*
G02*
X87700000Y-127649999I0J-249999D01*
G01*
X87700000Y-128300001D01*
G75*
G02*
X87450001Y-128550000I-249999J0D01*
G01*
X86549999Y-128550000D01*
G75*
G02*
X86300000Y-128300001I0J249999D01*
G01*
X86300000Y-127649999D01*
G75*
G02*
X86549999Y-127400000I249999J0D01*
G01*
G37*
D11*
X75000000Y-105000000D03*
X77540000Y-105000000D03*
X80080000Y-105000000D03*
G36*
G01*
X89950001Y-106075000D02*
X89049999Y-106075000D01*
G75*
G02*
X88800000Y-105825001I0J249999D01*
G01*
X88800000Y-105174999D01*
G75*
G02*
X89049999Y-104925000I249999J0D01*
G01*
X89950001Y-104925000D01*
G75*
G02*
X90200000Y-105174999I0J-249999D01*
G01*
X90200000Y-105825001D01*
G75*
G02*
X89950001Y-106075000I-249999J0D01*
G01*
G37*
G36*
G01*
X89950001Y-108125000D02*
X89049999Y-108125000D01*
G75*
G02*
X88800000Y-107875001I0J249999D01*
G01*
X88800000Y-107224999D01*
G75*
G02*
X89049999Y-106975000I249999J0D01*
G01*
X89950001Y-106975000D01*
G75*
G02*
X90200000Y-107224999I0J-249999D01*
G01*
X90200000Y-107875001D01*
G75*
G02*
X89950001Y-108125000I-249999J0D01*
G01*
G37*
G36*
G01*
X93450001Y-111050000D02*
X92549999Y-111050000D01*
G75*
G02*
X92300000Y-110800001I0J249999D01*
G01*
X92300000Y-110149999D01*
G75*
G02*
X92549999Y-109900000I249999J0D01*
G01*
X93450001Y-109900000D01*
G75*
G02*
X93700000Y-110149999I0J-249999D01*
G01*
X93700000Y-110800001D01*
G75*
G02*
X93450001Y-111050000I-249999J0D01*
G01*
G37*
G36*
G01*
X93450001Y-113100000D02*
X92549999Y-113100000D01*
G75*
G02*
X92300000Y-112850001I0J249999D01*
G01*
X92300000Y-112199999D01*
G75*
G02*
X92549999Y-111950000I249999J0D01*
G01*
X93450001Y-111950000D01*
G75*
G02*
X93700000Y-112199999I0J-249999D01*
G01*
X93700000Y-112850001D01*
G75*
G02*
X93450001Y-113100000I-249999J0D01*
G01*
G37*
G36*
G01*
X82549999Y-112400000D02*
X83450001Y-112400000D01*
G75*
G02*
X83700000Y-112649999I0J-249999D01*
G01*
X83700000Y-113300001D01*
G75*
G02*
X83450001Y-113550000I-249999J0D01*
G01*
X82549999Y-113550000D01*
G75*
G02*
X82300000Y-113300001I0J249999D01*
G01*
X82300000Y-112649999D01*
G75*
G02*
X82549999Y-112400000I249999J0D01*
G01*
G37*
G36*
G01*
X82549999Y-114450000D02*
X83450001Y-114450000D01*
G75*
G02*
X83700000Y-114699999I0J-249999D01*
G01*
X83700000Y-115350001D01*
G75*
G02*
X83450001Y-115600000I-249999J0D01*
G01*
X82549999Y-115600000D01*
G75*
G02*
X82300000Y-115350001I0J249999D01*
G01*
X82300000Y-114699999D01*
G75*
G02*
X82549999Y-114450000I249999J0D01*
G01*
G37*
G36*
G01*
X159450000Y-140450001D02*
X159450000Y-139549999D01*
G75*
G02*
X159699999Y-139300000I249999J0D01*
G01*
X160350001Y-139300000D01*
G75*
G02*
X160600000Y-139549999I0J-249999D01*
G01*
X160600000Y-140450001D01*
G75*
G02*
X160350001Y-140700000I-249999J0D01*
G01*
X159699999Y-140700000D01*
G75*
G02*
X159450000Y-140450001I0J249999D01*
G01*
G37*
G36*
G01*
X157400000Y-140450001D02*
X157400000Y-139549999D01*
G75*
G02*
X157649999Y-139300000I249999J0D01*
G01*
X158300001Y-139300000D01*
G75*
G02*
X158550000Y-139549999I0J-249999D01*
G01*
X158550000Y-140450001D01*
G75*
G02*
X158300001Y-140700000I-249999J0D01*
G01*
X157649999Y-140700000D01*
G75*
G02*
X157400000Y-140450001I0J249999D01*
G01*
G37*
G36*
G01*
X166450000Y-140450001D02*
X166450000Y-139549999D01*
G75*
G02*
X166699999Y-139300000I249999J0D01*
G01*
X167350001Y-139300000D01*
G75*
G02*
X167600000Y-139549999I0J-249999D01*
G01*
X167600000Y-140450001D01*
G75*
G02*
X167350001Y-140700000I-249999J0D01*
G01*
X166699999Y-140700000D01*
G75*
G02*
X166450000Y-140450001I0J249999D01*
G01*
G37*
G36*
G01*
X164400000Y-140450001D02*
X164400000Y-139549999D01*
G75*
G02*
X164649999Y-139300000I249999J0D01*
G01*
X165300001Y-139300000D01*
G75*
G02*
X165550000Y-139549999I0J-249999D01*
G01*
X165550000Y-140450001D01*
G75*
G02*
X165300001Y-140700000I-249999J0D01*
G01*
X164649999Y-140700000D01*
G75*
G02*
X164400000Y-140450001I0J249999D01*
G01*
G37*
G36*
G01*
X156049999Y-141400000D02*
X156950001Y-141400000D01*
G75*
G02*
X157200000Y-141649999I0J-249999D01*
G01*
X157200000Y-142300001D01*
G75*
G02*
X156950001Y-142550000I-249999J0D01*
G01*
X156049999Y-142550000D01*
G75*
G02*
X155800000Y-142300001I0J249999D01*
G01*
X155800000Y-141649999D01*
G75*
G02*
X156049999Y-141400000I249999J0D01*
G01*
G37*
G36*
G01*
X156049999Y-143450000D02*
X156950001Y-143450000D01*
G75*
G02*
X157200000Y-143699999I0J-249999D01*
G01*
X157200000Y-144350001D01*
G75*
G02*
X156950001Y-144600000I-249999J0D01*
G01*
X156049999Y-144600000D01*
G75*
G02*
X155800000Y-144350001I0J249999D01*
G01*
X155800000Y-143699999D01*
G75*
G02*
X156049999Y-143450000I249999J0D01*
G01*
G37*
G36*
G01*
X159450001Y-122550000D02*
X158549999Y-122550000D01*
G75*
G02*
X158300000Y-122300001I0J249999D01*
G01*
X158300000Y-121649999D01*
G75*
G02*
X158549999Y-121400000I249999J0D01*
G01*
X159450001Y-121400000D01*
G75*
G02*
X159700000Y-121649999I0J-249999D01*
G01*
X159700000Y-122300001D01*
G75*
G02*
X159450001Y-122550000I-249999J0D01*
G01*
G37*
G36*
G01*
X159450001Y-124600000D02*
X158549999Y-124600000D01*
G75*
G02*
X158300000Y-124350001I0J249999D01*
G01*
X158300000Y-123699999D01*
G75*
G02*
X158549999Y-123450000I249999J0D01*
G01*
X159450001Y-123450000D01*
G75*
G02*
X159700000Y-123699999I0J-249999D01*
G01*
X159700000Y-124350001D01*
G75*
G02*
X159450001Y-124600000I-249999J0D01*
G01*
G37*
G36*
G01*
X182900000Y-137450001D02*
X182900000Y-136549999D01*
G75*
G02*
X183149999Y-136300000I249999J0D01*
G01*
X183800001Y-136300000D01*
G75*
G02*
X184050000Y-136549999I0J-249999D01*
G01*
X184050000Y-137450001D01*
G75*
G02*
X183800001Y-137700000I-249999J0D01*
G01*
X183149999Y-137700000D01*
G75*
G02*
X182900000Y-137450001I0J249999D01*
G01*
G37*
G36*
G01*
X184950000Y-137450001D02*
X184950000Y-136549999D01*
G75*
G02*
X185199999Y-136300000I249999J0D01*
G01*
X185850001Y-136300000D01*
G75*
G02*
X186100000Y-136549999I0J-249999D01*
G01*
X186100000Y-137450001D01*
G75*
G02*
X185850001Y-137700000I-249999J0D01*
G01*
X185199999Y-137700000D01*
G75*
G02*
X184950000Y-137450001I0J249999D01*
G01*
G37*
G36*
G01*
X183600000Y-141049999D02*
X183600000Y-141950001D01*
G75*
G02*
X183350001Y-142200000I-249999J0D01*
G01*
X182699999Y-142200000D01*
G75*
G02*
X182450000Y-141950001I0J249999D01*
G01*
X182450000Y-141049999D01*
G75*
G02*
X182699999Y-140800000I249999J0D01*
G01*
X183350001Y-140800000D01*
G75*
G02*
X183600000Y-141049999I0J-249999D01*
G01*
G37*
G36*
G01*
X181550000Y-141049999D02*
X181550000Y-141950001D01*
G75*
G02*
X181300001Y-142200000I-249999J0D01*
G01*
X180649999Y-142200000D01*
G75*
G02*
X180400000Y-141950001I0J249999D01*
G01*
X180400000Y-141049999D01*
G75*
G02*
X180649999Y-140800000I249999J0D01*
G01*
X181300001Y-140800000D01*
G75*
G02*
X181550000Y-141049999I0J-249999D01*
G01*
G37*
G36*
G01*
X183950001Y-124550000D02*
X183049999Y-124550000D01*
G75*
G02*
X182800000Y-124300001I0J249999D01*
G01*
X182800000Y-123649999D01*
G75*
G02*
X183049999Y-123400000I249999J0D01*
G01*
X183950001Y-123400000D01*
G75*
G02*
X184200000Y-123649999I0J-249999D01*
G01*
X184200000Y-124300001D01*
G75*
G02*
X183950001Y-124550000I-249999J0D01*
G01*
G37*
G36*
G01*
X183950001Y-126600000D02*
X183049999Y-126600000D01*
G75*
G02*
X182800000Y-126350001I0J249999D01*
G01*
X182800000Y-125699999D01*
G75*
G02*
X183049999Y-125450000I249999J0D01*
G01*
X183950001Y-125450000D01*
G75*
G02*
X184200000Y-125699999I0J-249999D01*
G01*
X184200000Y-126350001D01*
G75*
G02*
X183950001Y-126600000I-249999J0D01*
G01*
G37*
G36*
G01*
X176100000Y-133549999D02*
X176100000Y-134450001D01*
G75*
G02*
X175850001Y-134700000I-249999J0D01*
G01*
X175199999Y-134700000D01*
G75*
G02*
X174950000Y-134450001I0J249999D01*
G01*
X174950000Y-133549999D01*
G75*
G02*
X175199999Y-133300000I249999J0D01*
G01*
X175850001Y-133300000D01*
G75*
G02*
X176100000Y-133549999I0J-249999D01*
G01*
G37*
G36*
G01*
X174050000Y-133549999D02*
X174050000Y-134450001D01*
G75*
G02*
X173800001Y-134700000I-249999J0D01*
G01*
X173149999Y-134700000D01*
G75*
G02*
X172900000Y-134450001I0J249999D01*
G01*
X172900000Y-133549999D01*
G75*
G02*
X173149999Y-133300000I249999J0D01*
G01*
X173800001Y-133300000D01*
G75*
G02*
X174050000Y-133549999I0J-249999D01*
G01*
G37*
G36*
G01*
X187450001Y-124550000D02*
X186549999Y-124550000D01*
G75*
G02*
X186300000Y-124300001I0J249999D01*
G01*
X186300000Y-123649999D01*
G75*
G02*
X186549999Y-123400000I249999J0D01*
G01*
X187450001Y-123400000D01*
G75*
G02*
X187700000Y-123649999I0J-249999D01*
G01*
X187700000Y-124300001D01*
G75*
G02*
X187450001Y-124550000I-249999J0D01*
G01*
G37*
G36*
G01*
X187450001Y-126600000D02*
X186549999Y-126600000D01*
G75*
G02*
X186300000Y-126350001I0J249999D01*
G01*
X186300000Y-125699999D01*
G75*
G02*
X186549999Y-125450000I249999J0D01*
G01*
X187450001Y-125450000D01*
G75*
G02*
X187700000Y-125699999I0J-249999D01*
G01*
X187700000Y-126350001D01*
G75*
G02*
X187450001Y-126600000I-249999J0D01*
G01*
G37*
G36*
G01*
X85600000Y-55549999D02*
X85600000Y-56450001D01*
G75*
G02*
X85350001Y-56700000I-249999J0D01*
G01*
X84699999Y-56700000D01*
G75*
G02*
X84450000Y-56450001I0J249999D01*
G01*
X84450000Y-55549999D01*
G75*
G02*
X84699999Y-55300000I249999J0D01*
G01*
X85350001Y-55300000D01*
G75*
G02*
X85600000Y-55549999I0J-249999D01*
G01*
G37*
G36*
G01*
X83550000Y-55549999D02*
X83550000Y-56450001D01*
G75*
G02*
X83300001Y-56700000I-249999J0D01*
G01*
X82649999Y-56700000D01*
G75*
G02*
X82400000Y-56450001I0J249999D01*
G01*
X82400000Y-55549999D01*
G75*
G02*
X82649999Y-55300000I249999J0D01*
G01*
X83300001Y-55300000D01*
G75*
G02*
X83550000Y-55549999I0J-249999D01*
G01*
G37*
G36*
G01*
X83550000Y-58549999D02*
X83550000Y-59450001D01*
G75*
G02*
X83300001Y-59700000I-249999J0D01*
G01*
X82649999Y-59700000D01*
G75*
G02*
X82400000Y-59450001I0J249999D01*
G01*
X82400000Y-58549999D01*
G75*
G02*
X82649999Y-58300000I249999J0D01*
G01*
X83300001Y-58300000D01*
G75*
G02*
X83550000Y-58549999I0J-249999D01*
G01*
G37*
G36*
G01*
X85600000Y-58549999D02*
X85600000Y-59450001D01*
G75*
G02*
X85350001Y-59700000I-249999J0D01*
G01*
X84699999Y-59700000D01*
G75*
G02*
X84450000Y-59450001I0J249999D01*
G01*
X84450000Y-58549999D01*
G75*
G02*
X84699999Y-58300000I249999J0D01*
G01*
X85350001Y-58300000D01*
G75*
G02*
X85600000Y-58549999I0J-249999D01*
G01*
G37*
G36*
G01*
X71600000Y-65549999D02*
X71600000Y-66450001D01*
G75*
G02*
X71350001Y-66700000I-249999J0D01*
G01*
X70699999Y-66700000D01*
G75*
G02*
X70450000Y-66450001I0J249999D01*
G01*
X70450000Y-65549999D01*
G75*
G02*
X70699999Y-65300000I249999J0D01*
G01*
X71350001Y-65300000D01*
G75*
G02*
X71600000Y-65549999I0J-249999D01*
G01*
G37*
G36*
G01*
X69550000Y-65549999D02*
X69550000Y-66450001D01*
G75*
G02*
X69300001Y-66700000I-249999J0D01*
G01*
X68649999Y-66700000D01*
G75*
G02*
X68400000Y-66450001I0J249999D01*
G01*
X68400000Y-65549999D01*
G75*
G02*
X68649999Y-65300000I249999J0D01*
G01*
X69300001Y-65300000D01*
G75*
G02*
X69550000Y-65549999I0J-249999D01*
G01*
G37*
G36*
G01*
X87600000Y-62549999D02*
X87600000Y-63450001D01*
G75*
G02*
X87350001Y-63700000I-249999J0D01*
G01*
X86699999Y-63700000D01*
G75*
G02*
X86450000Y-63450001I0J249999D01*
G01*
X86450000Y-62549999D01*
G75*
G02*
X86699999Y-62300000I249999J0D01*
G01*
X87350001Y-62300000D01*
G75*
G02*
X87600000Y-62549999I0J-249999D01*
G01*
G37*
G36*
G01*
X85550000Y-62549999D02*
X85550000Y-63450001D01*
G75*
G02*
X85300001Y-63700000I-249999J0D01*
G01*
X84649999Y-63700000D01*
G75*
G02*
X84400000Y-63450001I0J249999D01*
G01*
X84400000Y-62549999D01*
G75*
G02*
X84649999Y-62300000I249999J0D01*
G01*
X85300001Y-62300000D01*
G75*
G02*
X85550000Y-62549999I0J-249999D01*
G01*
G37*
G36*
G01*
X100549999Y-61450000D02*
X101450001Y-61450000D01*
G75*
G02*
X101700000Y-61699999I0J-249999D01*
G01*
X101700000Y-62350001D01*
G75*
G02*
X101450001Y-62600000I-249999J0D01*
G01*
X100549999Y-62600000D01*
G75*
G02*
X100300000Y-62350001I0J249999D01*
G01*
X100300000Y-61699999D01*
G75*
G02*
X100549999Y-61450000I249999J0D01*
G01*
G37*
G36*
G01*
X100549999Y-59400000D02*
X101450001Y-59400000D01*
G75*
G02*
X101700000Y-59649999I0J-249999D01*
G01*
X101700000Y-60300001D01*
G75*
G02*
X101450001Y-60550000I-249999J0D01*
G01*
X100549999Y-60550000D01*
G75*
G02*
X100300000Y-60300001I0J249999D01*
G01*
X100300000Y-59649999D01*
G75*
G02*
X100549999Y-59400000I249999J0D01*
G01*
G37*
X63920000Y-75000000D03*
X66460000Y-75000000D03*
X69000000Y-75000000D03*
G36*
G01*
X72550000Y-78549999D02*
X72550000Y-79450001D01*
G75*
G02*
X72300001Y-79700000I-249999J0D01*
G01*
X71649999Y-79700000D01*
G75*
G02*
X71400000Y-79450001I0J249999D01*
G01*
X71400000Y-78549999D01*
G75*
G02*
X71649999Y-78300000I249999J0D01*
G01*
X72300001Y-78300000D01*
G75*
G02*
X72550000Y-78549999I0J-249999D01*
G01*
G37*
G36*
G01*
X74600000Y-78549999D02*
X74600000Y-79450001D01*
G75*
G02*
X74350001Y-79700000I-249999J0D01*
G01*
X73699999Y-79700000D01*
G75*
G02*
X73450000Y-79450001I0J249999D01*
G01*
X73450000Y-78549999D01*
G75*
G02*
X73699999Y-78300000I249999J0D01*
G01*
X74350001Y-78300000D01*
G75*
G02*
X74600000Y-78549999I0J-249999D01*
G01*
G37*
G36*
G01*
X68600000Y-71549999D02*
X68600000Y-72450001D01*
G75*
G02*
X68350001Y-72700000I-249999J0D01*
G01*
X67699999Y-72700000D01*
G75*
G02*
X67450000Y-72450001I0J249999D01*
G01*
X67450000Y-71549999D01*
G75*
G02*
X67699999Y-71300000I249999J0D01*
G01*
X68350001Y-71300000D01*
G75*
G02*
X68600000Y-71549999I0J-249999D01*
G01*
G37*
G36*
G01*
X66550000Y-71549999D02*
X66550000Y-72450001D01*
G75*
G02*
X66300001Y-72700000I-249999J0D01*
G01*
X65649999Y-72700000D01*
G75*
G02*
X65400000Y-72450001I0J249999D01*
G01*
X65400000Y-71549999D01*
G75*
G02*
X65649999Y-71300000I249999J0D01*
G01*
X66300001Y-71300000D01*
G75*
G02*
X66550000Y-71549999I0J-249999D01*
G01*
G37*
G36*
G01*
X64450000Y-62450001D02*
X64450000Y-61549999D01*
G75*
G02*
X64699999Y-61300000I249999J0D01*
G01*
X65350001Y-61300000D01*
G75*
G02*
X65600000Y-61549999I0J-249999D01*
G01*
X65600000Y-62450001D01*
G75*
G02*
X65350001Y-62700000I-249999J0D01*
G01*
X64699999Y-62700000D01*
G75*
G02*
X64450000Y-62450001I0J249999D01*
G01*
G37*
G36*
G01*
X62400000Y-62450001D02*
X62400000Y-61549999D01*
G75*
G02*
X62649999Y-61300000I249999J0D01*
G01*
X63300001Y-61300000D01*
G75*
G02*
X63550000Y-61549999I0J-249999D01*
G01*
X63550000Y-62450001D01*
G75*
G02*
X63300001Y-62700000I-249999J0D01*
G01*
X62649999Y-62700000D01*
G75*
G02*
X62400000Y-62450001I0J249999D01*
G01*
G37*
G36*
G01*
X76400000Y-75450001D02*
X76400000Y-74549999D01*
G75*
G02*
X76649999Y-74300000I249999J0D01*
G01*
X77300001Y-74300000D01*
G75*
G02*
X77550000Y-74549999I0J-249999D01*
G01*
X77550000Y-75450001D01*
G75*
G02*
X77300001Y-75700000I-249999J0D01*
G01*
X76649999Y-75700000D01*
G75*
G02*
X76400000Y-75450001I0J249999D01*
G01*
G37*
G36*
G01*
X78450000Y-75450001D02*
X78450000Y-74549999D01*
G75*
G02*
X78699999Y-74300000I249999J0D01*
G01*
X79350001Y-74300000D01*
G75*
G02*
X79600000Y-74549999I0J-249999D01*
G01*
X79600000Y-75450001D01*
G75*
G02*
X79350001Y-75700000I-249999J0D01*
G01*
X78699999Y-75700000D01*
G75*
G02*
X78450000Y-75450001I0J249999D01*
G01*
G37*
G36*
G01*
X61549999Y-84450000D02*
X62450001Y-84450000D01*
G75*
G02*
X62700000Y-84699999I0J-249999D01*
G01*
X62700000Y-85350001D01*
G75*
G02*
X62450001Y-85600000I-249999J0D01*
G01*
X61549999Y-85600000D01*
G75*
G02*
X61300000Y-85350001I0J249999D01*
G01*
X61300000Y-84699999D01*
G75*
G02*
X61549999Y-84450000I249999J0D01*
G01*
G37*
G36*
G01*
X61549999Y-82400000D02*
X62450001Y-82400000D01*
G75*
G02*
X62700000Y-82649999I0J-249999D01*
G01*
X62700000Y-83300001D01*
G75*
G02*
X62450001Y-83550000I-249999J0D01*
G01*
X61549999Y-83550000D01*
G75*
G02*
X61300000Y-83300001I0J249999D01*
G01*
X61300000Y-82649999D01*
G75*
G02*
X61549999Y-82400000I249999J0D01*
G01*
G37*
G36*
G01*
X56549999Y-86400000D02*
X57450001Y-86400000D01*
G75*
G02*
X57700000Y-86649999I0J-249999D01*
G01*
X57700000Y-87300001D01*
G75*
G02*
X57450001Y-87550000I-249999J0D01*
G01*
X56549999Y-87550000D01*
G75*
G02*
X56300000Y-87300001I0J249999D01*
G01*
X56300000Y-86649999D01*
G75*
G02*
X56549999Y-86400000I249999J0D01*
G01*
G37*
G36*
G01*
X56549999Y-88450000D02*
X57450001Y-88450000D01*
G75*
G02*
X57700000Y-88699999I0J-249999D01*
G01*
X57700000Y-89350001D01*
G75*
G02*
X57450001Y-89600000I-249999J0D01*
G01*
X56549999Y-89600000D01*
G75*
G02*
X56300000Y-89350001I0J249999D01*
G01*
X56300000Y-88699999D01*
G75*
G02*
X56549999Y-88450000I249999J0D01*
G01*
G37*
G36*
G01*
X52450001Y-78550000D02*
X51549999Y-78550000D01*
G75*
G02*
X51300000Y-78300001I0J249999D01*
G01*
X51300000Y-77649999D01*
G75*
G02*
X51549999Y-77400000I249999J0D01*
G01*
X52450001Y-77400000D01*
G75*
G02*
X52700000Y-77649999I0J-249999D01*
G01*
X52700000Y-78300001D01*
G75*
G02*
X52450001Y-78550000I-249999J0D01*
G01*
G37*
G36*
G01*
X52450001Y-80600000D02*
X51549999Y-80600000D01*
G75*
G02*
X51300000Y-80350001I0J249999D01*
G01*
X51300000Y-79699999D01*
G75*
G02*
X51549999Y-79450000I249999J0D01*
G01*
X52450001Y-79450000D01*
G75*
G02*
X52700000Y-79699999I0J-249999D01*
G01*
X52700000Y-80350001D01*
G75*
G02*
X52450001Y-80600000I-249999J0D01*
G01*
G37*
G36*
G01*
X58450001Y-72600000D02*
X57549999Y-72600000D01*
G75*
G02*
X57300000Y-72350001I0J249999D01*
G01*
X57300000Y-71699999D01*
G75*
G02*
X57549999Y-71450000I249999J0D01*
G01*
X58450001Y-71450000D01*
G75*
G02*
X58700000Y-71699999I0J-249999D01*
G01*
X58700000Y-72350001D01*
G75*
G02*
X58450001Y-72600000I-249999J0D01*
G01*
G37*
G36*
G01*
X58450001Y-70550000D02*
X57549999Y-70550000D01*
G75*
G02*
X57300000Y-70300001I0J249999D01*
G01*
X57300000Y-69649999D01*
G75*
G02*
X57549999Y-69400000I249999J0D01*
G01*
X58450001Y-69400000D01*
G75*
G02*
X58700000Y-69649999I0J-249999D01*
G01*
X58700000Y-70300001D01*
G75*
G02*
X58450001Y-70550000I-249999J0D01*
G01*
G37*
G36*
G01*
X78450000Y-78450001D02*
X78450000Y-77549999D01*
G75*
G02*
X78699999Y-77300000I249999J0D01*
G01*
X79350001Y-77300000D01*
G75*
G02*
X79600000Y-77549999I0J-249999D01*
G01*
X79600000Y-78450001D01*
G75*
G02*
X79350001Y-78700000I-249999J0D01*
G01*
X78699999Y-78700000D01*
G75*
G02*
X78450000Y-78450001I0J249999D01*
G01*
G37*
G36*
G01*
X76400000Y-78450001D02*
X76400000Y-77549999D01*
G75*
G02*
X76649999Y-77300000I249999J0D01*
G01*
X77300001Y-77300000D01*
G75*
G02*
X77550000Y-77549999I0J-249999D01*
G01*
X77550000Y-78450001D01*
G75*
G02*
X77300001Y-78700000I-249999J0D01*
G01*
X76649999Y-78700000D01*
G75*
G02*
X76400000Y-78450001I0J249999D01*
G01*
G37*
G36*
G01*
X114450000Y-80450001D02*
X114450000Y-79549999D01*
G75*
G02*
X114699999Y-79300000I249999J0D01*
G01*
X115350001Y-79300000D01*
G75*
G02*
X115600000Y-79549999I0J-249999D01*
G01*
X115600000Y-80450001D01*
G75*
G02*
X115350001Y-80700000I-249999J0D01*
G01*
X114699999Y-80700000D01*
G75*
G02*
X114450000Y-80450001I0J249999D01*
G01*
G37*
G36*
G01*
X112400000Y-80450001D02*
X112400000Y-79549999D01*
G75*
G02*
X112649999Y-79300000I249999J0D01*
G01*
X113300001Y-79300000D01*
G75*
G02*
X113550000Y-79549999I0J-249999D01*
G01*
X113550000Y-80450001D01*
G75*
G02*
X113300001Y-80700000I-249999J0D01*
G01*
X112649999Y-80700000D01*
G75*
G02*
X112400000Y-80450001I0J249999D01*
G01*
G37*
G36*
G01*
X117549999Y-79400000D02*
X118450001Y-79400000D01*
G75*
G02*
X118700000Y-79649999I0J-249999D01*
G01*
X118700000Y-80300001D01*
G75*
G02*
X118450001Y-80550000I-249999J0D01*
G01*
X117549999Y-80550000D01*
G75*
G02*
X117300000Y-80300001I0J249999D01*
G01*
X117300000Y-79649999D01*
G75*
G02*
X117549999Y-79400000I249999J0D01*
G01*
G37*
G36*
G01*
X117549999Y-81450000D02*
X118450001Y-81450000D01*
G75*
G02*
X118700000Y-81699999I0J-249999D01*
G01*
X118700000Y-82350001D01*
G75*
G02*
X118450001Y-82600000I-249999J0D01*
G01*
X117549999Y-82600000D01*
G75*
G02*
X117300000Y-82350001I0J249999D01*
G01*
X117300000Y-81699999D01*
G75*
G02*
X117549999Y-81450000I249999J0D01*
G01*
G37*
G36*
G01*
X113450001Y-76550000D02*
X112549999Y-76550000D01*
G75*
G02*
X112300000Y-76300001I0J249999D01*
G01*
X112300000Y-75649999D01*
G75*
G02*
X112549999Y-75400000I249999J0D01*
G01*
X113450001Y-75400000D01*
G75*
G02*
X113700000Y-75649999I0J-249999D01*
G01*
X113700000Y-76300001D01*
G75*
G02*
X113450001Y-76550000I-249999J0D01*
G01*
G37*
G36*
G01*
X113450001Y-78600000D02*
X112549999Y-78600000D01*
G75*
G02*
X112300000Y-78350001I0J249999D01*
G01*
X112300000Y-77699999D01*
G75*
G02*
X112549999Y-77450000I249999J0D01*
G01*
X113450001Y-77450000D01*
G75*
G02*
X113700000Y-77699999I0J-249999D01*
G01*
X113700000Y-78350001D01*
G75*
G02*
X113450001Y-78600000I-249999J0D01*
G01*
G37*
G36*
G01*
X126450001Y-62550000D02*
X125549999Y-62550000D01*
G75*
G02*
X125300000Y-62300001I0J249999D01*
G01*
X125300000Y-61649999D01*
G75*
G02*
X125549999Y-61400000I249999J0D01*
G01*
X126450001Y-61400000D01*
G75*
G02*
X126700000Y-61649999I0J-249999D01*
G01*
X126700000Y-62300001D01*
G75*
G02*
X126450001Y-62550000I-249999J0D01*
G01*
G37*
G36*
G01*
X126450001Y-64600000D02*
X125549999Y-64600000D01*
G75*
G02*
X125300000Y-64350001I0J249999D01*
G01*
X125300000Y-63699999D01*
G75*
G02*
X125549999Y-63450000I249999J0D01*
G01*
X126450001Y-63450000D01*
G75*
G02*
X126700000Y-63699999I0J-249999D01*
G01*
X126700000Y-64350001D01*
G75*
G02*
X126450001Y-64600000I-249999J0D01*
G01*
G37*
G36*
G01*
X168600000Y-92549999D02*
X168600000Y-93450001D01*
G75*
G02*
X168350001Y-93700000I-249999J0D01*
G01*
X167699999Y-93700000D01*
G75*
G02*
X167450000Y-93450001I0J249999D01*
G01*
X167450000Y-92549999D01*
G75*
G02*
X167699999Y-92300000I249999J0D01*
G01*
X168350001Y-92300000D01*
G75*
G02*
X168600000Y-92549999I0J-249999D01*
G01*
G37*
G36*
G01*
X166550000Y-92549999D02*
X166550000Y-93450001D01*
G75*
G02*
X166300001Y-93700000I-249999J0D01*
G01*
X165649999Y-93700000D01*
G75*
G02*
X165400000Y-93450001I0J249999D01*
G01*
X165400000Y-92549999D01*
G75*
G02*
X165649999Y-92300000I249999J0D01*
G01*
X166300001Y-92300000D01*
G75*
G02*
X166550000Y-92549999I0J-249999D01*
G01*
G37*
G36*
G01*
X184450000Y-84450001D02*
X184450000Y-83549999D01*
G75*
G02*
X184699999Y-83300000I249999J0D01*
G01*
X185350001Y-83300000D01*
G75*
G02*
X185600000Y-83549999I0J-249999D01*
G01*
X185600000Y-84450001D01*
G75*
G02*
X185350001Y-84700000I-249999J0D01*
G01*
X184699999Y-84700000D01*
G75*
G02*
X184450000Y-84450001I0J249999D01*
G01*
G37*
G36*
G01*
X182400000Y-84450001D02*
X182400000Y-83549999D01*
G75*
G02*
X182649999Y-83300000I249999J0D01*
G01*
X183300001Y-83300000D01*
G75*
G02*
X183550000Y-83549999I0J-249999D01*
G01*
X183550000Y-84450001D01*
G75*
G02*
X183300001Y-84700000I-249999J0D01*
G01*
X182649999Y-84700000D01*
G75*
G02*
X182400000Y-84450001I0J249999D01*
G01*
G37*
G36*
G01*
X182400000Y-78450001D02*
X182400000Y-77549999D01*
G75*
G02*
X182649999Y-77300000I249999J0D01*
G01*
X183300001Y-77300000D01*
G75*
G02*
X183550000Y-77549999I0J-249999D01*
G01*
X183550000Y-78450001D01*
G75*
G02*
X183300001Y-78700000I-249999J0D01*
G01*
X182649999Y-78700000D01*
G75*
G02*
X182400000Y-78450001I0J249999D01*
G01*
G37*
G36*
G01*
X184450000Y-78450001D02*
X184450000Y-77549999D01*
G75*
G02*
X184699999Y-77300000I249999J0D01*
G01*
X185350001Y-77300000D01*
G75*
G02*
X185600000Y-77549999I0J-249999D01*
G01*
X185600000Y-78450001D01*
G75*
G02*
X185350001Y-78700000I-249999J0D01*
G01*
X184699999Y-78700000D01*
G75*
G02*
X184450000Y-78450001I0J249999D01*
G01*
G37*
G36*
G01*
X196549999Y-88900000D02*
X197450001Y-88900000D01*
G75*
G02*
X197700000Y-89149999I0J-249999D01*
G01*
X197700000Y-89800001D01*
G75*
G02*
X197450001Y-90050000I-249999J0D01*
G01*
X196549999Y-90050000D01*
G75*
G02*
X196300000Y-89800001I0J249999D01*
G01*
X196300000Y-89149999D01*
G75*
G02*
X196549999Y-88900000I249999J0D01*
G01*
G37*
G36*
G01*
X196549999Y-90950000D02*
X197450001Y-90950000D01*
G75*
G02*
X197700000Y-91199999I0J-249999D01*
G01*
X197700000Y-91850001D01*
G75*
G02*
X197450001Y-92100000I-249999J0D01*
G01*
X196549999Y-92100000D01*
G75*
G02*
X196300000Y-91850001I0J249999D01*
G01*
X196300000Y-91199999D01*
G75*
G02*
X196549999Y-90950000I249999J0D01*
G01*
G37*
G36*
G01*
X200950000Y-91950001D02*
X200950000Y-91049999D01*
G75*
G02*
X201199999Y-90800000I249999J0D01*
G01*
X201850001Y-90800000D01*
G75*
G02*
X202100000Y-91049999I0J-249999D01*
G01*
X202100000Y-91950001D01*
G75*
G02*
X201850001Y-92200000I-249999J0D01*
G01*
X201199999Y-92200000D01*
G75*
G02*
X200950000Y-91950001I0J249999D01*
G01*
G37*
G36*
G01*
X198900000Y-91950001D02*
X198900000Y-91049999D01*
G75*
G02*
X199149999Y-90800000I249999J0D01*
G01*
X199800001Y-90800000D01*
G75*
G02*
X200050000Y-91049999I0J-249999D01*
G01*
X200050000Y-91950001D01*
G75*
G02*
X199800001Y-92200000I-249999J0D01*
G01*
X199149999Y-92200000D01*
G75*
G02*
X198900000Y-91950001I0J249999D01*
G01*
G37*
G36*
G01*
X198900000Y-89450001D02*
X198900000Y-88549999D01*
G75*
G02*
X199149999Y-88300000I249999J0D01*
G01*
X199800001Y-88300000D01*
G75*
G02*
X200050000Y-88549999I0J-249999D01*
G01*
X200050000Y-89450001D01*
G75*
G02*
X199800001Y-89700000I-249999J0D01*
G01*
X199149999Y-89700000D01*
G75*
G02*
X198900000Y-89450001I0J249999D01*
G01*
G37*
G36*
G01*
X200950000Y-89450001D02*
X200950000Y-88549999D01*
G75*
G02*
X201199999Y-88300000I249999J0D01*
G01*
X201850001Y-88300000D01*
G75*
G02*
X202100000Y-88549999I0J-249999D01*
G01*
X202100000Y-89450001D01*
G75*
G02*
X201850001Y-89700000I-249999J0D01*
G01*
X201199999Y-89700000D01*
G75*
G02*
X200950000Y-89450001I0J249999D01*
G01*
G37*
D22*
X97500000Y-67250000D03*
X102500000Y-72750000D03*
X97500000Y-66000000D03*
X102500000Y-74000000D03*
X134500000Y-139500000D03*
X126500000Y-144500000D03*
X133250000Y-139500000D03*
X127750000Y-144500000D03*
X170000000Y-79000000D03*
X162000000Y-84000000D03*
X168750000Y-79000000D03*
X163250000Y-84000000D03*
X190000000Y-55500000D03*
X182000000Y-60500000D03*
X188750000Y-55500000D03*
X183250000Y-60500000D03*
X217500000Y-61750000D03*
X222500000Y-67250000D03*
X217500000Y-60500000D03*
X222500000Y-68500000D03*
D25*
X87000000Y-90000000D03*
X141000000Y-73000000D03*
X229500000Y-62500000D03*
X70090000Y-123890000D03*
X85000000Y-123000000D03*
X121000000Y-115000000D03*
X170000000Y-135000000D03*
X219500000Y-133500000D03*
X209500000Y-136500000D03*
X209500000Y-120000000D03*
X114000000Y-56000000D03*
X84000000Y-79000000D03*
X130100000Y-53600000D03*
D26*
X219200000Y-122950000D03*
X216800000Y-122950000D03*
X216800000Y-121050000D03*
X219200000Y-122000000D03*
X216800000Y-122000000D03*
X219200000Y-121050000D03*
D27*
X216000000Y-108000000D03*
D28*
X231240000Y-100380000D03*
X218540000Y-108000000D03*
X228700000Y-100380000D03*
X221080000Y-108000000D03*
X226160000Y-100380000D03*
X223620000Y-108000000D03*
X223620000Y-100380000D03*
X226160000Y-108000000D03*
X221080000Y-100380000D03*
X228700000Y-108000000D03*
X218540000Y-100380000D03*
X231240000Y-108000000D03*
X216000000Y-100380000D03*
D29*
X177900000Y-81950000D03*
X177900000Y-81000000D03*
X177900000Y-80050000D03*
X180100000Y-80050000D03*
X180100000Y-81950000D03*
X180100000Y-81000000D03*
D30*
X194460000Y-82540000D03*
X194460000Y-80000000D03*
X194460000Y-77460000D03*
X199540000Y-77460000D03*
X199540000Y-80000000D03*
X199540000Y-82540000D03*
D10*
X55000000Y-96000000D03*
X55000000Y-100880000D03*
X61000000Y-107880000D03*
X61000000Y-103000000D03*
X55000000Y-110000000D03*
X55000000Y-114880000D03*
X58120000Y-131000000D03*
X63000000Y-131000000D03*
X58000000Y-138000000D03*
X62880000Y-138000000D03*
X70880000Y-145000000D03*
X66000000Y-145000000D03*
D12*
X144600000Y-117100000D03*
X153600000Y-109600000D03*
X126000000Y-80500000D03*
X118500000Y-71500000D03*
X223500000Y-83000000D03*
X232500000Y-75500000D03*
G36*
G01*
X160549999Y-58400000D02*
X161450001Y-58400000D01*
G75*
G02*
X161700000Y-58649999I0J-249999D01*
G01*
X161700000Y-59300001D01*
G75*
G02*
X161450001Y-59550000I-249999J0D01*
G01*
X160549999Y-59550000D01*
G75*
G02*
X160300000Y-59300001I0J249999D01*
G01*
X160300000Y-58649999D01*
G75*
G02*
X160549999Y-58400000I249999J0D01*
G01*
G37*
G36*
G01*
X160549999Y-60450000D02*
X161450001Y-60450000D01*
G75*
G02*
X161700000Y-60699999I0J-249999D01*
G01*
X161700000Y-61350001D01*
G75*
G02*
X161450001Y-61600000I-249999J0D01*
G01*
X160549999Y-61600000D01*
G75*
G02*
X160300000Y-61350001I0J249999D01*
G01*
X160300000Y-60699999D01*
G75*
G02*
X160549999Y-60450000I249999J0D01*
G01*
G37*
G36*
G01*
X144350000Y-54150001D02*
X144350000Y-53249999D01*
G75*
G02*
X144599999Y-53000000I249999J0D01*
G01*
X145250001Y-53000000D01*
G75*
G02*
X145500000Y-53249999I0J-249999D01*
G01*
X145500000Y-54150001D01*
G75*
G02*
X145250001Y-54400000I-249999J0D01*
G01*
X144599999Y-54400000D01*
G75*
G02*
X144350000Y-54150001I0J249999D01*
G01*
G37*
G36*
G01*
X142300000Y-54150001D02*
X142300000Y-53249999D01*
G75*
G02*
X142549999Y-53000000I249999J0D01*
G01*
X143200001Y-53000000D01*
G75*
G02*
X143450000Y-53249999I0J-249999D01*
G01*
X143450000Y-54150001D01*
G75*
G02*
X143200001Y-54400000I-249999J0D01*
G01*
X142549999Y-54400000D01*
G75*
G02*
X142300000Y-54150001I0J249999D01*
G01*
G37*
M02*
